<svg id="Layer_1" xmlns="http://www.w3.org/2000/svg" viewBox="167 -279 364.5 588"><style>.st0{fill:#FFFFFF;}</style><path class="st0" d="M348.8 298.3c-2.4-.1-4.9-.2-7.3-.3-12-.4-24-.7-35.9-1.2-9.5-.4-19-.7-28.5-1.6-6.8-.6-13.6-2-20.3-3.3-9.7-1.9-19.2-4.4-28-8.9-4.4-2.2-9.1-3.2-13.5-5-1.6-.6-3.2-1.3-4.7-2.2-.9-.5-1.7-1.2-2.4-1.9-1.8-1.9-1.8-4-.2-5.9.5-.6.5-1 .1-1.6-.7-1.1-1.4-2.2-2-3.4-.4-.8-1-1.3-1.8-1.6-4-1.6-7.8-3.4-11.2-6.2-1.2-1-2.3-2.1-3.3-3.3-2.5-3.3-2.4-7.1.1-10.4 2.3-3 5.3-5.2 8.6-6.7 2.6-1.1 3.6-2.5 3.6-5.4-.1-3.7.4-7.4.7-11.1.1-.8-.2-1.2-.9-1.5-4.2-1.7-8.4-3.6-12.1-6.3-1.4-1-2.7-2.2-3.7-3.5-2.2-2.8-1.8-6 1.1-8.1 1.9-1.4 4-2.5 6.2-3.2 3.1-1 6.4-1.7 9.6-2.4.9-.2 1.2-.5 1.3-1.4 1-8.3 2.1-16.6 3.1-24.8.2-1.7.6-3.5.9-5.2.1-.5 0-1.2-.2-1.6-2.4-3.7-2.1-6.9 1.4-9.7 1-.8 1.5-1.7 1.7-3 .8-3.8 1.8-7.6 2.7-11.4.1-.5.1-1.1-.2-1.4-2.7-4.2-2.6-8.4 0-12.4 1.5-2.3 3.7-4.3 5.5-6.4.4-.4.8-.8.9-1.3 3.3-9.6 6.9-19 11.2-28.1.1-.1.1-.3.2-.6-.6-.3-1.3-.6-1.9-1.1-2-1.4-4.2-2.6-5.9-4.3-3.3-3.2-3.1-7.1.1-10.4 3-3 6.8-4.7 10.7-6.2 3.2-1.2 6.5-2.1 9.8-3.2.5-.2 1-.5 1.3-.9 9.8-16.6 17.9-33.9 23.3-52.4.4-1.2.4-2-.7-3-2.7-2.6-2.6-5.8.1-8.3 1-.9 2.2-1.5 3.2-2.3.3-.3.8-.7.8-1 .8-6.5 1.6-13.1 2.5-19.6.1-1.1-.2-1.7-1.2-2.3-1-.5-1.9-1.3-2.7-2.1-2-2-1.8-4.5.4-6.2.8-.7 1.8-1.2 2.7-1.8-.8-.6-1.7-1.1-2.5-1.7-3.5-2.7-3.8-6-.7-9.2.6-.7.4-1.1.1-1.7-3.3-8.1-7.6-15.7-12.8-22.7-2.6-3.5-5.5-6.8-8-10.3-1.1-1.5-2.3-2.6-3.9-3.5-2.2-1.4-4.4-2.9-6.3-4.7-4.3-4.1-4-9 .7-12.7 1-.8 1.3-1.5 1.1-2.7-1.1-9.8.2-19.5 1.8-29.2.4-2.2.7-4.3 1.1-6.5.1-.7-.1-1.1-.8-1.5-1.5-.9-3.1-1.8-4.3-2.9-2.2-2-2.1-4.5.1-6.6 1-.9 2.1-1.6 3.3-2.4-.4-.2-.8-.4-1.1-.7-1.3-1.1-2.7-2.2-3.7-3.5-1.5-2.1-1-4.9 1-7 .8-.8 1.6-1.5 2.8-2.5-.3-.2-.7-.3-1-.6-2.2-2.1-2.5-4.7-1-7.3.4-.6.9-1.2 1.4-1.8.5-.5 1.3-1 1.3-1.6 0-1.3-.3-2.6-.6-3.9-.1-.3-.4-.4-.7-.7-.8-.8-1.8-1.5-2.5-2.4-2.9-3.4-2.9-7.5 0-10.8.7-.8.7-1.5.6-2.4-.1-2.1-.9-3.6-2.8-4.6-.7-.4-1.3-1.1-1.9-1.7-2.8-3.2-2.5-6.9.6-9.9.3-.3.6-.6.6-.7-.6-.8-1.2-1.6-1.9-2.3-2.3-2.7-2.4-5.9-.1-8.6.8-.9.9-1.8.8-2.9-.5-4.3-.8-8.6-.3-12.9 0-.4-.1-1-.3-1.3-1.5-2.3-1.4-4.5.8-6.3 1.5-1.2 2.5-2.8 3.6-4.4 3.1-4.9 7.6-8.1 13.2-9.7.5-.1.9-.3 1.3-.5h4.8c1.1.2 2.3.3 3.4.5 5.5.9 9.6 3.5 11.9 8.7.5 1.2 1.2 2.1 2.4 2.8 2.3 1.4 2.5 3.2 1.1 5.4-.3.4-.4 1.1-.2 1.5 1.4 5.4 2.9 10.7 4.4 16.1.2.9.8 1.7 1.3 2.5 1 1.3 1.5 2.7 1.3 4.3-.3 2.7 0 5.3 2.7 6.9.6.3 1.1.8 1.6 1.3 2.8 2.7 3 5.4.6 8.5-.2.3-.3.9-.2 1.2.4 1.4.9 2.8 1.3 4.2.3 1 .8 1.7 1.6 2.5 2.4 2.2 3.7 4.8 2.5 8.1-.1.3-.1.7 0 .9.7 1.5 1.2 3.2 3.2 3.6.6.1 1.2.6 1.8 1 1.7 1.2 2.7 2.8 2.2 5-.1.4.1 1 .4 1.2 1.4 1.2 2.8 2.5 4.4 3.6 7.2 5 15.4 6.8 24.1 6.9 14 .1 28.1.1 42.1 0 3.6 0 7.3-.4 10.8-1 7-1.2 13.2-4.1 18.5-8.9.5-.5.6-.8.3-1.5-.9-2-.6-3.9 1-5.4 1.1-1 2.4-1.7 3.7-2.5.7-.4 1.4-.6 2.2-.9-1.3-4 .1-7.1 2.9-9.5 2.3-2 2.6-4.7 3-7.3.3-1.8.6-3.4 1.5-5 .3-.4.5-.8.7-1.3.8-2.5 1.5-5 2.2-7.5.1-.3.2-.7.1-1-1.2-3-.2-5.4 2-7.6.3-.3.6-.7.8-1.2 1.3-4.6 2.5-9.1 3.7-13.7.1-.4 0-1-.2-1.3-1.4-2.3-1.2-4.6 1-6.1 1.3-.9 2-2.1 2.4-3.5.2-.5.4-1 .6-1.6 2.1-5.1 5.9-8.2 11.3-9.2 1.4-.3 2.8-.5 4.2-.7h5c.2.1.3.2.5.3 4.9 1.2 8.9 3.7 12.3 7.5 3.4 3.8 4.5 8.7 6.1 13.2.3.7-.2 1.6-.2 2.5.4 4.9-.2 9.8-.8 14.7-.1.8.1 1.3.6 1.9 2 2.6 1.8 5.2-.4 7.5-.4.4-.8.7-1.1 1.1-.3.3-.5.7-.6 1.1-1 6.2-2.1 12.4-3.1 18.6-.1.5.1 1.2.4 1.6 2.9 4 2.5 7.7-1.2 10.9-1.1 1-1.4 2-1.7 3.3-.4 1.5.3 2.4 1.2 3.4 2.4 2.7 2 5.5-1.1 7.3-1.4.8-1.9 1.8-1.9 3.2 0 .2 0 .5-.1.7-.2.7.1 1.1.7 1.6 1.4 1.1 2.9 2.2 4 3.5 1.9 2.2 1.6 4.7-.7 6.5-.9.8-2 1.5-3.2 1.9-1.5.5-2 1.3-1.9 2.9.1.9.3 1.3 1.1 1.7 1.4.8 2.8 1.7 4 2.8 1.7 1.6 1.6 3.5-.2 5-1 .9-2.3 1.4-3.4 2.2-.3.2-.8.6-.8 1-.4 5.4-.8 10.8-1.2 16.1-.1.7.2 1 .8 1.4 1.1.7 2.2 1.4 3.2 2.3 2.4 2.3 2.3 4.9-.3 6.9-1.4 1.1-3.1 2-4.7 2.8-.8.4-1.2.9-1.3 1.7-1.5 7.6-3.4 15.1-6.3 22.3-.2.4-.2 1-.1 1.5.8 2.3.4 4.4-1.2 6.1-1.2 1.2-2.6 2.2-4 3.2-.5.4-1.1.9-1.4 1.4-2.9 6.1-5.8 12.2-8.7 18.2-.5 1-.4 1.6.5 2.4 2.5 2.2 2.5 4.7.1 7-1.1 1.1-2.6 1.8-3.9 2.8-.4.3-.8.8-1 1.3-.9 3.6-1.1 7.2-1 10.8 0 1.1.4 1.6 1.4 2.2 2 1 4 2.1 5.7 3.5 1.8 1.5 1.6 3.5-.3 4.8-1.5 1-3.3 1.6-4.9 2.4-.3.1-.8.4-.8.5.3 1.6-.3 3.4 1.3 4.7 1.2 1 1.2 2 .4 3.3-.3.5-.5 1.2-.3 1.8 1.6 6.7 3.3 13.4 4.9 20.1.2.9.7 1.3 1.5 1.7 2.1 1.2 4.3 2.3 6.1 3.9 2.6 2.3 2.6 5.1.2 7.7-.7.8-1.5 1.4-2.4 2.3 2.7 5.8 5.4 11.6 8.2 17.4.2.4.8.8 1.2 1.1 2.7 1.7 5.6 3.1 8.1 5 1.7 1.2 3.1 2.9 4.2 4.6 1.5 2.2 1.2 4.7-.4 6.8-.6.8-1.4 1.5-2 2.3.6 1.8 1.8 3.1 3.7 3.5.5.1.9.3 1.3.5 3.9 1.7 7.9 3.4 11 6.5 3 3.1 2.9 6.5-.3 9.4-.7.6-1.4 1.2-2.3 1.9.4.2.8.4 1.1.5 2.4 1.6 5.1 2.9 7.3 4.8 4.5 3.8 5.1 9.1 1.8 14-.7 1-1.4 1.9-2.2 2.8-.5.5-.5.9-.3 1.6 5.2 14.4 9.1 29.1 12.1 44.1.2 1.2.8 1.7 1.9 2.1 4.7 1.6 9.2 3.4 13.4 6.1 2.5 1.6 4.6 3.4 5.5 6.4v1.4c-.8 2.6-2.6 4.3-4.9 5.5-1.8 1-3.6 1.8-5.5 2.6s-4 1.4-6 2.1c.1.6.1 1.3.2 1.9.4 3.3.8 6.7 1.1 10 .1.9.3 1.4 1.2 1.8 2.6 1.2 5.1 2.5 7 4.7s1.9 4.4 0 6.6c-1.6 1.9-3.8 3.1-6 4.2-.7.3-1 .7-1 1.5.5 7.4.8 14.8 1.3 22.1 0 .3.2.8.5 1 1.9 1.4 3.8 2.9 5.8 4.2 2.9 2.1 5.5 4.4 6.4 8.1v1.9c-1.1 3.9-3.9 6.4-7.2 8.3-2.5 1.5-5.2 2.6-7.8 4-.5.3-1 .8-1.3 1.3-1.6 2.6-3 5.4-4.9 7.8-4.9 6.3-11.5 10.5-18.7 13.9-9.6 4.5-19.9 7.2-30.3 9.3-18.2 3.7-36.7 5-55.3 5.5-3 .1-5.9.2-8.9.3-9.9.3-20.1.3-30.4.3zm-109.7-72.6c0 .1 0 .2.1.3.1 0 .2.1.3.1 8.8 2 17.5 4.3 26.4 6 14.3 2.8 28.6 5.4 42.9 7.8 11.6 1.9 23.2 3.4 34.9 4.9 11 1.4 22 2.7 33 3.7 10.4 1 20.9 1.9 31.3 2.5 13.2.7 26.5 1.2 39.8 1.5 10.2.2 20.4 0 30.5-1.1 5.9-.6 11.8-1.8 17.8-2.6 1.2-.2 1.6-.8 1.6-1.9 0-4.1.1-8.1.1-12.2 0-.8-.3-1.3-1.1-1.5-6.1-1.8-12.1-4.1-18.4-5.4-9.6-2.1-19.4-3.6-29.1-5.3-2.7-.5-5.5-.9-8.2-.7-6.4.4-12.8 1.3-19.2 1.8-9.8.7-19.5 1.4-29.3 1.8-9.1.4-18.1.8-27.2.8-13.6.1-27.2 0-40.8-.3-9.6-.2-19.2-.8-28.9-1.4-8.5-.5-17-1.4-25.4-2.1-2.1-.2-4.3-.7-6.4-.4-6.1.7-12.1 1.6-18.2 2.5-2.2.4-4.3.9-6.5 1.2zM468.5 88c-1.9 1.2-3.6 2.1-5.2 3.3-4.1 3.1-8.8 5-13.6 6.6-15.4 5.1-31.4 7.8-47.4 9.8-9.4 1.1-18.8 2.1-28.2 2.7-10.4.7-20.9 1.2-31.4 1.3-10.1.1-20.1-.1-30.2-.4-11.4-.4-22.7-1.3-34-2.8-8.5-1.1-17-2.4-25.3-4.7-2.1-.6-3.9-.5-6 .3-8 3.3-15.9 6.8-23 11.8-.6.4-1.1 1.1-1.3 1.7-1.7 5.4-3.2 10.8-4.9 16.2-.4 1.1-.2 1.9.8 2.5.3.2.5.5.8.6.4.1 1 .3 1.4.1 3.6-1.4 7.1-3.1 10.8-4.2 14-4.2 28.4-6.3 42.9-7.9 9.5-1 18.9-1.9 28.4-2.4 11.6-.7 23.2-1.2 34.9-1.3 13.7-.1 27.3.1 41 .6 11.2.4 22.4 1.2 33.6 2.3 10 .9 20 2.5 30 3.7.8.1 1.6 0 2.3-.2 4-1.5 7.9-2.9 11.8-4.6 7.1-3 14-6.5 20.1-11.3.7-.5.9-1 .5-1.8-1.9-4.7-3.7-9.4-5.6-14.2-.9-2.5-2-4.9-3.2-7.7zm11.4 178v-.5c-1.9-.6-3.8-1.3-5.8-1.8-11.3-3-22.9-4.7-34.5-5.7-12.9-1.1-25.7-2-38.6-2.6-12.9-.6-25.9-.8-38.8-.9-10.9-.1-21.8 0-32.7.2-9.4.2-18.7.3-28 .9-13.5.8-27 1.7-40.4 2.8-10.9.9-21.7 2.4-32.4 4.6-2.1.4-4.1.9-6.1 1.4.3.3.6.4.8.5 8.4 1.7 16.7 3.7 25.1 5.1 10 1.6 20 2.9 30.1 3.9 9.7 1 19.3 1.8 29 2.3 10 .6 20 1 30.1 1.2 12.2.2 24.4.2 36.6-.1 12.7-.3 25.4-1 38.1-1.7 8.2-.5 16.3-1.3 24.5-2.2 8.7-1 17.4-2.4 26.1-3.8 5.5-1.1 11.2-2.4 16.9-3.6zM350 176.2v-.2h1.2c8.2.1 16.4.2 24.6.4 8.5.2 17 .5 25.5 1.1 11 .8 22.1 1.7 33.1 2.8 8.9.9 17.8 2.3 26.7 3.5 2.9.4 5.7 1.4 8.6.8 7.7-1.4 15.3-2.7 23-4 1-.2 1.2-.6 1.1-1.5-1.3-7.7-2.5-15.4-3.8-23.2-.1-.8-.4-1.2-1.2-1.4-3-.8-6-1.6-9-2.3-.6-.1-1.3 0-1.8.2-2.8.9-5.6 2.1-8.5 2.8-15.1 4.2-30.6 6.3-46.1 7.9-10.1 1-20.2 1.9-30.3 2.4-13.2.7-26.4 1.3-39.7 1.3-14.3.1-28.7-.4-43-.9-8-.3-16-.8-24-1.5-9-.8-18-1.9-26.9-3-9.3-1.2-18.5-2.9-27.4-5.6-4.6-1.3-9.2-2.8-13.1-5.7-1.2-.8-2-1-3.2-.2-.3.2-.6.2-.8.5-.4.4-.8.8-.9 1.2-.6 2.6-1 5.3-1.6 7.9-.2.8.1 1.2.7 1.6 1.8 1 3.5 2.2 5.4 3.1 6.3 3.1 13.1 5.1 19.9 6.9 11.4 3.1 23 5.3 34.7 7.2 2.2.4 4.4 1 6.5.9 7.3-.4 14.6-1.2 21.9-1.6 10.8-.6 21.6-1 32.5-1.4 5-.1 10.4 0 15.9 0zm-124.2 14.3c0 .1 0 .2.1.3h1.1c5.9-.2 11.7-.5 17.6-.4 11.4.1 22.9.2 34.3.8 14.9.8 29.8 2 44.7 3.3 10.9 1 21.8 2.2 32.6 3.7 15.2 2.2 30.4 4.5 45.6 7.1 19.8 3.4 39.3 7.8 58.7 13.1.5.1 1.1.2 1.6.1 6.3-1.1 12.7-2.1 19-3.5 4.9-1.1 9.6-2.7 14.4-4 .6-.2 1.1-.3 1-1.2-.4-5.4-.8-10.8-1.1-16.3-.1-.9-.4-1.3-1.2-1.6-7.6-2.4-15.3-4.2-23.2-5.5-2.3-.4-4.7-.7-7.1-.7-2.9.1-5.8.7-8.7.8-10.7.7-21.4 1.5-32.1 1.9-10.9.4-21.8.5-32.7.5-9.1 0-18.2-.2-27.3-.5-6.4-.2-12.8-.4-19.2-.9-10.2-.7-20.3-1.4-30.5-2.3-7.9-.7-15.8-1.7-23.7-2.5-2.1-.2-4.1-.8-6.2-.7-5.8.4-11.6.9-17.4 1.6-10.1 1.4-20.2 2.9-30.2 4.5-3.4.8-6.8 1.7-10.1 2.4zm232 28.6v-.2c-.2-.1-.4-.2-.7-.2-14.1-3.4-28.2-6.3-42.5-8.7-8.7-1.5-17.4-2.9-26.1-4.2-8.9-1.3-17.8-2.5-26.7-3.7-7.8-1-15.6-1.9-23.5-2.7-8.7-.9-17.3-1.8-26-2.5-8-.7-16.1-1.3-24.2-1.8-9.3-.5-18.6-1-27.9-1.3-8.3-.2-16.6-.3-24.9-.1-7.3.2-14.7.6-22 1.3-2 .2-3.9 1.8-5.9 2.8-.2 1.2-.3 2.5-.5 3.7v.6c-.8 2.5.5 3.8 2.6 4.8 4.4 2.3 9.2 3.9 14 5.3 9.8 2.7 19.9 4.5 29.9 6 3.4.5 6.8 1 10.3.6 12.2-1.3 24.3-2.5 36.5-3.5 15.7-1.3 31.5-1.6 47.2-1.6 10.3 0 20.5.3 30.8.6 5.8.2 11.6.5 17.4.9 8.2.6 16.4 1.3 24.6 2.1 6.4.6 12.7 1.5 19 2.3 2.4.3 4.8 1 7.2.9 3.9-.2 7.6-.9 11.4-1.4zM220.5 148c0 .1 0 .3-.1.4 1.9.9 3.8 2 5.8 2.8 9.2 3.7 18.9 5.5 28.6 7.2 13.1 2.2 26.3 3.8 39.6 4.6 13.6.8 27.1 1.6 40.7 2.1 9.3.3 18.6.2 27.9.2 8 0 15.9-.2 23.9-.5 8.4-.3 16.8-.8 25.1-1.3 12.6-.9 25.2-2.2 37.6-4.3 8.3-1.4 16.5-3.1 24.5-5.8 1.2-.4 2.4-.9 3.9-1.5-.5-.2-.6-.2-.8-.3-10.3-1.8-20.6-3.9-31-5.5-8.2-1.3-16.4-2.1-24.6-3-7.7-.8-15.4-1.4-23.2-2.1-.5 0-1 0-1.4.1-9.9 1.8-19.8 3.9-29.8 5.3-12.4 1.7-24.8 3.1-37.3 4.2-10.5.9-21.1 1.2-31.7 1.5-13.3.3-26.5-.2-39.7-1.7-7.9-.9-15.9-2-23.5-4.3-2.8-.8-5.3-1-8-.1-2.2.8-4.4 1.4-6.5 2zm276.9 101c-.5.1-.8.1-1.1.2-3.9.7-7.7 1.5-11.6 2-11.3 1.4-22.7 1.8-34.1 1.9-14.6.2-29.2-.2-43.7-1.1-9.9-.6-19.9-1.2-29.8-2-10.1-.9-20.2-1.9-30.3-3-10.8-1.2-21.6-2.6-32.3-4.2-11.1-1.6-22.2-3.5-33.2-5.4-14.8-2.6-29.6-5.7-44.1-9.4-2.6-.7-5.1-.8-7.7-.2-7.9 1.9-15.7 3.8-23.2 6.8-.8.3-1.1.7-1.1 1.6.1 2.4 0 4.8 0 7.2.1 5.6.9 11.1 3.1 16.2.2.5.8 1 1.3 1.2 2.2.8 4.5 1.5 6.7 2.2.5.1 1 .1 1.5 0 7.5-2.4 15.2-3.8 23-5.1 16.2-2.6 32.5-4.1 48.9-5 11.1-.6 22.2-1.1 33.3-1.4 9.2-.2 18.4-.3 27.6-.2 11.8.2 23.6.4 35.4 1 10.9.5 21.9 1.3 32.8 2.2 13 1.1 26 2.7 38.9 5 7.9 1.4 15.7 2.9 23.2 5.9.4.2 1 .1 1.4 0 3.2-.9 6.4-1.9 9.7-2.8 1.4-.4 2.3-1.2 2.8-2.6 1.1-3.6 2.1-7.2 2.6-11zM277.1 94.5v.3l2.1.3c15.1 2.2 30.2 3.7 45.4 4.4 11.8.6 23.6 1 35.3 1.1 10 .1 20-.1 30-.5 16.2-.5 32.3-1.9 48.3-4.4 8.4-1.3 16.8-3.1 24.9-5.8 2.3-.7 3-2.4 3.4-4.5.2-.9-.2-1.5-1.2-1.7-3.9-.9-7.7-2-11.7-2.7-13.7-2.5-27.5-3.2-41.4-3.4-12.9-.1-25.8.3-38.7 1.4-12.6 1.1-25.1 2.4-37.7 3.9-15.5 1.9-30.9 4.8-46.1 8.3-4 1.2-8.3 2.3-12.6 3.3zm154-166.3c1.6-.5 3.1-1 4.6-1.4 1.3-.3 2.1-1 2.6-2.2.7-1.5 1.6-2.9 2.4-4.4 1.4-2.6 2.8-5.3 4.3-7.9.4-.8.3-1.3-.4-1.8-1.7-1.2-3.3-2.5-5.1-3.5-8.1-4.5-16.9-7.1-25.8-9.5-.3-.1-.6-.1-.8 0-3 .2-6 .6-9 .7-9.3.5-18.7 1.1-28 1.3-10.2.2-20.4 0-30.6-.1-6.4-.1-12.7-.4-19-.8-10.2-.8-20.5-1.7-30.7-2.8-9.8-1-19.5-2.7-29.2-4.9-2.4-.6-4.8-1.6-7.5-.9-4.2 1.2-8.5 2.2-12.5 4-.6.3-.9.5-.7 1.2 1 5.5 2.7 10.7 5.6 15.5.4.7 1.1 1.4 1.9 1.7 4.9 1.9 9.9 3.8 14.9 5.6.5.2 1.3.1 1.8-.1 3.2-1.1 6.4-2.4 9.6-3.3 13-3.6 26.3-5.1 39.6-6 11.5-.8 22.9-.9 34.4-.5 10.1.4 20.1 1.2 30.1 2.6 10.7 1.5 21.4 3.4 31.7 6.8 4.2 1.4 8.4 2.9 12 5.5 1.8 1.2 3.3 2.7 3.8 5.2zM213.2 267.7c.2.3.3.4.4.6 3.8 4.5 8.5 7.8 13.7 10.5.3.2.8.3 1.1.4 10.2 2.2 20.4 3.7 30.8 4.7 11.7 1.1 23.4 2.2 35.1 2.8 14.4.8 28.9 1.3 43.4 1.5 18.2.3 36.5.2 54.7-.6 7.5-.3 15-.6 22.5-1.2 10.1-.8 20.1-1.7 30.2-2.8 8.9-.9 17.7-2.4 26.4-4.6 2.5-.6 5.1-1.2 7.4-2.4 2.5-1.3 4.6-3.2 6.9-5 1.1-.9 1.2-1.3.2-2.3-1.2-1.1-2.6-2-4.1-2.9-.5-.3-1.3-.3-1.9-.2-8.9 1.8-17.8 3.8-26.8 5.3-8.5 1.4-17 2.5-25.5 3.4-8.5 1-17.1 1.7-25.7 2.3-8.4.6-16.8 1-25.1 1.3-11.8.3-23.7.5-35.5.5-11.5-.1-23-.5-34.5-1-8.4-.4-16.8-1-25.1-1.8-9.4-.9-18.8-2-28.2-3.3-11.3-1.5-22.6-3.6-33.6-6.6-2.7-.5-4.6.4-6.8 1.4zm243-202.6c-.2-.4-.2-.5-.3-.7-3.6-6.6-7.3-13.1-10.9-19.7-.3-.5-.8-.9-1.3-1.1-8.7-3.3-17.7-5.5-26.7-7.4-.6-.1-1.4-.3-2-.1-13.7 3.1-27.7 5-41.7 6.1-13.7 1.1-27.5 1.5-41.2 1.1-12.8-.4-25.5-1.2-38-3.4-7-1.2-13.9-2.7-20.3-5.8-.3-.2-.9-.2-1.2 0-1.7.6-3.5 1.2-5.1 2.1-1.8 1-3.6 2.3-5.1 3.7-1.6 1.6-1.7 3.5-.6 5.4.7 1.1 1.6 2.2 2.6 3.1 3.3 3 7.2 4.9 11.1 6.7.3.1.7.2 1 .1 6.4-.6 12.9-1.3 19.3-1.9 12.4-1.1 24.9-1.5 37.4-1.6 9.1 0 18.2.1 27.3.4 8.9.3 17.9.8 26.8 1.6 9.6.8 19.2 2 28.8 3.3 10.2 1.3 20.4 3.2 30.4 5.6 3.1.7 6.3 1.6 9.7 2.5zM248.7-155.4v5.4c0 .3.2.6.4.8 3.5 2.7 7.1 5.2 11.4 6.1 6.1 1.4 12.3 2.6 18.5 3.5 5.1.8 10.2 2.1 15.5 1.3.8-.1 1.7-.2 2.5-.2 7.7-.4 15.3-1 23-1.2 10.7-.2 21.5-.4 32.2-.1 10.8.3 21.6 1 32.3 1.9 8.2.7 16.4 1.8 24.5 2.7 2.8.3 5.6.8 8.4.7 3.8-.1 7.6-.6 11.3-1 3-.3 5.9-.7 8.9-1.1-.7-.5-1.4-.8-2.2-1.1-11.1-4.1-22.6-6.9-34.1-9.4-14.8-3.2-29.6-5.8-44.6-7.8-8.9-1.2-17.8-2.3-26.6-3.2-7.7-.8-15.4-1.3-23.2-1.9-.4 0-.9 0-1.3.2-10.9 4.8-22.4 6.8-34.3 7-7.5.2-15-.5-22.6-2.6zm25.1 74.8v.3c.4.1.7.3 1.1.4 7.8 1.8 15.5 3.7 23.4 5.2 18.4 3.6 37 5.5 55.6 6.7 13.3.9 26.6 1.1 39.9.6 10.2-.4 20.3-1.2 30.3-3 2.2-.4 4.3-.9 6.5-1.4-.4-2.2-1.7-3.5-3.2-4.6-3.1-2.3-6.6-3.6-10.3-4.8-9.3-3-18.9-4.4-28.5-5.5-12.9-1.4-25.9-2-38.9-2.1-15.7-.1-31.4.4-47 2.2-7.8.9-15.6 2.1-23.2 4.2l-5.7 1.8zm167.1 209.4c-.4-.1-.5-.2-.6-.2-9.1-.9-18.3-2-27.4-2.5-13.9-.8-27.8-1.5-41.7-1.7-16.5-.2-33 0-49.5.6-13.1.4-26.2 1.4-39.2 2.4-12.5.9-24.9 2.6-37.1 5-6.7 1.3-13.3 2.9-19.6 5.4-.8.3-1.6.7-2.4 1.1v.3c2.1.9 4.1 1.8 6.2 2.6.7.3 1.6.3 2.4.2 7.7-1.2 15.3-2.8 23.1-3.7 9.8-1.1 19.7-1.9 29.6-2.5 15.2-1 30.4-1.3 45.7-1 10.3.2 20.5.3 30.8.8 13 .7 26 1.8 39 2.7 1.4.1 2.8.4 4.2.2 11.1-2.3 22.2-5.1 33-8.5.9-.3 2.1-.7 3.5-1.2zM429-56.2c-.5-.2-1.2-.6-1.8-.8-4-1.1-7.9-2.1-11.9-3.1-.8-.2-1.8-.3-2.6-.1-7 1.3-13.9 2.9-20.9 4-13.5 2.1-27.1 2.9-40.7 2.9-8.4 0-16.9-.1-25.3-.6-8-.5-16-1.5-24-2.3-1.8-.2-3.7-.8-5.4-.5-5.6 1-11.1 2.5-16.5 4.6-1.5.6-3 1.4-4.4 2.1.9 3.3 1.8 6.5 2.6 9.3 5.1-.8 10.2-1.9 15.3-2.5 12.3-1.4 24.6-1.8 37-1.6 13.4.2 26.9.8 40.2 2.5 9.1 1.1 18.2 2.6 27.3 4 3.5.5 6.9 1.7 10.5.6 5.3-1.6 10.7-2.9 16-4.4.4-.1 1-.5 1.1-.9 1.1-4.3 2.3-8.7 3.5-13.2zm24.2-64.4c-3.3 1.9-6.6 2.8-10 3.4-9.4 1.8-19 2.3-28.5 2.2-10.1-.1-20.1-.4-30.2-1-9.8-.6-19.7-1.5-29.5-2.7-10-1.2-20-2.8-30-4.4-15-2.5-29.9-5.8-44.5-9.9-.6-.2-1.3-.2-1.9-.2-4.1.6-8.3 1.2-12.4 2-5.5 1-10.9 2.3-15.9 4.7-1.3.6-2.6 1.4-3.7 2.4-1.6 1.3-1.6 2.8-.1 4.2.9.9 2 1.8 3.2 2.3 3.2 1.4 6.5 2.7 9.7 4 .7.3 1.6.3 2.4.1 10-2 20.1-3.1 30.2-3.4 8.9-.3 17.9-.5 26.8-.3 8.5.2 17 .6 25.5 1.3 9.8.9 19.5 2.1 29.3 3.5 13.6 2 26.9 4.9 40.1 8.7 1.1.3 2.3.4 3.4.3 5.2-.5 10.4-1 15.5-1.9 6-1 11.9-2.5 17.8-3.7.7-.2 1-.5 1.2-1.3.3-2.1.7-4.2 1.1-6.3.1-1.3.2-2.5.5-4zm-167.4-13.5c.5.2.8.3 1.1.4 11.4 2.6 22.8 5.5 34.3 7.9 16.6 3.4 33.4 5.7 50.2 7.6 13.7 1.5 27.5 2.5 41.4 2.8 8.9.1 17.8-.1 26.7-1.4 4-.6 8-1.4 11.8-3 1.6-.7 2.4-1.6 2.4-3.4 0-.9-.2-1.2-1-1.5-2.9-.9-5.8-1.9-8.7-2.7-9-2.4-18.3-3.8-27.6-5-2.3-.3-4.5-.6-6.8-.7-2.6 0-5.2.3-7.8.4-14.7.9-29.5 1.2-44.2.9-10.4-.2-20.8-.5-31.1-1-7.8-.4-15.6-.9-23.3-1.7-5.8-.5-11.5-.4-17.4.4zM237.2 85.1c0 .1.1.2.1.4.4.2.9.4 1.3.5 8.9 3.2 18 5.2 27.2 7 1.4.3 2.8.7 4.4.2 10.6-3.2 21.4-5.7 32.2-7.9 16.1-3.2 32.2-5.7 48.6-7.2 11-1 22.1-1.7 33.1-2.5-.6.2-1.2.1-1.7.1-12.3-.4-24.6-.9-36.8-2.4-9.9-1.3-19.8-2.8-29.8-4.3-1.6-.2-3.2-.8-4.8-.7-3.6.2-7.2.7-10.7 1.1-11.4 1.2-22.7 2.9-34 5.3-7.9 1.7-15.8 3.8-23.2 7.2-2.1.9-4 2.1-5.9 3.2zm188-103.5c0-.4 0-.8-.1-1.2-.2-3.4-.5-6.8-.6-10.2 0-.9-.2-1.3-1.2-1.5-5.7-1.2-11.3-2.6-16.9-3.8-1.7-.4-3.6-.8-5.3-.6-7.5.9-14.9 2.3-22.4 3.1-13.2 1.5-26.5 2.1-39.8 2.1-10.4 0-20.9-.4-31.3-1.4-7.3-.7-14.5-1.6-21.6-3.3-2.5-.6-5-1.3-7.5-2v7.1c0 .3.4.8.7.9 1.9.7 3.7 1.4 5.6 2 8.5 2.6 17.3 4.4 26.1 5.8 2.4.4 4.8.7 7.2.6 3.5-.1 7-.6 10.5-.9 14.6-1.2 29.2-1.7 43.8-1.1 8.5.3 16.9.8 25.4 1.7 6.8.7 13.6 1.8 20.4 2.9 2.3.5 4.6.7 7-.2zm12.1 46.6c-1.8-5.1-3.6-10.1-5.3-15.2-.6-1.8-1.9-2.2-3.5-1-.8.6-1.6 1.2-2.5 1.6-3.6 1.3-7.2 2.7-10.9 3.6-13.5 3.2-27.3 4.1-41.1 4.5-15.4.5-30.9-.1-46.2-1.6-12.3-1.2-24.4-2.9-36.4-5.7-.5-.1-1-.2-1.4-.1-5.6 1.5-11.2 3.2-16.3 6.3-1.4.9-2.7 2-3.8 3.3-.6.7-.9 1.9-.7 2.7.4 1.9 2 3 3.6 3.9.2.1.5 0 .8-.1 11-3.3 22.3-4.6 33.6-5.5 11-.8 22.1-1 33.2-.6 10.9.4 21.8 1.1 32.6 2.3 15 1.7 29.8 4.1 44.5 7.8.6.1 1.3.1 1.9 0 2-.5 4-1 6-1.6 4.1-1.1 8.2-2.6 11.9-4.6zM296 12.9c9.8 2.5 19.7 4.1 29.7 5.1 8.3.8 16.6 1.5 25 2 11.8.7 23.6.8 35.4.3 9.5-.4 19-1.2 28.3-3.2 4.1-.9 8.2-2 11.9-4 1-.5 1.8-1.2 3-1.9-.7-.2-1-.3-1.3-.4-9-2.3-18.2-3.3-27.5-4-11.2-.8-22.5-1-33.8-.8-11.4.2-22.7.7-34 1.7-10.5.9-20.9 2.2-31.2 4.2-1.9.2-3.7.6-5.5 1zm167.7 77.9c-.1-.1-.1-.2-.2-.3-4.6 1.2-9.2 2.5-13.8 3.5-14.4 3.2-29 5.1-43.7 6.2-12.1.9-24.3 1.5-36.4 1.8-9.5.3-19 .2-28.4-.1-12.4-.4-24.8-1-37.1-2-9.8-.7-19.5-2.2-29.2-3.2-1.5-.2-3.2-.6-4.6-.2-5 1.3-9.8 3-14.8 4.5-.3.1-.6.3-1.2.5 1.4.4 2.5.7 3.7.9 11.3 2.7 22.8 4.4 34.4 5.3 11.7.9 23.4 1.7 35.1 2 10.2.3 20.4.2 30.6-.1 11.8-.4 23.6-1.1 35.4-2 13.7-1.1 27.2-3 40.6-5.9 7.6-1.7 15.2-3.7 22.4-7 2.5-1.1 4.8-2.6 7.2-3.9zM277.3 32.4v.4c.7.3 1.4.6 2.1.8 7.6 2.7 15.6 4.1 23.6 5.3 11.4 1.6 22.9 2.4 34.4 2.6 9.3.1 18.5 0 27.8-.3 14.1-.5 28.2-1.8 42.2-4.1 2.1-.4 4.2-.8 6.4-1.2-.1-.2-.3-.3-.4-.3-7.1-1.1-14.2-2.3-21.3-3.4-11.9-1.8-24-2.9-36-3.5-10.6-.5-21.2-.7-31.7-.8-12.8-.1-25.6.8-38.2 2.9-3.1.4-6 1-8.9 1.6zm115.4 108.5v-.3c-7.5-.4-15.1-.9-22.6-1.2-14.3-.5-28.7-.8-43-1.1-6.1-.1-12.2 0-18.2.1-7.7.2-15.3.4-23 .7-14.3.6-28.6 1.8-42.8 3.9-1 .1-2 .3-3 .5s-1.9.4-2.9.5c.3.3.6.4.9.5 6 1.1 12.1 2.5 18.1 3.3 12.5 1.7 25.1 2.4 37.8 2.3 9.7-.1 19.4-.2 29.1-.8 10.6-.6 21.2-1.5 31.8-2.7 10.1-1.1 20.1-2.8 30.1-4.2 2.5-.5 5.1-1 7.7-1.5zm-110-83.2v.2c.3.1.6.3.9.4 5.7 1.7 11.3 3.4 17 5 3.2.9 6.5 1.7 10 1.5 11.7-.9 23.4-1.6 35.2-2 7.9-.3 15.7 0 23.6 0 11.9.1 23.7.9 35.5 2.2 12 1.2 23.9 2.9 35.6 5.6.3.1.6.1.9.1 4.6-1 9.2-2.2 13.4-4.2.3-.1.5-.3.8-.5-.5-.2-.8-.3-1.1-.4-5.1-1.2-10.2-2.6-15.4-3.4-9.3-1.5-18.7-2.9-28.1-3.9-9-1-18.1-1.6-27.1-2.1-8.4-.5-16.8-.8-25.3-.9-11.3-.2-22.6-.3-33.9.1-11.7.3-23.5 1.2-35.2 1.8-2.2 0-4.5.3-6.8.5zm-4.4-63.4c0 .2 0 .4-.1.7 3.2.8 6.4 1.8 9.6 2.4C300.8-.1 313.9.6 327 .9c7 .2 14 .2 21 .1s14-.3 21-.6c11.8-.5 23.5-1.5 35.2-3.2 1.3-.2 2.7-.4 4-.7-.9-.5-1.7-.7-2.5-.8-10.6-2.3-21.4-3.8-32.2-4.6-10.4-.7-20.8-1.4-31.2-1.8-7.7-.3-15.4-.1-23.1.1-10.7.2-21.3 1-31.8 3-3.1.4-6.1 1.2-9.1 1.9zm33.5-157.8v.3c.4.1.7.1 1.1.2 10.2 1 20.4 1.8 30.5 3 15.9 1.9 31.8 4.7 47.4 8.3 16.3 3.8 32.5 8.1 48 14.5.4.2.9.2 1.3.2 4.6-1 9.1-2 13.7-2.9.7-.2 1.1-.5 1-1.3-.2-3.6-.4-7.3-.6-10.9 0-.3-.2-.7-.4-.7-1.1-.2-2.2-.6-3.2-.5-4.5.3-9 1.1-13.5 1.2-8.8.3-17.5-.7-26-2.7-5.6-1.3-11-3-15.9-6.1-1-.6-2-1-3.1-1-13.6-.5-27.1-1.3-40.7-1.6-11.6-.3-23.3-.1-34.9 0-1.7-.2-3.2 0-4.7 0zM268-111.9v.5l.6.3c4.4.9 8.7 1.9 13.1 2.6 14.6 2.5 29.3 4.1 44 5.1 14.8 1 29.5 1.7 44.3 1.6 11.1 0 22.1-.5 33.2-.7 2.4-.1 4.8-.3 7.2-.5v-.5c-46.9-9.6-94.4-13.3-142.4-8.4zm207.7 390.6c0-.1-.1-.2-.1-.3-2.5.6-5 1.3-7.5 1.8-11.6 2.5-23.3 4.2-35 5.3-11.4 1.1-22.8 2.1-34.3 2.8-11.6.7-23.3 1.1-35 1.4-9 .2-18 .3-27 .2-13.6-.2-27.2-.5-40.7-1-8.9-.3-17.7-1-26.6-1.7-5.9-.5-11.9-1.1-17.8-1.8-4.2-.5-8.3-1.1-12.6-1.6.2.1.2.2.3.2.3.1.7.3 1 .4 12.8 4.1 25.9 6.8 39.3 7.8 14.1 1 28.2 1.5 42.3 2.1 9.8.4 19.7.7 29.5.7 14.9 0 29.7-.2 44.6-.6 14.4-.4 28.8-1.8 43-4.4 9.7-1.8 19.3-4 28.5-7.7 2.8-1.1 5.4-2.4 8.1-3.6zm-13.4-93.4v-.2c-1.9-.3-3.9-.6-5.8-.8-10.5-1-20.9-2.2-31.4-2.9-13.8-.9-27.6-1.4-41.4-1.9-8.4-.3-16.8-.2-25.2-.2-10.7.1-21.4.2-32.1.5-9.7.3-19.5.9-29.2 1.3-.4 0-.8.1-1.2.2v.4c55 5.9 110.2 8.6 165.5 3.8.3 0 .5-.1.8-.2zm-24.4 35.9c-53.8-5.5-107.7-5.5-161.5-.5 25.8 2.7 51.7 3.8 77.6 3.9 28 .2 56-.6 83.9-3.4zM407.3 139c9.7 1.3 19.1 2.5 28.6 3.8 13.6 1.9 27.1 4.3 40.4 7.7 2.8.7 4.9.2 7-1.5.3-.2.5-.4.8-.6.2-.1.4-.3.5-.5 2.7-2.4 2.7-5-.1-7.3-2.8-2.4-6.1-3.7-9.5-4.9-10.1-3.5-20.6-5.3-31.2-6.7-.9-.1-1.8 0-2.7.2-8.4 2.5-16.7 5-25.1 7.4-2.8 1-5.7 1.6-8.7 2.4zM273.2 5.2c.3.2.5.3.7.4 4.6 2.6 9.6 4.2 14.7 5.6.4.1.9 0 1.4-.1 3.1-.7 6.2-1.5 9.3-2.2C310.5 6.5 321.8 5 333.2 4c10.9-.9 21.8-1.4 32.7-1.3 10.7.1 21.3.6 31.9 1.8 10.4 1.1 20.7 2.7 30.8 5.6.9.3 1.4 0 1.6-.8.5-1.8 0-3.4-1.4-4.5-1.2-1.1-2.6-2.1-4.1-2.9-4.6-2.5-9.5-3.9-14.5-5.2-.3-.1-.6-.1-.9 0C399.6-2 390-.3 380.2.6c-10.8 1.1-21.6 1.8-32.4 2.1-16.4.4-32.8.4-49.1-1.3-8-.9-16-1.7-23.5-5.1-.6 2.9-1.3 5.8-2 8.9zm-3.7 175c-.3-.1-.4-.2-.4-.2-9.7-1.9-19.4-3.7-29-5.8-8-1.8-15.8-4.2-23.3-7.7-1.8-.8-3.5-1.9-5.4-2.9-1.7 9.6-3 19.2-3.8 28.9.5 0 .8-.1 1.1-.1 3 0 5.7-1.4 8.5-2.3 13.1-4.3 26.7-6.5 40.3-8.4 3.9-.5 7.9-1 12-1.5zm185.3-348.5c.1-.1.2-.1.4-.2-.3-.3-.5-.6-.9-.8-2.3-1.2-4.6-.9-7.1-.7-11 .9-21.8-.6-32.3-4.1-.7-.2-1.6-.4-2.3-.3-3.3.3-6.6.6-9.9 1.2-2.9.5-5.7 1.3-8.1 3.1-1.1.8-1.9 1.8-1.5 3.4.4 1.5 1.8 2.7 3.3 2.9 9.2 1.2 18.5 2.3 27.7 3.7 9 1.4 17.9 3.2 26.6 5.8.9.3 1.9.1 2.9 0 .3 0 .7-.6.7-.9.1-4.5.3-8.8.5-13.1zM399-36v-.3c-3.1-.4-6.2-.9-9.2-1.2-9.6-.9-19.1-1.9-28.7-2.4-11.8-.7-23.6-1.1-35.5-1.4-10.7-.3-21.3.1-32 1.2-3.5.3-6.9.9-10.6 1.4.3.3.4.4.5.4 1.8.5 3.5 1 5.3 1.4 13.6 3 27.4 4.1 41.3 4.5 10.9.2 21.9.1 32.9-.2 8.4-.3 16.8-1.2 25.2-1.9 3.6-.4 7.2-1 10.8-1.5zm-42.4-30.4c-4.5-.2-8.8-.3-13.1-.7-10.9-1.1-21.9-2.1-32.8-3.5-13.5-1.7-26.8-4.4-39.9-8.1-.4-.1-.8-.3-1.2-.1-2.3 1-4.5 2.2-5.8 4.4-.3.5-.4 1.4-.2 1.9 1 1.8 2.1 3.6 4.1 4.6.9.4 1.8 1 2.7 1.5 6.5 3.1 13.5 4.7 20.5 6.2 1.3.3 2.7.7 4 .5 5.9-1 11.8-2.3 17.8-3.1 8.4-1.1 16.8-1.9 25.3-2.6 6.2-.6 12.3-.7 18.6-1zm81.6 137.8V71c-39.1-6.5-78.4-5.8-117.8-3.5.4.2.8.4 1.2.4 13 2.3 26.1 3.9 39.3 5 12.9 1.1 25.9 1.7 38.9 1.5 11.1-.1 22.1-.7 33.1-2.2 1.8-.2 3.5-.5 5.3-.8zM304.3-58.4v.3c.3.1.5.2.8.2 3.5.4 7 .9 10.5 1.2 7.7.6 15.4 1.1 23.1 1.5 11.4.6 22.9.4 34.3-.2 11.5-.6 22.9-1.7 34.3-4 1.6-.3 3.1-.7 4.7-1.1 0-.2 0-.3-.1-.5-36.1-4-71.9-2.4-107.6 2.6zm-28.1 50c.1.1.1.2.2.3h.2c9.6-3.1 19.6-4.4 29.7-5.3 11.2-1 22.3-1.2 33.5-.9 11.7.3 23.3 1.1 34.9 2.7 11 1.5 21.9 3.3 32.5 6.4 3.1.9 5.9 1.1 8.9.1 3.2-1 6.5-2 9.7-3 .3-.1.8-.7.8-1-.2-2-.5-4-.9-5.9 0-.3-.2-.7-.4-.8-1.8-.4-3.6-1.1-5.3-1-2.5 0-4.9.6-7.4.9-10.7 1.2-21.5 1.7-32.3 1.6-10.7-.1-21.3-.4-32-1-7-.3-13.9-1.2-20.9-1.8-2.3-.2-4.7-.7-7-.4-8.5.9-16.9 2-25.3 3.3-5.3.8-10.4 2-15.4 4-1.3.5-2.4 1.2-3.5 1.8zm23.6 74.2v-.2c-.1 0-.2-.1-.3-.1-7.6-1.9-15-4-22.3-6.9-.4-.2-.9-.2-1.3-.1-2.7.3-5.3.6-8 1-6.5 1.1-12.9 2.3-19.3 3.5-.5.1-1 .5-1.3.9-3.1 5.4-6.1 10.8-9.2 16.3-.2.3-.2.6-.4 1.1l.8-.4c2.7-1.3 5.4-2.8 8.2-3.8 14.8-5.5 30.3-8.1 45.9-10.3 2.6-.4 4.9-.7 7.2-1zm-9.3-257.4s0-.1-.1-.3c-1.4-4-2.8-7.9-4.1-11.9-.5-1.3-2.7-2.4-4-1.8-11 5-22.4 5.7-34.1 3.2-1.7-.4-3-.1-4.3.9-.5.4-.7.7-.6 1.4.5 3 1.2 6 1.4 9.1.2 2.2 1.1 3.4 3.2 3.9 1.1.3 2.1.6 3.3.1 8.7-3.5 17.8-5.2 27.1-5.2 4.2 0 8.2.4 12.2.6zM489.6 154c-3-14.6-6.8-28.8-11.7-42.8-5 4-10.2 7-15.8 9.6-5.5 2.5-11.2 4.8-16.8 7.3l1.8.3c8.7 1.6 17.3 3.2 25.7 6 3.8 1.3 7.6 2.6 10.9 5 4.4 3.2 4.4 6.7-.1 9.8-1 .7-2.1 1.4-3.3 2.1 3.1 1 6.1 1.8 9.3 2.7zm-32.8-338.7c.1-.2.2-.3.2-.4l2.4-14.7c0-.3-.3-.9-.6-1.1-2.8-1.5-5.8-2.5-8.9-3-.3-.1-.7 0-1 .1-4.1 1.4-8.4 2.3-12.7 2.7-5.3.5-10.5.4-15.6-1.4-.3-.1-.7-.2-.9-.1-2.1.7-4.2 1.3-4.7 4-.3 1.9-1.2 3.7-1.8 5.6 15.4-1.8 30 .7 43.6 8.3zm-208.1 25h.4c9.7-2.8 19.7-4.2 29.7-5.1 11.4-1 22.8-1.5 34.2-2.2 1.3-.1 1.7-.5 1.5-1.8-.2-1.1-.7-1.8-1.9-2.3-3.1-1.4-6.1-3-9.1-4.5-.5-.2-.9-.5-1.4-.6-1.6-.3-3.1-.5-4.7-.8-1-.2-1.9 0-2.8.7-.7.6-1.6 1.1-2.4 1.5-12.4 6.7-25.6 9-39.5 7.5-1.5-.2-3-.5-4.7-.8.2 2.7.4 5.5.7 8.4zm32.1-62.1c-12.8 8.1-26.2 8.9-40.3 4.4.3 2.1.7 4.2 1 6.3.6 3.7.5 3.8 4.2 4.7.8.2 1.8.4 2.5.1 10.9-3.7 21.8-4 32.9-.8 1.4.4 2.5-.2 3.4-.9.3-.2-.1-1.4-.2-2.1 0-.3-.2-.5-.2-.8-1.1-3.6-2.2-7.2-3.3-10.9zm181.5 4.8h-.5c-11.9 4.3-23.7 4.1-35.5-.2-.3-.1-.8-.1-1.1.1-1.6 1-3.3 2-4.9 3-.4.3-.7.8-.9 1.2-.5 1.6-1.1 3.2-1.5 4.8-.1.5.2 1.2.5 1.5s1 .5 1.4.4c10.2-3.2 20.4-3.1 30.5.1.4.1.8.2 1.1.1 3.2-1.1 6.3-2.5 9-4.6.3-.2.7-.6.7-.9.6-1.8.9-3.6 1.2-5.5zm35.2 448.4c-.4-6.9-.8-13.6-1.2-20.1-5.5 1.4-10.9 3-16.5 4.3s-11.2 2.2-17.1 3.3c12 3.6 23.7 7.1 34.8 12.5zm-91.6-412.7c1.4.9 2.9 1.8 4.4 2.8.9.6 1.9.8 3.1.7 10-.6 19.9.4 29.6 3.2 3.1.9 6.2 2.1 9.3 3.2 1.4.5 3 0 3.1-1 .4-3.3.9-6.6 1.3-10 .1-1-.2-1.3-1.2-1-.6.2-1.1.4-1.7.6-9.1 3.1-18.4 3.3-27.8 1.5-4.8-.9-9.3-2.5-13.3-5.4-.7-.5-1.3-1-1.9-1.5-1.6 2.3-3.2 4.5-4.9 6.9zM493.6 156c1.3 7.9 2.5 15.6 3.8 23.4 3.5-1 6.9-2.1 10.1-3.9 1.3-.7 2.6-1.6 3.7-2.6 2.8-2.6 2.8-5.3.1-8-3-3-6.9-4.7-10.7-6.4-2.3-.8-4.6-1.6-7-2.5zm-76.2-258.9c5 1.9 9.9 3.7 14.7 5.6 4.9 2 9.5 4.5 13.5 8.1 2.5-6.5 4.2-13 5.5-19.8-11 3.3-22.3 4.8-33.7 6.1zm1.4 85.6c-.1-.1-.2-.2-.3-.2l-3.3-.6c-10.5-1.5-21-2.1-31.6-1.9-14.4.2-28.8.6-43.1 1-2.4.1-4.7.3-7.1.5 28.5 2.8 56.9 4.7 85.4 1.2zM298-180c-2.3-3.3-4.6-6.6-6.8-9.7-1.8 1.2-3.5 2.6-5.5 3.6-11.2 5.7-23 6.5-35 3.3-1.6-.4-2.7-.1-3.8.8-.2.2-.4.5-.4.8.3 2.4.7 4.9 1 7.4 1.5-.5 3-1.1 4.4-1.5 13.7-3.9 27.7-4.8 41.8-3 1.9.1 3.1-.6 4.3-1.7zm-24.6-69c-.9-2.8-1.8-5.4-2.6-8-.3-.9-.9-1.1-1.7-1.2-8.1-1-16.1-.3-23.9 2.1-5.7 1.8-4.8.8-6.6 7 0 .1-.1.2-.1.2 0 .3 0 .8.2.9.3.2.8.2 1.1.1 1.1-.4 2.2-.9 3.4-1.2 8.3-2.1 16.5-1.6 24.7 1.1.5.2 1 .4 1.5.2 1.2-.3 2.5-.7 4-1.2zm3.5 13.4c-.5-2-1.3-3.9-1.6-5.9-.3-2.3-1.7-3.5-3.7-4.2-1-.4-1.9-.4-2.9 0-9.4 3.7-18.9 4.3-28.6 1.6-1.1-.3-2.1.2-2.2 1.4-.3 1.9-.1 3.7 1.8 4.8.9.6 1.7 1.2 2.6 1.7.6.3 1.5.4 2.1.2 8-2.1 16-2.6 24.1-1 2.5.5 4.9 1.3 7.4 2 .4.1.9.3 1-.6zm-25.5 455.9c-.5-.1-.8-.2-1.2-.3-7-1.3-14-2.4-21-3.9-7.8-1.6-15.4-3.7-22.4-7.8-.1 0-.1 0-.5.1 0 2 .1 4 0 5.9-.1 1.2.3 1.7 1.4 2 7 2.2 13.9 4.5 20.8 6.8 2 .7 4 .7 6.1.3 5.5-1.1 11.1-2 16.8-3.1zm29.1-443c-1-3.7-2-7.2-3.1-10.8-.2-.6-.6-.6-1.1-.3-.8.5-1.6 1.1-2.4 1.5-10.3 4.7-20.7 4.3-31 0-.7-.3-1.3-.4-2 0-2.2 1.2-2.3 1.2-2 3.7v.1c.3 2.3.6 4.5.9 6.8 13.5-5.3 27-5.3 40.7-1zm182.4 1.4c.1-.2.2-.5.2-.8.3-2 .5-4 .8-5.9.4-2.8.8-2.3-2.1-3.4-.7-.3-1.7-.6-2.3-.3-6.2 2.8-12.6 3.9-19.4 3.7-4.4-.1-8.7-.7-12.7-2.7-1.2-.6-2.9.1-3.3 1.4-.6 1.9-1 3.9-1.7 5.7-.3 1 .3 1.4.9 1.9s1.1 1.1 2.2.7c2.7-1.1 5.5-2.3 8.3-3 10-2.4 19.8-2.5 29.1 2.7zM466 82.9c-.2-.3-.4-.7-.6-1-1.7-2.2-4-3.5-6.4-4.7-5.9-2.8-12.1-4.4-18.5-5.7-.4-.1-.8-.1-1.2 0-12.4 2.5-24.9 3.3-34.7 3.8 8 .5 18.7 1.1 29.4 2 10.8.9 21.4 2.8 32 5.6zm-10.9-267c-7.8-4.2-37.4-7.9-41.7-5.3 8.4 8 31 9.4 41.7 5.3zm-143.5 48.2c7.8 2.3 87 4 92.2 2-30.7-2.6-61.4-3.3-92.2-2zm119.3 64.8c-6.5 1.1-12.7 2.2-18.8 3-6.2.8-12.4 1.2-18.6 1.6-6.2.4-12.3.5-18.3.7 2.9.2 6.1.3 9.2.6 7.8.9 15.6 1.7 23.4 2.8 8 1.2 7.9 1.4 14.1-1.2.9-.4 1.9-.7 2.7-1.3 1.6-1 3.2-2.1 4.6-3.4.7-.6 1.1-1.8 1.7-2.8zm-185.5-56c4.2-2.8 8.5-4.3 13-5.4 4.5-1.1 9-2.1 13.9-3.2-8.2-2.8-16.1-5.6-24.2-8.4-.9 5.8-1.8 11.2-2.7 17zm219.8-115.7c-1.2.4-2.2.8-3.1 1-9.7 2.6-19.4 2.1-29-.7-.5-.2-1.2-.3-1.7-.1-2.6 1.1-4.9 2.4-5.1 5.7 0 .2-.1.3-.1.5 0 .5 0 1.1.2 1.5.1.1.9 0 1.3-.1 11-3.5 21.8-3.1 32.4 1.2 1.2.5 4.4-.8 4.6-2 .3-2.2.4-4.5.5-7zM428.8-219l.5.5.9.3c4.6 1.6 9.4 2.3 14.2 2.6 5.7.3 11.4-.1 16.9-1.8.8-.3 1.1-.7 1.3-1.5.3-1.2-.2-1.8-1.2-2.3-3.5-1.8-7.2-2.2-11-1.9-4 .3-8.1.9-12.1 1.6-3.1.6-6.2 1.6-9.5 2.5zm-226 433.5c.1-.3.2-.5.2-.7.1-2.7.2-5.3.3-8 0-.3-.1-.6-.3-.9-1.6-2.5-1.4-4.9.4-7.2.3-.4.4-1 .7-1.7-.8.1-1.4.2-1.9.3-4.1.8-8.2 1.6-11.9 3.7-3.5 1.9-3.7 4.1-.8 6.8 3.8 3.5 8.6 5.6 13.3 7.7zm90.9-391.6c-6.9-2.7-40.1 1.6-45.1 5.8 15.5 2.1 30.5-.2 45.1-5.8zm-16.8 165c9.8-4.3 20.2-5.6 30.5-7.4-9.9-1.8-19.7-3.6-29.1-7-.4 4.8-.9 9.6-1.4 14.4zm154.9-244.2c10.9-2.4 21.3-1.4 31.3 3.6-.2-.5-.2-.7-.3-1-4.8-10.2-14.4-13.8-25-9.7-3.1 1.3-4.8 3.9-6 7.1zm33.3 11.8c-.2-1.5-.6-2.8-.6-4.2-.1-2.1-1.3-3.1-3.3-3.4-4.1-.6-8.3-1.4-12.4-1.8-5.2-.5-10.4-.4-15.6.5-1.8.3-3 .9-3.2 2.9-.1.7-.3 1.5-.6 2.2-.4.9-.2 1.6.8 1.9.4.1 1 .2 1.4.1 1-.3 2-.8 3-1.1 10.5-3.1 20.6-2.9 30.5 2.9zm-222.2 309c-.2 0-.4 0-.5.1-3.8 1.4-7.7 2.6-11.4 4.3-2 .9-3.9 2.4-5.5 3.9-1.7 1.5-1.7 3.4-.4 5.2 2 2.7 4.8 4.2 7.6 5.5 3.4-6.4 6.8-12.6 10.2-19zm-41.2 172c-.3.1-.5.1-.7.2-2.4 1.5-4.9 2.8-7.1 4.6-4.2 3.5-4.2 7.3-.2 11 2.9 2.7 6.4 4.5 10.1 6.1 0 0 .1-.1.2-.1-2.3-7-2.5-14.3-2.3-21.8zm61.7-141.4c-9.1-2-18-3.9-26.6-7.1-1.8-.6-2.7 0-2.5 2 .1.8.3 1.6.8 2.2 1 1.1 2.1 2.4 3.4 3.1 3.3 1.7 6.7 3.1 10.1 4.6.4.2.9 0 1.4-.1 3.7-1.3 7.5-2.6 11.2-3.9.7-.4 1.4-.6 2.2-.8zm136.3-256.3c16 7 32.8 8.7 50 7.3-16.4-4.5-33.2-6.1-50-7.3zm-7.9-10.4c-.5.1-.7.2-.9.2-6 2.2-12.3 3.1-18.7 3.1-13.8 0-27.6.1-41.4 0-3.7 0-7.4-.5-11.1-1-1.7-.2-3.5-.7-5.1-1.1l.3 3.3c25.4-.7 50.8.2 76.3 2.5-1.5-2.5-1.3-4.7.6-7zm-112.3-50.6c-7.9-3.4-32.5-2-36.7 2l1.2.3c9.1 2.3 18.3 2.2 27.5.5 2.7-.4 5.4-1.2 8-2.8zm-25.9 64.6c9 2.8 42.3 1.2 49.1-2.4-8.4-2.1-44.6-.3-49.1 2.4zm36.9-32.8c-11-2.2-30 1.6-36.5 4.9.5.1.9.2 1.3.3 6 1 12.1 1.1 18.2.4 4.9-.5 9.7-1.4 14.2-3.8.9-.5 1.8-1.2 2.8-1.8zm217.2 428.9l-.3.3c1.3 3.4.7 5.2-2.5 7.1-.9.6-2 1.1-3 1.5-.8.3-1 .8-1.2 1.6-.8 3.5-1.6 6.9-2.4 10.3 0 .2-.1.4-.1.8 4-1.7 7.8-3.5 11-6.3 1-.9 2-2 2.8-3.1 1.7-2.5 1.7-5.2 0-7.6-1.2-1.7-2.8-3.1-4.3-4.6zm-88.9-372.4c11.8 2.3 23.6 4.5 34.8 8.9.8-1.6.3-2.8-1-3.8-.1-.1-.2-.2-.4-.3-3.9-3.2-8.5-5.2-13.1-7.1-.3-.1-.7-.1-1 0-3.3.4-6.6.9-10 1.3-3.2.4-6.2.7-9.3 1zm-194 245.4c6.8-3.4 13.5-6.8 20.2-10.1-4.7-1.9-9.6-3.7-12.9-8.5-2.5 6.3-4.9 12.5-7.3 18.6zm212.9-82.6c-6 2.1-11.9 4.1-17.3 6.1 7.6 2.4 15.5 5 23.4 7.5-2.1-4.6-4.1-9.2-6.1-13.6zm42.9 79.5c1.1-1.6 2.3-3.1 3.1-4.6 2.1-4 1.6-7.6-1.3-10.9-2.6-3-6-4.7-9.5-6.3-.3-.1-.8 0-1.3.1 3.1 7.2 6 14.3 9 21.7zM226 225.1c-6.5-2.1-13.1-4.2-19.9-6.4-.3 4.3-.6 8.5-.9 12.6 7.1-2 14.1-4.1 20.8-6.2zM461.8 67.7c.3.6.4.8.6 1.1l7.8 15c.9 1.7 2.2 2.1 3.7.9.9-.7 1.7-1.4 2.4-2.3 1.7-2.1 1.7-4.4 0-6.6-.4-.5-.9-1-1.4-1.5-3.7-3.1-8.2-4.8-13.1-6.6zm7.7 117.5c8.6 1.7 17.2 3.5 25.7 6.4-.4-3.8-.8-7.3-1.2-10.7-8.2 1.5-16.3 2.9-24.5 4.3zM270.7 55.7c-5.1-2.9-10.3-5.5-12.5-11.5-2.7 5.1-5.4 10.1-8.1 15.1 6.9-1.1 13.7-2.3 20.6-3.6zM436.9-73.2c-1.8.5-3.6 1-5.3 1.6-.2.1-.5.3-.6.5-.5 2.8-2.5 4.5-4.8 5.6-2.9 1.5-6 2.7-9.1 3.9-.4.2-.7.3-1.1.4 4.6 1.4 9 2.8 13.4 4.2 2.4-5.2 4.9-10.6 7.5-16.2zm28-169.8c0-.1.1-.3.1-.4-.5-.3-.9-.8-1.5-.9-1.9-.6-3.8-1.4-5.8-1.7-5.4-.8-10.8-.3-16.1.5-1.9.3-3.9.8-5.8 1.2v.5c9.7 2.3 19.4 3.7 29.1.8zm-.5 323.1c.1-.1.2-.1.2-.2-2.5-4.4-5-8.8-7.4-13.2-.4-.7-.8-.5-1.4-.2-3.3 1.2-6.7 2.4-10 3.6-1 .4-2.2.6-3.2.8 7.6 2.4 15.3 4.3 21.8 9.2zM269.9-258.7c-1-1.8-2.2-3.2-3.9-4-4.8-2.2-9.7-3-14.8-1.3-3.5 1.2-6.3 3.3-8.7 6.4 9.1-2.7 18.2-3.2 27.4-1.1zm227.6 491.5l.3-.3c-.3-.2-.5-.6-.8-.7-1.2-.6-2.4-1.1-3.6-1.7-9.7-4.2-19.9-7.2-30.1-9.9-1.8-.5-3.4-1.1-5.4-.7-2.8.5-5.7.9-8.6 1.3 16.3 2.9 32.6 6 48.2 12zM276-234.5c-9.9-2.8-19.4-2.4-28.9 0 .1.2.2.3.3.3 7.4 2 14.8 2.8 22.4 1.9 2-.3 4.1-.9 6.2-2.2zM459.2 63.7c3.7-2.2 4.5-6.1 2-9.4-2.9-3.9-7.2-6-11.5-8.1-.1.1-.2.2-.3.2 3.3 5.8 6.6 11.6 9.8 17.3zm-185-116.6c4.8-1.8 9.6-3.6 14.3-5.4-6.6-1.4-13.4-3.1-19.9-6.1 1.1 2.1 2.1 4 3 5.9 1 1.9 1.8 3.9 2.6 5.6zm225.6 262c2.8-1.1 5.6-3 6.8-4.6 1.3-1.7 1.6-3.3.5-5-1.9-3-5.1-4.3-8.3-5.8.3 5.3.6 10.3 1 15.4zm-75.5-241c.2-3.2.4-6.6.6-9.7-6.1 1.7-12.3 3.4-18.3 5 5.8 1.6 11.8 3.2 17.7 4.7zm6-200.3c9.4 3.5 18.8 2.8 28.3-.1-9.5-2-18.9-2.2-28.3.1zm-.8 236.8c-1-4.3-1.9-8.4-2.8-12.4-2.4.8-4.7 1.6-7.1 2.3-2.3.7-4.7 1.2-7.3 1.8 6.2 2.1 12.2 3.9 17.2 8.3zm-157 3.5c-1.4 4.3-2.8 8.7-4.3 13.3 4.7-4.6 10.5-6.5 16.2-8.6-4-1.6-8-3.2-11.9-4.7zm182.4-147.8c-5 1.1-9.7 2.1-14.5 3.2 4.9 2.3 9.7 4.5 13.8 8.5.2-4 .4-7.8.7-11.7zm-202.6-65.5c3.7 1.7 22.8 1 28-1.1-4.1-2.2-22.2-1.5-28 1.1zm248.9 452.8c1.9-1.2 3.6-2 5.2-3.3 1.7-1.4 1.8-3.2.7-5.2-1.3-2.2-3.6-2.8-5.9-4v12.5zM436.1 13.1c-.2.1-.3.3-.5.4 1.5 4.2 3.1 8.4 4.7 12.9.8-.8 1.5-1.3 2.1-1.9 2.4-2.6 2.4-5.3-.3-7.6-1.9-1.4-4-2.5-6-3.8zm-7.6-32.2c2.2-.7 4.3-1.4 6-2.7 1.3-1 1.5-2.2.7-3.3-1.8-2.4-4.5-3.3-7.4-4.6.2 3.6.4 7 .7 10.6zm29.6-148.5c-.3 4.1-.5 8-.7 12 2.2-.6 3.9-1.5 5.3-3s1.6-3.2.4-5c-1.1-1.7-2.8-2.9-5-4zm-3 56.8c2.2-.9 4.2-1.9 5.9-3.5 1.4-1.4 1.7-2.8 1-4.2-1.1-2.1-3-3.2-5-4.3-.7 4-1.3 7.9-1.9 12zM245-108.7c3.6-1.2 6.9-2.4 10-3.5-3.3-1.6-6.7-3.4-10-5v8.5zm21-138.5c-7.5-1.6-14.9-1.9-22.3.5 7.5 1.2 14.9.7 22.3-.5zM448.4-171c-8.9-2.2-17.9-3.2-26.9-3.4 8.7 2.5 17.7 3.8 26.9 3.4zm9.1 19.7c.2 3.3.5 6.5.7 10.1 1.6-1.2 3.1-2 4.2-3.1 1.2-1.1 1.2-2.4.2-3.6-1.2-1.6-3-2.6-5.1-3.4zM487 270.5c2.4-2.4 4.5-4.9 6.1-8-3.9 1.2-7.5 2.2-11.3 3.4 2.1 1.2 4.3 2.1 5.2 4.6zm-62.3-474.3c7 1.7 13.9 1 20.8-.6-7-1-13.9-.9-20.8.6zm-179.4 44c-.3-3.4-.6-6.6-.8-9.7-.1-.1-.3-.2-.4-.2-1.2 1.2-2.5 2.3-3.5 3.6-.9 1.1-.7 2.3.2 3.4 1.1 1.3 2.6 2.1 4.5 2.9zm.7 68.4c-1.3-4-2.5-8-3.7-11.9-2.3 1.6-3.2 3.9-2.1 6.1 1.2 2.6 3.5 4.2 5.8 5.8zm215.2-118.7c-2.8 1.7-5.5 3.3-8.1 4.9 2.1 1.1 4.4 2.3 6.7 3.5.5-2.8.9-5.6 1.4-8.4zm-195.5 130c-3.4-1.2-6.9-2.4-10.6-3.7 2.2 2.8 4.2 5.4 6.2 7.9 1.5-1.5 3-2.9 4.4-4.2zm166.5 25.6c-1.1 3.5-2.1 6.8-3.1 10 .1.1.2.1.3.2 1.8-1 3.5-2 4.8-3.7 1.2-1.7 1.1-3.2-.2-4.8-.5-.6-1-1-1.8-1.7zm-169.8 90c2.5-1.3 4.9-2.5 7-3.6-1.1-1.7-2.3-3.4-3.4-5.1-1.1 2.7-2.4 5.6-3.6 8.7zm200.1-233.4c-.6 3.7-1.2 7.3-1.8 11 4.5-2.8 5.3-7.7 1.8-11zm-177.7-22.2c1 3.4 2 6.6 3 9.9 3.5-2.9 2.1-7.7-3-9.9zM226 143.3c-.8-.4-1.5-.7-2.1-1-.7-.3-1.4-.6-2-1-1.7-.9-1.7-.9-3.1.5-.4.4-.8.9-1 1.4-.4.9-.4 1.7.2 2.6 2.6-.8 5.2-1.6 8-2.5zm232.8-316.2c2-1 3.6-2 3.8-4.1.2-1.4-1.2-3.5-2.7-4.2-.4 2.8-.7 5.4-1.1 8.3zm-214 25c.2-.1.3-.2.5-.3-.2-2.2-2.3-4-1.4-6.5-1 .5-1.8 1.1-2.6 1.8s-.8 1.6 0 2.3c1.1 1 2.3 1.8 3.5 2.7zm202.9 62.7c-.9 1.6-1.7 3-2.5 4.5l-2.4 4.2c3.6-1.7 6.7-5.2 4.9-8.7zM466.2-220c3.4-2 3.9-6.2 1.1-8-.4 2.7-.7 5.3-1.1 8zM215.1 131.5c1-3.5 2-6.7 3-10.2-2.5 2.3-4.6 6.8-3 10.2zm85-314.4c1.1-2.8-1.5-6.2-4.7-6.3 1.6 2.1 3.1 4.1 4.7 6.3zm107.2 5.5c-1.1-.8-2.1-1.5-3.1-2.2-1.4 1.2-2.8 2.4-4.4 3.7 2.6-.5 4.9-1 7.5-1.5zM210 270c-.8.8-.8 1.4.2 2.4 1.6 1.6 3.6 2.4 5.3 3.1-1.7-1.8-3.6-3.6-5.5-5.5zm28.4-479.7c-.4-2.4-.8-4.6-1.1-6.9-2.4 2.1-2 4.7 1.1 6.9zm52 8c.9 2.5 1.7 5 2.6 7.5 1.3-2.8.3-5.8-2.6-7.5zM275-36c-.1-.1-.3-.2-.4-.3-.7.8-1.9 1.5-2.1 2.3-.1.7 1.1 1.5 1.8 2.3.1.2.4.2.8.4-.1-1.6-.1-3.2-.1-4.7zm-31.7-143.1c-2.3 2.5-1.9 4.8.8 5.9-.3-2-.6-3.9-.8-5.9zm33-72c2-2 1.2-4.4-1.6-5.3.5 1.7 1 3.4 1.6 5.3zm-6 253.8c.4-1.7.8-3.4 1.3-5.2-2.7 1.4-3.2 3.4-1.3 5.2zm3.8-45.1c-.6-1.9-1.1-3.5-1.6-5.3-1.6 2.2-1.1 3.7 1.6 5.3zm-32.6-148.8c-.4-2.3-.7-4.3-1.1-6.5-1.3 2.4-1 4.6 1.1 6.5zM297-178c1.5.3 2.9.6 4.3.8 0-.1.1-.1.1-.2-.9-.8-1.8-1.5-2.7-2.3-.7.6-1.1 1.1-1.7 1.7zm167.4-53.6c.1-1.2.2-2.2.3-3.4-1.1.8-1.9 1.4-2.8 2 .9.5 1.6.9 2.5 1.4zM271-246.7c1.1.6 2.1 1.1 3.3 1.8-.3-1.2-.6-2.1-.8-3.1-.8.4-1.6.8-2.5 1.3zm2.4 108.7c2.2.8 4.3 2.2 7.1 1.1-2.6-.4-4.9-.7-7.1-1.1zM465.8 89.1c.9-.4 1.7-.7 2.6-1.1-.4-.9-.7-1.6-1.1-2.5-.6 1.3-1 2.3-1.5 3.6zm-184-319.6c.4 1.3.7 2.6 1.1 3.9.1 0 .2-.1.3-.1.4-1.5-.2-2.7-1.4-3.8zm124.4 43c-1.9.6-2.6 1.5-2.3 3 .9-1 1.6-2 2.3-3zm16.3 170.3c1.1.3 1.9.6 2.8.8.3-1.7-.1-1.7-2.8-.8zm7.2 6.7c1.1-1.4.9-2.3-.5-3.2.2 1.1.4 2 .5 3.2zm-218.3 276c.6-.3 1-.5 1.7-.8-1-.3-1.8-.6-2.8-.9.5.7.8 1.1 1.1 1.7zm24.2-492.8c-.2 0-.3.1-.5.1.2.9.3 1.9.5 2.8.1 0 .3 0 .4-.1-.1-.9-.2-1.9-.4-2.8zM216.4 140c.5-.4.9-.7 1.5-1.1-.4-.3-.7-.4-1-.7-.2.7-.3 1.3-.5 1.8zM435.6 13.6c.2-.1.3-.3.5-.4M301.3-177.4c0 .1-.1.1-.1.2M283.3-226.8c-.1 0-.2.1-.3.1M406.2-187.5c-.7 1-1.5 1.9-2.3 3"/></svg>