<svg id="Layer_1" xmlns="http://www.w3.org/2000/svg" xmlns:xlink="http://www.w3.org/1999/xlink" width="570.6" height="898.7" viewBox="0 0 570.6 898.7"><style>.st0{fill:#8c715d}.st1{clip-path:url(#SVGID_3_)}.st1,.st2,.st3{fill:#72594b}.st2{clip-path:url(#SVGID_5_)}.st3{clip-path:url(#SVGID_7_)}.st4{fill:#543e36}.st5{fill:#fffac0}.st6{fill:#f4eebd}.st7{fill:#bddbed}.st8{fill:#eff8fb}.st9{fill:#fcf4a7}.st10{fill:#ffc271;stroke:#bc7a2b;stroke-miterlimit:10}.st11{fill:#f4b76e}.st12{fill:#ffc271}.st13{clip-path:url(#SVGID_9_);fill:#f4b76e}.st14{fill:#fff}.st15{fill:#191919}.st16{fill:#632a1b}.st17{clip-path:url(#SVGID_11_);fill:#f4b76e}.st18{clip-path:url(#SVGID_13_)}.st18,.st19,.st20{fill:#f4b76e}.st19{clip-path:url(#SVGID_15_)}.st20{clip-path:url(#SVGID_17_)}.st21{fill:#bc7a2b}.st22{opacity:.56}.st23{fill:#f7f7f7}</style><g id="HAIR2"><path id="hair1_2_" class="st0" d="M196.8 2s-33.3 3.7-56.7 25.7c0 0-65.3 16-70 87.3 0 0-19.7 44-19.7 78.7s17.9 64.6 20.7 74c4.2 14 18 56-11.1 62.1l-4.2-1.1s32.3 40 55.3 29.3c9-4.3 8.3-15 8.3-15s28.7 22.3 4.7 40.7c0 0 29-7 48.3-28.7 0 0 15 16 10 24.3 0 0 18.3-12.7 20.7-24.3 0 0 2.3 17 15 22.3 0 0 0-28 9-29 0 0 8 28.7 34 35.3 0 0-10.3-25.3-6-32 0 0 10.7 18.3 35 17s49.7-34.5 52.7-39.5c0 0-17.8 15-27.7 12.5 0 0 17.7-8 21-35.7s-3.3-36.7-3.3-36.7 21.3-29.3 21.3-104.7-33-89.3-39.7-107.7c-1.7-4.6-6.8-21-15.3-26-8.6-5-20.7 1.3-26 3 0 0-2.7-12-10-15.3-7.3-3.3-30.7 2.3-30.7 2.3S211.1 5.7 196.8 2z"/><defs><path id="SVGID_2_" d="M196.8 2s-33.3 3.7-56.7 25.7c0 0-65.3 16-70 87.3 0 0-19.7 44-19.7 78.7s17.9 64.6 20.7 74c4.2 14 18 56-11.1 62.1l-4.2-1.1s32.3 40 55.3 29.3c9-4.3 8.3-15 8.3-15s28.7 22.3 4.7 40.7c0 0 29-7 48.3-28.7 0 0 15 16 10 24.3 0 0 18.3-12.7 20.7-24.3 0 0 2.3 17 15 22.3 0 0 0-28 9-29 0 0 8 28.7 34 35.3 0 0-10.3-25.3-6-32 0 0 10.7 18.3 35 17s49.7-34.5 52.7-39.5c0 0-17.8 15-27.7 12.5 0 0 17.7-8 21-35.7s-3.3-36.7-3.3-36.7 21.3-29.3 21.3-104.7-33-89.3-39.7-107.7c-1.7-4.6-6.8-21-15.3-26-8.6-5-20.7 1.3-26 3 0 0-2.7-12-10-15.3-7.3-3.3-30.7 2.3-30.7 2.3S211.1 5.7 196.8 2z"/></defs><clipPath id="SVGID_3_"><use xlink:href="#SVGID_2_" overflow="visible"/></clipPath><path class="st1" d="M124.2 31c-5.6 2.9-10.8 6.6-15.8 10.6-5.1 4.1-9.7 8.6-13.8 13.7-1.2 1.5-2.3 3.2-3.5 4.9v1c4.7-5.3 10.7-9.5 16.6-10.6 10.5-1.8 10.1 10.4 6.4 17.5h.5c1.2-1.1 2.5-2.1 3.5-3.3 3.4-3.9 5.9-8.5 8.4-13 2.3-4.2 4.7-8.3 7.7-12.2 1.7-2.2 3.3-4.8 5.2-6.9v-7.8c-5.1 1.8-10.2 3.5-15.2 6.1zm41 303.5c-.6-7.4-1.8-14.8-1.6-22.2-3-1.4-6-2.8-9.1-4.1-7.9-3.4-16-6.8-22.3-12.9-6.7-6.4-9.2-14.7-10.4-23.6-1.2-8.6-1.7-17.6-.7-26.3-.2-.4-.5-.9-.8-1.3-2.6-4-6.7-1.2-10.3-2.9-2.7-1.2-3.9-4-4.8-6.6-1.4-4.3-2.6-8.6-4-12.8-3.3-9.9-6.8-20.5-7.8-30.9-.4-4.6.3-8.8 1.3-13.3 1.1-5.2 1.3-9.9 1.5-15-.1-.1-.2-.1-.3-.2-.2-.2-.3-.4-.4-.6-1.9 1.1-2.7 4.5-3.2 6.2-1.3 4.1-2.4 8.2-3.3 12.4-1.7 8-3.2 16.2-3.9 24.4-1.3 15.7 2 31.6 5.2 46.8 1.7 7.9 3.6 15.5 6.5 23 3.1 7.9 6.6 15.5 9.4 23.5.2.5.2.9 0 1.3 1.9 5.7 2.4 12.1.8 17.6-2.1 7.1-7.4 15.8-14.1 19.3-5.5 2.8-12.3 2.1-18.5.2.4.5.8 1 1.3 1.5 3.1 3.5 6.1 7.1 9.4 10.5 5.9 6.2 15 15.4 24 13.1 1.9-1.5 3.6-3 5.8-4.2 1.9-1.1 4-1.9 5.9-3.1 1.8-1.1 3.7-2.4 5.3-3.7l.9-.9c-1.5-2.8-3.9-6.6-6.2-7.6-.3-.1-.7-.2-1-.2s-.6 0-.9.2c-1.3.5-3-.7-2.1-2.1 1.7-2.7 4-2.5 6.2-1.1 7.5 1.6 14.8 11.5 16.1 17.7 1.5 7.2.3 14.6-3.6 20.9-.8 1.2-1.7 2.5-2.6 3.8 1.4-.2 2.8-.4 4.2-.7 2.5-.8 5-1.9 7.4-3.1 5.9-2.9 13.3-4.4 18.4-8.7.6-.5 1.6.1 1.1.9-.1.1-.2.3-.3.4 2.7-2.2 3.4-5 3.3-8.6-.1-9.2-1.2-18.2-1.8-27z"/><defs><path id="SVGID_4_" d="M196.8 2s-33.3 3.7-56.7 25.7c0 0-65.3 16-70 87.3 0 0-19.7 44-19.7 78.7s17.9 64.6 20.7 74c4.2 14 18 56-11.1 62.1l-4.2-1.1s32.3 40 55.3 29.3c9-4.3 8.3-15 8.3-15s28.7 22.3 4.7 40.7c0 0 29-7 48.3-28.7 0 0 15 16 10 24.3 0 0 18.3-12.7 20.7-24.3 0 0 2.3 17 15 22.3 0 0 0-28 9-29 0 0 8 28.7 34 35.3 0 0-10.3-25.3-6-32 0 0 10.7 18.3 35 17s49.7-34.5 52.7-39.5c0 0-17.8 15-27.7 12.5 0 0 17.7-8 21-35.7s-3.3-36.7-3.3-36.7 21.3-29.3 21.3-104.7-33-89.3-39.7-107.7c-1.7-4.6-6.8-21-15.3-26-8.6-5-20.7 1.3-26 3 0 0-2.7-12-10-15.3-7.3-3.3-30.7 2.3-30.7 2.3S211.1 5.7 196.8 2z"/></defs><clipPath id="SVGID_5_"><use xlink:href="#SVGID_4_" overflow="visible"/></clipPath><path class="st2" d="M67.5 327.1c1.3 0 2.6-.1 4-.8 2.4-1.1 4.4-3.1 6-5.2 4.6-5.7 5.5-12.3 5.4-19.5-.2-8.3-1.9-17.3-5.5-24.8-2.8-5.9-6.8-11.1-9.1-17.2-.3.2-.7.3-1.2.3.5 0 5.2 28.6 5.7 31.1 1.6 9.6.4 19.1-4.4 27.4 1.1.3 1.7 1.9.4 2.6-1.4.8-2.7 1.6-4.1 2.4 1 1.2 1.9 2.5 2.8 3.7zm295.7-5.8c-5.7 1.4-11.1 4.1-15.5 8.1-1.6 2.6-4 4.7-6.4 6.6-2.2 1.7-4.2 3.6-6.5 5.1-5 3.2-10.9 5.2-16.8 5.4-4.9.2-9.8-.6-14.3-2.4-2.3-.9-4.4-2-6.5-3.4-.7-.5-2.5-1.3-2.7-2.2-.3-.9.4-1.9 1.3-1.8.5 0 1 .3 1.4.5.7.2 1.4.3 2.1.3 5.2.2 10.6-.6 15.1-3.3 5.2-3.3 8.4-8.9 10.8-14.5 3.1-7.4 5.1-15.3 5.8-23.4.4-4.1.4-8.2.2-12.3-.2-3.1.4-6.3.2-9.4-1.2 2.9-2 6.1-3.5 8.8-2.1 3.9-4.2 7.6-6.4 11.4-.1.2-.3.4-.5.5s-.5 0-.7-.2l-4.2-2.1c-.5-.3-1.1-.5-1.4-1-.5-.7-.5-1.8-.4-2.7 1.1-9 4.2-17.4 6.8-25.9.1-1.5.3-3.1.5-4.6.7-5.3 1.8-10.5 2.6-15.7 1-7 1.8-13.9 2.3-20.9.1-4.2.3-8.3.4-12.4 0-1.7 0-3.4-.1-5.1-.2-5.8-.5-11.6-.8-17.4-.6-4.5-1.4-9.1-2.7-13.4-1.5-5.2-4.2-9.7-6.7-14.4-.6 2.1-1.3 4.3-1.3 6.6 0 6.1 4.4 11.2 3.8 17.6-.2 2.5-1.1 4.7-2.1 6.9-1.6 3.8-2.5 7.2-2.9 11.3-.5 6.1-1.3 11.9-2.6 17.9-1.4 6.3-3.7 16.4-11.6 17.1-2.8.3-5.3-.8-7.8-1.9-3.2-1.3-5.2-2.3-6.6 1.6-4 10.9.9 23.6-.6 34.9-1.2 9.2-6.4 15.7-13.7 21-7 5.1-15.1 8.6-22.2 13.6-3.5 2.5-6.9 5.4-9.1 9.1-2.5 4.2-3.4 9.5-4.4 14.2s-2 9.8-2.6 14.9V365c.1.6.2 1.1.3 1.7 1.3 6.4 5.6 11.7 11.2 15 4.2 2.4 8.4 2.6 12.8 2.8-1.6-2.2-2.9-4.6-4-6.7-2.6-5.1-5-10.6-5.8-16.3-.6-4-.6-10.7 4.1-12.5 4.1-1.5 6.3 4.1 5.2 7.3-.1.3-.3.7-.3 1.1s.1.7.2 1c1.6 4.3 3.7 8.4 4.6 12.8.8 3.6.9 7.4 2.3 10.8.3.8.7 1.5 1.2 2.2.9 1.1 2.1 1.9 2.8 3.1.7 1.2.2 3.2-1.2 3.3h99.4v-70c-.6.2-1.6.4-2.5.7z"/><defs><path id="SVGID_6_" d="M196.8 2s-33.3 3.7-56.7 25.7c0 0-65.3 16-70 87.3 0 0-19.7 44-19.7 78.7s17.9 64.6 20.7 74c4.2 14 18 56-11.1 62.1l-4.2-1.1s32.3 40 55.3 29.3c9-4.3 8.3-15 8.3-15s28.7 22.3 4.7 40.7c0 0 29-7 48.3-28.7 0 0 15 16 10 24.3 0 0 18.3-12.7 20.7-24.3 0 0 2.3 17 15 22.3 0 0 0-28 9-29 0 0 8 28.7 34 35.3 0 0-10.3-25.3-6-32 0 0 10.7 18.3 35 17s49.7-34.5 52.7-39.5c0 0-17.8 15-27.7 12.5 0 0 17.7-8 21-35.7s-3.3-36.7-3.3-36.7 21.3-29.3 21.3-104.7-33-89.3-39.7-107.7c-1.7-4.6-6.8-21-15.3-26-8.6-5-20.7 1.3-26 3 0 0-2.7-12-10-15.3-7.3-3.3-30.7 2.3-30.7 2.3S211.1 5.7 196.8 2z"/></defs><clipPath id="SVGID_7_"><use xlink:href="#SVGID_6_" overflow="visible"/></clipPath><path class="st3" d="M259.5 387.2c-5.3.1-10.2.7-15.4-1.8-4.4-2.1-8.3-5.6-11.1-9.7v14.9h30.8c-1.6-.8-3-2-4.3-3.4z"/><g id="Layer_15"><path id="XMLID_1_" class="st4" d="M322.5 292.2c8.1-13.8 14.9-27.7 20-42.9 5.3-15.9 9.2-32.3 11.5-48.9 4.8-34.3 1.8-69.4-11.6-101.6-6.4-15.3-14.4-28.5-25.8-40.6-1.4-1.5-3.6.7-2.2 2.2C359 108.7 360 182.2 342 242c-5.1 16.9-11.4 34.4-19.9 49.9-.2.3.3.6.4.3z"/><path class="st4" d="M333 270.5c4.4 11.6 2.8 24.5.2 36.3-2.8 12.8-7.7 25.6-19.4 32.8-1.7 1-.2 3.6 1.5 2.6 12.3-7.3 18-20.4 20.9-33.8 2.7-12.5 4.6-26.7-2.2-38.3-.3-.6-1.2-.2-1 .4zm-71.2 113.2c-11.1-5-19.7-11.6-28.1-20.4-1.4-1.5-3.4.7-2.2 2.2 7.3 9.3 18.6 16.2 29.9 19.1.5 0 .9-.7.4-.9z"/><path class="st4" d="M261.9 384c-2-10.5-7-20-5.4-31 .4-2.4-3.1-2.9-3.3-.4-1 10.6 2.3 22.8 8.2 31.7.2.1.5-.1.5-.3zm79.2-53.2c-4.7 2-9 4.8-13.8 6.6-4.3 1.7-8.7 2.1-13.2 2.8-1.5.3-1 2.4.3 2.5 9.3.8 20.1-6 26.8-11.8.1 0 0-.1-.1-.1zm-215.5 52.4c18.6-9.1 5.5-36.1-7.1-44.4-2-1.3-3.7 1.8-1.8 3.1 6.4 4.7 10.3 11.9 13.5 19 3.6 8 1.6 16.1-4.8 22.1-.1.1 0 .3.2.2z"/><path class="st4" d="M56.3 329.6c12.5 12.2 24.1 29.7 42.7 32.6 6.4 1 14-.1 17.9-5.9 2.8-4.2 4.6-12.5 1.2-16.8-1-1.2-3 .4-2.1 1.6 1.7 2.5.8 6.8 0 9.5-1.2 4.1-4 7.1-8.1 8.3-6.8 1.9-14.3-.7-20.2-4-11.6-6.6-21-17.1-30.3-26.4-.7-.8-1.9.4-1.1 1.1z"/><path class="st4" d="M56 328.9c5.2 2.3 11.6-.6 15.6-4 5.9-5 7.1-12.4 6.9-19.8-.4-15.8-3.6-31.6-7.8-46.8-.5-1.8-3.3-1-2.8.8 3.5 12.4 6.1 25.4 7.3 38.2.7 6.8 1.7 15.1-1.6 21.4-3.8 7.4-10.3 8.3-17.6 9.7-.2 0-.3.4 0 .5zm85.9-303c-21.4 3-40.1 19.7-52.7 36.2-14.3 18.8-22 41.6-24.1 65-.2 2.4 3.5 2.4 3.7 0 3.9-42.4 30.3-87.6 73.6-99.2 1.3-.4.7-2.2-.5-2zm50.5 157.7c16-12.5 28.3-31 37.1-49.1 4.5-9.2 8.3-18.6 11.8-28.2 3.8-10.7 8-22.5 7.4-34-.1-1.2-1.9-1.6-2.2-.3-2.1 11.1-4.3 21.8-8.1 32.5-3.5 9.9-7.4 19.7-11.9 29.2-8.9 18.8-19.8 34.8-35 49-.6.6.2 1.4.9.9z"/><path class="st4" d="M197.4 171.4c9.4-20.7 10.8-43.3 11.1-65.7 0-1.8-2.8-1.8-2.8 0 .4 22.1-.2 44.8-8.7 65.6 0 .2.3.3.4.1z"/><path class="st4" d="M206.4 106.3c-13.2 2.9-26 8.7-38.8 13-13 4.3-26 7.7-39.4 10.4-1.3.3-1.1 2.6.3 2.4 13.5-1.7 26.8-6 39.7-10.5 12.7-4.5 26.4-8.5 38.4-14.7.4-.1.1-.7-.2-.6zM270 79.2c-.3.3-.6.4-.8.8-.1.2.1.4.3.3.4-.3.5-.5.8-.9 0-.1-.2-.3-.3-.2zm-4.4 3c-.4.1-.7.2-1.1.4-.2.1 0 .5.2.4l.9-.6c.1-.1.1-.2 0-.2z"/><path class="st4" d="M270.9 78.6c-4.4 2.4-8.8 5-13.3 7.2-4.6 2.1-9.5 3.6-14 5.7-1.1.5-.3 2.1.8 1.9 9.4-1.9 19.5-8.1 26.5-14.8.1.1.1 0 0 0z"/><path class="st4" d="M264 84.6c2.2 8.7 6.1 17 9.3 25.3 2.8 7.3 5.4 14.7 8.9 21.8 3.7 7.6 8.4 14.9 12.7 22.1 4.7 7.8 9 16 14.3 23.4.5.7 1.5.1 1.1-.7-7.4-15.6-18-29.8-25.9-45.1-7.8-15.2-11.5-32.3-19.5-47.3-.2-.5-1.1-.1-.9.5zm-125.5 43.7c-3.1 3.4-3.5 8.9-5.2 13.2-2.3 5.9-5 11.7-8.3 17.1-2.6 4.5-5.4 8.9-8.7 12.9-3.7 4.4-8.3 7.5-13 10.6-.7.4-.3 1.6.6 1.4 9.5-3.2 16.6-12.7 21.5-21.1 3.3-5.7 6.1-11.7 8.8-17.7 2.1-4.7 6.2-10.8 5.6-16-.2-.4-.9-.9-1.3-.4zM197.8 0c-19.3 1-38 12.7-53.1 24.1-14.3 10.8-21.6 29.1-31.1 43.7-.4.6.5 1.2 1 .8 12.9-11.2 17-29.3 30.2-40.3 7.1-5.9 15.6-10.8 23.7-15.2 9.1-5 18.9-8.6 29.3-9.4 2.3-.2 2.4-3.8 0-3.7zm77.6 39.1c-1.7-8-5-16.9-13.1-20.1-9.6-3.9-21.4-2.4-30.5 2.2-1.1.6-.1 2.3 1 1.7 8.3-4.2 18.7-5.5 27.6-2.4 8.3 2.8 11.4 11.4 13.1 19.2.3 1.2 2.2.7 1.9-.6z"/><path class="st4" d="M324 83.7c-4-16-8.5-34.1-18.9-47.4-4.2-5.4-10-8.3-16.9-7.4-4.9.7-9.8 1.9-14.5 3.5-2.2.8-1.3 4.2 1 3.5 3.8-1.2 7.7-2.4 11.6-3.3 9.1-2 15.1 2.6 19.9 10.2 8 12.9 11.1 27.4 17.4 41 0 .4.4.2.4-.1zm18.2 246c-6.8 5.6-12 13.1-18.6 19.1-6.8 6.2-14.6 11.7-23.3 14.8-15.5 5.5-34.6 3.1-43.8-12-1.2-2-4.4-.2-3.1 1.8 9 14.7 27.8 19.3 43.7 14.4 8.9-2.7 17.1-7.8 24.1-13.9 7.8-6.7 16.2-15 21.3-24 .1-.2-.1-.4-.3-.2zm-217 53.8c6.8.1 15.1-4 21.2-7 7.1-3.5 14.3-7.8 20-13.3 1.2-1.1-.4-3.3-1.8-2.3-6.2 4.6-12.1 9.2-18.9 12.9-3.2 1.8-6.5 3.4-9.8 4.9-3.5 1.5-7.6 2.3-10.9 4.3-.2.1-.1.5.2.5zM238.6 30.6c-4.2-8.1-10.4-13.8-17.8-19C214 6.8 205.3.6 196.7 0c-2.1-.2-2.1 3.1 0 3.3 7.9.6 16.3 6.5 22.6 10.9 6.6 4.6 14 10.1 18.4 16.9.4.7 1.3.2.9-.5zM83.5 101.2c-33.4 37.5-42 95.2-23.4 141.5 6.4 16 15.9 30.2 25.7 44.3.6.9 2.1.1 1.5-.9-9.5-15.5-19.6-31.3-25.8-48.5-5.4-14.9-8-30.8-8-46.6.1-32.4 11.1-63.2 30.9-88.8.5-.8-.4-1.7-.9-1z"/></g></g><g id="colour"><g id="clothes"><path class="st5" d="M155.5 409.7s-34.3 17-47.3 7.3-34.3-14.7-47.3 3-18.7 55-18.7 78.4c0 23.3-13.7 72-13.7 72s22.3-2 37 3 24.7 15 24.7 15l7.7-21.7s-.8 29.1 14.8 45.6c0 0 1 11.2.5 30.8-.1 3.9-.8 17.8 1.2 31.5 2.9 19.9-3.7 39.5-11.1 58.3-13.2 33-33.5 84.7-36.4 97.6-4.3 19.3 60.7 68.3 139.7 68.3s140.3-55.3 135-73.7c-3.6-12.2-23-61.6-35.5-93.2-6.9-17.3-8.6-36.2-5-54.4 2.7-13.6 2-28.5 1.9-34.7-.5-22.7 1.1-28.1 1.7-31 0 0 17-21 18.3-40 0 0 2.7 25.7 10.3 37.7 0 0 .7-27.3 25-38.3s32-6.3 32-6.3-5.7-19.7-10.7-28c0 0 0-55.3-26-80.7-26-25.3-70.3-29.5-70.3-29.5L185 410.9l-29.5-1.2z"/><g id="clothes-outline"><path class="st6" d="M117.5 425.3c-7.8-11-20.8-18.6-34.6-17.6-14.9 1-25.5 13-31.2 25.8-6.7 15.2-10.6 32.7-11.2 49.3-.6 17.7 4.2 34.1 14.2 48.7.9 1.3 3 .1 2.1-1.2-8.4-13.7-13.2-27.8-13.2-43.9 0-15.1 3.3-30.4 8.1-44.6 4.6-13.6 13.3-28.1 28.5-31.2 12.9-2.7 28.5 5.3 36.6 15.2.4.2 1-.2.7-.5z"/><path class="st6" d="M43.2 500.6c-3.1 11.4-5 23.2-7.7 34.8-2.8 11.6-6 23-8.8 34.6-.4 1.5 1.8 2.1 2.3.6 3.7-11.6 6.5-23.6 9-35.5 2.4-11.2 5.2-22.8 6.2-34.3.2-.6-.8-.7-1-.2z"/><path class="st6" d="M89.9 588.3c-.9-4.4-5.5-8.3-8.9-10.9-4.2-3.3-9-5.8-14-7.6-12.4-4.5-26.1-4.1-39-1.9-1.8.3-1 2.9.7 2.7 22.3-3.4 45.7-.6 60.6 18 .3.2.6-.1.6-.3zm233.9-24.2c.1 0 .1-.1 0 0-.1-.1-.1 0 0 0zm-25.9 125.2c-1.2 19.6 4.9 39.9 11.5 58 6.9 19.1 13.6 39.1 22.9 57.3.2.5 1 .1.8-.3-5.6-19.6-13.9-38.6-20.9-57.7-3.3-9.1-6.3-18.2-8.4-27.7-2.2-9.8-3.1-19.8-4.7-29.8-.2-.6-1.1-.4-1.2.2zm-182.9-1c-3.9 22.6-10.9 45-20.2 66-4.2 9.4-9.3 18.3-13.2 27.8-4.4 10.7-6.8 21.9-9 33.2-.2.9 1.2 1.3 1.4.4 2.9-11.6 5.9-23.2 10.7-34.2 4.4-10 9.9-19.4 14-29.5 4.3-10.5 7.7-21.3 10.9-32.1 2.9-9.6 7.9-21.4 5.6-31.5 0-.2-.1-.2-.2-.1zm201.9-146.7c5.7 11.8 5.7 27.4 2.4 39.9-3.2 12.2-10.1 22.3-20.2 29.8-1.4 1-.1 3.4 1.4 2.4 11-7 17.8-19.2 20.5-31.7 2.8-13.1 3.2-28.7-3.9-40.5-.1-.2-.3 0-.2.1zm-214.2 2.9c-6.6 11.7-6.3 26.8-3.9 39.6 2.4 12.6 8.4 25.2 19.3 32.6 1.3.9 3-1.2 1.7-2.2-9.7-7.7-16.1-17.9-19.1-30-3.1-12.5-3.1-28 2.2-39.9.1-.1-.1-.3-.2-.1z"/><path class="st6" d="M97.6 565.6c-2.2 2.9-3 6.7-4.3 10-1.5 3.9-3.1 7.7-4.5 11.6-.4 1 1.3 1.7 1.7.7 1.5-3.6 2.9-7.3 4.3-11 1.3-3.6 3.3-7.3 3.5-11.1 0-.4-.5-.4-.7-.2zm224.7 4.7c.2 0 .2-.3 0-.3s-.2.3 0 .3z"/><path class="st6" d="M322.4 567.3c-.6 7.4 1 14.9 2.4 22.1 1.4 6.9 3.4 13.6 7.2 19.5.7 1.1 2.5.1 1.8-1.1-7.2-12.4-7.9-26.9-11.2-40.5 0-.2-.2-.2-.2 0z"/><path class="st6" d="M389.1 563.4c-6-3.2-13.4-1.5-19.5.5-7.1 2.3-13.4 5.6-19.8 9.6-11.7 7.4-19.1 18.8-18.3 32.9.1 1.9 3 1.9 2.9 0-1.6-27.5 30.4-44.4 54.5-42.6.3-.1.4-.3.2-.4z"/><path class="st6" d="M373.3 529c3.6 5.8 7.6 10.6 10.1 17.1 2.3 5.8 3.8 12 5.4 18 .5 1.7 3 1 2.6-.7-3.5-13.2-7-25.4-17.8-34.6-.2-.2-.5 0-.3.2z"/><path class="st6" d="M303.7 431.4c21.7 6.1 42.5 15.3 55.4 34.6 14.3 21.3 20 45.1 19.9 70.5 0 1.3 2.1 1.3 2.1 0-.1-26.2-6-51.1-21-72.8-6.2-9-13.9-16.1-23.7-21-10.2-5.1-21.4-9.8-32.5-12-.5-.1-.7.6-.2.7zm1.2 176.9c-4.2 5.8-4.4 15-4.4 21.9.1 8.8 1.2 17.5.9 26.3-.6 18.6-7.7 36.8-5.3 55.5.2 1.2 2.1 1.3 2 0-1.2-18.2 4.7-35.5 5.5-53.6.3-8.2-.6-16.5-1-24.7-.2-4-.2-8.1.1-12.1.4-4.6 1.9-8.8 2.5-13.2-.1-.1-.2-.1-.3-.1zM113.2 659c-.6 8.6 1.3 17.3 1.7 25.9.4 8.9.2 17.7-.5 26.6-.1 1.1 1.6 1.1 1.7 0 1-8.8 1.3-17.8.6-26.6-.7-8.7-3.1-17.2-3.1-25.9-.2-.2-.4-.2-.4 0z"/></g><g id="collafr"><path class="st7" d="M111.8 418.7s53.7-20.1 94.3-20.1 98.7 32.5 98.7 32.5-67 91.1-98 40.1c0 0-33 59.6-95-52.5z"/><path class="st8" d="M111.8 417.9s53.7-19.2 94.3-19.2 98.7 31.2 98.7 31.2-67 87.5-98 38.5c0-.1-33 57.1-95-50.5z"/></g><path id="Layer_24" class="st9" d="M212.5 591.3c-20.7 0-36.8 3.6-46.3 13.1-7.6 7.6 18.8 63.3 46 63.3 29.7 0 50.7-57.5 42.7-65.5-7.5-7.4-18.8-10.9-42.4-10.9z"/></g><g id="HEAD_x2F_HAIR"><g id="neck"><path class="st10" d="M159.8 297.5s15.1 82.4-1.3 113.4c0 0 16.6 46.9 48.3 46.9 26.3 0 40.7-47.9 40.7-47.9s-19.7-26.4-2.7-112.4h-85z"/><path id="Layer_19" class="st11" d="M162.6 309.3l2.5 24.3s21.8 28.7 41.3 28.7 32.5-27.8 32.5-27.8l3.9-34.8-83.3-.7 3.1 10.3z"/></g><path id="right-ear" class="st10" d="M117.5 198.7s-13.8-35.4-19.2-37.8-8.6 26.3-8.6 26.3 1 44.6 13.1 56.2c12.1 11.5 16.5 1 16.5 1s8.7-21.5-1.8-45.7z"/><path id="left-ear" class="st10" d="M294.1 197.1s16.4-35.7 22-37.8 7.2 27.7 7.2 27.7-3.8 46-16.9 57.2c-13.1 11.1-16.9 0-16.9 0s-7.7-22.8 4.6-47.1z"/><path id="SVGID_1_" class="st12" d="M311.1 153c0-57.4-46.6-104-104-104s-104 46.6-104 104c0 20.3 3.9 42 13.9 58-.3 2.1.3 53.4.3 53.4 0 15.8 9 30.4 22.7 38.3l43.4 24.9c13.7 7.9 30.7 7.9 44.4 0l42.8-24.9c13.7-7.9 21.7-22.5 21.7-38.3 0 0 .4-52.5.3-53.4 11.5-16.7 18.5-36.2 18.5-58z"/><defs><path id="SVGID_8_" d="M311.1 153c0-57.4-46.6-104-104-104s-104 46.6-104 104c0 20.3 3.9 42 13.9 58-.3 2.1.3 53.4.3 53.4 0 15.8 9 30.4 22.7 38.3l43.4 24.9c13.7 7.9 30.7 7.9 44.4 0l42.8-24.9c13.7-7.9 21.7-22.5 21.7-38.3 0 0 .4-52.5.3-53.4 11.5-16.7 18.5-36.2 18.5-58z"/></defs><clipPath id="SVGID_9_"><use xlink:href="#SVGID_8_" overflow="visible"/></clipPath><path class="st13" d="M114.2 165c1.1-.6 2.2-1.3 3.2-2 5.9-4.3 10.4-10.2 13.6-16.7 3.2-6.4 5.1-13.6 6.4-20.6.2-1.1.3-2.3.4-3.4-3.8-.2-7.5-.7-11.2-1.4-.6-.1-1-.4-1.2-.7l-.3.9c-2 5.7-4.3 11.1-8.1 15.8-3.4 4.2-7.5 7.6-11.9 10.3v19c2.7 0 5.5-.2 8.2-1 .4 0 .7-.1.9-.2zm93.3-63.3c.1-.7.2-1.5.4-2.2s1.3-.9 1.6-.2c.1.2.2.5.3.7.2-.2.5.2.4.4l-.2.2c.2.5.3.9.5 1.4.5.2.7.7.4 1.2 2 7.5 1.6 16.8.8 23.9-.8 7.7-2.6 15.4-4.6 22.8-1 3.8-2.3 8-3.8 12.2 2.2-2.8 4.7-5.4 7.1-8.1 8.5-9.4 16.9-19.4 23.1-30.5 3.9-7.1 6.8-14.6 10.3-21.8.8-2.2 1.7-4.3 2.9-6.3.6-1 1.3-1.8 2-2.6.2-.3.4-.6.5-.8 3.4-5.2 7-10.3 10.1-15.6 2-3.5 3.3-7.6 5.2-11.1h-7.4c-1.4.6-2.8 1.3-4.2 1.9-3.9 1.6-8.1 2.4-11.9 4.2-6.4 3-10.3 10.6-13.3 16.7-3.6 7.4-3.5 16-7.3 23.3-.8 1.6-3.7 1.4-4.1-.5-.8-4.4-.7-9-1.4-13.4-.4-2.4-.8-5.1-2-7.2-1.5-2.6-2.8-2.1-5.3-1.2-12.4 4-24.9 7.5-37.2 12.1-6.9 2.6-13.8 5.2-21 6.8-2.1.5-4.2.8-6.3 1.1.2.9.4 2 .5 3 3.6.2 7.3.6 10.5.5 6.9-.2 13.9-.1 20.8-.8 8.8-.9 17.6-3 26-6 2.2-1.3 4.5-2.6 6.6-4.1z"/><path id="hair2" class="st0" d="M310.5 164.4s-37-52.7-46.3-93.7c0 0-84.3 35.7-125.3 45.3 0 0-11.7 43.6-34.8 52 0 0-17.9-70 28.8-99.6s76.7-33.3 100.3-28 82.3 38.3 86 68.3c3.6 30-8.7 55.7-8.7 55.7z"/><path id="lock" class="st0" d="M204.8 66s6.8 69.5-13.5 104c0 0 44.8-32.2 59.5-126 0 0-8-20.5-29.8-12.3S204.8 66 204.8 66z"/><path class="st11" d="M170.5 159.7c-1.3-.5-2.7-.9-4.1-1.3 1.1 1.1 2 2.2 2.8 3.2.8 1.1 2.4 3.4 3.5 5.8.3-.5.7-1 1-1.6.6-1 1.1-2.1 1.7-3.2-1.5-1.1-3-2.2-4.9-2.9z"/></g><g id="eyes"><ellipse transform="rotate(-16.973 158.497 199.73)" class="st14" cx="158.5" cy="199.7" rx="23.4" ry="36.9"/><ellipse transform="rotate(-72.782 255.586 199.797)" class="st14" cx="255.6" cy="199.8" rx="36.9" ry="23.4"/><ellipse class="st4" cx="173.1" cy="206.3" rx="8.5" ry="13.9"/><ellipse class="st4" cx="241.1" cy="206.3" rx="8.5" ry="13.9"/><ellipse class="st15" cx="173.5" cy="207.2" rx="4.5" ry="6.2"/><ellipse class="st15" cx="241.5" cy="206.2" rx="4.5" ry="6.2"/><ellipse class="st14" cx="244" cy="198.6" rx="4" ry="3.7"/><ellipse class="st14" cx="176.5" cy="199.6" rx="4" ry="3.7"/></g><path id="nose" class="st11" d="M199.3 250.4s3.6 2.2 7.5 2.2 8.4-2.2 8.4-2.2 17.8 9.3 18.1 1.1c0 0 3 9.1-1.8 12.3 0 0-14-3.1-16.9.4s-2.2 11.8-7.9 11.8-2-9.1-6.2-11.9-16.9-.6-16.9-.6-5.1-6.2-.8-11.1c.1-.1-2.1 7.1 16.5-2z"/><path class="st11" d="M247.8 161.1c-1 .3-1.9.6-2.8.9-.5.3-1 .5-1.4.8-.1.1-.1.2-.2.3.6.9 1.2 1.7 1.9 2.5 1.6-1.2 3.2-2.3 5-3.2 2.1-1.1 4.8-2.2 7.5-2.8-.4-.1-.7-.2-1.1-.2-3 .4-6 .9-8.9 1.7z"/></g><g id="mouth"><path class="st14" d="M241 301s-.1 5.7-9.8 7.8c-9.7 2.2-21.5 5.2-39 .7 0 0-6.3-2.2-7.4-3.2-1.1-1-4.4-9.2-4.4-10.7 0-1.4-.8-4.1 3.6-6.3 4.3-2.2 24.4-4.8 24.4-4.8l31.4-1.2 8.6-.1c0 .2-5.9 13.5-7.4 17.8z"/><path class="st16" d="M165.8 292.9s10.8 4.7 13.9 7.6c3.1 3 5.1 5.8 5.1 5.8s-4.2-8.7-2.6-14.2c0 0-2 2.4-16.4.8zm80.5-9s-3.7 10-4.8 15.4c0 0 8.4-13.4 13.3-16.9l-8.5 1.5z"/><path class="st16" d="M198 298.4s-7.2-.4-8.2-.8c0 0-4.5 1.6-8.7-1l1.2 4.7s2-2.2 5.8-1.8c-.1 0 1.5-1 9.9-1.1zm46.8-7s-5 3.4-14.6 3.8l-2.6 1.2-5.8.1s1.6 1.3 5.9 1.6c0 0 3.7-3 8.9-.7 0 0 2.4-.8 5.5.5l2.7-6.5zm-62.5 1.5s9-5.6 23.6-3.1c0 0 10.1-3.7 25.4-3.6 15.2.1 23.2-2.3 25-4.6 0 0 5.7 0 9-1.2 0 0-3.4 1.4-10.5-1.3 0 0-1.1 1.2-4.8 1.8-5.1.9-13.2-1.8-34.4-4.8 0 0-5.6 1.3-10.2 5.7 0 0-4.9-2.3-9.6-2.3-4.8 0-17.2 13.4-17.2 13.4s-12.1.5-16.1-1.5c0 0 11.9 5.8 15.4 3.8s2.9-1.3 4.4-2.3z"/><ellipse class="st11" cx="210.5" cy="320.7" rx="11.3" ry="2"/></g><g id="arms-fill"><path id="XMLID_2_" class="st12" d="M29 570s40.7-7.5 61.1 18.2c0 0-5.1 21.2-11.2 32.7 0 0 19.1-8.8 37.1-23.9s35.2-30.2 35.2-30.2 2.4-1.5 3.5-5.5 4.5-20 5.3-27.6 4.7-28.5 6.3-31.6l6.6-5.1s15.8-12.7 21.7-14.2c5.4-2 11.3-3.6 11.3-3.6s5.5 6 4 18.4c0 0 5.7 2.2 3.3 16.9 0 0 4.6.5 3.8 3.7 0 0-2.2 15.4-4.7 17.9 0 0-.1 10.1-6.1 20.5 0 0-7.1 6.1-11.6 1.4l-.2-.5-1.8 24.6s0 2.5-4 4.2-7.9 3.2-20.5 5.5h-.4s-26 28.9-36.7 45.6-26.3 38.6-26.3 38.6-20.1 28.2-26.6 34.5c-7.1 7.4-21.4 23.2-49.1 30.8 0 0-13.3 3.2-15.8 3.1l-4.5-2.8s-4-1.6-3.6-6.8c.4-5.1 0-4.5 0-4.5s.5-7.2 1-9.2c.4-2-1.3-7.4-1.3-7.4S1.2 702.2.6 693.8s.1-20.4.1-20.4S5.3 644 8.3 637c2.6-9 18.7-61.1 20.7-67z"/><defs><path id="SVGID_10_" d="M29 570s40.7-7.5 61.1 18.2c0 0-5.1 21.2-11.2 32.7 0 0 19.1-8.8 37.1-23.9s35.2-30.2 35.2-30.2 2.4-1.5 3.5-5.5 4.5-20 5.3-27.6 4.7-28.5 6.3-31.6l6.6-5.1s15.8-12.7 21.7-14.2c5.4-2 11.3-3.6 11.3-3.6s5.5 6 4 18.4c0 0 5.7 2.2 3.3 16.9 0 0 4.6.5 3.8 3.7 0 0-2.2 15.4-4.7 17.9 0 0-.1 10.1-6.1 20.5 0 0-7.1 6.1-11.6 1.4l-.2-.5-1.8 24.6s0 2.5-4 4.2-7.9 3.2-20.5 5.5h-.4s-26 28.9-36.7 45.6-26.3 38.6-26.3 38.6-20.1 28.2-26.6 34.5c-7.1 7.4-21.4 23.2-49.1 30.8 0 0-13.3 3.2-15.8 3.1l-4.5-2.8s-4-1.6-3.6-6.8c.4-5.1 0-4.5 0-4.5s.5-7.2 1-9.2c.4-2-1.3-7.4-1.3-7.4S1.2 702.2.6 693.8s.1-20.4.1-20.4S5.3 644 8.3 637c2.6-9 18.7-61.1 20.7-67z"/></defs><clipPath id="SVGID_11_"><use xlink:href="#SVGID_10_" overflow="visible"/></clipPath><path class="st17" d="M78.8 620c1.3-.7 2.6-1.5 3.9-2.2.3-.5.6-.9.9-1.3 1-1.4 1.9-2.4 3.2-3.1-.1-.5 0-1 .3-1.5 5.1-8.9 8.7-17.4 11-27.4.4-1.5.7-3.1 1.1-4.6-5.1-2.9-9.7-7-14.5-10.2-3-2-6-3.9-9.2-5.4-.3-.1-.6-.3-.9-.4-.3 3.7-1.5 7.5-2.2 11.1-1 5-1.9 10-3.1 15-2.2 8.4-5.9 16-10.8 23.1-4.8 6.9-10.4 13.1-15.3 20-.6.8-1.1 1.6-1.6 2.4 3.1-2.1 6.6-3.6 10.2-4.9.4-.5 1-.7 1.6-.9.7-.2 1.4-.5 2.1-.7.2-.1.4-.1.6 0 2.2-1.1 4.9-1.7 7.1-2.4 1.7-.6 3.7-1.3 5.7-1.7.1-.1.2-.2.4-.2.9-.4 1.6-.4 2.5-.5 1.4-.6 2.8-1.1 4.2-1.5.3-.1.5-.2.8-.4.4-.2.9-.5 1.3-.7-.2-.6 0-1.2.7-1.6zm137.4-91.4v-.3c-.3.1-.7-.1-.7-.5-.9-12.2-15.2.1-21.2 4.1 2.6-.2 5.3-.2 7.8-.3 3-.1 6.2.3 8.4 2.4 1.6 1.6 2.6 5.7 2.3 9.3 2.1-4.5 2.8-9.8 3.4-14.7zm-12-21.4c-3.9 2.2-5.9 5.3-7.8 8.7 3.4-2.7 11.3-2.5 14.7-2 1.7.3 3.9 1.3 5.3 2.7-.2-1.9-.5-3.7-1-5.5-.4-1.4-1-3.1-1.6-4.9-.6-.6-1.4-1-2.5-1.1-2.3-.3-5.1 1-7.1 2.1z"/><defs><path id="SVGID_12_" d="M29 570s40.7-7.5 61.1 18.2c0 0-5.1 21.2-11.2 32.7 0 0 19.1-8.8 37.1-23.9s35.2-30.2 35.2-30.2 2.4-1.5 3.5-5.5 4.5-20 5.3-27.6 4.7-28.5 6.3-31.6l6.6-5.1s15.8-12.7 21.7-14.2c5.4-2 11.3-3.6 11.3-3.6s5.5 6 4 18.4c0 0 5.7 2.2 3.3 16.9 0 0 4.6.5 3.8 3.7 0 0-2.2 15.4-4.7 17.9 0 0-.1 10.1-6.1 20.5 0 0-7.1 6.1-11.6 1.4l-.2-.5-1.8 24.6s0 2.5-4 4.2-7.9 3.2-20.5 5.5h-.4s-26 28.9-36.7 45.6-26.3 38.6-26.3 38.6-20.1 28.2-26.6 34.5c-7.1 7.4-21.4 23.2-49.1 30.8 0 0-13.3 3.2-15.8 3.1l-4.5-2.8s-4-1.6-3.6-6.8c.4-5.1 0-4.5 0-4.5s.5-7.2 1-9.2c.4-2-1.3-7.4-1.3-7.4S1.2 702.2.6 693.8s.1-20.4.1-20.4S5.3 644 8.3 637c2.6-9 18.7-61.1 20.7-67z"/></defs><clipPath id="SVGID_13_"><use xlink:href="#SVGID_12_" overflow="visible"/></clipPath><path class="st18" d="M213 475c.4 1.5.6 3 .8 4.4.4 3 .9 6.2.6 9.3 1.5 4 1.7 8.7 3 12.8 1.6 4.9 3.4 9.7 4.1 14.8 1.2 9.9 0 23.1-5.2 31.8-.2.3-.4.5-.6.7-.4 3.1-2.3 6.1-4 8.5-2.7 3.8-5.9 8.7-9.5 11.6-.6.5-1.6.5-2.2.1-.5 8.3 1.6 17.4-5.6 23.2-1.3 1-2.8 1.9-4.3 2.5h39.2V475H213z"/><defs><path id="SVGID_14_" d="M29 570s40.7-7.5 61.1 18.2c0 0-5.1 21.2-11.2 32.7 0 0 19.1-8.8 37.1-23.9s35.2-30.2 35.2-30.2 2.4-1.5 3.5-5.5 4.5-20 5.3-27.6 4.7-28.5 6.3-31.6l6.6-5.1s15.8-12.7 21.7-14.2c5.4-2 11.3-3.6 11.3-3.6s5.5 6 4 18.4c0 0 5.7 2.2 3.3 16.9 0 0 4.6.5 3.8 3.7 0 0-2.2 15.4-4.7 17.9 0 0-.1 10.1-6.1 20.5 0 0-7.1 6.1-11.6 1.4l-.2-.5-1.8 24.6s0 2.5-4 4.2-7.9 3.2-20.5 5.5h-.4s-26 28.9-36.7 45.6-26.3 38.6-26.3 38.6-20.1 28.2-26.6 34.5c-7.1 7.4-21.4 23.2-49.1 30.8 0 0-13.3 3.2-15.8 3.1l-4.5-2.8s-4-1.6-3.6-6.8c.4-5.1 0-4.5 0-4.5s.5-7.2 1-9.2c.4-2-1.3-7.4-1.3-7.4S1.2 702.2.6 693.8s.1-20.4.1-20.4S5.3 644 8.3 637c2.6-9 18.7-61.1 20.7-67z"/></defs><clipPath id="SVGID_15_"><use xlink:href="#SVGID_14_" overflow="visible"/></clipPath><path class="st19" d="M203.1 496.8c1.2-.1 5.4-.2 8.1.8-.4-2-.6-4-.4-5.8-1.4-2.2-3.6-3.4-7-1.8-2.5 1.1-4.7 3-6.7 4.8-1.1 1-2.1 2.1-3 3.2 2-.4 4-.6 5.5-.7 1.5-.3 2.8-.4 3.5-.5zm-7 66c-.3-.8.1-1.9.8-2.4 1.8-1.4 4.3-1 5.8-3.1 1.1-1.5 1.2-3.7 1.3-5.5.1-1.9-.1-4.4.3-6.6-2.1 1.2-4.2 2-5.3 2.5-2.7 1-6.8 2.1-10 1.4 1.9 10.3 4 21.8-2.6 30.6-4.2 5.6-11 10.2-18.2 12.1.1.4.2.8.3 1.3 7.8-1.5 17 .5 23.2-5.2 6.3-6 1.1-17.3 4.4-25.1z"/><path id="XMLID_4_" class="st12" d="M333.2 609s-1.7-25 21.7-37.3S390 564 390 564s8.7 15.3 8.5 21.4c0 0 6.3-4.1 11.4-11.5s14-21.5 14-21.5 31.3-52.2 32.2-59.3c0 0-2.8-6.4-17.4-19 0 0-2.1-4-3.1-11.6s-2.1-11.5-2.1-11.5.5-6 1.2-8.3.9-11.6-7.2-31.3c0 0-3-7.1-4.4-8.9s.3-3.1 1.8-3c1.5.2 11.4 1.5 19.1 13.7 0 0 4.4 5.9 4.8 9.9.5 4 .7 7 .8 7.7s.7 5.3 4.3 7.7c0 0 10.1-7.9 13.4-18 3.3-10 7.8-37.7 8.4-48.2s2.4-23.5 8.1-23.6 5.2 9.2 5.2 9.2-.8 24.2-2.3 33.2-2.6 20.7-2.4 24.8c.2 4.2.1 6.7 3.1 7.6s5.7-2.9 5.7-2.9 6.1-7.1 15.2-41.1 8.3-30.6 8.3-30.6 2.6-7.2 7.4-6.3c4.8.9 4.6 3.1 4.3 6.2-.3 3.2-3.6 14.5-3.6 14.5L511 412.8s-3.6 11.8.8 14.3c4.4 2.4 9.4-6.4 9.4-6.4s17.1-33.4 20.3-44.3 9.2-15.6 12-14.9 4.9 4.2 2.9 8.6-17.6 38.5-17.6 38.5l-7.9 17.4s-2 6.2 1.1 8.3c1.4 1.1 2.7-.8 2.7-.8s23.3-22 28.1-24.7 5.9-2.4 7.2-.6.9 3.7-1.5 6.6-17.7 15.6-17.7 15.6-9.8 8.6-13.3 17.6-3.3 12.5-12.6 28c-9.4 15.5-11 17.3-18.9 23.7-7.8 6.3-14.7 7.6-14.7 7.6l-38 85.2s-24.8 57.1-27.1 61.5-10.2 18.4-18.2 27.4-17.3 18-18.8 19-6.2 4.9-12.6 4.6c-6.4-1.6-8-11.8-8.5-14-7-29-24.3-54.9-34.9-82z"/><defs><path id="SVGID_16_" d="M333.2 609s-1.7-25 21.7-37.3S390 564 390 564s8.7 15.3 8.5 21.4c0 0 6.3-4.1 11.4-11.5s14-21.5 14-21.5 31.3-52.2 32.2-59.3c0 0-2.8-6.4-17.4-19 0 0-2.1-4-3.1-11.6s-2.1-11.5-2.1-11.5.5-6 1.2-8.3.9-11.6-7.2-31.3c0 0-3-7.1-4.4-8.9s.3-3.1 1.8-3c1.5.2 11.4 1.5 19.1 13.7 0 0 4.4 5.9 4.8 9.9.5 4 .7 7 .8 7.7s.7 5.3 4.3 7.7c0 0 10.1-7.9 13.4-18 3.3-10 7.8-37.7 8.4-48.2s2.4-23.5 8.1-23.6 5.2 9.2 5.2 9.2-.8 24.2-2.3 33.2-2.6 20.7-2.4 24.8c.2 4.2.1 6.7 3.1 7.6s5.7-2.9 5.7-2.9 6.1-7.1 15.2-41.1 8.3-30.6 8.3-30.6 2.6-7.2 7.4-6.3c4.8.9 4.6 3.1 4.3 6.2-.3 3.2-3.6 14.5-3.6 14.5L511 412.8s-3.6 11.8.8 14.3c4.4 2.4 9.4-6.4 9.4-6.4s17.1-33.4 20.3-44.3 9.2-15.6 12-14.9 4.9 4.2 2.9 8.6-17.6 38.5-17.6 38.5l-7.9 17.4s-2 6.2 1.1 8.3c1.4 1.1 2.7-.8 2.7-.8s23.3-22 28.1-24.7 5.9-2.4 7.2-.6.9 3.7-1.5 6.6-17.7 15.6-17.7 15.6-9.8 8.6-13.3 17.6-3.3 12.5-12.6 28c-9.4 15.5-11 17.3-18.9 23.7-7.8 6.3-14.7 7.6-14.7 7.6l-38 85.2s-24.8 57.1-27.1 61.5-10.2 18.4-18.2 27.4-17.3 18-18.8 19-6.2 4.9-12.6 4.6c-6.4-1.6-8-11.8-8.5-14-7-29-24.3-54.9-34.9-82z"/></defs><clipPath id="SVGID_17_"><use xlink:href="#SVGID_16_" overflow="visible"/></clipPath><path class="st20" d="M398.5 573.2c-1.2-6.3-4.2-11.8-7-17.4-1.6 2.3-4.5 1.7-7.2 2-4.7.4-8.8 3.1-13 4.9-3.7 1.6-7.5 2.8-11.2 4.2-1.6.6-3.1 1.4-4.5 2.3v1.3c1.8-.7 3.8-.8 5.5-.5 4.8 1 8.3 5.2 10.8 9.1 2.9 4.6 5.2 10 6.4 15.4.4 1.8.8 3.9 1.1 6.1 1.1-.9 2.2-1.7 3.4-2.5 3.1-3 7-5.7 10.1-7.9 1.5-1.1 4.1-3.2 6.7-4.4.5-.5 1-1 1.4-1.5-1.7-3.6-2.1-8.8-2.5-11.1zM432 412.9c-1.3-2.7-3.1-5.1-5-7.4-1.2-1.4-3-2.5-4.1-4-.5-.7-.8-1.4-.9-2.1h-1.7c2.2 4.5 3.5 9.6 5.2 14.3 1.8 5.1 4.4 9.8 5.5 15.2.9 4.6 2.2 11.8 1.1 17.7h.7c2.3-5.1 4-10 3.8-16-.2-6.1-2-12.2-4.6-17.7zm25.1 18.3c-.5-1.5-1.3-2.8-2-4.2-.2-.3-.3-.7-.4-1-.6.3-1.3.3-2 0-2.2-1-5-3.7-7.5-.4-.7.9-.8 2.6-.8 3.6 0 2.6 1.2 4.9 3.1 6.7 1.4 1.4 3.1 2.4 4.8 3.2.8-.7 1.5-1.4 2.1-2.2 1.2-1.7 1.9-3.6 3-5.3-.2-.1-.2-.3-.3-.4zm11.1 137c8.2-14.8 14.3-31.6 24.7-45.1 9.1-11.9 22.5-19.7 31.4-31.7 4.9-6.6 7-14.3 10.1-21.7 2.6-6.3 5.7-14.6 10.9-19.3h-7.1c-1.1 2.9-3.1 5.8-3.9 7.2-3.6 6-7.6 11.9-12.1 17.3-6.8 8.3-14.9 15.9-24 21.6-4.3 2.7-9.7 5.1-15 5.2-.7 5.6-2.3 11.3-3.6 16.7-1.8 7.3-3.9 14.6-6.2 21.7-4.7 14.7-10.1 29.2-15.1 43.7-.3.7-.5 1.4-.7 2.2 4.5-5.2 7.4-11.9 10.6-17.8zM487 420.9c-2-2.6-1.4-6-.9-9 .8-4.7 1.6-9.3 2.3-14 1.8-10.7 2.9-21.3 3.6-32.1.3-4.8.3-9.1-1.5-13.7-.4-1.1-.8-2.1-1.2-3.2h-5.9c1.2 1.1 2 2.8 2.2 5 .4 3.5-.3 7.2-.5 10.7-.3 5-.6 10-1.2 15-1.1 10.1-2.3 20.1-2.6 30.3-.1 3.5-.3 7.5 1.4 10.7 1.3 2.5 4.7 4.5 7.5 2.9.2-.1.4-.3.7-.4-1.5-.3-2.9-.9-3.9-2.2zm28.9-13.6c2.3-7.7 3.2-15.5 4.8-23.4 1.5-7.8 3.5-15.6 5.3-23.3.9-3.9 3-7.8 3.7-11.7.5-2.7-.9-7.4-3.7-8.8h-1c.8 1.3 1.5 2.6 1.7 3.5 1.9 8.1-3.5 17.3-5.5 25-2.7 10.2-6.3 20.3-8.3 30.7-1 5.1-2.1 10.1-3.3 15.1-.8 3.1-1.9 6.7-.3 9.7.7 1.4 1.7 2.2 2.8 2.5.8-6.5 2-13 3.8-19.3zm16.7 20.7c4.2-7.9 8.7-15.6 12.6-23.8 4.1-8.7 8.2-17.6 11.8-26.4 1.4-3.3 2.8-7.1 2.4-10.8-.4-3.3-2.1-5.1-4.2-7 .4 3.4-.6 7.4-2 11-1 2.9-2.2 5.6-3 7.5-.9 2.3-1.9 4.6-2.9 6.8-.8 2.1-1.7 4.1-2.5 6.2-.7 1.8-1.4 3.7-2.3 5.4-2.2 6.1-4.5 12-7.5 17.8-2.8 5.4-7.1 13.1-4.4 18.6.4-1.9 1.1-3.7 2-5.3zm4.6 22.3c1.1-1.7 2.3-3.3 3.5-4.8 3.6-4.5 7.6-9.5 12.2-13 5.1-4 11.1-7.9 14.7-13.5.9-1.3 1.5-2.7 2.1-4.1-.1.1-.2.3-.2.4-2 3.6-4.8 6.6-8.4 8.5-.5.2-.9.1-1.2-.1-1.2 1.1-2.5 1.9-3.9 2.1h-.2c-3.5 3.2-7.7 6.1-11 8.8-3.2 2.7-6.1 5.7-8.9 8.8.3.8.5 1.7.7 2.4.2 1.3.5 2.9.6 4.5z"/></g><g id="arms"><g id="arm"><path class="st21" d="M456.1 493.1c-10.3 21.3-21.8 41.8-34.3 61.9-6 9.7-11.8 20.1-20.4 27.7-7.4 6.6-16.6 10.9-22.9 18.9-.3.3.2.8.5.5 6.3-7.9 15.5-12.2 22.9-18.9 8.2-7.3 13.7-17.1 19.5-26.3 12.8-20.5 25.2-41.6 35-63.7 0-.1-.2-.3-.3-.1z"/><path class="st21" d="M456.5 493.2c-3.2-5.1-7.1-9.8-11.6-13.9-1.1-1-2.3-2-3.4-2.9s-2.2-1.9-3-3.1c-.9-1.3-1.2-2.8-1.4-4.3-.3-1.7-.6-3.4-.9-5.2-.6-3.4-1.2-6.9-1.8-10.3-.3-1.7-.6-3.4-.4-5.1.2-1.6.6-3.2.9-4.8.9-6.5-.5-13.1-2.4-19.4-1.9-6.2-4.1-12.3-7-18-.4-.7-.7-1.4-1.1-2.2l-1.2-2.1c-.8-1.7.9-2.3 2.3-2.2 1.3.1 2.7.5 3.9 1 1.3.5 2.5 1.1 3.6 1.7 4.7 2.8 8.4 7 11.4 11.6 1.6 2.5 3.2 5.2 4 8.2.8 2.9.6 5.9 1 8.9.4 2.8 1.5 5.1 3.7 6.9 2.1 1.8 4.5 3 6.8 4.4 5.2 3.2 9.9 7 14 11.4 1 1.1 2 2.2 2.9 3.4.2.2.6-.1.4-.4-3.9-4.8-8.4-9-13.5-12.6-2.4-1.7-5-3.1-7.5-4.7-2.5-1.5-4.8-3.4-5.8-6.3s-.7-6-1.1-8.9c-.4-3.1-1.8-6-3.4-8.6-2.8-4.7-6.2-9.1-10.7-12.4-2.1-1.6-4.5-2.8-7-3.6-1.5-.5-4.9-1.5-5.8.6-.2.5-.1 1.1.1 1.6.4.8.9 1.5 1.3 2.3.8 1.4 1.5 2.9 2.2 4.3 1.4 3.1 2.7 6.2 3.8 9.4 2.3 6.5 4.5 13.2 4.7 20.1.1 1.6 0 3.3-.2 4.9-.2 1.7-.7 3.4-.9 5.1-.2 1.6 0 3.2.3 4.8.3 1.8.6 3.5.9 5.3.6 3.5 1.2 7 1.9 10.6.3 1.5.5 3 1.3 4.4.7 1.2 1.7 2.2 2.7 3.1 2.3 2 4.7 4 6.9 6.2 2.2 2.3 4.2 4.7 6.1 7.2.9 1.2 1.7 2.5 2.5 3.8.3.3.7 0 .5-.2z"/><path class="st21" d="M491.9 421.7c-2.1 1.4-5.8 2.7-6.9-.5-.5-1.4-.5-3-.5-4.4 0-1.7 0-3.3.1-5 .4-6.6 1.3-13.1 2.1-19.7.8-6.5 1.5-13 2-19.5.2-3.3.4-6.6.4-9.8v-4.9c0-1.5 0-2.9-.3-4.4-.5-2.4-2.1-4.8-4.7-5.1-2.4-.3-4.2 1.6-5.1 3.6-1.1 2.5-1.7 5.3-2.2 8-.5 2.9-.9 5.8-1.1 8.7-.3 3-.5 6-.7 9.1-.3 3.1-.7 6.2-1.1 9.3-.9 6.5-1.9 13-3.3 19.5-1.2 5.8-2.4 11.8-5 17.1-2.2 4.5-5.3 8.4-9 11.9-.9.9-1.9 1.8-2.9 2.6-.2.2.1.6.4.4 3.8-3.3 7.3-6.9 10-11.1 1.3-2 2.4-4.2 3.2-6.5 1-2.7 1.7-5.6 2.4-8.4 1.5-6.5 2.7-13 3.7-19.5.9-6.1 1.7-12.1 2.2-18.3.5-6 .9-12.2 2.4-18.1.6-2.4 1.3-5.6 3.4-7.1 1.2-.9 2.7-.9 4-.2 1.3.7 2.1 1.9 2.6 3.3.5 1.5.5 3 .6 4.5 0 1.6.1 3.3 0 4.9 0 3.2-.2 6.5-.4 9.7-.4 6.6-1.2 13.1-2 19.6s-1.7 13-2.2 19.6c-.1 1.7-.2 3.3-.2 5 0 1.4 0 2.9.2 4.3.2 1.1.7 2.2 1.6 2.9.9.6 2 .7 3.1.5 1.2-.2 2.3-.8 3.3-1.5.4-.2.2-.6-.1-.5z"/><path class="st21" d="M516.1 426.4c-1.4.5-3.2 1.1-4.6.2-1.1-.7-1.5-2.2-1.6-3.5-.3-3.4.5-6.9 1.3-10.1 1.5-5.7 3.2-11.4 4.7-17.1 2-7.3 3.8-14.6 5.9-21.9 2-7.1 4.4-14.2 6-21.4.6-2.7 1.8-6.4-.4-8.7-1.6-1.7-4.3-1.9-6.3-1.1-2.6 1.1-4.1 3.8-5 6.3-1.2 3.5-2.1 7.1-3 10.6-1.9 7.2-3.7 14.5-5.7 21.7-1 3.4-2 6.7-3.1 10.1l-2.7 9c-1.9 6-4 12-7.2 17.4-.8 1.3-1.6 2.6-2.6 3.8-.2.3.2.5.4.3 3.8-5 6.3-10.7 8.3-16.6 2.1-5.9 3.8-12 5.6-18 2.2-7.1 4-14.2 5.9-21.4.9-3.6 1.9-7.2 2.9-10.8l1.5-5.4c.4-1.5 1-2.9 2-4.1 1.6-2.2 4.4-3.6 7.1-2.5 3.6 1.4 2.5 5.7 1.9 8.6-1.5 7.2-3.9 14.1-5.9 21.2-2.1 7.3-3.9 14.6-5.9 21.9-1.6 5.9-3.3 11.7-4.8 17.6-.8 3.2-1.6 6.6-1.5 9.9 0 1.3.2 2.8 1 3.9.8 1 2 1.4 3.3 1.3.9-.1 1.7-.3 2.6-.7.3-.1.2-.6-.1-.5z"/><path class="st21" d="M534.3 433.7c-.3.7-1.1 1-1.8.8s-1.2-.9-1.5-1.6c-.6-1.2-.7-2.6-.5-4 .3-2.8 1.6-5.3 2.8-7.8 1.3-2.7 2.5-5.5 3.7-8.2 1.4-3.1 2.7-6.1 4.1-9.2 2.7-6 5.4-12 8.2-18l4.2-9 2.1-4.5c.6-1.3 1.2-2.6 1.6-4 .5-2.1.2-4.6-1.6-6-1.1-.8-2.7-.9-4-.5-3 .9-5 4-6.4 6.6-1.7 3-3 6.2-4.2 9.5-1.8 4.8-3.7 9.5-5.7 14.2-2.5 5.8-5.3 11.6-8 17.3-2.4 5-4.7 10-8.2 14.3-.9 1-1.8 2-2.8 2.9-.1.1.1.3.2.2 4.1-3.7 6.8-8.5 9.2-13.4 2.7-5.5 5.3-11.1 7.9-16.7 2.5-5.6 4.9-11.2 7.1-16.9 1.1-3 2.2-6 3.6-8.9 1.5-3 3.3-6.4 6.2-8.2 1.2-.8 2.7-1.1 4.1-.7 2.9.9 3.2 4.4 2.4 6.8-.5 1.5-1.2 3-1.9 4.4l-2.1 4.5c-1.4 3-2.8 6.1-4.2 9.1-2.8 6-5.5 12.1-8.2 18.1-2.6 5.7-5 11.5-7.7 17.1-1.1 2.3-2.2 4.7-2.4 7.2-.1 1.7.3 5.1 2.5 5.4.8.1 1.5-.2 1.8-1-.2.1-.5.1-.5.2z"/><path class="st21" d="M534.7 433.9c5.2-5.4 10.7-10.4 16.3-15.3l8.7-7.2c1.4-1.1 2.7-2.3 4.2-3.2 1.4-.9 3.3-1.7 4.9-.7 1.4.8 1.8 2.7 1.4 4.2-.4 1.6-1.6 2.9-2.8 4.1-2.1 2.1-4.3 4-6.5 5.9-4.4 3.8-9 7.4-13.1 11.5-4.6 4.5-8.5 9.7-10.8 15.8-.1.2.2.2.2.1 4.3-11.8 14.8-19.4 24-27.2 2.3-1.9 4.5-3.9 6.6-6.1 1.8-1.9 3.8-4.8 2.1-7.4-1.9-2.8-5.5-.8-7.5.7-3 2.3-5.8 4.7-8.7 7.1-6.7 5.6-13.2 11.4-19.2 17.7-.1-.1.1.1.2 0z"/><path class="st21" d="M537 448.7c-2.7 10.2-7.8 19.5-13.1 28.6-2.7 4.5-5.2 9.1-8.5 13.2-2.9 3.6-6.3 6.8-10 9.5-4.2 3.1-8.9 5.5-13.8 7.2-.3.1-.2.6.1.5 8.8-3 16.8-8.4 22.9-15.4 3.4-3.9 6-8.3 8.6-12.7 2.7-4.6 5.4-9.2 7.8-14 2.7-5.3 5-10.9 6.5-16.7 0-.4-.5-.6-.5-.2z"/><path class="st21" d="M491.4 507.2c-6.6 13.4-12.8 27-18.8 40.6-6.3 14.3-12.5 28.6-18.6 42.9-6.1 14.2-12.2 28.5-18.5 42.7s-12.3 28.7-21.9 41c-4.7 6-10 11.6-15.3 17-4.4 4.5-8.8 9.8-14.9 12.2-1.5.6-3 1-4.5 1.2-.3.1-.2.5.1.5 2.9-.5 5.7-1.5 8.2-3.1s4.6-3.6 6.7-5.7c5.4-5.4 10.8-10.9 15.8-16.7s9.4-11.9 13.1-18.6c3.9-6.9 7.1-14.2 10.3-21.4 6.3-14.2 12.5-28.5 18.6-42.7 6.2-14.5 12.4-28.9 18.8-43.4 6.1-13.9 12.4-27.7 19-41.4.8-1.6 1.6-3.2 2.4-4.9 0-.3-.4-.5-.5-.2z"/><path class="st21" d="M332.9 609.1c2.6 6.7 5.5 13.2 8.6 19.7s6.3 12.9 9.5 19.3c3.2 6.5 6.3 13.1 9.1 19.8 2.8 6.7 5.3 13.6 7.2 20.6.5 1.8 1 3.6 1.4 5.4.4 1.7.8 3.5 1.5 5.2 1.2 2.8 3.4 5.5 6.6 6.1.7.1 1.4.1 2.1 0 .3 0 .2-.5-.1-.5-3.5.5-6.4-2.3-7.8-5.3-.8-1.7-1.3-3.5-1.7-5.3-.4-1.7-.8-3.5-1.3-5.2-1.9-6.9-4.3-13.7-7-20.3-5.3-12.9-11.8-25.3-17.9-37.9-3.5-7.2-6.8-14.5-9.7-21.9-.1-.1-.6 0-.5.3zm57-44.9c3.1 6.9 7.5 13.6 8.3 21.3 0 .4.6.4.6 0-1-7.7-4.9-14.7-8.6-21.5-.2-.1-.4 0-.3.2z"/></g><g id="arm2"><path class="st21" d="M89.6 588c-1.9 8.8-4.3 17.4-7.9 25.7-1 2.4-2.2 4.8-3.4 7.2-.1.3.3.5.4.3 4-8.1 7.2-16.5 9.4-25.2.7-2.6 1.3-5.2 1.8-7.9.2-.3-.3-.4-.3-.1z"/><path class="st21" d="M152 565.9c-6.9 6-13.7 12.1-20.6 18.1-6.9 6-14 11.9-21.3 17.4-7.4 5.5-15 10.7-23.1 15.2-4.1 2.3-8.4 4.4-12.8 6.1-3.9 1.5-7.9 2.7-11.9 3.8-7.5 2.1-15.2 4.4-21.4 9.2-.8.6-1.5 1.2-2.2 1.9-.2.2.1.6.4.4 5.9-5.6 13.7-8.2 21.3-10.4 3.9-1.1 7.8-2.2 11.6-3.5 4.4-1.6 8.6-3.5 12.7-5.7 8.2-4.3 15.9-9.5 23.4-14.9 7.3-5.4 14.3-11.1 21.2-17 6.9-5.9 13.7-12 20.6-18 .8-.7 1.7-1.5 2.5-2.2.2-.3-.1-.7-.4-.4z"/><path class="st21" d="M166.1 501.9c-2.6 8.3-4.1 16.8-5.4 25.4-1.3 8.5-2.4 17.1-4.1 25.6-.5 2.3-1 4.6-1.6 6.9-.6 2.2-1.4 4.3-2.9 6-.2.2.1.6.4.4 2.6-2.9 3.3-7.1 4.1-10.7 1-4.3 1.7-8.6 2.4-12.9 1.4-8.7 2.4-17.4 4.1-26 .9-4.8 2.1-9.6 3.5-14.4.1-.5-.4-.6-.5-.3z"/><path class="st21" d="M206 479c-5.5 1.6-11 3.2-16.1 5.8-2.6 1.3-5 3-7.3 4.8-2.6 1.9-5.1 3.8-7.6 5.7-2.9 2.2-5.8 4.3-8.7 6.5-.3.2 0 .6.3.4 5.1-3.8 10.1-7.6 15.2-11.4 2.4-1.8 4.7-3.5 7.3-5 2.5-1.4 5.2-2.5 7.9-3.5 3-1.1 6.2-2 9.3-2.9.2 0 0-.5-.3-.4z"/><path class="st21" d="M206 479.2c3.3 5.5 4.7 12.1 4.1 18.5 0 .2.2.2.2 0 .7-6.5-.8-13-4.1-18.6-.1-.1-.3 0-.2.1z"/><path class="st21" d="M213.5 514.8c.4-2.1.6-4.4.6-6.5 0-2.2-.2-4.4-.8-6.5-.3-1-.8-2-1.4-2.8-.7-.9-1.8-1.4-2.9-1.7-1.2-.2-2.3-.2-3.5-.3-1.4 0-2.8 0-4.2.1-2.9.2-5.8.8-8.5 2.2-.3.1 0 .6.3.4 2.3-1.2 4.8-1.8 7.3-2 2.4-.2 4.8-.3 7.2-.1 1.2.1 2.4.4 3.4 1.1.9.7 1.4 1.9 1.8 3 .7 1.9.8 4 .9 6.1.1 2.3-.1 4.6-.5 6.9-.3.2.2.4.3.1z"/><path class="st21" d="M212.9 536.4c2.2-5.5 3.5-11.4 4.3-17.2.1-1.1.5-2.4-.4-3.2-.7-.7-1.8-1-2.7-1.3-2.3-.8-4.6-1.4-7-1.7-2.6-.3-5.3-.1-7.6 1.1-.3.2 0 .6.3.4 4-2.2 9.1-1 13.2.3 1 .3 2 .6 2.9 1 1.5.8 1 2.4.8 3.7-.4 2.7-.8 5.3-1.5 7.9-.7 3-1.6 5.9-2.8 8.8-.1.4.4.5.5.2z"/><path class="st21" d="M193.6 532.5c2.1-.1 4.1-.3 6.2-.4 1.9-.1 3.8-.3 5.7-.1 1.7.1 3.8.4 5.3 1.4 1.6 1.1 1.5 3.1 1.3 4.7-.4 3.9-1.6 7.8-2.8 11.5-.6 1.8-1.1 3.7-2.1 5.4-.8 1.5-2.2 2.6-3.7 3.3-1.8.8-4.1 1.4-6 1.1-1-.2-1.8-.6-2.2-1.5-.4-.8-.4-1.7-.4-2.6 0-.3-.5-.3-.5 0 0 1.4.2 3 1.4 3.9 1.4 1.1 3.7.8 5.3.4 1.7-.4 3.4-1.1 4.7-2.2 1.5-1.2 2.3-2.9 3-4.7 1.5-4.2 2.9-8.4 3.6-12.8.3-1.7.7-3.7.1-5.4-.6-1.7-2.4-2.4-4.1-2.8-2.3-.5-4.6-.5-6.9-.4-2.6.1-5.2.3-7.8.5-.4.3-.4.8-.1.7z"/><path class="st21" d="M203.2 546.7c-3.9 3.3-8.8 5.1-13.9 5-.3 0-.3.5 0 .5 5.2 0 10.3-1.8 14.2-5.2.3-.2-.1-.5-.3-.3z"/><path class="st21" d="M192.4 584.1c1-2.4.9-5.1 1.1-7.6.2-2.2.3-4.4.5-6.6.3-4.5.5-9 .7-13.5.1-1.6.1-3.2.1-4.8 0-.3-.5-.3-.5 0 .1 3.4-.2 6.8-.3 10.2-.2 4.6-.5 9.2-.8 13.7l-.3 3.6c-.1 1.7-.3 3.4-.9 5-.2.2.2.3.4 0z"/><path class="st21" d="M191.9 583.9c-3.2 2.6-7.1 3.9-11 4.9-4.3 1.1-8.8 2-13.2 2.7-.3.1-.2.5.1.5 4.6-.8 9.1-1.7 13.6-2.8 3.9-1 7.7-2.4 10.8-4.9.3-.3 0-.6-.3-.4z"/><path class="st21" d="M167.7 591.5c-10.2 11.1-19.8 22.7-28.8 34.8-9.1 12.1-17.5 24.6-25.9 37.1S96.1 688.3 86.7 700C77.9 711 68 721.2 56 728.8c-11.5 7.3-24.4 12.3-37.8 14.5-1.7.3-3.4.5-5.2.7-.3 0-.3.5 0 .5 13.5-1.5 26.6-5.8 38.4-12.4 12.2-6.9 22.6-16.3 31.7-27 9.7-11.3 18.2-23.6 26.5-35.9 8.5-12.6 16.9-25.3 25.9-37.5 9.1-12.4 18.6-24.3 28.9-35.7 1.2-1.4 2.5-2.8 3.7-4.1.2-.3-.2-.6-.4-.4z"/><path class="st21" d="M13.1 744.1c-1.7-1.1-3.4-2.1-5-3.3-.8-.6-1.5-1.3-2-2.1-.5-1-.6-2.1-.7-3.3-.3-4.6 0-9.3.8-13.8.1-.3-.4-.4-.5-.1-.8 4.8-1.2 9.8-.8 14.6.1 1 .3 2 .7 2.9.4.8 1.1 1.5 1.8 2 .8.6 1.6 1.1 2.4 1.6 1 .6 1.9 1.3 2.9 1.9.5.2.7-.2.4-.4z"/><path class="st21" d="M6.2 721.6c.4-4.3-1.4-8.4-2.7-12.4-1.6-4.7-2.2-9.6-2.6-14.5-.9-10.3-.2-20.7 1.5-31 1.7-10.2 4.3-20.2 7.2-30.1 2.9-9.9 6-19.8 9.1-29.6 3.1-9.9 6.3-19.8 9.2-29.7.4-1.2.7-2.4 1.1-3.7.1-.3-.4-.4-.5-.1-2.8 10-6 19.9-9.1 29.8-3.2 9.9-6.3 19.9-9.3 29.9-2.9 9.9-5.7 19.9-7.6 30.1C.7 670.4-.3 680.6.2 690.9c.2 5 .7 10.1 1.8 15 1 4.3 3.2 8.4 3.7 12.9.1 1 .1 2 0 3 0 .1.5.1.5-.2z"/></g></g><g id="black2"><path class="st21" d="M232.8 252.2c1.3 4.1 1.5 8-.9 11.8-.1.2.2.4.4.2 2-3.6 2.7-8.4.5-12 .1-.1 0-.1 0 0zm-50.9.8c-1.4 3.3-.2 7.8 2 10.5.2.2.6-.1.4-.3-2.4-3.3-2.8-6.2-2.2-10.1-.1-.2-.2-.2-.2-.1zm18 7.3c-.8 3.4 3.2 7.4 6.4 7.7.3 0 .4-.5.1-.6-1.7-.5-3.2-1.2-4.3-2.5-1.3-1.4-1.4-3-2-4.6-.1-.1-.2-.1-.2 0zm-.2 2.5c-2-.9-4.3-1.4-6.4-1.6-1.2-.2-3.4-.7-4.5 0-2.6 1.6 2.7 2.7 3.3 2.9.4.1.6-.5.2-.6-.4-.1-2.6-.4-2.7-.7-.8-1.7 2.3-1.1 2.9-1.1 2.5.2 4.8.8 7.2 1.4 0-.1.1-.3 0-.3zm16.2.4c.6-1.5 5.5-2 6.8-2 .8 0 2.4-.1 3 .3 1 0 1.1.5.2 1.3-.5.1-.9.2-1.4.3-.4.1-.2.7.2.6 2.9-.4 4.7-2.1.8-2.9-2.3-.4-4.6 0-6.8.6-.9.3-3.1.5-3 1.7 0 .2.1.2.2.1zm-.1-12.8c-4 2-11.1 3.3-15 .1-.3-.2-.7.2-.4.4 2 1.7 5.4 1.9 8 1.9 2.7 0 5.4-.6 7.5-2.4.1 0 0-.1-.1 0zm-1.9-9c-3.5-.7-7.4-.7-10.9-.2-.2 0-.1.4 0 .3 3.7-.2 7.2-.1 10.9 0 0 .2.1 0 0-.1zm0-1.4c-3.4-1.2-7.6-1.5-11.2-1-.3 0-.3.5 0 .5 3.8-.2 7.3 0 11.2.5 0 .1 0 0 0 0zm16.8 68.9c-13.5 2.6-25.4 2.9-38.9.2-.3-.1-.4.3-.1.4 12.2 3.6 26.9 3.5 39-.6 0 .1 0 0 0 0zm-72.4 102.7v-.4l-.3-.6c0-.1-.1 0-.1 0 .1.2.1.5.1.7s.1.3.3.3c-.1.1 0 .1 0 0zm15.1-234.7c-5.5-11.3-22.2-19.5-32.9-10.2-12.3 10.6-8.8 31.2-5.1 44.9.4 1.4 2.6.8 2.2-.6-3.1-12-6-27.4 1-38.6 8.6-13.7 27.4-6.8 34.5 4.8.1 0 .4-.1.3-.3zm68-.3c4.9-3.7 9.3-8 15.3-10 7.2-2.3 14.8-.3 18.9 6.2 7 10.8 4.7 26.5.9 38-.5 1.6 2 2.3 2.6.7 4.5-12.8 6.9-32.9-3.9-43.5-10.8-10.7-27.1-2.4-34 8.5 0 .1.1.2.2.1zm-35.3 103.1c.1 0 .1 0 0 0zm85.4-36.9c0 10.1.6 20-.4 30.1-.1.5.8.5.9 0 1-9.9 1.7-20.3 0-30.2-.1-.3-.5-.2-.5.1z"/><path class="st21" d="M291.4 271.6c-1.4 5.8-3 11.2-6.2 16.3-3 4.7-6.7 8.1-10.9 11.6-.4.3.2.8.5.5 8.9-7.3 16-16.5 16.9-28.4.2-.2-.2-.3-.3 0z"/><path class="st21" d="M276.2 298.3c-9.2 6.2-18.7 11.7-28.3 17.1-9.9 5.6-19.7 11.9-30.2 16.3-.5.2-.3 1.1.2.8 10.3-4.3 19.9-10.4 29.6-16 9.8-5.6 20.1-10.9 29-18 .2 0-.1-.3-.3-.2zM165 316.5c-8.1-5.7-17.3-10.1-25.8-15.2-4.8-2.9-9.6-6.2-12.8-11-2.7-3.9-4.6-8.4-6.5-12.7-.2-.5-1-.1-.8.5 4 9.1 8.2 16.5 16.6 22 9.1 6.1 19.2 12.1 29.1 16.8.2.1.4-.3.2-.4z"/><path class="st21" d="M117.5 239.4c-1.1 6.9-1.3 14.6-.7 21.5.6 6.1 0 12 2.5 17.7.2.5 1 .1.8-.3-2.4-5.9-2.1-12.6-2.5-18.9-.4-6.6.3-13.3.4-19.9-.1-.3-.5-.3-.5-.1zm105.3 90.4c-11.4 5.3-24.2 4.5-35.4-.9-9.6-4.7-18.4-10.9-27.8-16-.5-.3-.9.5-.4.7 18 10.3 42.3 29.7 63.8 16.3.1 0 0-.1-.2-.1z"/></g><g id="ear"><path class="st11" d="M309.8 209.3c1.9-7.1 4.1-15 7.5-21.9.7-8 .7-13.8.7-13.8s-6.4 12.7-12 28.2-3.9 31.9-3.9 31.9c2-1.7 3.7-3.9 5.3-6.5-.4-6 1-12.7 2.4-17.9zM96.3 175.7s-.8 7.1-.7 16.4c1.9 5.8 3.9 11.6 5.7 17.5 1.7 5.7 3.7 13.4 2.5 19.7 1.2 1.6 2.5 2.9 3.9 4 0 0 5.4-18.2-11.4-57.6z" id="Layer_26"/><g id="Layer_27"><path class="st21" d="M95.3 182.3s0-.1 0 0c0-.1 0 0 0 0zm222.6-8.7c-3.3 3.7-5.3 8.8-7.3 13.3-2.1 4.7-4.2 9.4-5.7 14.3-3.3 10.4-5 21.2-5.5 32-.1 1.9 2.9 1.9 3 0 .5-10.6 2.1-21.1 4.9-31.4 1.2-4.6 2.6-9.2 4.3-13.6 1.9-5 4.9-9.5 6.5-14.6 0 0-.1-.1-.2 0z"/><path class="st21" d="M308.3 219.8c1.2-4.1.3-9.3-2.4-12.6-1.2-1.4-3.2.6-2 2 1.3 1.5 2.6 3.1 3.4 4.9.8 1.9.8 3.6.7 5.6-.1.3.2.3.3.1zM95.9 175.7c3.1 9.2 6.7 17.8 8.5 27.4 1.9 9.9 3 19.9 3.3 30 .1 2 3.1 2 3.1 0-.3-10-1.8-19.9-4.4-29.6-2.6-9.3-5.6-19.3-10.5-27.8.1-.1 0-.1 0 0z"/><path class="st21" d="M102.8 218.3c0-3.5 1.9-6.1 4.6-8.2 1.3-1-.6-2.9-1.8-1.8-2.8 2.5-3.8 6.3-3.7 10 0 .6.9.6.9 0zm-6.1-56.9c2.4.1 4.3 4.1 5.2 6 1.1 2.1 2.1 4.4 2.7 6.7.1.4.6.2.5-.1-.5-3.4-1.5-6.3-3.6-9.2-1-1.4-3-4.4-4.9-3.7-.2 0-.1.2.1.3z"/><path class="st21" d="M96.6 161.6c5.6 4 6.5 10.8 8.8 16.7.1.4.8.4.7-.1-.4-3.9-1.6-7.8-3.5-11.3-1.3-2.2-3.1-5.4-5.9-5.7-.2.1-.2.3-.1.4zm8.2 49.6c-1 .7-.7 2.1-.4 3.1.4 1.2 1 2.9 2 3.7.5.4 1.3 0 1.1-.6-.3-1-1-1.8-1.4-2.7-.3-.6-.5-1.2-.7-1.8-.1-.5-.1-1-.3-1.6 0-.1-.1-.2-.3-.1z"/><path class="st21" d="M105.2 211.6c.1 1.3.1 2.5.5 3.7.5-.2.9-.4 1.4-.6-.4-1-.9-1.9-1.3-2.9-.4.3-.9.5-1.3.8.7 1.4 1.3 3 2.4 4.2.4.4 1 0 .9-.5-.3-1.6-1.3-3-2-4.4-.4-.9-1.7-.1-1.3.8.4 1 .9 1.9 1.3 2.9.4.9 1.7.1 1.3-.8-.5-1-.9-2.2-1.2-3.3-.1-.3-.7-.3-.7.1zm1.3 35.2c5.3 3.6 9.6-2.6 11.7-6.9.3-.7-.7-1.3-1-.6-2 3.9-5.3 9.2-10.6 7.3-.2 0-.2.1-.1.2z"/><path class="st21" d="M116.9 241.7c-.6 1.5-1.2 2.7-2.3 3.9.3.3.7.5 1 .8.4-.8.8-1.7 1.2-2.6.2-.5-.4-1.1-.9-.7-.7.8-1.1 1.9-2.2 2.4-1.1.6-2.4 1-3.5 1.7-.5.3-.4 1.1.2 1.2.9.2 1.9.5 2.8.4 1.1-.1 2.3-.8 3.2-1.4 1.6-1.1 1.5-3.3.7-5-.4-.8-1.4-.2-1.3.5s.4 1.4.2 2.1c-.2.9-.9 1.2-1.6 1.6-1.4.7-2.4.6-3.9.5.1.4.1.8.2 1.3 1.3-.5 2.7-1 3.9-1.8 1-.7 1.3-1.9 2.1-2.7-.3-.2-.6-.4-.9-.7-.4.8-.9 1.6-1.3 2.5-.3.6.5 1.3 1 .8 1.2-1.3 1.8-2.9 1.7-4.7 0-.3-.2-.3-.3-.1zm200.6-82.2c-1.7-1.1-3.8 2.1-4.7 3.2-1.9 2.5-3.6 5.3-4.2 8.3-.1.4.4.6.7.3 1.1-1.8 2-3.8 3.1-5.7 1-1.6 3.1-5.7 5-6 .2 0 .2-.1.1-.1zm-10.7 53c-1.2 2.1-1.3 4.9-3.3 6.4.4.3.8.6 1.1.9 1-2.6 2.6-6.5 1.3-9.2-.3-.7-1.3-.4-1.5.2-.8 2-.3 4.2-.9 6.2-.2.8.8 1.3 1.3.8 1.2-1.1 2.9-4.3 2.3-5.9-.2-.6-1.1-.8-1.4-.2s-.5 1.1-.4 1.8c0 .6.8.9 1.1.3.3-.5.4-.8.6-1.3-.5-.1-.9-.1-1.4-.2.2.6-.5 1.9-.7 2.4-.3.8-.6 1.4-1.3 2 .4.3.9.5 1.3.8.3-.9.5-1.8.6-2.7.1-1.2 0-2.4.4-3.5-.5.1-1 .1-1.5.2 1.1 2.3-.6 5.8-1.3 8-.3.8.8 1.2 1.3.8 1-.8 1.5-1.9 1.9-3.1.5-1.4 1.2-3 .9-4.5-.1-.3-.3-.4-.4-.2zm-2 32.9c-2.2 1.4-4.6 2.7-7.3 1.6-2.1-.8-3.2-3-4.6-4.6-.6-.7-1.8.2-1.3 1 1.7 2.4 3.3 4.8 6.4 5.2 2.7.4 5.4-.9 6.8-3.2.1 0 .1 0 0 0z"/><path class="st21" d="M291.9 244.2c0 1.1.6 2.6 1.5 3.3 1 .9 2.7 1.3 3.9 1.7.1-.5.1-1 .2-1.5-1.7-.1-3.3-.2-4.2-1.9-.2-.4-.7-.5-1.1-.3 0 0-.1 0-.1.1-.5.2-.4 1 0 1.3.2.1.4.7.6.9.4.4.8.7 1.3.9 1 .5 2.2.5 3.3.6.8.1 1.5-1 .6-1.4-1.1-.5-2.3-.7-3.3-1.3-.9-.6-1.3-1.8-2-2.5-.3-.4-.7-.2-.7.1z"/></g></g><g id="details"><path class="st21" d="M195.9 262c-1-.4-2.2-.6-3.3-.7-.9-.1-2.1-.2-2.8.5-1.4 1.3 1.5 2 2.2 2.3.4.1.5-.4.2-.6-.3-.1-1.6-.4-1.7-.7-.4-1 1.3-.8 1.7-.8 1.2-.1 2.4 0 3.7 0z"/><path class="st21" d="M190.4 262.9c-.2-.2-.4-.5-.5-.7-.1-.3 0-.2.3-.4.4-.3 0-.9-.4-.6-.4.2-.8.4-.6 1 .2.5.6.8 1.1.9.1.1.2-.1.1-.2z"/><path class="st21" d="M196.7 262.1c-1-.4-2-.5-3.1-.5-.8 0-2.2-.2-2.9.4-1.1.8-.1 1.8.9 1.9.2 0 .3-.3.1-.4-.5-.2-.6-.6-.2-1.2.3 0 .5-.1.8-.1.5 0 1-.1 1.6-.1h2.8z"/><path class="st21" d="M192.9 261.8c-.6-.1-1.3 0-1.7.5-.3.4-.4 1.2.3 1.4.3.1.4-.2.3-.4-.6-.7.7-1.1 1.2-1.4-.1 0-.1-.1-.1-.1z"/><path class="st21" d="M193.4 261.8c-.7-.1-1.4-.2-1.9.5-.3.4-.4 1.4.3 1.5.2 0 .5-.2.3-.4-.1-.2-.3-.3-.2-.6.1-.2.2-.4.3-.5.3-.3.8-.4 1.2-.5zm26.8-.4c.2.1.3 0 .5 0 .3-.1.5-.1.8-.1v-.1h-.7c-.3 0-.3-.1-.6.1-.1 0-.1.1 0 .1zm1.4-.2c.7.1 1.4.2 2 .3.2 0 .5.1.7.2.6.2.8.9.2 1.3-.3.2-.1.7.3.6.7-.2 1.3-.8 1.5-1.6.1-.7-.2-1.1-.9-1.1-.4 0-.4.7 0 .7s.1.7 0 .8c-.2.3-.4.4-.7.5l.3.6c.8-.5 1.3-1.4.4-2.2-1-.7-2.7-.5-3.8-.1z"/><path class="st21" d="M225.2 261.5c.2.4.8.7.5 1.3-.2.3.3.7.5.4.4-.4 1-2-.1-1.9-.2 0-.2.3-.1.4.2.3-.1.8-.3 1l.6.3c.3-.7-.1-1.9-1-1.8-.1.1-.2.2-.1.3z"/></g><g id="HAIR3"><path class="st4" d="M205.2 91.3c-7 2.4-13.6 5.7-20.6 8.3-7.2 2.7-14.6 5.1-21.9 7.4-14.5 4.4-29.2 7.7-44 10.7-1 .2-.8 2 .3 1.9 15.1-1.9 30-5.3 44.6-9.8 14.2-4.3 29.6-9 42.6-16.4.9-.6.2-2.5-1-2.1zM192 170.7c16.3-14.8 28.7-32.8 38.1-52.6 9.7-20.4 17.1-41.8 19.6-64.4.3-2.4-3.5-2.4-3.8 0-2.5 22.2-9.8 44.1-19.2 64.4-8.8 19.1-20.6 37-35.4 52-.3.3.3.9.7.6z"/><path class="st4" d="M192.3 170.5c12.5-23.9 14.7-51.2 15.7-77.7.1-2.3-3.5-2.3-3.6 0-1 25.5-.8 54-13.1 77.2-.2.6.7 1.1 1 .5zM269 64.4c-7.5 7.4-16.7 9.9-26 14.2-1.5.7-.4 3.1 1.1 2.7 9.6-2.7 19.8-7.8 25.4-16.5.3-.3-.2-.7-.5-.4z"/><path class="st4" d="M310.6 164.6c-3.7-7.3-9.1-14.1-13.4-21.1-4.6-7.4-8.8-15-12.6-22.7-8-16.1-14.4-33.1-18.9-50.5-.5-1.9-3.4-1.1-3 .8 4.2 17.4 11.1 34.2 19.2 50.2 4 8 8.4 15.8 13.2 23.4 4.4 6.9 9.1 14.6 15.1 20.1.2.3.5 0 .4-.2zM104.4 168c9.6-3.5 17.6-12.4 23.1-20.6 6.3-9.5 10.4-20.5 13.1-31.5.6-2.2-2.9-3.2-3.4-.9-2.6 10.2-5.8 20-10.8 29.3-2.4 4.6-5.4 8.8-8.9 12.7-4 4.5-8.5 7.3-13.3 10.7-.2 0-.1.4.2.3z"/></g><g id="light" class="st22"><path class="st23" d="M171 507.1c.3.2.3.7.5 1 .2.4.6.7.8 1.1.4.7.5 1.6 1 2.3.3.3.7.2.9-.1.6-.9.1-2.2-.4-3-.2-.4-.6-1-1-1.3-.2-.1-.4-.3-.6-.3-.3-.1-.5 0-.8-.2-.3-.3-.8.2-.4.5zm5.7 10.9c.2.2.4.9.5 1.2.2.5.5 1 .6 1.5.2 1-.1 2-.1 2.9 0 .6.7.8 1.1.5 1-.9 1.1-2.5.7-3.7-.2-.6-.5-1.3-.9-1.8-.2-.2-.4-.5-.7-.6-.3-.2-.8-.1-1.1-.3-.1-.2-.3.1-.1.3zm3.6 17.1c.5 1.8 0 3.7.3 5.4.1.5.8.6 1.1.1.5-1 .5-1.9.3-2.9-.2-1.1-.7-1.9-1.2-2.9-.2-.2-.6 0-.5.3zm-24.1 27.8c-4.9 9.1-14.2 15.6-22 22.3-8.3 7.1-17.1 13.5-25.5 20.3-.7.6.2 1.7 1 1.2 10-6.4 19.3-14.1 28.2-21.9 4.4-3.8 8.8-7.8 12.9-11.9 2.8-2.8 5.6-5.8 6-9.9 0-.3-.4-.3-.6-.1zM25.7 650.2c-5.7 9.2-7.4 20.3-5.9 31 .3 1.8 3.3 1.1 2.9-.8-2.5-10.5-1.1-20.3 3.2-30.1 0-.1-.1-.2-.2-.1zM14 721.3c4 0 10.6.7 12.9-3.5.4-.8-.4-1.4-1.1-1.1-1.9.8-3.4 2-5.5 2.5-2 .5-4.2.8-6.3.8-.8 0-.8 1.3 0 1.3zm357-109.8c-3.3 5.8-4.5 14.3-2.9 20.8.3 1.4 2.3.8 2.1-.6-.6-3.4-1.5-6.6-1.3-10.1s1.2-6.8 2.1-10.1zm68-148c1 8.1 5.6 13.2 11.3 18.6.6.6 1.7 0 1.5-.9-.8-3.1-4.1-4.6-6.1-6.9-2.8-3.1-5-7-6.4-10.9-.1-.1-.3-.1-.3.1zm41.5-107.3c-2.1 7-2.5 14.7-3.4 21.9-1 8.4-2.2 17.3-1.9 25.7 0 .7 1.2 1 1.3.2 1.5-7.8 1.6-16 2.3-23.9.7-7.9 2.1-15.9 2.1-23.8 0-.3-.3-.3-.4-.1zm40.2-7c-4.5 7.4-6.4 16.4-9 24.6-3 9.6-6.2 20.1-7.5 30.1-.1 1 1.2 1.4 1.6.4 6.2-18.1 7.7-37.3 15.1-55.1 0 0-.1-.1-.2 0zm28.5 16.9c-3.4 6.3-5.8 13.2-8.6 19.7-2.6 6.1-5.3 12.1-7.7 18.3-.3.7.8 1.1 1.2.5 2.9-5.9 5.5-12 8.1-18.1 2.8-6.5 5.9-13.2 7.7-20.1.1-.4-.5-.7-.7-.3zm4.3 54.1c-.3.2-.7.5-1 .8-.1.1 0 .2.1.2.3-.2.7-.5 1-.8.1-.1 0-.3-.1-.2zm12.7-11c-4.4 1.4-8.1 4.8-11.7 7.6-4.3 3.4-8.8 6.8-12.4 11-.5.6.3 1.5.9.9 3.6-3.4 7.3-6.6 11.1-9.8 4-3.2 8.5-6 12.1-9.6.2 0 .1-.1 0-.1zm-98.4 18.6c-2.7 4.6-5.2 9.4-10 12.1-.6.3-.1 1.3.5.9 4.8-2.8 7.6-7.9 9.8-12.8.2-.2-.2-.4-.3-.2zm-23.5 97.1c-4.8 8.3-8.6 17-13.7 25.1-5 8.1-11 15.6-16 23.7-.3.4.3.9.7.5 6.4-7.2 11.2-15.5 16-23.8s9.9-16.5 13.2-25.5c.1-.1-.2-.2-.2 0zm-213.3-.4c-11.4 10.4-17.8 25.3-20.9 40.2-.4 1.8 2.5 2.6 2.8.8 2.4-15.3 9.5-28.3 18.3-40.8 0-.2-.1-.3-.2-.2z"/><path class="st23" d="M209.1 555.5c-.1 1.9.4 3.9.6 5.8.2 1.7 0 3.5.8 5 .5.8 1.6.5 1.9-.2.6-1.6 0-3.8-.4-5.4-.4-1.8-.9-3.8-2.1-5.3-.2-.4-.7-.3-.8.1zm-148-123.6C47.6 450 41.9 478.6 50.3 500c.5 1.4 2.5.9 2.2-.6-2.5-11.6-4.5-22.6-2.8-34.5 1.6-11.7 5.9-22.6 11.7-32.8 0-.3-.2-.4-.3-.2zm-18 93.8c-1.1 6.5-2.1 12.9-3.6 19.3-1.4 6.4-4.2 12.6-5.2 19-.1.8.9 1.4 1.4.6 3-5.7 4-12.9 5.2-19.2 1.3-6.5 2.2-13 2.4-19.7.1-.1-.2-.1-.2 0zm-17.5 72.2c-5.6 15.7-12 31.2-17.1 47-.1.4.5.7.7.3 7-15.1 12-31.3 16.6-47.2 0-.1-.2-.2-.2-.1zm77.7 149c-3.3 12.1-7.2 24-11.8 35.6-4.6 11.6-10.8 22.5-15.1 34.2-8.1 22 7.9 38.4 24.9 50 1.1.7 2.4-1 1.4-1.8-8.3-6.4-17.2-12.4-22.5-21.7-6.6-11.7-3.4-22.9 1.9-34.4 9.2-19.9 16.6-40.3 21.3-61.8.1-.1 0-.2-.1-.1zm24.1-329.1c4.3-2.6 9.5-3.7 14.3-4.7 3-.6 8.6-.5 11.1-2.3 1.1-.8.7-2.4-.7-2.5h-.2c-.6 0-1.3.6-1.3 1.3v.1c.1 1 1.3 1.7 2.1.9l.1-.1H151l.1.1.3-2.1c-1.7 1.3-5.5 1.3-7.6 1.9-2.2.6-4.3 1.3-6.4 2-3.7 1.2-7.7 1.8-10.9 4.2-.5.5.1 1.7.9 1.2z"/><path class="st23" d="M174.4 446.5c-3.7-6-9.1-11-12.8-17.2-3.7-6.3-5.5-12.7-7.6-19.7-.4-1.4-2.7-1.2-2.6.4.3 6.6 4 13.5 7.7 18.9 4.3 6.1 9.4 13.1 15.2 17.7.1 0 .1 0 .1-.1zm-35.5 5c4.3 8.6 11.9 15.4 19.7 20.7 6.1 4.1 17 11.3 24.3 6.8 1.3-.8.1-2.8-1.2-2-7.1 4.4-19.7-4-25.5-8.3-6.7-4.9-11.9-11-17.2-17.3l-.1.1zm72.8 18.5c2.3 4.9 7.3 7.5 12.3 8.8 4.7 1.2 10.7 2.3 14.8-1 .8-.7-.1-2.2-1.1-1.8-8.3 3.3-19.6 0-25.3-6.5-.3-.5-.9 0-.7.5zm-39.8-113c.2 9.6-.2 19-1.8 28.4-1.3 8.3-3.8 16.6-4.8 24.9-.1 1.1 1.5 1.2 1.8.2 2.8-8.5 4.1-17.9 5.2-26.8 1.1-8.9 1.5-18-.1-26.8.1-.2-.3-.2-.3.1zm-39.4-207.3c-1.3 1.5-2.7 2.9-4 4.5-.2.2.1.5.3.3 1.3-1.5 2.5-3.2 3.7-4.8zm-12 93.3c-.3 6.6.5 12.8 1 19.4.4 5 .7 10 2.1 14.9 2.1 7.5 6.7 15.6 14.2 18.7.5.2.7-.5.3-.8-17.5-11.7-15.7-33.5-17.4-52.2 0-.1-.2-.1-.2 0zm9.8 105.1c2.8 5.4 4.3 10.9 5 16.9 0 .4.6.4.6 0-.4-6.1-2.3-11.8-5.3-17.1-.1-.2-.5 0-.3.2z"/></g><path class="st4" d="M130.4 158c1.4-.9 3.8-1.2 5.4-1.7 2.2-.7 4.2-1.4 6.5-1.9 3.5-.8 6.9-1.5 10.4-1.7 3.8-.1 7.6.1 11.3.9 3.8.8 7.4 3.4 11.2 3.4 4.8 0 4-8.3 1.6-10.5-2.9-2.6-7.5-3-11.4-3.5-4.6-.6-9.2-.4-13.7.5-4 .8-8.2 1.9-11.7 4-1.5.9-3 1.9-4.5 2.9-2.5 1.7-3.5 3.9-5.7 5.9-.4.4-.1 2.2.6 1.7zm157.4-7c-3.2-2.8-5.8-5.8-9.7-7.7-3.9-1.9-8-3.2-12.3-3.8-8-1.1-17.8-.2-25 3.8-3.7 2-2.6 12.1 2.1 10 7.4-3.3 14.1-5.7 22.4-5.6 3.8.1 7.5.4 11.2 1.3 3.5.8 7.9 1.4 11.1 3.1.4.2.5-.9.2-1.1z" id="eyebrows_1_"/></svg>