<svg xmlns="http://www.w3.org/2000/svg" xmlns:xlink="http://www.w3.org/1999/xlink" viewBox="0 0 77.77 123.94"><defs><clipPath id="a"><path d="M19.77,76S8.42,84.2,2.25,85.76c-4.32,1.09-1.61,5,1.37,6.14a23.33,23.33,0,0,0,12.19.81C19.85,91.73,19.77,76,19.77,76Z" style="fill:#eec931"/></clipPath><clipPath id="b"><path d="M58,76s11.35,8.21,17.52,9.77c4.32,1.09,1.61,5-1.37,6.14A23.33,23.33,0,0,1,62,92.7C57.92,91.73,58,76,58,76Z" style="fill:#eec931"/></clipPath></defs><title>bird</title><path d="M70.83,33.25a32,32,0,1,0-64.1,0c0,17.79,14.35,28.31,32,28.31S70.83,51,70.83,33.25Z" style="fill:#dab932"/><path d="M19.77,76S8.42,84.2,2.25,85.76c-4.32,1.09-1.61,5,1.37,6.14a23.33,23.33,0,0,0,12.19.81C19.85,91.73,19.77,76,19.77,76Z" style="fill:#eec931"/><g style="clip-path:url(#a)"><path d="M21.1,79.54A37.44,37.44,0,0,1,13,84.79c-4.5,2.12-10.17,2.38-10.17,4.68,0,2,1.78,2.77,3.51,3.18s6.46,1.18,6.46,1.18l5.21-1Z" style="fill:#dab932"/></g><path d="M58,76s11.35,8.21,17.52,9.77c4.32,1.09,1.61,5-1.37,6.14A23.33,23.33,0,0,1,62,92.7C57.92,91.73,58,76,58,76Z" style="fill:#eec931"/><g style="clip-path:url(#b)"><path d="M56.67,79.54a37.44,37.44,0,0,0,8.11,5.25C69.29,86.91,75,87.17,75,89.47c0,2-1.78,2.77-3.51,3.18S65,93.83,65,93.83l-5.21-1Z" style="fill:#dab932"/></g><path d="M66.38,33.56c0-11.2-9-27.38-27.59-27.38h0c-18.58,0-27.59,16.18-27.59,27.38C11.19,44,18.45,58.83,18.45,68s-6,21.07-6,29.79c0,9.5,7.66,26.18,26.29,26.2h0c18.63,0,26.29-16.7,26.29-26.2,0-8.72-6-20.67-6-29.79S66.38,44,66.38,33.56Z" style="fill:#f9e058"/><ellipse cx="46.87" cy="26.63" rx="6.46" ry="9.44" transform="translate(-5.92 15.72) rotate(-17.93)" style="fill:#fff"/><path d="M52.36,24c1.6,5,.15,9.87-3.24,11-1.89.61-4-.09-5.74-1.69,1.89,2.07,4.29,3.06,6.43,2.37,3.39-1.1,4.84-6,3.24-11a12.27,12.27,0,0,0-3.31-5.31A12.68,12.68,0,0,1,52.36,24Z" style="fill:#ced0d0"/><ellipse cx="30.67" cy="26.63" rx="9.44" ry="6.46" transform="translate(-4.11 47.61) rotate(-72.07)" style="fill:#fff"/><path d="M32.86,24.13c0.82-.07,1.38-1.18,1.27-2.47a2.24,2.24,0,0,0-1.49-2.2,1.7,1.7,0,0,1,1-.47c1.32-.12,2.54,1.47,2.73,3.55s-0.73,3.87-2,4-2.38-1.27-2.68-3.15A1.37,1.37,0,0,0,32.86,24.13Z"/><path d="M42.55,24.13c0.82-.07,1.38-1.18,1.27-2.47a2.24,2.24,0,0,0-1.49-2.2,1.7,1.7,0,0,1,1-.47c1.32-.12,2.54,1.47,2.73,3.55s-0.73,3.87-2,4-2.38-1.27-2.68-3.15A1.37,1.37,0,0,0,42.55,24.13Z"/><path d="M25.18,24c-1.6,5-.15,9.87,3.24,11,1.89,0.61,4-.09,5.74-1.69-1.89,2.07-4.29,3.06-6.43,2.37-3.39-1.1-4.84-6-3.24-11a12.27,12.27,0,0,1,3.31-5.31A12.68,12.68,0,0,0,25.18,24Z" style="fill:#ced0d0"/><path d="M71.32,33.54a32.57,32.57,0,1,0-65.15,0c4.22-3.4,4.94-3.25,4.88-.16,0.18,1.88.14,2.36,0.34,3.68,0.43-3.61,2.81-12.46,3.87-14.33a11,11,0,0,0-.21,2.15,3.21,3.21,0,0,0,.83.63c0.46-.53,5.63-6.55,10.93-8.64,0.77-1.25,1.16-2.52,2.44-3.46a12.73,12.73,0,0,0-.77,3.34,3.66,3.66,0,0,0,1,1.25c2.68-2.44,8.28-5.78,11.56-6.61a20.05,20.05,0,0,1,6.08,3.75,16.6,16.6,0,0,1,4.59-2.38,41.81,41.81,0,0,1,6.91,13.82,23.36,23.36,0,0,1,6.49,3.81,44.14,44.14,0,0,1,1,7.11c0.15-1.08.31-2.12,0.41-4C68.11,33.75,68.54,34.5,71.32,33.54Z" style="fill:#eec931"/><path d="M61.64,55A27.14,27.14,0,0,0,71.88,33.1a33.1,33.1,0,1,0-66.2,0A27.14,27.14,0,0,0,15.93,55l-0.63-2.19a28.26,28.26,0,0,1-6.13-8.34,2.68,2.68,0,0,0,2.22.85c-0.68-2.6-2.09-9.42-2.09-12.23A10.6,10.6,0,0,0,11,36.67C11.43,33,13.84,24,14.93,22.11a11.13,11.13,0,0,0-.21,2.18,3.26,3.26,0,0,0,.85.64c0.47-.53,5.72-6.66,11.11-8.78,0.79-1.27,1.18-2.56,2.48-3.51A12.93,12.93,0,0,0,28.37,16a3.72,3.72,0,0,0,1,1.27c2.72-2.48,8.42-5.87,11.75-6.72a20.37,20.37,0,0,1,6.18,3.81A16.87,16.87,0,0,1,51.92,12a42.48,42.48,0,0,1,7,14,23.74,23.74,0,0,1,6.6,3.88C65.71,30,67.12,40.52,67.24,43a13.16,13.16,0,0,0,3.05-4.49,27.16,27.16,0,0,1-8.14,14.72Z" style="fill:#fff6ed"/><path d="M28.85,13.1l1-2.6a11,11,0,0,0-3.92,4.22,31.86,31.86,0,0,0-10.58,8.74" style="fill:none;stroke:#eec931;stroke-linecap:round;stroke-linejoin:round;stroke-width:0.242187564607345px"/><path d="M47.2,12.81a23.61,23.61,0,0,0-6.08-3.29c-4.6,1-9.78,4.3-12.2,6.27" style="fill:none;stroke:#eec931;stroke-miterlimit:10;stroke-width:0.25px"/><path d="M52.63,11.08C56.91,15.52,59.85,25,59.85,25s5.13,2.58,6.26,3.92" style="fill:none;stroke:#eec931;stroke-linecap:round;stroke-linejoin:round;stroke-width:0.242187564607345px"/><path d="M66.11,28.88s1.09,8,1.21,10.05" style="fill:none;stroke:#eec931;stroke-linecap:round;stroke-linejoin:round;stroke-width:0.242187564607345px"/><path d="M14.59,23.72a13.18,13.18,0,0,1,.61-3c-2.19,4-3.36,8.39-4.39,13.41" style="fill:none;stroke:#eec931;stroke-linecap:round;stroke-linejoin:round;stroke-width:0.242187564607345px"/><line x1="41.14" y1="9.53" x2="41.09" y2="11.3" style="fill:none;stroke:#eec931;stroke-linecap:round;stroke-linejoin:round;stroke-width:0.25px"/><line x1="59.85" y1="24.96" x2="58.72" y2="26.28" style="fill:none;stroke:#eec931;stroke-linecap:round;stroke-linejoin:round;stroke-width:0.242187564607345px"/><line x1="25.9" y1="14.71" x2="26.75" y2="16.33" style="fill:none;stroke:#eec931;stroke-linecap:round;stroke-linejoin:round;stroke-width:0.242187564607345px"/><path d="M8.67,31.87A45.81,45.81,0,0,0,9.6,41" style="fill:none;stroke:#eec931;stroke-linecap:round;stroke-linejoin:round;stroke-width:0.242187564607345px"/><path d="M49.82,41.94c-1.28,1.69-5.3,5.62-12.78,4.78s2.58-4.78,2.58-4.78h10.2Z" style="fill:#ee482e"/><path d="M38.74,38c6.34-.48,9.69,2.8,11.3,2.56s1.42-.52,1.83-1,2.5,1.74-5.33,3.45a10.86,10.86,0,0,0-3.21,1.26c-5,3-6,4.18-6,4.18A11.35,11.35,0,0,1,32.5,46s-4.48,0-7-2.86a6.17,6.17,0,0,0,2.85.41C29.67,43.36,32.32,38.47,38.74,38Z" style="fill:#f48043"/><path d="M45.27,43.29c0.41-1.73,1.92-6.17,5-5.86s2.14,3.63,1.4,4.32S46.9,43.19,45.27,43.29Z" style="fill:#eebcb3"/><path d="M48.55,42.8l0.75-.16s1.14-2.23.9-2.24S49.61,42.16,48.55,42.8Z" style="fill:#c98b83"/></svg>