<svg xmlns="http://www.w3.org/2000/svg" viewBox="0 0 1000 1000"><style>.st0{fill:#FFFFFF;}</style><g id="Layer_2"><ellipse id="XMLID_1_" cx="499.6" cy="499.3" rx="494.4" ry="494.8"/></g><g id="Layer_1"><path id="XMLID_103_" class="st0" d="M577.7 853.4c-8.5 36.3-18.4 72.2-28.2 108.2-2.7 10-5.6 20.4-12 28.4-6.4 7.9-17.2 12.8-26.2 8.5-6.6-3.1-10.7-10.4-12.2-17.9-1.5-7.5-.6-15.3.4-22.9 6.6-48.1 20.9-94.3 32.4-141.2.7-2.8.8-5.8.8-5.8-14.2-16.7-30.7-36.7-45.1-53.3-3.5-4-7-8-10.4-11.9-3-3.4-10.9-12.2-15.8-17.6 0 0-9.3 13.7-12.9 18.5-20.1 26.5-44.6 49.5-72.5 66.2-29.5 17.8-62.8 28.1-96.8 28.1-16.2 0-32.5-2.3-48.1-7.2-39.2-12.3-74.1-41.7-91.8-81.2-12.1-26.9-16-57.3-15.9-87.1.1-29.9 4.3-60.2 16.1-87.4 15.1-34.7 42.1-62.6 73.1-81.6 19.3-11.8 42-17.4 63.9-21.1 33.2-5.6 64.3-2.3 96.8 12 16.7 7.4 32 18.3 46.1 30.4 7.1 6.1 14.3 12.6 20.9 19.3 10.7 10.9 16.5 17.5 17.6 18.5 1.8-4.4 3-6.8 4.8-11.2 13.9-34.2 28.7-68.1 41.6-102.8 23.4-62.8 46.6-125.7 68.3-189.1 16.7-48.9 32-98.5 45.9-148.4C628.9 66.6 637.8 29 643.7-9c2.8-17.9 15-21.5 24.7-25.7 35.2-15.5 71-30.5 110-31.3 5.9-.1 12.9.6 17.3 4 3.4 2.6 5.8 10.6 4.9 15.3-4.6 23.6-9.9 47.1-15.9 70.3-9.3 36.3-19.6 72.4-29 108.7-11.7 45.2-23.3 90.5-34.4 136-9.8 40.2-18.6 80.6-28.2 120.9-10.5 43.9-21 87.9-32.2 131.6-10.6 41.2-22.5 82.1-33.3 123.2-7.7 29.4-14.7 59-21.5 88.6-.7 2.8-1.3 6.4-1.3 6.4 12.6 14.4 23.2 25 31.8 33.9 12.5 12.9 27 27.1 40.8 38.9 24.8 21.3 26.5 22.2 46.1 37.8 28 19.6 43.6 18 51 4.2 9.8-18.2 4.8-37.5 1.7-46.2-2.8-7.8 10.9 4.7 22.4 42.6 7.1 23.4 1.3 56-8.3 74.7-20.4 39.7-67.4 50.8-104.8 24.7-45-31.4-67.2-57-107.8-96.2zm33.7-459.5c-1.7 4.3-3.1 7.5-4.7 11.5-13.3 33-25.8 66.4-39.9 99-9.9 22.9-20.3 45.6-30.8 68.3-5.2 11.3-10.4 22.7-15.6 34.1-3.3 7.3-8.5 18.1-8.5 18.1 2.7 3.1 12.4 15.9 18.8 23.6 10.8 13 20.3 24 30.5 37.6 0 0 2-10.7 2.6-14.1 4.3-25.9 7.8-47.8 12.3-73.7 4.9-28.1 9.9-56.2 14.9-84.3 7.1-40.1 14.3-80.2 21.4-120.3.2-1 .2-1.9.4-2.8-.5.8-.6 1.1-1.4 3zM296.8 588.1c-2.8 0-5.7.2-8.5.5-17.8 2.1-34.8 10.3-48.6 22.5-14.5 12.8-25.7 30-30.9 49.3-5.9 21.7-3.8 45.9 6.2 65.7 10.1 19.9 28.2 35 48.8 39.7 23.9 5.5 49.2-2.9 69.7-17.2 18.4-12.8 38.8-31.5 53.5-48.9 7.4-8.7 17-22.7 24-35.4l-11.8-15.6c-8.4-11.2-20.8-23.6-29-30.4-21-17.6-46.9-30.4-73.4-30.2z"/></g></svg>