<?xml version="1.0" encoding="utf-8"?>
<!-- Generator: Adobe Illustrator 19.0.0, SVG Export Plug-In . SVG Version: 6.00 Build 0)  -->
<svg version="1.1" xmlns="http://www.w3.org/2000/svg" xmlns:xlink="http://www.w3.org/1999/xlink" x="0px" y="0px"
	 viewBox="0 0 1000 1000" style="enable-background:new 0 0 1000 1000;" xml:space="preserve">
<style type="text/css">
	.st0{fill:#FFFFFF;}
</style>
<g id="Layer_2">
	<ellipse id="XMLID_1_" cx="499.6" cy="499.3" rx="494.4" ry="494.8"/>
</g>
<g id="Layer_1">
	<path id="XMLID_103_" class="st0" d="M577.7,853.4c-8.5,36.3-18.4,72.2-28.2,108.2c-2.7,10-5.6,20.4-12,28.4
		c-6.4,7.9-17.2,12.8-26.2,8.5c-6.6-3.1-10.7-10.4-12.2-17.9c-1.5-7.5-0.6-15.3,0.4-22.9c6.6-48.1,20.9-94.3,32.4-141.2
		c0.7-2.8,0.8-5.8,0.8-5.8c-14.2-16.7-30.7-36.7-45.1-53.3c-3.5-4-7-8-10.4-11.9c-3-3.4-10.9-12.2-15.8-17.6c0,0-9.3,13.7-12.9,18.5
		c-20.1,26.5-44.6,49.5-72.5,66.2c-29.5,17.8-62.8,28.1-96.8,28.1c-16.2,0-32.5-2.3-48.1-7.2c-39.2-12.3-74.1-41.7-91.8-81.2
		c-12.1-26.9-16-57.3-15.9-87.1c0.1-29.9,4.3-60.2,16.1-87.4c15.1-34.7,42.1-62.6,73.1-81.6c19.3-11.8,42-17.4,63.9-21.1
		c33.2-5.6,64.3-2.3,96.8,12c16.7,7.4,32,18.3,46.1,30.4c7.1,6.1,14.3,12.6,20.9,19.3c10.7,10.9,16.5,17.5,17.6,18.5
		c1.8-4.4,3-6.8,4.8-11.2c13.9-34.2,28.7-68.1,41.6-102.8c23.4-62.8,46.6-125.7,68.3-189.1c16.7-48.9,32-98.5,45.9-148.4
		C628.9,66.6,637.8,29,643.7-9c2.8-17.9,15-21.5,24.7-25.7c35.2-15.5,71-30.5,110-31.3c5.9-0.1,12.9,0.6,17.3,4
		c3.4,2.6,5.8,10.6,4.9,15.3c-4.6,23.6-9.9,47.1-15.9,70.3c-9.3,36.3-19.6,72.4-29,108.7c-11.7,45.2-23.3,90.5-34.4,136
		c-9.8,40.2-18.6,80.6-28.2,120.9c-10.5,43.9-21,87.9-32.2,131.6c-10.6,41.2-22.5,82.1-33.3,123.2c-7.7,29.4-14.7,59-21.5,88.6
		c-0.7,2.8-1.3,6.4-1.3,6.4c12.6,14.4,23.2,25,31.8,33.9c12.5,12.9,27,27.1,40.8,38.9c24.8,21.3,26.5,22.2,46.1,37.8
		c28,19.6,43.6,18,51,4.2c9.8-18.2,4.8-37.5,1.7-46.2c-2.8-7.8,10.9,4.7,22.4,42.6c7.1,23.4,1.3,56-8.3,74.7
		c-20.4,39.7-67.4,50.8-104.8,24.7C640.5,918.2,618.3,892.6,577.7,853.4z M611.4,393.9c-1.7,4.3-3.1,7.5-4.7,11.5
		c-13.3,33-25.8,66.4-39.9,99c-9.9,22.9-20.3,45.6-30.8,68.3c-5.2,11.3-10.4,22.7-15.6,34.1c-3.3,7.3-8.5,18.1-8.5,18.1
		c2.7,3.1,12.4,15.9,18.8,23.6c10.8,13,20.3,24,30.5,37.6c0,0,2-10.7,2.6-14.1c4.3-25.9,7.8-47.8,12.3-73.7
		c4.9-28.1,9.9-56.2,14.9-84.3c7.1-40.1,14.3-80.2,21.4-120.3c0.2-1,0.2-1.9,0.4-2.8C612.3,391.7,612.2,392,611.4,393.9z
		 M296.8,588.1c-2.8,0-5.7,0.2-8.5,0.5c-17.8,2.1-34.8,10.3-48.6,22.5c-14.5,12.8-25.7,30-30.9,49.3c-5.9,21.7-3.8,45.9,6.2,65.7
		c10.1,19.9,28.2,35,48.8,39.7c23.9,5.5,49.2-2.9,69.7-17.2c18.4-12.8,38.8-31.5,53.5-48.9c7.4-8.7,17-22.7,24-35.4
		c0,0-5.9-7.8-11.8-15.6c-8.4-11.2-20.8-23.6-29-30.4C349.2,600.7,323.3,587.9,296.8,588.1z"/>
</g>
</svg>
