<?xml version="1.0" encoding="utf-8"?>
<!-- Generator: Adobe Illustrator 19.0.0, SVG Export Plug-In . SVG Version: 6.00 Build 0)  -->
<svg version="1.1" xmlns="http://www.w3.org/2000/svg" xmlns:xlink="http://www.w3.org/1999/xlink" x="0px" y="0px"
	 viewBox="0 0 582.8 534" style="enable-background:new 0 0 582.8 534;" xml:space="preserve">
<style type="text/css">
	.st0{fill:#FFFFFF;}
	.st1{fill:none;}
	.st2{display:none;fill:#010101;}
	.st3{font-family:'Geomanist-Regular';}
	.st4{font-size:67px;}
	.st5{letter-spacing:40;}
</style>
<g id="Layer_1">
	<path id="XMLID_103_" class="st0" d="M158,298.4c-3,11.8-6.4,23.4-9.8,35.1c-1,3.3-2,6.6-4.2,9.2s-6,4.1-9.1,2.8
		c-2.3-1-3.7-3.4-4.2-5.8c-0.5-2.4-0.2-5,0.2-7.4c2.3-15.6,7.3-30.6,11.3-45.8c0.2-0.9,0.3-1.9,0.3-1.9
		c-4.9-5.4-10.7-11.9-15.7-17.3c-1.2-1.3-2.4-2.6-3.6-3.9c-1-1.1-3.8-4-5.5-5.7c0,0-3.2,4.4-4.5,6c-7,8.6-15.5,16.1-25.2,21.5
		c-10.3,5.8-21.8,9.1-33.6,9.1c-5.6,0-11.3-0.7-16.7-2.3c-13.6-4-25.8-13.5-31.9-26.4C1.4,256.8,0,247,0.1,237.3
		c0-9.7,1.5-19.6,5.6-28.4c5.2-11.3,14.6-20.3,25.4-26.5c6.7-3.8,14.6-5.6,22.2-6.9c11.5-1.8,22.4-0.8,33.7,3.9
		c5.8,2.4,11.1,5.9,16,9.9c2.5,2,5,4.1,7.3,6.3c3.7,3.5,5.7,5.7,6.1,6c0.6-1.4,1-2.2,1.7-3.6c4.8-11.1,10-22.1,14.5-33.4
		c8.1-20.4,16.2-40.8,23.7-61.4c5.8-15.9,11.1-32,16-48.2c3.6-12,6.7-24.2,8.7-36.5c1-5.8,5.2-7,8.6-8.3c12.3-5,24.7-9.9,38.3-10.2
		c2,0,4.5,0.2,6,1.3c1.2,0.9,2,3.4,1.7,5c-1.6,7.7-3.5,15.3-5.5,22.8c-3.2,11.8-6.8,23.5-10.1,35.3c-4.1,14.7-8.1,29.4-12,44.1
		c-3.4,13-6.5,26.2-9.8,39.2c-3.6,14.3-7.3,28.5-11.2,42.7c-3.7,13.4-7.8,26.6-11.6,40c-2.7,9.5-5.1,19.1-7.5,28.8
		c-0.2,0.9-0.5,2.1-0.5,2.1c4.4,4.7,8.1,8.1,11.1,11c4.4,4.2,9.3,8.8,14,12.7c8.4,7.1,17.2,13.7,26.4,19.9
		c18.3,12.3,37.9,22.6,58.4,30.8c40.9,16.4,85.2,24.4,129.3,22.9c12.6-0.4,25.1-1.7,37.5-3.7c19-3.1,37.9-8.1,55.6-15.8
		c11.2-4.9,21.9-11.1,32-18.1c3.3-2.3,7-5,10.3-9.9c2.8-4.2,0.6-8.4-1.8-10.5c-3.2-2.8-4.8-3.2-7.2-4.1c0,0,7.3,0.6,9,0.9
		c3.3,0.5,6.6,1.3,9.9,2.2c6.5,1.8,12.8,4.4,18.8,7.6c3.5,1.9,7,4.2,8.8,7.8c1.7,3.5,1.5,7.7,0,11.3c-1.5,3.6-4,6.7-6.8,9.4
		c-7,6.8-15.5,11.8-24.1,16.4c-20.3,10.7-41.6,19-63.7,25.5c-10.8,3.2-21.8,5.8-32.9,7.9c-29.9,5.6-60.5,7.3-90.8,4.6
		c-45.5-4-90.1-17.6-130.3-39.4C203.9,336.1,181.4,317.4,158,298.4z M169.7,149.3c-0.6,1.4-1.1,2.4-1.6,3.7
		c-4.6,10.7-9,21.5-13.9,32.1c-3.5,7.4-7.1,14.8-10.7,22.2c-1.8,3.7-3.6,7.4-5.4,11.1c-1.1,2.4-3,5.9-3,5.9c0.9,1,4.3,5.2,6.5,7.7
		c3.7,4.2,7.1,7.8,10.6,12.2c0,0,0.7-3.5,0.9-4.6c1.5-8.4,2.7-15.5,4.3-23.9c1.7-9.1,3.4-18.3,5.2-27.4c2.5-13,5-26,7.4-39
		c0.1-0.3,0.1-0.6,0.1-0.9C170.1,148.6,170,148.7,169.7,149.3z M60.3,212.3c-1,0-2,0.1-3,0.2c-6.2,0.7-12.1,3.4-16.9,7.3
		c-5,4.1-8.9,9.7-10.8,16c-2,7-1.3,14.9,2.2,21.3c3.5,6.4,9.8,11.4,17,12.9c8.3,1.8,17.1-0.9,24.2-5.6c6.4-4.2,13.5-10.2,18.6-15.9
		c2.6-2.8,5.9-7.4,8.3-11.5c0,0-2.1-2.5-4.1-5.1c-2.9-3.6-7.3-7.6-10.1-9.9C78.5,216.4,69.5,212.2,60.3,212.3z"/>
	<path id="XMLID_102_" class="st0" d="M238.9,227.4c0,0-4.2,5.9-4.5,6.4c-1.6,2.5-3.1,4.9-4.7,7.4c-3.1,4.9-6.2,9.8-9.3,14.7
		c-2.3,3.7-4.6,7.3-7.4,10.7c-1.5,1.8-3.2,3.6-5.5,4.1c-2.7,0.6-5.4-1-7.8-2.5c-4.1-2.6-7.9-6-5.5-11.1c1.3-2.7,2.4-5.5,3.4-8.3
		c1.1-3,3-7.2,4.2-10.2c-1.5,1.3-3.3,2.9-4.6,4.1c-1.4,1.2-3.2,2.2-5,1.8c-0.8-0.2-1.6-0.6-2.3-1.2c-1.4-1.3-2.3-3.2-2.3-5.1
		c0-2.7,1.8-5.4,3.2-7.7c1.7-2.7,3.3-5.4,4.9-8.1c3.3-5.4,6.5-10.8,9.6-16.3c6.2-10.9,12-22.2,16.6-33.9c1.5-3.7,2.8-7.5,4-11.3
		c1-3.3,1.6-6.9,3.7-9.7c3.5-4.8,9.8-6.2,15.3-4.6c4.4,1.3,8.1,3.5,11.7,6c1.6,1.1,1.3,2.3,0.7,3.8c-3.1,7.2-5.9,14.5-9.1,21.7
		c-0.1,0.3-1.4,3-1.4,3.6c5.3-6,10.4-12.2,15.9-18c4.9-5.1,9.5-11.2,16.7-13.2c8.3-2.4,17.6,1.8,22.5,8.9c0.7,1,1.3,2,1.3,3.1
		c0.1,1.2-0.4,2.5-0.9,3.6c-3.1,6.6-7.7,12.2-11.9,18.1c-4.5,6.3-8.6,12.9-12.5,19.6c-3.3,5.6-6.7,11.2-9.9,16.9
		c-1.6,2.9-3.1,5.8-4.6,8.8c-1.5,2.9-2.6,5.9-3.8,8.9c-1.9,4.7-3.9,9.4-5.5,14.2c-1.5,4.3-2.5,8.9-2,13.4c0.1,1.3,0.4,3.3,1.4,4.1
		c1.1,0.9,3,0,4.2-0.9c6.3-4.7,6.3-5,12.5-9.9c0.5-0.4,4.2-4.1,7.5-1.2c3.3,2.9,0.9,6.1-0.5,8.2c-1.3,2-2.6,3.6-4.1,5.6
		c-3,3.8-6.7,7.5-10.8,10.2c-4.3,2.8-9.4,4.3-14.6,4.2c-2.6,0-5.1-0.5-7.4-1.7c-3.2-1.7-5.3-4.9-6.5-8.3c-1.1-3.4-1.3-7.1-1.3-10.7
		c0.1-11.4,2.6-22.7,5.2-33.8C238.3,230.7,238.7,228.3,238.9,227.4z"/>
	<path id="XMLID_101_" class="st0" d="M393.3,282.9c0,3.9-0.4,7,0.4,10.8c0.2,0.7,0.8,2.9,1.8,3.3c1.7,0.7,3-0.5,4.9-2.2
		c2.9-2.6,3.8-3.5,6.3-6.1c2.1-2.2,4.1-4.5,6.4-6.5c1.6-1.5,4-2.4,6.1-1.5c1.4,0.6,2.3,2,2.5,3.5c0.4,2.4-1.5,5.8-2.7,7.8
		c-4.9,8.1-9.6,15.2-18,19.6c-2.4,1.3-5,2.2-7.7,2.1c-4.5-0.2-8.5-3.4-10.7-7.3c-2.2-3.9-3-8.5-3.3-13c-0.7-9.5,0.1-19,1.3-28.4
		c3.2-25.6,9.2-50.8,17.7-75.1c2.1-5.9,4.3-11.7,6.6-17.4c1.2-2.9,2.4-5.7,3.6-8.6c0.3-0.7,0.9-1.7,1.3-2.8c0.6-1.4,1.3-3.2,1.7-4.1
		c0,0-2.4-0.8-3.1-1c-1.2-0.4-2.4-0.7-3.6-1.1c-4.6-1.5-9.3-2.8-13.9-4.2c-15.4-4.5-30.1-11-44.8-17.7c-2.7-1.2-5.4-2.5-7.1-4.9
		c-2.6-3.8-1.8-8.9-0.9-13.1c0.8-4.2,2.5-8.4,5.9-11.1c0.6-0.5,1.2-0.9,1.9-1c1.3-0.2,2.5,0.6,3.6,1.4c9.9,7.4,20.3,13.9,31.2,19.7
		c10.9,5.8,22.3,10.7,34,14.7c0.8,0.3,3.5,1.2,4.8,1.6c0.1,0,4.8-8.3,5.1-8.8c3.7-6,3.7-6,7.7-11.7c3.3-4.7,7.6-7.3,13.7-6.8
		c8.5,0.7,16.4,3.1,23.5,7.9c4.5,3,4.4,6.5,0.7,10.3c-5.7,5.8-9.2,9-14.7,15c-0.5,0.5-3.9,4.1-3.9,4.1c2.7,0.6,5.3,1.1,5.7,1.1
		c5.9,1.1,8.6,1.6,14.5,2.8c2.6,0.5,5.2,1,7.7,1.9c1,0.3,1.9,0.7,2.7,1.3c0.8,0.6,1.4,1.5,1.5,2.5c0.1,1.2-0.6,2.4-1.6,3.1
		c-1,0.7-2.2,1-3.3,1.2c-3.1,0.6-6.4,0.4-9.5,0.2c-4,0-8.1-0.4-12.1-0.6c-4-0.2-6.9-0.5-11-0.8c-2.6-0.2-4.9-0.4-4.9-0.3
		c-0.7,1-1.5,2-2.7,3.8c-1.5,2.3-3,4.6-4.5,6.9c-2.9,4.5-5.8,9-8.5,13.6c-5.6,9.2-10.9,18.7-15.4,28.5c-7.6,16.7-13,34.4-15.8,52.5
		C393.9,272.9,393.3,277.9,393.3,282.9z"/>
	<path id="XMLID_99_" class="st0" d="M324.8,273.3c0.1-2.3,0.3-5,0.3-7.5c0.1-2.6,0.2-5.2,0.3-7.7c0.2-5.1,0.4-10.3,0.6-15.4
		c0.4-10.2,0.7-20.4,1.1-30.6c0.3-7.2,0.5-14.4,0.8-21.7c-3.2,4.1-6.7,8.2-9.8,12.6c-7.1,10-14,20-20.9,30.1c-1.8,2.6-5.3,5.2-9.1,3
		c-5.2-2.9-0.9-10.1,1-13.7c3.1-5.7,6.4-11.2,9.9-16.6c6.9-10.9,14.3-21.5,21.2-32.4c0.3-0.4,0.5-0.9,0.8-1.3
		c2.8-4.6,5.7-9.3,9.9-12.6c1.1-0.8,2.2-1.6,3.5-1.9c1.3-0.3,2.7-0.2,4.1-0.1c7.6,0.7,16.8,1.4,23.1,6.1c1,0.8,1.6,1.9,1.8,3.1
		c0.1,0.7,0,1.4,0,2.1c-0.2,5.2-0.6,11.1-0.8,16.4c-0.3,6.9-0.7,13.8-0.9,20.7c-0.6,13.8-1,27.6-1.2,41.4
		c-0.3,14.5,0.1,28.9,0.1,43.3c0.1,5.3-2,9.4-6.9,11.9c-3.8,1.9-7.8,3.6-11.9,4.6c-4.1,1-8.1,1.6-12.1-0.2c-2.9-1.3-5.3-3.4-7.3-5.8
		c-4-4.6-6.8-10.3-8.7-16.1c-1.9-5.8-3-11.9-4-18c-0.3-1.6-0.5-3.2-0.7-4.9c-0.2-1.5-0.5-3.2,0.6-4.4c0.3-0.4,0.8-0.7,1.3-0.8
		c0.5-0.1,1-0.2,1.4,0c0.4,0.2,0.7,0.4,1,0.7c1.1,1.2,2,2.6,2.9,3.9c1.1,1.5,2.2,2.9,3.2,4.4C321.1,268.4,322.9,270.9,324.8,273.3z"
		/>
	<path id="XMLID_9_" class="st0" d="M470.1,290.9c0.1-2.3,0.2-4.7,0.3-7.5c0.1-2.6,0.2-5.2,0.3-7.7c0.2-5.1,0.4-10.3,0.6-15.4
		c0.4-10.2,0.7-20.4,1.1-30.6c0.3-7.2,0.5-14.4,0.8-21.7c-3.2,4.1-6.7,8.2-9.8,12.6c-7.1,10-14,20-20.9,30.1c-1.8,2.6-6.8,4-9.1,2.6
		c-5.1-3.2-1-9.6,1-13.2c3.1-5.7,6.4-11.2,9.9-16.6c6.9-10.9,14.3-21.5,21.2-32.4c0.3-0.4,0.5-0.9,0.8-1.3c2.8-4.6,5.7-9.3,9.9-12.6
		c1.1-0.8,2.2-1.6,3.5-1.9c1.3-0.3,2.7-0.2,4.1-0.1c7.6,0.7,16.8,1.4,23.1,6.1c1,0.8,1.6,1.9,1.8,3.1c0.1,0.7,0,1.4,0,2.1
		c-0.2,5.2-0.6,11.1-0.8,16.4c-0.3,6.9-0.7,13.8-0.9,20.7c-0.6,13.8-1,27.6-1.2,41.4c-0.3,14.5,0.1,28.9,0.1,43.3
		c0.1,5.3-2,9.4-6.9,11.9c-3.8,1.9-7.8,3.6-11.9,4.6c-4.1,1-8.1,1.6-12.1-0.2c-2.9-1.3-5.3-3.4-7.3-5.8c-4-4.6-6.8-10.3-8.7-16.1
		c-1.9-5.8-3-11.9-4-18c-0.3-1.6-0.5-3.7-0.7-5.3c-0.2-1.5-0.2-1.4-0.2-3c0-0.7,0.3-1.8,1.5-2.1c1.4-0.4,2.2,0.3,2.5,0.6
		c0.4,0.5,0.9,1.1,1.2,1.4c1,1.3,1.3,1.6,2.2,2.9c1.1,1.5,2.2,2.9,3.2,4.4C466.4,285.9,468.2,288.4,470.1,290.9z"/>
</g>
<g id="creative">
	<rect id="XMLID_13_" x="-2.6" y="478.6" class="st1" width="758" height="149.3"/>
	<text id="XMLID_12_" transform="matrix(1 0 0 1 -2.6133 526.1852)" class="st2 st3 st4 st5">CRCVTIVC</text>
	<path id="XMLID_17_" class="st0" d="M38.9,522.6c-1.8,1.6-7.2,5.4-15.1,5.4C10,527.9,0,517.5,0,503.6c0-13.8,10.4-24.3,23.7-24.3
		c7,0,12.1,2.9,14.5,4.9l-1.7,4.8c-1.8-1.5-6.4-4.6-12.7-4.6c-10.4,0-18.2,8.3-18.2,19.2c0,10.9,7.4,19.2,18.3,19.2
		c7.1,0,11.7-3.7,13.3-5L38.9,522.6z"/>
	<path id="XMLID_19_" class="st0" d="M86.8,480.2h11.9c9.6,0,14.6,4.8,14.6,13c0,5.6-2.7,10.7-8.2,12.4l11.7,21.5h-6l-10.6-20.4h-8
		v20.4h-5.4V480.2z M98.8,501.9c5.5,0,8.9-2.5,8.9-8.7c0-5-2.6-8.2-9.2-8.2h-6.2v17H98.8z"/>
	<path id="XMLID_22_" class="st0" d="M199.9,522.6c-1.8,1.6-7.2,5.4-15.1,5.4c-13.7,0-23.8-10.5-23.8-24.3
		c0-13.8,10.4-24.3,23.7-24.3c7,0,12.1,2.9,14.5,4.9l-1.7,4.8c-1.8-1.5-6.4-4.6-12.7-4.6c-10.4,0-18.2,8.3-18.2,19.2
		c0,10.9,7.4,19.2,18.3,19.2c7.1,0,11.7-3.7,13.3-5L199.9,522.6z"/>
	<path id="XMLID_24_" class="st0" d="M266.8,480.2l17.8,46.9h-6l-14.7-40.5l-14.8,40.5h-6l17.8-46.9H266.8z"/>
	<path id="XMLID_26_" class="st0" d="M339.5,485.1h-12.7v-5h30.7v5h-12.6v41.9h-5.4V485.1z"/>
	<path id="XMLID_28_" class="st0" d="M405.1,480.2h5.4v46.9h-5.4V480.2z"/>
	<path id="XMLID_15_" class="st2" d="M197.7,501.9v4.8h-36.5v-4.8H197.7z"/>
	<path id="XMLID_36_" class="st2" d="M565.2,501.9v4.8h-23.5v-4.8H565.2z"/>
	<path id="XMLID_30_" class="st0" d="M474.5,527.1l-17.8-46.9h6l14.7,40.5l14.8-40.5h6l-17.8,46.9H474.5z"/>
	<path id="XMLID_32_" class="st0" d="M580.5,522.6c-1.8,1.6-7.2,5.4-15.1,5.4c-13.7,0-23.8-10.5-23.8-24.3
		c0-13.8,10.4-24.3,23.7-24.3c7,0,12.1,2.9,14.5,4.9L578,489c-1.8-1.5-6.4-4.6-12.7-4.6c-10.4,0-18.2,8.3-18.2,19.2
		c0,10.9,7.4,19.2,18.3,19.2c7.1,0,11.7-3.7,13.3-5L580.5,522.6z"/>
	<ellipse id="XMLID_35_" class="st2" cx="182.6" cy="504.4" rx="4.6" ry="2.5"/>
	<circle id="XMLID_39_" class="st2" cx="564.7" cy="504.4" r="2.5"/>
	<path id="XMLID_38_" class="st0" d="M186.9,506.9h-5.7c-1,0-1.8-0.8-1.8-1.8v-1.4c0-1,0.8-1.8,1.8-1.8h5.7c1,0,1.8,0.8,1.8,1.8v1.4
		C188.7,506.1,187.9,506.9,186.9,506.9z"/>
	<path id="XMLID_41_" class="st0" d="M567.4,506.9h-5.7c-1,0-1.8-0.8-1.8-1.8v-1.4c0-1,0.8-1.8,1.8-1.8h5.7c1,0,1.8,0.8,1.8,1.8v1.4
		C569.2,506.1,568.4,506.9,567.4,506.9z"/>
</g>
</svg>
