<?xml version="1.0" encoding="utf-8"?>
<svg version="1.1" id="Layer_4" x="0px" y="0px" viewBox="0 0 500 400.48" style="enable-background:new 0 0 499.9 400.3;" xmlns="http://www.w3.org/2000/svg">
  <style type="text/css">
	.st0{fill:#231F20;}
</style>
  <g transform="matrix(1.0002, 0, 0, 1.0002, 0, -0.000051)">
    <circle class="st0" cx="450.1" cy="50.2" r="49.8"/>
    <path class="st0" d="M0,200.2c0,110.5,89.6,200.2,200.2,200.2c71.5,0,134.3-37.5,169.7-94l36.3,67.3c8.4,15.7,24.9,26.4,43.9,26.4&#10;&#9;&#9;c27.5,0,49.8-22.3,49.8-49.8c0-8.5-2.1-16.5-5.9-23.5l-114-214.2C347.6,45.9,279.2,0,200.2,0C89.6,0,0,89.6,0,200.2z M97.8,200.2&#10;&#9;&#9;c0-55.8,45.2-101,101-101s101,45.2,101,101c0,15.6-3.5,30.4-9.9,43.6c-0.3,0.6-0.6,1.2-0.9,1.8c-16.6,33-50.8,55.6-90.3,55.6&#10;&#9;&#9;C143,301.2,97.8,255.9,97.8,200.2z"/>
  </g>
</svg>