<?xml version="1.0" encoding="utf-8"?>
<!-- Generator: Adobe Illustrator 19.1.0, SVG Export Plug-In . SVG Version: 6.00 Build 0)  -->
<svg version="1.1" id="Layer_1" xmlns="http://www.w3.org/2000/svg" xmlns:xlink="http://www.w3.org/1999/xlink" x="0px" y="0px"
	 viewBox="0 0 37.8 55.5" style="enable-background:new 0 0 37.8 55.5;" xml:space="preserve">
<style type="text/css">
	.st0{fill:#FFFFFF;}
</style>
<path id="XMLID_29_" class="st0" d="M25.3,47.9c-0.5,1.9-1,3.8-1.6,5.6c-0.2,0.5-0.3,1.1-0.7,1.5c-0.4,0.4-1,0.7-1.5,0.4
	c-0.4-0.2-0.6-0.5-0.7-0.9c-0.1-0.4,0-0.8,0-1.2c0.4-2.5,1.2-4.9,1.8-7.4c0-0.1,0-0.3,0-0.3c-0.8-0.9-1.7-1.9-2.5-2.8
	c-0.2-0.2-0.4-0.4-0.6-0.6c-0.2-0.2-0.6-0.6-0.9-0.9c0,0-0.5,0.7-0.7,1c-1.1,1.4-2.5,2.6-4,3.4c-1.6,0.9-3.5,1.5-5.4,1.5
	c-0.9,0-1.8-0.1-2.7-0.4c-2.2-0.6-4.1-2.2-5.1-4.2c-0.7-1.4-0.9-3-0.9-4.5c0-1.6,0.2-3.1,0.9-4.5c0.8-1.8,2.3-3.3,4.1-4.3
	c1.1-0.6,2.3-0.9,3.6-1.1c1.9-0.3,3.6-0.1,5.4,0.6c0.9,0.4,1.8,1,2.6,1.6c0.4,0.3,0.8,0.7,1.2,1c0.6,0.6,0.9,0.9,1,1
	c0.1-0.2,0.2-0.4,0.3-0.6c0.8-1.8,1.6-3.5,2.3-5.4c1.3-3.3,2.6-6.5,3.8-9.8c0.9-2.5,1.8-5.1,2.6-7.7C28.2,6.9,28.7,4.9,29,3
	c0.2-0.9,0.8-1.1,1.4-1.3c2-0.8,4-1.6,6.1-1.6c0.3,0,0.7,0,1,0.2c0.2,0.1,0.3,0.5,0.3,0.8c-0.3,1.2-0.6,2.5-0.9,3.7
	c-0.5,1.9-1.1,3.8-1.6,5.7c-0.7,2.4-1.3,4.7-1.9,7.1c-0.5,2.1-1,4.2-1.6,6.3c-0.6,2.3-1.2,4.6-1.8,6.9c-0.6,2.1-1.3,4.3-1.9,6.4
	c-0.4,1.5-0.8,3.1-1.2,4.6c0,0.1-0.1,0.3-0.1,0.3c0.7,0.8,1.3,1.3,1.8,1.8c0.7,0.7,1.5,1.4,2.3,2c1.4,1.1,1.5,1.2,2.6,2
	c1.6,1,2.4,0.9,2.8,0.2c0.5-0.9,0.3-2,0.1-2.4c-0.2-0.4,0.6,0.2,1.2,2.2c0.4,1.2,0.1,2.9-0.5,3.9c-1.1,2.1-3.8,2.6-5.8,1.3
	C28.8,51.3,27.6,49.9,25.3,47.9z M27.2,24c-0.1,0.2-0.2,0.4-0.3,0.6c-0.7,1.7-1.4,3.5-2.2,5.2c-0.6,1.2-1.1,2.4-1.7,3.6
	c-0.3,0.6-0.6,1.2-0.9,1.8C22,35.4,21.7,36,21.7,36c0.2,0.2,0.7,0.8,1,1.2c0.6,0.7,1.1,1.3,1.7,2c0,0,0.1-0.6,0.1-0.7
	c0.2-1.3,0.4-2.5,0.7-3.8c0.3-1.5,0.6-2.9,0.8-4.4C26.5,28.1,26.9,26,27.2,24c0.1-0.1,0.1-0.1,0.1-0.2C27.3,23.8,27.3,23.9,27.2,24z
	 M9.7,34.1c-0.2,0-0.3,0-0.5,0c-1,0.1-1.9,0.5-2.7,1.2c-0.8,0.7-1.4,1.6-1.7,2.6c-0.3,1.1-0.2,2.4,0.3,3.4s1.6,1.8,2.7,2.1
	c1.3,0.3,2.7-0.1,3.9-0.9c1-0.7,2.2-1.6,3-2.5c0.4-0.5,0.9-1.2,1.3-1.8c0,0-0.3-0.4-0.7-0.8c-0.5-0.6-1.2-1.2-1.6-1.6
	C12.6,34.7,11.1,34.1,9.7,34.1z"/>
</svg>
