<?xml version="1.0" encoding="utf-8"?>
<!-- Generator: Adobe Illustrator 19.1.0, SVG Export Plug-In . SVG Version: 6.00 Build 0)  -->
<svg version="1.1" id="Layer_1" xmlns="http://www.w3.org/2000/svg" xmlns:xlink="http://www.w3.org/1999/xlink" x="0px" y="0px"
	 viewBox="0 0 18 32" style="enable-background:new 0 0 18 32;" xml:space="preserve">
<style type="text/css">
	.st0{fill:#FCFCFC;}
</style>
<g>
	<g>
		<g id="mouse">
			<g>
				<path class="st0" d="M9,0C4,0,0,4,0,9v14c0,5,4,9,9,9s9-4,9-9V9C18,4,14,0,9,0z M16,23c0,3.9-3.1,7-7,7s-7-3.1-7-7V9
					c0-3.9,3.1-7,7-7s7,3.1,7,7V23z M9,5C8.4,5,8,5.4,8,6v5c0,0.6,0.4,1,1,1c0.6,0,1-0.4,1-1V6C10,5.4,9.6,5,9,5z"/>
			</g>
		</g>
	</g>
</g>
</svg>
