<?xml version="1.0" encoding="utf-8"?>
<!-- Generator: Adobe Illustrator 19.1.0, SVG Export Plug-In . SVG Version: 6.00 Build 0)  -->
<svg version="1.1" id="Layer_1" xmlns="http://www.w3.org/2000/svg" xmlns:xlink="http://www.w3.org/1999/xlink" x="0px" y="0px"
	 viewBox="-630 1485 18 32" style="enable-background:new -630 1485 18 32;" xml:space="preserve">
<style type="text/css">
	.st0{fill:#FCFCFC;}
</style>
<g>
	<g>
		<g id="mouse">
			<g>
				<path class="st0" d="M-621,1485c-5,0-9,4-9,9v14c0,5,4,9,9,9s9-4,9-9v-14C-612,1489-616,1485-621,1485z M-614,1508
					c0,3.9-3.1,7-7,7s-7-3.1-7-7v-14c0-3.9,3.1-7,7-7s7,3.1,7,7V1508z M-621,1490c-0.6,0-1,0.4-1,1v5c0,0.6,0.4,1,1,1s1-0.4,1-1v-5
					C-620,1490.4-620.4,1490-621,1490z"/>
			</g>
		</g>
	</g>
</g>
</svg>
