<?xml version="1.0" encoding="utf-8"?>
<!-- Generator: Adobe Illustrator 19.1.0, SVG Export Plug-In . SVG Version: 6.00 Build 0)  -->
<svg version="1.1" id="Layer_1" xmlns="http://www.w3.org/2000/svg" xmlns:xlink="http://www.w3.org/1999/xlink" x="0px" y="0px"
	 viewBox="0 0 57.9 62.9" style="enable-background:new 0 0 57.9 62.9;" xml:space="preserve">
<style type="text/css">
	.st0{fill:#FFFFFF;}
</style>
<g>
	<g>
		<path class="st0" d="M34.2,50.6l-2.7,12.3l3.7-1.8l2.2-11.2c13-10.8,17-22.3,17-22.3l-7.8-0.3c0,0,7.7-7.3,10.5-8
			c1.1-2.4,2-8.5-4.9-19.3C25.5,15.6,30.1,33.7,34.2,50.6z M36.6,46.4l-0.2,0c0.3-4.1,2.8-28.1,14.1-42C45.1,13.1,38,40.7,36.6,46.4
			z"/>
	</g>
</g>
<g>
	<path class="st0" d="M27,54.9l-1.6-1.6l-1.6,1.6L8,38.5l1.6-1.6l-1.6-1.6l13.1-12.6l1.6,1.6l1.6-1.6l1.6-1.6l1.6-1.6L23,14.6
		L18,19.4l1.6,1.6L6.5,33.6L4.9,32L0,36.7l4.7,4.9L6.4,40l15.8,16.4L20.5,58l4.7,4.9l4.9-4.7l-1.6-1.6 M4.8,38.4l-1.6-1.6l1.6-1.6
		l1.6,1.6L4.8,38.4z M25.3,59.7l-1.6-1.6l1.6-1.6l1.6,1.6L25.3,59.7z M22.9,17.8l1.6,1.6l-1.6,1.6l-1.6-1.6L22.9,17.8z"/>
</g>
</svg>
