<?xml version="1.0" encoding="utf-8"?>
<!-- Generator: Adobe Illustrator 19.1.0, SVG Export Plug-In . SVG Version: 6.00 Build 0)  -->
<svg version="1.1" id="Layer_1" xmlns="http://www.w3.org/2000/svg" xmlns:xlink="http://www.w3.org/1999/xlink" x="0px" y="0px"
	 viewBox="167 -279 364.5 588" style="enable-background:new 167 -279 364.5 588;" xml:space="preserve">
<style type="text/css">
	.st0{fill:#FFFFFF;}
</style>
<g>
	<g>
		<path class="st0" d="M348.8,298.3c-2.4-0.1-4.9-0.2-7.3-0.3c-12-0.4-24-0.7-35.9-1.2c-9.5-0.4-19-0.7-28.5-1.6
			c-6.8-0.6-13.6-2-20.3-3.3c-9.7-1.9-19.2-4.4-28-8.9c-4.4-2.2-9.1-3.2-13.5-5c-1.6-0.6-3.2-1.3-4.7-2.2c-0.9-0.5-1.7-1.2-2.4-1.9
			c-1.8-1.9-1.8-4-0.2-5.9c0.5-0.6,0.5-1,0.1-1.6c-0.7-1.1-1.4-2.2-2-3.4c-0.4-0.8-1-1.3-1.8-1.6c-4-1.6-7.8-3.4-11.2-6.2
			c-1.2-1-2.3-2.1-3.3-3.3c-2.5-3.3-2.4-7.1,0.1-10.4c2.3-3,5.3-5.2,8.6-6.7c2.6-1.1,3.6-2.5,3.6-5.4c-0.1-3.7,0.4-7.4,0.7-11.1
			c0.1-0.8-0.2-1.2-0.9-1.5c-4.2-1.7-8.4-3.6-12.1-6.3c-1.4-1-2.7-2.2-3.7-3.5c-2.2-2.8-1.8-6,1.1-8.1c1.9-1.4,4-2.5,6.2-3.2
			c3.1-1,6.4-1.7,9.6-2.4c0.9-0.2,1.2-0.5,1.3-1.4c1-8.3,2.1-16.6,3.1-24.8c0.2-1.7,0.6-3.5,0.9-5.2c0.1-0.5,0-1.2-0.2-1.6
			c-2.4-3.7-2.1-6.9,1.4-9.7c1-0.8,1.5-1.7,1.7-3c0.8-3.8,1.8-7.6,2.7-11.4c0.1-0.5,0.1-1.1-0.2-1.4c-2.7-4.2-2.6-8.4,0-12.4
			c1.5-2.3,3.7-4.3,5.5-6.4c0.4-0.4,0.8-0.8,0.9-1.3c3.3-9.6,6.9-19,11.2-28.1c0.1-0.1,0.1-0.3,0.2-0.6c-0.6-0.3-1.3-0.6-1.9-1.1
			c-2-1.4-4.2-2.6-5.9-4.3c-3.3-3.2-3.1-7.1,0.1-10.4c3-3,6.8-4.7,10.7-6.2c3.2-1.2,6.5-2.1,9.8-3.2c0.5-0.2,1-0.5,1.3-0.9
			c9.8-16.6,17.9-33.9,23.3-52.4c0.4-1.2,0.4-2-0.7-3c-2.7-2.6-2.6-5.8,0.1-8.3c1-0.9,2.2-1.5,3.2-2.3c0.3-0.3,0.8-0.7,0.8-1
			c0.8-6.5,1.6-13.1,2.5-19.6c0.1-1.1-0.2-1.7-1.2-2.3c-1-0.5-1.9-1.3-2.7-2.1c-2-2-1.8-4.5,0.4-6.2c0.8-0.7,1.8-1.2,2.7-1.8
			c-0.8-0.6-1.7-1.1-2.5-1.7c-3.5-2.7-3.8-6-0.7-9.2c0.6-0.7,0.4-1.1,0.1-1.7c-3.3-8.1-7.6-15.7-12.8-22.7c-2.6-3.5-5.5-6.8-8-10.3
			c-1.1-1.5-2.3-2.6-3.9-3.5c-2.2-1.4-4.4-2.9-6.3-4.7c-4.3-4.1-4-9,0.7-12.7c1-0.8,1.3-1.5,1.1-2.7c-1.1-9.8,0.2-19.5,1.8-29.2
			c0.4-2.2,0.7-4.3,1.1-6.5c0.1-0.7-0.1-1.1-0.8-1.5c-1.5-0.9-3.1-1.8-4.3-2.9c-2.2-2-2.1-4.5,0.1-6.6c1-0.9,2.1-1.6,3.3-2.4
			c-0.4-0.2-0.8-0.4-1.1-0.7c-1.3-1.1-2.7-2.2-3.7-3.5c-1.5-2.1-1-4.9,1-7c0.8-0.8,1.6-1.5,2.8-2.5c-0.3-0.2-0.7-0.3-1-0.6
			c-2.2-2.1-2.5-4.7-1-7.3c0.4-0.6,0.9-1.2,1.4-1.8c0.5-0.5,1.3-1,1.3-1.6c0-1.3-0.3-2.6-0.6-3.9c-0.1-0.3-0.4-0.4-0.7-0.7
			c-0.8-0.8-1.8-1.5-2.5-2.4c-2.9-3.4-2.9-7.5,0-10.8c0.7-0.8,0.7-1.5,0.6-2.4c-0.1-2.1-0.9-3.6-2.8-4.6c-0.7-0.4-1.3-1.1-1.9-1.7
			c-2.8-3.2-2.5-6.9,0.6-9.9c0.3-0.3,0.6-0.6,0.6-0.7c-0.6-0.8-1.2-1.6-1.9-2.3c-2.3-2.7-2.4-5.9-0.1-8.6c0.8-0.9,0.9-1.8,0.8-2.9
			c-0.5-4.3-0.8-8.6-0.3-12.9c0-0.4-0.1-1-0.3-1.3c-1.5-2.3-1.4-4.5,0.8-6.3c1.5-1.2,2.5-2.8,3.6-4.4c3.1-4.9,7.6-8.1,13.2-9.7
			c0.5-0.1,0.9-0.3,1.3-0.5c1.6,0,3.2,0,4.8,0c1.1,0.2,2.3,0.3,3.4,0.5c5.5,0.9,9.6,3.5,11.9,8.7c0.5,1.2,1.2,2.1,2.4,2.8
			c2.3,1.4,2.5,3.2,1.1,5.4c-0.3,0.4-0.4,1.1-0.2,1.5c1.4,5.4,2.9,10.7,4.4,16.1c0.2,0.9,0.8,1.7,1.3,2.5c1,1.3,1.5,2.7,1.3,4.3
			c-0.3,2.7,0,5.3,2.7,6.9c0.6,0.3,1.1,0.8,1.6,1.3c2.8,2.7,3,5.4,0.6,8.5c-0.2,0.3-0.3,0.9-0.2,1.2c0.4,1.4,0.9,2.8,1.3,4.2
			c0.3,1,0.8,1.7,1.6,2.5c2.4,2.2,3.7,4.8,2.5,8.1c-0.1,0.3-0.1,0.7,0,0.9c0.7,1.5,1.2,3.2,3.2,3.6c0.6,0.1,1.2,0.6,1.8,1
			c1.7,1.2,2.7,2.8,2.2,5c-0.1,0.4,0.1,1,0.4,1.2c1.4,1.2,2.8,2.5,4.4,3.6c7.2,5,15.4,6.8,24.1,6.9c14,0.1,28.1,0.1,42.1,0
			c3.6,0,7.3-0.4,10.8-1c7-1.2,13.2-4.1,18.5-8.9c0.5-0.5,0.6-0.8,0.3-1.5c-0.9-2-0.6-3.9,1-5.4c1.1-1,2.4-1.7,3.7-2.5
			c0.7-0.4,1.4-0.6,2.2-0.9c-1.3-4,0.1-7.1,2.9-9.5c2.3-2,2.6-4.7,3-7.3c0.3-1.8,0.6-3.4,1.5-5c0.3-0.4,0.5-0.8,0.7-1.3
			c0.8-2.5,1.5-5,2.2-7.5c0.1-0.3,0.2-0.7,0.1-1c-1.2-3-0.2-5.4,2-7.6c0.3-0.3,0.6-0.7,0.8-1.2c1.3-4.6,2.5-9.1,3.7-13.7
			c0.1-0.4,0-1-0.2-1.3c-1.4-2.3-1.2-4.6,1-6.1c1.3-0.9,2-2.1,2.4-3.5c0.2-0.5,0.4-1,0.6-1.6c2.1-5.1,5.9-8.2,11.3-9.2
			c1.4-0.3,2.8-0.5,4.2-0.7c1.7,0,3.4,0,5,0c0.2,0.1,0.3,0.2,0.5,0.3c4.9,1.2,8.9,3.7,12.3,7.5c3.4,3.8,4.5,8.7,6.1,13.2
			c0.3,0.7-0.2,1.6-0.2,2.5c0.4,4.9-0.2,9.8-0.8,14.7c-0.1,0.8,0.1,1.3,0.6,1.9c2,2.6,1.8,5.2-0.4,7.5c-0.4,0.4-0.8,0.7-1.1,1.1
			c-0.3,0.3-0.5,0.7-0.6,1.1c-1,6.2-2.1,12.4-3.1,18.6c-0.1,0.5,0.1,1.2,0.4,1.6c2.9,4,2.5,7.7-1.2,10.9c-1.1,1-1.4,2-1.7,3.3
			c-0.4,1.5,0.3,2.4,1.2,3.4c2.4,2.7,2,5.5-1.1,7.3c-1.4,0.8-1.9,1.8-1.9,3.2c0,0.2,0,0.5-0.1,0.7c-0.2,0.7,0.1,1.1,0.7,1.6
			c1.4,1.1,2.9,2.2,4,3.5c1.9,2.2,1.6,4.7-0.7,6.5c-0.9,0.8-2,1.5-3.2,1.9c-1.5,0.5-2,1.3-1.9,2.9c0.1,0.9,0.3,1.3,1.1,1.7
			c1.4,0.8,2.8,1.7,4,2.8c1.7,1.6,1.6,3.5-0.2,5c-1,0.9-2.3,1.4-3.4,2.2c-0.3,0.2-0.8,0.6-0.8,1c-0.4,5.4-0.8,10.8-1.2,16.1
			c-0.1,0.7,0.2,1,0.8,1.4c1.1,0.7,2.2,1.4,3.2,2.3c2.4,2.3,2.3,4.9-0.3,6.9c-1.4,1.1-3.1,2-4.7,2.8c-0.8,0.4-1.2,0.9-1.3,1.7
			c-1.5,7.6-3.4,15.1-6.3,22.3c-0.2,0.4-0.2,1-0.1,1.5c0.8,2.3,0.4,4.4-1.2,6.1c-1.2,1.2-2.6,2.2-4,3.2c-0.5,0.4-1.1,0.9-1.4,1.4
			c-2.9,6.1-5.8,12.2-8.7,18.2c-0.5,1-0.4,1.6,0.5,2.4c2.5,2.2,2.5,4.7,0.1,7c-1.1,1.1-2.6,1.8-3.9,2.8c-0.4,0.3-0.8,0.8-1,1.3
			c-0.9,3.6-1.1,7.2-1,10.8c0,1.1,0.4,1.6,1.4,2.2c2,1,4,2.1,5.7,3.5c1.8,1.5,1.6,3.5-0.3,4.8c-1.5,1-3.3,1.6-4.9,2.4
			c-0.3,0.1-0.8,0.4-0.8,0.5c0.3,1.6-0.3,3.4,1.3,4.7c1.2,1,1.2,2,0.4,3.3c-0.3,0.5-0.5,1.2-0.3,1.8c1.6,6.7,3.3,13.4,4.9,20.1
			c0.2,0.9,0.7,1.3,1.5,1.7c2.1,1.2,4.3,2.3,6.1,3.9c2.6,2.3,2.6,5.1,0.2,7.7c-0.7,0.8-1.5,1.4-2.4,2.3c2.7,5.8,5.4,11.6,8.2,17.4
			c0.2,0.4,0.8,0.8,1.2,1.1c2.7,1.7,5.6,3.1,8.1,5c1.7,1.2,3.1,2.9,4.2,4.6c1.5,2.2,1.2,4.7-0.4,6.8c-0.6,0.8-1.4,1.5-2,2.3
			c0.6,1.8,1.8,3.1,3.7,3.5c0.5,0.1,0.9,0.3,1.3,0.5c3.9,1.7,7.9,3.4,11,6.5c3,3.1,2.9,6.5-0.3,9.4c-0.7,0.6-1.4,1.2-2.3,1.9
			c0.4,0.2,0.8,0.4,1.1,0.5c2.4,1.6,5.1,2.9,7.3,4.8c4.5,3.8,5.1,9.1,1.8,14c-0.7,1-1.4,1.9-2.2,2.8c-0.5,0.5-0.5,0.9-0.3,1.6
			c5.2,14.4,9.1,29.1,12.1,44.1c0.2,1.2,0.8,1.7,1.9,2.1c4.7,1.6,9.2,3.4,13.4,6.1c2.5,1.6,4.6,3.4,5.5,6.4c0,0.5,0,1,0,1.4
			c-0.8,2.6-2.6,4.3-4.9,5.5c-1.8,1-3.6,1.8-5.5,2.6c-1.9,0.8-4,1.4-6,2.1c0.1,0.6,0.1,1.3,0.2,1.9c0.4,3.3,0.8,6.7,1.1,10
			c0.1,0.9,0.3,1.4,1.2,1.8c2.6,1.2,5.1,2.5,7,4.7s1.9,4.4,0,6.6c-1.6,1.9-3.8,3.1-6,4.2c-0.7,0.3-1,0.7-1,1.5
			c0.5,7.4,0.8,14.8,1.3,22.1c0,0.3,0.2,0.8,0.5,1c1.9,1.4,3.8,2.9,5.8,4.2c2.9,2.1,5.5,4.4,6.4,8.1c0,0.6,0,1.3,0,1.9
			c-1.1,3.9-3.9,6.4-7.2,8.3c-2.5,1.5-5.2,2.6-7.8,4c-0.5,0.3-1,0.8-1.3,1.3c-1.6,2.6-3,5.4-4.9,7.8c-4.9,6.3-11.5,10.5-18.7,13.9
			c-9.6,4.5-19.9,7.2-30.3,9.3c-18.2,3.7-36.7,5-55.3,5.5c-3,0.1-5.9,0.2-8.9,0.3C369.3,298.3,359.1,298.3,348.8,298.3z
			 M239.1,225.7c0,0.1,0,0.2,0.1,0.3c0.1,0,0.2,0.1,0.3,0.1c8.8,2,17.5,4.3,26.4,6c14.3,2.8,28.6,5.4,42.9,7.8
			c11.6,1.9,23.2,3.4,34.9,4.9c11,1.4,22,2.7,33,3.7c10.4,1,20.9,1.9,31.3,2.5c13.2,0.7,26.5,1.2,39.8,1.5c10.2,0.2,20.4,0,30.5-1.1
			c5.9-0.6,11.8-1.8,17.8-2.6c1.2-0.2,1.6-0.8,1.6-1.9c0-4.1,0.1-8.1,0.1-12.2c0-0.8-0.3-1.3-1.1-1.5c-6.1-1.8-12.1-4.1-18.4-5.4
			c-9.6-2.1-19.4-3.6-29.1-5.3c-2.7-0.5-5.5-0.9-8.2-0.7c-6.4,0.4-12.8,1.3-19.2,1.8c-9.8,0.7-19.5,1.4-29.3,1.8
			c-9.1,0.4-18.1,0.8-27.2,0.8c-13.6,0.1-27.2,0-40.8-0.3c-9.6-0.2-19.2-0.8-28.9-1.4c-8.5-0.5-17-1.4-25.4-2.1
			c-2.1-0.2-4.3-0.7-6.4-0.4c-6.1,0.7-12.1,1.6-18.2,2.5C243.4,224.9,241.3,225.4,239.1,225.7z M468.5,88c-1.9,1.2-3.6,2.1-5.2,3.3
			c-4.1,3.1-8.8,5-13.6,6.6c-15.4,5.1-31.4,7.8-47.4,9.8c-9.4,1.1-18.8,2.1-28.2,2.7c-10.4,0.7-20.9,1.2-31.4,1.3
			c-10.1,0.1-20.1-0.1-30.2-0.4c-11.4-0.4-22.7-1.3-34-2.8c-8.5-1.1-17-2.4-25.3-4.7c-2.1-0.6-3.9-0.5-6,0.3
			c-8,3.3-15.9,6.8-23,11.8c-0.6,0.4-1.1,1.1-1.3,1.7c-1.7,5.4-3.2,10.8-4.9,16.2c-0.4,1.1-0.2,1.9,0.8,2.5c0.3,0.2,0.5,0.5,0.8,0.6
			c0.4,0.1,1,0.3,1.4,0.1c3.6-1.4,7.1-3.1,10.8-4.2c14-4.2,28.4-6.3,42.9-7.9c9.5-1,18.9-1.9,28.4-2.4c11.6-0.7,23.2-1.2,34.9-1.3
			c13.7-0.1,27.3,0.1,41,0.6c11.2,0.4,22.4,1.2,33.6,2.3c10,0.9,20,2.5,30,3.7c0.8,0.1,1.6,0,2.3-0.2c4-1.5,7.9-2.9,11.8-4.6
			c7.1-3,14-6.5,20.1-11.3c0.7-0.5,0.9-1,0.5-1.8c-1.9-4.7-3.7-9.4-5.6-14.2C470.8,93.2,469.7,90.8,468.5,88z M479.9,266
			c0-0.2,0-0.3,0-0.5c-1.9-0.6-3.8-1.3-5.8-1.8c-11.3-3-22.9-4.7-34.5-5.7c-12.9-1.1-25.7-2-38.6-2.6c-12.9-0.6-25.9-0.8-38.8-0.9
			c-10.9-0.1-21.8,0-32.7,0.2c-9.4,0.2-18.7,0.3-28,0.9c-13.5,0.8-27,1.7-40.4,2.8c-10.9,0.9-21.7,2.4-32.4,4.6
			c-2.1,0.4-4.1,0.9-6.1,1.4c0.3,0.3,0.6,0.4,0.8,0.5c8.4,1.7,16.7,3.7,25.1,5.1c10,1.6,20,2.9,30.1,3.9c9.7,1,19.3,1.8,29,2.3
			c10,0.6,20,1,30.1,1.2c12.2,0.2,24.4,0.2,36.6-0.1c12.7-0.3,25.4-1,38.1-1.7c8.2-0.5,16.3-1.3,24.5-2.2c8.7-1,17.4-2.4,26.1-3.8
			C468.5,268.5,474.2,267.2,479.9,266z M350,176.2c0-0.1,0-0.2,0-0.2c0.4,0,0.8,0,1.2,0c8.2,0.1,16.4,0.2,24.6,0.4
			c8.5,0.2,17,0.5,25.5,1.1c11,0.8,22.1,1.7,33.1,2.8c8.9,0.9,17.8,2.3,26.7,3.5c2.9,0.4,5.7,1.4,8.6,0.8c7.7-1.4,15.3-2.7,23-4
			c1-0.2,1.2-0.6,1.1-1.5c-1.3-7.7-2.5-15.4-3.8-23.2c-0.1-0.8-0.4-1.2-1.2-1.4c-3-0.8-6-1.6-9-2.3c-0.6-0.1-1.3,0-1.8,0.2
			c-2.8,0.9-5.6,2.1-8.5,2.8c-15.1,4.2-30.6,6.3-46.1,7.9c-10.1,1-20.2,1.9-30.3,2.4c-13.2,0.7-26.4,1.3-39.7,1.3
			c-14.3,0.1-28.7-0.4-43-0.9c-8-0.3-16-0.8-24-1.5c-9-0.8-18-1.9-26.9-3c-9.3-1.2-18.5-2.9-27.4-5.6c-4.6-1.3-9.2-2.8-13.1-5.7
			c-1.2-0.8-2-1-3.2-0.2c-0.3,0.2-0.6,0.2-0.8,0.5c-0.4,0.4-0.8,0.8-0.9,1.2c-0.6,2.6-1,5.3-1.6,7.9c-0.2,0.8,0.1,1.2,0.7,1.6
			c1.8,1,3.5,2.2,5.4,3.1c6.3,3.1,13.1,5.1,19.9,6.9c11.4,3.1,23,5.3,34.7,7.2c2.2,0.4,4.4,1,6.5,0.9c7.3-0.4,14.6-1.2,21.9-1.6
			c10.8-0.6,21.6-1,32.5-1.4C339.1,176.1,344.5,176.2,350,176.2z M225.8,190.5c0,0.1,0,0.2,0.1,0.3c0.4,0,0.7,0,1.1,0
			c5.9-0.2,11.7-0.5,17.6-0.4c11.4,0.1,22.9,0.2,34.3,0.8c14.9,0.8,29.8,2,44.7,3.3c10.9,1,21.8,2.2,32.6,3.7
			c15.2,2.2,30.4,4.5,45.6,7.1c19.8,3.4,39.3,7.8,58.7,13.1c0.5,0.1,1.1,0.2,1.6,0.1c6.3-1.1,12.7-2.1,19-3.5
			c4.9-1.1,9.6-2.7,14.4-4c0.6-0.2,1.1-0.3,1-1.2c-0.4-5.4-0.8-10.8-1.1-16.3c-0.1-0.9-0.4-1.3-1.2-1.6c-7.6-2.4-15.3-4.2-23.2-5.5
			c-2.3-0.4-4.7-0.7-7.1-0.7c-2.9,0.1-5.8,0.7-8.7,0.8c-10.7,0.7-21.4,1.5-32.1,1.9c-10.9,0.4-21.8,0.5-32.7,0.5
			c-9.1,0-18.2-0.2-27.3-0.5c-6.4-0.2-12.8-0.4-19.2-0.9c-10.2-0.7-20.3-1.4-30.5-2.3c-7.9-0.7-15.8-1.7-23.7-2.5
			c-2.1-0.2-4.1-0.8-6.2-0.7c-5.8,0.4-11.6,0.9-17.4,1.6c-10.1,1.4-20.2,2.9-30.2,4.5C232.5,188.9,229.1,189.8,225.8,190.5z
			 M457.8,219.1c0-0.1,0-0.2,0-0.2c-0.2-0.1-0.4-0.2-0.7-0.2c-14.1-3.4-28.2-6.3-42.5-8.7c-8.7-1.5-17.4-2.9-26.1-4.2
			c-8.9-1.3-17.8-2.5-26.7-3.7c-7.8-1-15.6-1.9-23.5-2.7c-8.7-0.9-17.3-1.8-26-2.5c-8-0.7-16.1-1.3-24.2-1.8
			c-9.3-0.5-18.6-1-27.9-1.3c-8.3-0.2-16.6-0.3-24.9-0.1c-7.3,0.2-14.7,0.6-22,1.3c-2,0.2-3.9,1.8-5.9,2.8c-0.2,1.2-0.3,2.5-0.5,3.7
			c0,0.2,0,0.4,0,0.6c-0.8,2.5,0.5,3.8,2.6,4.8c4.4,2.3,9.2,3.9,14,5.3c9.8,2.7,19.9,4.5,29.9,6c3.4,0.5,6.8,1,10.3,0.6
			c12.2-1.3,24.3-2.5,36.5-3.5c15.7-1.3,31.5-1.6,47.2-1.6c10.3,0,20.5,0.3,30.8,0.6c5.8,0.2,11.6,0.5,17.4,0.9
			c8.2,0.6,16.4,1.3,24.6,2.1c6.4,0.6,12.7,1.5,19,2.3c2.4,0.3,4.8,1,7.2,0.9C450.3,220.3,454,219.6,457.8,219.1z M220.5,148
			c0,0.1,0,0.3-0.1,0.4c1.9,0.9,3.8,2,5.8,2.8c9.2,3.7,18.9,5.5,28.6,7.2c13.1,2.2,26.3,3.8,39.6,4.6c13.6,0.8,27.1,1.6,40.7,2.1
			c9.3,0.3,18.6,0.2,27.9,0.2c8,0,15.9-0.2,23.9-0.5c8.4-0.3,16.8-0.8,25.1-1.3c12.6-0.9,25.2-2.2,37.6-4.3
			c8.3-1.4,16.5-3.1,24.5-5.8c1.2-0.4,2.4-0.9,3.9-1.5c-0.5-0.2-0.6-0.2-0.8-0.3c-10.3-1.8-20.6-3.9-31-5.5
			c-8.2-1.3-16.4-2.1-24.6-3c-7.7-0.8-15.4-1.4-23.2-2.1c-0.5,0-1,0-1.4,0.1c-9.9,1.8-19.8,3.9-29.8,5.3
			c-12.4,1.7-24.8,3.1-37.3,4.2c-10.5,0.9-21.1,1.2-31.7,1.5c-13.3,0.3-26.5-0.2-39.7-1.7c-7.9-0.9-15.9-2-23.5-4.3
			c-2.8-0.8-5.3-1-8-0.1C224.8,146.8,222.6,147.4,220.5,148z M497.4,249c-0.5,0.1-0.8,0.1-1.1,0.2c-3.9,0.7-7.7,1.5-11.6,2
			c-11.3,1.4-22.7,1.8-34.1,1.9c-14.6,0.2-29.2-0.2-43.7-1.1c-9.9-0.6-19.9-1.2-29.8-2c-10.1-0.9-20.2-1.9-30.3-3
			c-10.8-1.2-21.6-2.6-32.3-4.2c-11.1-1.6-22.2-3.5-33.2-5.4c-14.8-2.6-29.6-5.7-44.1-9.4c-2.6-0.7-5.1-0.8-7.7-0.2
			c-7.9,1.9-15.7,3.8-23.2,6.8c-0.8,0.3-1.1,0.7-1.1,1.6c0.1,2.4,0,4.8,0,7.2c0.1,5.6,0.9,11.1,3.1,16.2c0.2,0.5,0.8,1,1.3,1.2
			c2.2,0.8,4.5,1.5,6.7,2.2c0.5,0.1,1,0.1,1.5,0c7.5-2.4,15.2-3.8,23-5.1c16.2-2.6,32.5-4.1,48.9-5c11.1-0.6,22.2-1.1,33.3-1.4
			c9.2-0.2,18.4-0.3,27.6-0.2c11.8,0.2,23.6,0.4,35.4,1c10.9,0.5,21.9,1.3,32.8,2.2c13,1.1,26,2.7,38.9,5c7.9,1.4,15.7,2.9,23.2,5.9
			c0.4,0.2,1,0.1,1.4,0c3.2-0.9,6.4-1.9,9.7-2.8c1.4-0.4,2.3-1.2,2.8-2.6C495.9,256.4,496.9,252.8,497.4,249z M277.1,94.5
			c0,0.1,0,0.2,0,0.3c0.7,0.1,1.4,0.2,2.1,0.3c15.1,2.2,30.2,3.7,45.4,4.4c11.8,0.6,23.6,1,35.3,1.1c10,0.1,20-0.1,30-0.5
			c16.2-0.5,32.3-1.9,48.3-4.4c8.4-1.3,16.8-3.1,24.9-5.8c2.3-0.7,3-2.4,3.4-4.5c0.2-0.9-0.2-1.5-1.2-1.7c-3.9-0.9-7.7-2-11.7-2.7
			c-13.7-2.5-27.5-3.2-41.4-3.4c-12.9-0.1-25.8,0.3-38.7,1.4c-12.6,1.1-25.1,2.4-37.7,3.9c-15.5,1.9-30.9,4.8-46.1,8.3
			C285.7,92.4,281.4,93.5,277.1,94.5z M431.1-71.8c1.6-0.5,3.1-1,4.6-1.4c1.3-0.3,2.1-1,2.6-2.2c0.7-1.5,1.6-2.9,2.4-4.4
			c1.4-2.6,2.8-5.3,4.3-7.9c0.4-0.8,0.3-1.3-0.4-1.8c-1.7-1.2-3.3-2.5-5.1-3.5c-8.1-4.5-16.9-7.1-25.8-9.5c-0.3-0.1-0.6-0.1-0.8,0
			c-3,0.2-6,0.6-9,0.7c-9.3,0.5-18.7,1.1-28,1.3c-10.2,0.2-20.4,0-30.6-0.1c-6.4-0.1-12.7-0.4-19-0.8c-10.2-0.8-20.5-1.7-30.7-2.8
			c-9.8-1-19.5-2.7-29.2-4.9c-2.4-0.6-4.8-1.6-7.5-0.9c-4.2,1.2-8.5,2.2-12.5,4c-0.6,0.3-0.9,0.5-0.7,1.2c1,5.5,2.7,10.7,5.6,15.5
			c0.4,0.7,1.1,1.4,1.9,1.7c4.9,1.9,9.9,3.8,14.9,5.6c0.5,0.2,1.3,0.1,1.8-0.1c3.2-1.1,6.4-2.4,9.6-3.3c13-3.6,26.3-5.1,39.6-6
			c11.5-0.8,22.9-0.9,34.4-0.5c10.1,0.4,20.1,1.2,30.1,2.6c10.7,1.5,21.4,3.4,31.7,6.8c4.2,1.4,8.4,2.9,12,5.5
			C429.1-75.8,430.6-74.3,431.1-71.8z M213.2,267.7c0.2,0.3,0.3,0.4,0.4,0.6c3.8,4.5,8.5,7.8,13.7,10.5c0.3,0.2,0.8,0.3,1.1,0.4
			c10.2,2.2,20.4,3.7,30.8,4.7c11.7,1.1,23.4,2.2,35.1,2.8c14.4,0.8,28.9,1.3,43.4,1.5c18.2,0.3,36.5,0.2,54.7-0.6
			c7.5-0.3,15-0.6,22.5-1.2c10.1-0.8,20.1-1.7,30.2-2.8c8.9-0.9,17.7-2.4,26.4-4.6c2.5-0.6,5.1-1.2,7.4-2.4c2.5-1.3,4.6-3.2,6.9-5
			c1.1-0.9,1.2-1.3,0.2-2.3c-1.2-1.1-2.6-2-4.1-2.9c-0.5-0.3-1.3-0.3-1.9-0.2c-8.9,1.8-17.8,3.8-26.8,5.3c-8.5,1.4-17,2.5-25.5,3.4
			c-8.5,1-17.1,1.7-25.7,2.3c-8.4,0.6-16.8,1-25.1,1.3c-11.8,0.3-23.7,0.5-35.5,0.5c-11.5-0.1-23-0.5-34.5-1
			c-8.4-0.4-16.8-1-25.1-1.8c-9.4-0.9-18.8-2-28.2-3.3c-11.3-1.5-22.6-3.6-33.6-6.6C217.3,265.8,215.4,266.7,213.2,267.7z
			 M456.2,65.1c-0.2-0.4-0.2-0.5-0.3-0.7c-3.6-6.6-7.3-13.1-10.9-19.7c-0.3-0.5-0.8-0.9-1.3-1.1c-8.7-3.3-17.7-5.5-26.7-7.4
			c-0.6-0.1-1.4-0.3-2-0.1c-13.7,3.1-27.7,5-41.7,6.1c-13.7,1.1-27.5,1.5-41.2,1.1c-12.8-0.4-25.5-1.2-38-3.4
			c-7-1.2-13.9-2.7-20.3-5.8c-0.3-0.2-0.9-0.2-1.2,0c-1.7,0.6-3.5,1.2-5.1,2.1c-1.8,1-3.6,2.3-5.1,3.7c-1.6,1.6-1.7,3.5-0.6,5.4
			c0.7,1.1,1.6,2.2,2.6,3.1c3.3,3,7.2,4.9,11.1,6.7c0.3,0.1,0.7,0.2,1,0.1c6.4-0.6,12.9-1.3,19.3-1.9c12.4-1.1,24.9-1.5,37.4-1.6
			c9.1,0,18.2,0.1,27.3,0.4c8.9,0.3,17.9,0.8,26.8,1.6c9.6,0.8,19.2,2,28.8,3.3c10.2,1.3,20.4,3.2,30.4,5.6
			C449.6,63.3,452.8,64.2,456.2,65.1z M248.7-155.4c0,1.9,0,3.7,0,5.4c0,0.3,0.2,0.6,0.4,0.8c3.5,2.7,7.1,5.2,11.4,6.1
			c6.1,1.4,12.3,2.6,18.5,3.5c5.1,0.8,10.2,2.1,15.5,1.3c0.8-0.1,1.7-0.2,2.5-0.2c7.7-0.4,15.3-1,23-1.2c10.7-0.2,21.5-0.4,32.2-0.1
			c10.8,0.3,21.6,1,32.3,1.9c8.2,0.7,16.4,1.8,24.5,2.7c2.8,0.3,5.6,0.8,8.4,0.7c3.8-0.1,7.6-0.6,11.3-1c3-0.3,5.9-0.7,8.9-1.1
			c-0.7-0.5-1.4-0.8-2.2-1.1c-11.1-4.1-22.6-6.9-34.1-9.4c-14.8-3.2-29.6-5.8-44.6-7.8c-8.9-1.2-17.8-2.3-26.6-3.2
			c-7.7-0.8-15.4-1.3-23.2-1.9c-0.4,0-0.9,0-1.3,0.2c-10.9,4.8-22.4,6.8-34.3,7C263.8-152.6,256.3-153.3,248.7-155.4z M273.8-80.6
			c0,0.1,0,0.2,0,0.3c0.4,0.1,0.7,0.3,1.1,0.4c7.8,1.8,15.5,3.7,23.4,5.2c18.4,3.6,37,5.5,55.6,6.7c13.3,0.9,26.6,1.1,39.9,0.6
			c10.2-0.4,20.3-1.2,30.3-3c2.2-0.4,4.3-0.9,6.5-1.4c-0.4-2.2-1.7-3.5-3.2-4.6c-3.1-2.3-6.6-3.6-10.3-4.8c-9.3-3-18.9-4.4-28.5-5.5
			c-12.9-1.4-25.9-2-38.9-2.1c-15.7-0.1-31.4,0.4-47,2.2c-7.8,0.9-15.6,2.1-23.2,4.2C277.6-81.8,275.7-81.2,273.8-80.6z
			 M440.9,128.8c-0.4-0.1-0.5-0.2-0.6-0.2c-9.1-0.9-18.3-2-27.4-2.5c-13.9-0.8-27.8-1.5-41.7-1.7c-16.5-0.2-33,0-49.5,0.6
			c-13.1,0.4-26.2,1.4-39.2,2.4c-12.5,0.9-24.9,2.6-37.1,5c-6.7,1.3-13.3,2.9-19.6,5.4c-0.8,0.3-1.6,0.7-2.4,1.1c0,0.1,0,0.2,0,0.3
			c2.1,0.9,4.1,1.8,6.2,2.6c0.7,0.3,1.6,0.3,2.4,0.2c7.7-1.2,15.3-2.8,23.1-3.7c9.8-1.1,19.7-1.9,29.6-2.5c15.2-1,30.4-1.3,45.7-1
			c10.3,0.2,20.5,0.3,30.8,0.8c13,0.7,26,1.8,39,2.7c1.4,0.1,2.8,0.4,4.2,0.2c11.1-2.3,22.2-5.1,33-8.5
			C438.3,129.7,439.5,129.3,440.9,128.8z M429-56.2c-0.5-0.2-1.2-0.6-1.8-0.8c-4-1.1-7.9-2.1-11.9-3.1c-0.8-0.2-1.8-0.3-2.6-0.1
			c-7,1.3-13.9,2.9-20.9,4c-13.5,2.1-27.1,2.9-40.7,2.9c-8.4,0-16.9-0.1-25.3-0.6c-8-0.5-16-1.5-24-2.3c-1.8-0.2-3.7-0.8-5.4-0.5
			c-5.6,1-11.1,2.5-16.5,4.6c-1.5,0.6-3,1.4-4.4,2.1c0.9,3.3,1.8,6.5,2.6,9.3c5.1-0.8,10.2-1.9,15.3-2.5c12.3-1.4,24.6-1.8,37-1.6
			c13.4,0.2,26.9,0.8,40.2,2.5c9.1,1.1,18.2,2.6,27.3,4c3.5,0.5,6.9,1.7,10.5,0.6c5.3-1.6,10.7-2.9,16-4.4c0.4-0.1,1-0.5,1.1-0.9
			C426.6-47.3,427.8-51.7,429-56.2z M453.2-120.6c-3.3,1.9-6.6,2.8-10,3.4c-9.4,1.8-19,2.3-28.5,2.2c-10.1-0.1-20.1-0.4-30.2-1
			c-9.8-0.6-19.7-1.5-29.5-2.7c-10-1.2-20-2.8-30-4.4c-15-2.5-29.9-5.8-44.5-9.9c-0.6-0.2-1.3-0.2-1.9-0.2c-4.1,0.6-8.3,1.2-12.4,2
			c-5.5,1-10.9,2.3-15.9,4.7c-1.3,0.6-2.6,1.4-3.7,2.4c-1.6,1.3-1.6,2.8-0.1,4.2c0.9,0.9,2,1.8,3.2,2.3c3.2,1.4,6.5,2.7,9.7,4
			c0.7,0.3,1.6,0.3,2.4,0.1c10-2,20.1-3.1,30.2-3.4c8.9-0.3,17.9-0.5,26.8-0.3c8.5,0.2,17,0.6,25.5,1.3c9.8,0.9,19.5,2.1,29.3,3.5
			c13.6,2,26.9,4.9,40.1,8.7c1.1,0.3,2.3,0.4,3.4,0.3c5.2-0.5,10.4-1,15.5-1.9c6-1,11.9-2.5,17.8-3.7c0.7-0.2,1-0.5,1.2-1.3
			c0.3-2.1,0.7-4.2,1.1-6.3C452.8-117.9,452.9-119.1,453.2-120.6z M285.8-134.1c0.5,0.2,0.8,0.3,1.1,0.4c11.4,2.6,22.8,5.5,34.3,7.9
			c16.6,3.4,33.4,5.7,50.2,7.6c13.7,1.5,27.5,2.5,41.4,2.8c8.9,0.1,17.8-0.1,26.7-1.4c4-0.6,8-1.4,11.8-3c1.6-0.7,2.4-1.6,2.4-3.4
			c0-0.9-0.2-1.2-1-1.5c-2.9-0.9-5.8-1.9-8.7-2.7c-9-2.4-18.3-3.8-27.6-5c-2.3-0.3-4.5-0.6-6.8-0.7c-2.6,0-5.2,0.3-7.8,0.4
			c-14.7,0.9-29.5,1.2-44.2,0.9c-10.4-0.2-20.8-0.5-31.1-1c-7.8-0.4-15.6-0.9-23.3-1.7C297.4-135,291.7-134.9,285.8-134.1z
			 M237.2,85.1c0,0.1,0.1,0.2,0.1,0.4c0.4,0.2,0.9,0.4,1.3,0.5c8.9,3.2,18,5.2,27.2,7c1.4,0.3,2.8,0.7,4.4,0.2
			c10.6-3.2,21.4-5.7,32.2-7.9c16.1-3.2,32.2-5.7,48.6-7.2c11-1,22.1-1.7,33.1-2.5c-0.6,0.2-1.2,0.1-1.7,0.1
			c-12.3-0.4-24.6-0.9-36.8-2.4c-9.9-1.3-19.8-2.8-29.8-4.3c-1.6-0.2-3.2-0.8-4.8-0.7c-3.6,0.2-7.2,0.7-10.7,1.1
			c-11.4,1.2-22.7,2.9-34,5.3c-7.9,1.7-15.8,3.8-23.2,7.2C241,82.8,239.1,84,237.2,85.1z M425.2-18.4c0-0.4,0-0.8-0.1-1.2
			c-0.2-3.4-0.5-6.8-0.6-10.2c0-0.9-0.2-1.3-1.2-1.5c-5.7-1.2-11.3-2.6-16.9-3.8c-1.7-0.4-3.6-0.8-5.3-0.6
			c-7.5,0.9-14.9,2.3-22.4,3.1c-13.2,1.5-26.5,2.1-39.8,2.1c-10.4,0-20.9-0.4-31.3-1.4c-7.3-0.7-14.5-1.6-21.6-3.3
			c-2.5-0.6-5-1.3-7.5-2c0,2.4,0,4.8,0,7.1c0,0.3,0.4,0.8,0.7,0.9c1.9,0.7,3.7,1.4,5.6,2c8.5,2.6,17.3,4.4,26.1,5.8
			c2.4,0.4,4.8,0.7,7.2,0.6c3.5-0.1,7-0.6,10.5-0.9c14.6-1.2,29.2-1.7,43.8-1.1c8.5,0.3,16.9,0.8,25.4,1.7
			c6.8,0.7,13.6,1.8,20.4,2.9C420.5-17.7,422.8-17.5,425.2-18.4z M437.3,28.2c-1.8-5.1-3.6-10.1-5.3-15.2c-0.6-1.8-1.9-2.2-3.5-1
			c-0.8,0.6-1.6,1.2-2.5,1.6c-3.6,1.3-7.2,2.7-10.9,3.6c-13.5,3.2-27.3,4.1-41.1,4.5c-15.4,0.5-30.9-0.1-46.2-1.6
			c-12.3-1.2-24.4-2.9-36.4-5.7c-0.5-0.1-1-0.2-1.4-0.1c-5.6,1.5-11.2,3.2-16.3,6.3c-1.4,0.9-2.7,2-3.8,3.3
			c-0.6,0.7-0.9,1.9-0.7,2.7c0.4,1.9,2,3,3.6,3.9c0.2,0.1,0.5,0,0.8-0.1c11-3.3,22.3-4.6,33.6-5.5c11-0.8,22.1-1,33.2-0.6
			c10.9,0.4,21.8,1.1,32.6,2.3c15,1.7,29.8,4.1,44.5,7.8c0.6,0.1,1.3,0.1,1.9,0c2-0.5,4-1,6-1.6C429.5,31.7,433.6,30.2,437.3,28.2z
			 M296,12.9c9.8,2.5,19.7,4.1,29.7,5.1c8.3,0.8,16.6,1.5,25,2c11.8,0.7,23.6,0.8,35.4,0.3c9.5-0.4,19-1.2,28.3-3.2
			c4.1-0.9,8.2-2,11.9-4c1-0.5,1.8-1.2,3-1.9c-0.7-0.2-1-0.3-1.3-0.4c-9-2.3-18.2-3.3-27.5-4C389.3,6,378,5.8,366.7,6
			c-11.4,0.2-22.7,0.7-34,1.7c-10.5,0.9-20.9,2.2-31.2,4.2C299.6,12.1,297.8,12.5,296,12.9z M463.7,90.8c-0.1-0.1-0.1-0.2-0.2-0.3
			c-4.6,1.2-9.2,2.5-13.8,3.5c-14.4,3.2-29,5.1-43.7,6.2c-12.1,0.9-24.3,1.5-36.4,1.8c-9.5,0.3-19,0.2-28.4-0.1
			c-12.4-0.4-24.8-1-37.1-2c-9.8-0.7-19.5-2.2-29.2-3.2c-1.5-0.2-3.2-0.6-4.6-0.2c-5,1.3-9.8,3-14.8,4.5c-0.3,0.1-0.6,0.3-1.2,0.5
			c1.4,0.4,2.5,0.7,3.7,0.9c11.3,2.7,22.8,4.4,34.4,5.3c11.7,0.9,23.4,1.7,35.1,2c10.2,0.3,20.4,0.2,30.6-0.1
			c11.8-0.4,23.6-1.1,35.4-2c13.7-1.1,27.2-3,40.6-5.9c7.6-1.7,15.2-3.7,22.4-7C459,93.6,461.3,92.1,463.7,90.8z M277.3,32.4
			c0,0.1,0,0.2,0,0.4c0.7,0.3,1.4,0.6,2.1,0.8c7.6,2.7,15.6,4.1,23.6,5.3c11.4,1.6,22.9,2.4,34.4,2.6c9.3,0.1,18.5,0,27.8-0.3
			c14.1-0.5,28.2-1.8,42.2-4.1c2.1-0.4,4.2-0.8,6.4-1.2c-0.1-0.2-0.3-0.3-0.4-0.3c-7.1-1.1-14.2-2.3-21.3-3.4
			c-11.9-1.8-24-2.9-36-3.5c-10.6-0.5-21.2-0.7-31.7-0.8c-12.8-0.1-25.6,0.8-38.2,2.9C283.1,31.2,280.2,31.8,277.3,32.4z
			 M392.7,140.9c0-0.1,0-0.2,0-0.3c-7.5-0.4-15.1-0.9-22.6-1.2c-14.3-0.5-28.7-0.8-43-1.1c-6.1-0.1-12.2,0-18.2,0.1
			c-7.7,0.2-15.3,0.4-23,0.7c-14.3,0.6-28.6,1.8-42.8,3.9c-1,0.1-2,0.3-3,0.5s-1.9,0.4-2.9,0.5c0.3,0.3,0.6,0.4,0.9,0.5
			c6,1.1,12.1,2.5,18.1,3.3c12.5,1.7,25.1,2.4,37.8,2.3c9.7-0.1,19.4-0.2,29.1-0.8c10.6-0.6,21.2-1.5,31.8-2.7
			c10.1-1.1,20.1-2.8,30.1-4.2C387.5,141.9,390.1,141.4,392.7,140.9z M282.7,57.7c0,0.1,0,0.2,0,0.2c0.3,0.1,0.6,0.3,0.9,0.4
			c5.7,1.7,11.3,3.4,17,5c3.2,0.9,6.5,1.7,10,1.5c11.7-0.9,23.4-1.6,35.2-2c7.9-0.3,15.7,0,23.6,0c11.9,0.1,23.7,0.9,35.5,2.2
			c12,1.2,23.9,2.9,35.6,5.6c0.3,0.1,0.6,0.1,0.9,0.1c4.6-1,9.2-2.2,13.4-4.2c0.3-0.1,0.5-0.3,0.8-0.5c-0.5-0.2-0.8-0.3-1.1-0.4
			c-5.1-1.2-10.2-2.6-15.4-3.4c-9.3-1.5-18.7-2.9-28.1-3.9c-9-1-18.1-1.6-27.1-2.1c-8.4-0.5-16.8-0.8-25.3-0.9
			c-11.3-0.2-22.6-0.3-33.9,0.1c-11.7,0.3-23.5,1.2-35.2,1.8C287.3,57.2,285,57.5,282.7,57.7z M278.3-5.7c0,0.2,0,0.4-0.1,0.7
			c3.2,0.8,6.4,1.8,9.6,2.4c13,2.5,26.1,3.2,39.2,3.5c7,0.2,14,0.2,21,0.1s14-0.3,21-0.6c11.8-0.5,23.5-1.5,35.2-3.2
			c1.3-0.2,2.7-0.4,4-0.7c-0.9-0.5-1.7-0.7-2.5-0.8c-10.6-2.3-21.4-3.8-32.2-4.6c-10.4-0.7-20.8-1.4-31.2-1.8
			c-7.7-0.3-15.4-0.1-23.1,0.1c-10.7,0.2-21.3,1-31.8,3C284.3-7.2,281.3-6.4,278.3-5.7z M311.8-163.5c0,0.1,0,0.2,0,0.3
			c0.4,0.1,0.7,0.1,1.1,0.2c10.2,1,20.4,1.8,30.5,3c15.9,1.9,31.8,4.7,47.4,8.3c16.3,3.8,32.5,8.1,48,14.5c0.4,0.2,0.9,0.2,1.3,0.2
			c4.6-1,9.1-2,13.7-2.9c0.7-0.2,1.1-0.5,1-1.3c-0.2-3.6-0.4-7.3-0.6-10.9c0-0.3-0.2-0.7-0.4-0.7c-1.1-0.2-2.2-0.6-3.2-0.5
			c-4.5,0.3-9,1.1-13.5,1.2c-8.8,0.3-17.5-0.7-26-2.7c-5.6-1.3-11-3-15.9-6.1c-1-0.6-2-1-3.1-1c-13.6-0.5-27.1-1.3-40.7-1.6
			c-11.6-0.3-23.3-0.1-34.9,0C314.8-163.7,313.3-163.5,311.8-163.5z M268-111.9c0,0.2,0,0.3,0,0.5c0.2,0.1,0.4,0.2,0.6,0.3
			c4.4,0.9,8.7,1.9,13.1,2.6c14.6,2.5,29.3,4.1,44,5.1c14.8,1,29.5,1.7,44.3,1.6c11.1,0,22.1-0.5,33.2-0.7c2.4-0.1,4.8-0.3,7.2-0.5
			c0-0.2,0-0.3,0-0.5C363.5-113.1,316-116.8,268-111.9z M475.7,278.7c0-0.1-0.1-0.2-0.1-0.3c-2.5,0.6-5,1.3-7.5,1.8
			c-11.6,2.5-23.3,4.2-35,5.3c-11.4,1.1-22.8,2.1-34.3,2.8c-11.6,0.7-23.3,1.1-35,1.4c-9,0.2-18,0.3-27,0.2
			c-13.6-0.2-27.2-0.5-40.7-1c-8.9-0.3-17.7-1-26.6-1.7c-5.9-0.5-11.9-1.1-17.8-1.8c-4.2-0.5-8.3-1.1-12.6-1.6
			c0.2,0.1,0.2,0.2,0.3,0.2c0.3,0.1,0.7,0.3,1,0.4c12.8,4.1,25.9,6.8,39.3,7.8c14.1,1,28.2,1.5,42.3,2.1c9.8,0.4,19.7,0.7,29.5,0.7
			c14.9,0,29.7-0.2,44.6-0.6c14.4-0.4,28.8-1.8,43-4.4c9.7-1.8,19.3-4,28.5-7.7C470.4,281.2,473,279.9,475.7,278.7z M462.3,185.3
			c0-0.1,0-0.1,0-0.2c-1.9-0.3-3.9-0.6-5.8-0.8c-10.5-1-20.9-2.2-31.4-2.9c-13.8-0.9-27.6-1.4-41.4-1.9c-8.4-0.3-16.8-0.2-25.2-0.2
			c-10.7,0.1-21.4,0.2-32.1,0.5c-9.7,0.3-19.5,0.9-29.2,1.3c-0.4,0-0.8,0.1-1.2,0.2c0,0.1,0,0.2,0,0.4c55,5.9,110.2,8.6,165.5,3.8
			C461.8,185.5,462,185.4,462.3,185.3z M437.9,221.2c-53.8-5.5-107.7-5.5-161.5-0.5c25.8,2.7,51.7,3.8,77.6,3.9
			C382,224.8,410,224,437.9,221.2z M407.3,139c9.7,1.3,19.1,2.5,28.6,3.8c13.6,1.9,27.1,4.3,40.4,7.7c2.8,0.7,4.9,0.2,7-1.5
			c0.3-0.2,0.5-0.4,0.8-0.6c0.2-0.1,0.4-0.3,0.5-0.5c2.7-2.4,2.7-5-0.1-7.3c-2.8-2.4-6.1-3.7-9.5-4.9c-10.1-3.5-20.6-5.3-31.2-6.7
			c-0.9-0.1-1.8,0-2.7,0.2c-8.4,2.5-16.7,5-25.1,7.4C413.2,137.6,410.3,138.2,407.3,139z M273.2,5.2c0.3,0.2,0.5,0.3,0.7,0.4
			c4.6,2.6,9.6,4.2,14.7,5.6c0.4,0.1,0.9,0,1.4-0.1c3.1-0.7,6.2-1.5,9.3-2.2C310.5,6.5,321.8,5,333.2,4c10.9-0.9,21.8-1.4,32.7-1.3
			c10.7,0.1,21.3,0.6,31.9,1.8c10.4,1.1,20.7,2.7,30.8,5.6c0.9,0.3,1.4,0,1.6-0.8c0.5-1.8,0-3.4-1.4-4.5c-1.2-1.1-2.6-2.1-4.1-2.9
			c-4.6-2.5-9.5-3.9-14.5-5.2c-0.3-0.1-0.6-0.1-0.9,0c-9.7,1.3-19.3,3-29.1,3.9c-10.8,1.1-21.6,1.8-32.4,2.1
			c-16.4,0.4-32.8,0.4-49.1-1.3c-8-0.9-16-1.7-23.5-5.1C274.6-0.8,273.9,2.1,273.2,5.2z M269.5,180.2c-0.3-0.1-0.4-0.2-0.4-0.2
			c-9.7-1.9-19.4-3.7-29-5.8c-8-1.8-15.8-4.2-23.3-7.7c-1.8-0.8-3.5-1.9-5.4-2.9c-1.7,9.6-3,19.2-3.8,28.9c0.5,0,0.8-0.1,1.1-0.1
			c3,0,5.7-1.4,8.5-2.3c13.1-4.3,26.7-6.5,40.3-8.4C261.4,181.2,265.4,180.7,269.5,180.2z M454.8-168.3c0.1-0.1,0.2-0.1,0.4-0.2
			c-0.3-0.3-0.5-0.6-0.9-0.8c-2.3-1.2-4.6-0.9-7.1-0.7c-11,0.9-21.8-0.6-32.3-4.1c-0.7-0.2-1.6-0.4-2.3-0.3
			c-3.3,0.3-6.6,0.6-9.9,1.2c-2.9,0.5-5.7,1.3-8.1,3.1c-1.1,0.8-1.9,1.8-1.5,3.4c0.4,1.5,1.8,2.7,3.3,2.9c9.2,1.2,18.5,2.3,27.7,3.7
			c9,1.4,17.9,3.2,26.6,5.8c0.9,0.3,1.9,0.1,2.9,0c0.3,0,0.7-0.6,0.7-0.9C454.4-159.7,454.6-164,454.8-168.3z M399-36
			c0-0.1,0-0.2,0-0.3c-3.1-0.4-6.2-0.9-9.2-1.2c-9.6-0.9-19.1-1.9-28.7-2.4c-11.8-0.7-23.6-1.1-35.5-1.4c-10.7-0.3-21.3,0.1-32,1.2
			c-3.5,0.3-6.9,0.9-10.6,1.4c0.3,0.3,0.4,0.4,0.5,0.4c1.8,0.5,3.5,1,5.3,1.4c13.6,3,27.4,4.1,41.3,4.5c10.9,0.2,21.9,0.1,32.9-0.2
			c8.4-0.3,16.8-1.2,25.2-1.9C391.8-34.9,395.4-35.5,399-36z M356.6-66.4c-4.5-0.2-8.8-0.3-13.1-0.7c-10.9-1.1-21.9-2.1-32.8-3.5
			c-13.5-1.7-26.8-4.4-39.9-8.1c-0.4-0.1-0.8-0.3-1.2-0.1c-2.3,1-4.5,2.2-5.8,4.4c-0.3,0.5-0.4,1.4-0.2,1.9c1,1.8,2.1,3.6,4.1,4.6
			c0.9,0.4,1.8,1,2.7,1.5c6.5,3.1,13.5,4.7,20.5,6.2c1.3,0.3,2.7,0.7,4,0.5c5.9-1,11.8-2.3,17.8-3.1c8.4-1.1,16.8-1.9,25.3-2.6
			C344.2-66,350.3-66.1,356.6-66.4z M438.2,71.4c0-0.1,0-0.3,0-0.4c-39.1-6.5-78.4-5.8-117.8-3.5c0.4,0.2,0.8,0.4,1.2,0.4
			c13,2.3,26.1,3.9,39.3,5c12.9,1.1,25.9,1.7,38.9,1.5c11.1-0.1,22.1-0.7,33.1-2.2C434.7,72,436.4,71.7,438.2,71.4z M304.3-58.4
			c0,0.1,0,0.2,0,0.3c0.3,0.1,0.5,0.2,0.8,0.2c3.5,0.4,7,0.9,10.5,1.2c7.7,0.6,15.4,1.1,23.1,1.5c11.4,0.6,22.9,0.4,34.3-0.2
			c11.5-0.6,22.9-1.7,34.3-4c1.6-0.3,3.1-0.7,4.7-1.1c0-0.2,0-0.3-0.1-0.5C375.8-65,340-63.4,304.3-58.4z M276.2-8.4
			c0.1,0.1,0.1,0.2,0.2,0.3c0.1,0,0.2,0,0.2,0c9.6-3.1,19.6-4.4,29.7-5.3c11.2-1,22.3-1.2,33.5-0.9c11.7,0.3,23.3,1.1,34.9,2.7
			c11,1.5,21.9,3.3,32.5,6.4c3.1,0.9,5.9,1.1,8.9,0.1c3.2-1,6.5-2,9.7-3c0.3-0.1,0.8-0.7,0.8-1c-0.2-2-0.5-4-0.9-5.9
			c0-0.3-0.2-0.7-0.4-0.8c-1.8-0.4-3.6-1.1-5.3-1c-2.5,0-4.9,0.6-7.4,0.9c-10.7,1.2-21.5,1.7-32.3,1.6c-10.7-0.1-21.3-0.4-32-1
			c-7-0.3-13.9-1.2-20.9-1.8c-2.3-0.2-4.7-0.7-7-0.4c-8.5,0.9-16.9,2-25.3,3.3c-5.3,0.8-10.4,2-15.4,4C278.4-9.7,277.3-9,276.2-8.4z
			 M299.8,65.8c0-0.1,0-0.2,0-0.2c-0.1,0-0.2-0.1-0.3-0.1c-7.6-1.9-15-4-22.3-6.9c-0.4-0.2-0.9-0.2-1.3-0.1c-2.7,0.3-5.3,0.6-8,1
			c-6.5,1.1-12.9,2.3-19.3,3.5c-0.5,0.1-1,0.5-1.3,0.9c-3.1,5.4-6.1,10.8-9.2,16.3c-0.2,0.3-0.2,0.6-0.4,1.1
			c0.4-0.2,0.6-0.3,0.8-0.4c2.7-1.3,5.4-2.8,8.2-3.8c14.8-5.5,30.3-8.1,45.9-10.3C295.2,66.4,297.5,66.1,299.8,65.8z M290.5-191.6
			c0,0,0-0.1-0.1-0.3c-1.4-4-2.8-7.9-4.1-11.9c-0.5-1.3-2.7-2.4-4-1.8c-11,5-22.4,5.7-34.1,3.2c-1.7-0.4-3-0.1-4.3,0.9
			c-0.5,0.4-0.7,0.7-0.6,1.4c0.5,3,1.2,6,1.4,9.1c0.2,2.2,1.1,3.4,3.2,3.9c1.1,0.3,2.1,0.6,3.3,0.1c8.7-3.5,17.8-5.2,27.1-5.2
			C282.5-192.2,286.5-191.8,290.5-191.6z M489.6,154c-3-14.6-6.8-28.8-11.7-42.8c-5,4-10.2,7-15.8,9.6c-5.5,2.5-11.2,4.8-16.8,7.3
			c0.6,0.1,1.2,0.2,1.8,0.3c8.7,1.6,17.3,3.2,25.7,6c3.8,1.3,7.6,2.6,10.9,5c4.4,3.2,4.4,6.7-0.1,9.8c-1,0.7-2.1,1.4-3.3,2.1
			C483.4,152.3,486.4,153.1,489.6,154z M456.8-184.7c0.1-0.2,0.2-0.3,0.2-0.4c0.8-4.9,1.6-9.8,2.4-14.7c0-0.3-0.3-0.9-0.6-1.1
			c-2.8-1.5-5.8-2.5-8.9-3c-0.3-0.1-0.7,0-1,0.1c-4.1,1.4-8.4,2.3-12.7,2.7c-5.3,0.5-10.5,0.4-15.6-1.4c-0.3-0.1-0.7-0.2-0.9-0.1
			c-2.1,0.7-4.2,1.3-4.7,4c-0.3,1.9-1.2,3.7-1.8,5.6C428.6-194.8,443.2-192.3,456.8-184.7z M248.7-159.7c0.2,0,0.3,0,0.4,0
			c9.7-2.8,19.7-4.2,29.7-5.1c11.4-1,22.8-1.5,34.2-2.2c1.3-0.1,1.7-0.5,1.5-1.8c-0.2-1.1-0.7-1.8-1.9-2.3c-3.1-1.4-6.1-3-9.1-4.5
			c-0.5-0.2-0.9-0.5-1.4-0.6c-1.6-0.3-3.1-0.5-4.7-0.8c-1-0.2-1.9,0-2.8,0.7c-0.7,0.6-1.6,1.1-2.4,1.5c-12.4,6.7-25.6,9-39.5,7.5
			c-1.5-0.2-3-0.5-4.7-0.8C248.2-165.4,248.4-162.6,248.7-159.7z M280.8-221.8c-12.8,8.1-26.2,8.9-40.3,4.4c0.3,2.1,0.7,4.2,1,6.3
			c0.6,3.7,0.5,3.8,4.2,4.7c0.8,0.2,1.8,0.4,2.5,0.1c10.9-3.7,21.8-4,32.9-0.8c1.4,0.4,2.5-0.2,3.4-0.9c0.3-0.2-0.1-1.4-0.2-2.1
			c0-0.3-0.2-0.5-0.2-0.8C283-214.5,281.9-218.1,280.8-221.8z M462.3-217c-0.3,0-0.4,0-0.5,0c-11.9,4.3-23.7,4.1-35.5-0.2
			c-0.3-0.1-0.8-0.1-1.1,0.1c-1.6,1-3.3,2-4.9,3c-0.4,0.3-0.7,0.8-0.9,1.2c-0.5,1.6-1.1,3.2-1.5,4.8c-0.1,0.5,0.2,1.2,0.5,1.5
			s1,0.5,1.4,0.4c10.2-3.2,20.4-3.1,30.5,0.1c0.4,0.1,0.8,0.2,1.1,0.1c3.2-1.1,6.3-2.5,9-4.6c0.3-0.2,0.7-0.6,0.7-0.9
			C461.7-213.3,462-215.1,462.3-217z M497.5,231.4c-0.4-6.9-0.8-13.6-1.2-20.1c-5.5,1.4-10.9,3-16.5,4.3s-11.2,2.2-17.1,3.3
			C474.7,222.5,486.4,226,497.5,231.4z M405.9-181.3c1.4,0.9,2.9,1.8,4.4,2.8c0.9,0.6,1.9,0.8,3.1,0.7c10-0.6,19.9,0.4,29.6,3.2
			c3.1,0.9,6.2,2.1,9.3,3.2c1.4,0.5,3,0,3.1-1c0.4-3.3,0.9-6.6,1.3-10c0.1-1-0.2-1.3-1.2-1c-0.6,0.2-1.1,0.4-1.7,0.6
			c-9.1,3.1-18.4,3.3-27.8,1.5c-4.8-0.9-9.3-2.5-13.3-5.4c-0.7-0.5-1.3-1-1.9-1.5C409.2-185.9,407.6-183.7,405.9-181.3z M493.6,156
			c1.3,7.9,2.5,15.6,3.8,23.4c3.5-1,6.9-2.1,10.1-3.9c1.3-0.7,2.6-1.6,3.7-2.6c2.8-2.6,2.8-5.3,0.1-8c-3-3-6.9-4.7-10.7-6.4
			C498.3,157.7,496,156.9,493.6,156z M417.4-102.9c5,1.9,9.9,3.7,14.7,5.6c4.9,2,9.5,4.5,13.5,8.1c2.5-6.5,4.2-13,5.5-19.8
			C440.1-105.7,428.8-104.2,417.4-102.9z M418.8-17.3c-0.1-0.1-0.2-0.2-0.3-0.2c-1.1-0.2-2.2-0.4-3.3-0.6c-10.5-1.5-21-2.1-31.6-1.9
			c-14.4,0.2-28.8,0.6-43.1,1c-2.4,0.1-4.7,0.3-7.1,0.5C361.9-15.7,390.3-13.8,418.8-17.3z M298-180c-2.3-3.3-4.6-6.6-6.8-9.7
			c-1.8,1.2-3.5,2.6-5.5,3.6c-11.2,5.7-23,6.5-35,3.3c-1.6-0.4-2.7-0.1-3.8,0.8c-0.2,0.2-0.4,0.5-0.4,0.8c0.3,2.4,0.7,4.9,1,7.4
			c1.5-0.5,3-1.1,4.4-1.5c13.7-3.9,27.7-4.8,41.8-3C295.6-178.2,296.8-178.9,298-180z M273.4-249c-0.9-2.8-1.8-5.4-2.6-8
			c-0.3-0.9-0.9-1.1-1.7-1.2c-8.1-1-16.1-0.3-23.9,2.1c-5.7,1.8-4.8,0.8-6.6,7c0,0.1-0.1,0.2-0.1,0.2c0,0.3,0,0.8,0.2,0.9
			c0.3,0.2,0.8,0.2,1.1,0.1c1.1-0.4,2.2-0.9,3.4-1.2c8.3-2.1,16.5-1.6,24.7,1.1c0.5,0.2,1,0.4,1.5,0.2
			C270.6-248.1,271.9-248.5,273.4-249z M276.9-235.6c-0.5-2-1.3-3.9-1.6-5.9c-0.3-2.3-1.7-3.5-3.7-4.2c-1-0.4-1.9-0.4-2.9,0
			c-9.4,3.7-18.9,4.3-28.6,1.6c-1.1-0.3-2.1,0.2-2.2,1.4c-0.3,1.9-0.1,3.7,1.8,4.8c0.9,0.6,1.7,1.2,2.6,1.7c0.6,0.3,1.5,0.4,2.1,0.2
			c8-2.1,16-2.6,24.1-1c2.5,0.5,4.9,1.3,7.4,2C276.3-234.9,276.8-234.7,276.9-235.6z M251.4,220.3c-0.5-0.1-0.8-0.2-1.2-0.3
			c-7-1.3-14-2.4-21-3.9c-7.8-1.6-15.4-3.7-22.4-7.8c-0.1,0-0.1,0-0.5,0.1c0,2,0.1,4,0,5.9c-0.1,1.2,0.3,1.7,1.4,2
			c7,2.2,13.9,4.5,20.8,6.8c2,0.7,4,0.7,6.1,0.3C240.1,222.3,245.7,221.4,251.4,220.3z M280.5-222.7c-1-3.7-2-7.2-3.1-10.8
			c-0.2-0.6-0.6-0.6-1.1-0.3c-0.8,0.5-1.6,1.1-2.4,1.5c-10.3,4.7-20.7,4.3-31,0c-0.7-0.3-1.3-0.4-2,0c-2.2,1.2-2.3,1.2-2,3.7v0.1
			c0.3,2.3,0.6,4.5,0.9,6.8C253.3-227,266.8-227,280.5-222.7z M462.9-221.3c0.1-0.2,0.2-0.5,0.2-0.8c0.3-2,0.5-4,0.8-5.9
			c0.4-2.8,0.8-2.3-2.1-3.4c-0.7-0.3-1.7-0.6-2.3-0.3c-6.2,2.8-12.6,3.9-19.4,3.7c-4.4-0.1-8.7-0.7-12.7-2.7
			c-1.2-0.6-2.9,0.1-3.3,1.4c-0.6,1.9-1,3.9-1.7,5.7c-0.3,1,0.3,1.4,0.9,1.9s1.1,1.1,2.2,0.7c2.7-1.1,5.5-2.3,8.3-3
			C443.8-226.4,453.6-226.5,462.9-221.3z M466,82.9c-0.2-0.3-0.4-0.7-0.6-1c-1.7-2.2-4-3.5-6.4-4.7c-5.9-2.8-12.1-4.4-18.5-5.7
			c-0.4-0.1-0.8-0.1-1.2,0c-12.4,2.5-24.9,3.3-34.7,3.8c8,0.5,18.7,1.1,29.4,2C444.8,78.2,455.4,80.1,466,82.9z M455.1-184.1
			c-7.8-4.2-37.4-7.9-41.7-5.3C421.8-181.4,444.4-180,455.1-184.1z M311.6-135.9c7.8,2.3,87,4,92.2,2
			C373.1-136.5,342.4-137.2,311.6-135.9z M430.9-71.1c-6.5,1.1-12.7,2.2-18.8,3c-6.2,0.8-12.4,1.2-18.6,1.6
			c-6.2,0.4-12.3,0.5-18.3,0.7c2.9,0.2,6.1,0.3,9.2,0.6c7.8,0.9,15.6,1.7,23.4,2.8c8,1.2,7.9,1.4,14.1-1.2c0.9-0.4,1.9-0.7,2.7-1.3
			c1.6-1,3.2-2.1,4.6-3.4C429.9-68.9,430.3-70.1,430.9-71.1z M245.4-127.1c4.2-2.8,8.5-4.3,13-5.4c4.5-1.1,9-2.1,13.9-3.2
			c-8.2-2.8-16.1-5.6-24.2-8.4C247.2-138.3,246.3-132.9,245.4-127.1z M465.2-242.8c-1.2,0.4-2.2,0.8-3.1,1c-9.7,2.6-19.4,2.1-29-0.7
			c-0.5-0.2-1.2-0.3-1.7-0.1c-2.6,1.1-4.9,2.4-5.1,5.7c0,0.2-0.1,0.3-0.1,0.5c0,0.5,0,1.1,0.2,1.5c0.1,0.1,0.9,0,1.3-0.1
			c11-3.5,21.8-3.1,32.4,1.2c1.2,0.5,4.4-0.8,4.6-2C465-238,465.1-240.3,465.2-242.8z M428.8-219c0.3,0.3,0.4,0.4,0.5,0.5
			c0.3,0.1,0.6,0.2,0.9,0.3c4.6,1.6,9.4,2.3,14.2,2.6c5.7,0.3,11.4-0.1,16.9-1.8c0.8-0.3,1.1-0.7,1.3-1.5c0.3-1.2-0.2-1.8-1.2-2.3
			c-3.5-1.8-7.2-2.2-11-1.9c-4,0.3-8.1,0.9-12.1,1.6C435.2-220.9,432.1-219.9,428.8-219z M202.8,214.5c0.1-0.3,0.2-0.5,0.2-0.7
			c0.1-2.7,0.2-5.3,0.3-8c0-0.3-0.1-0.6-0.3-0.9c-1.6-2.5-1.4-4.9,0.4-7.2c0.3-0.4,0.4-1,0.7-1.7c-0.8,0.1-1.4,0.2-1.9,0.3
			c-4.1,0.8-8.2,1.6-11.9,3.7c-3.5,1.9-3.7,4.1-0.8,6.8C193.3,210.3,198.1,212.4,202.8,214.5z M293.7-177.1
			c-6.9-2.7-40.1,1.6-45.1,5.8C264.1-169.2,279.1-171.5,293.7-177.1z M276.9-12.1c9.8-4.3,20.2-5.6,30.5-7.4
			c-9.9-1.8-19.7-3.6-29.1-7C277.9-21.7,277.4-16.9,276.9-12.1z M431.8-256.3c10.9-2.4,21.3-1.4,31.3,3.6c-0.2-0.5-0.2-0.7-0.3-1
			c-4.8-10.2-14.4-13.8-25-9.7C434.7-262.1,433-259.5,431.8-256.3z M465.1-244.5c-0.2-1.5-0.6-2.8-0.6-4.2c-0.1-2.1-1.3-3.1-3.3-3.4
			c-4.1-0.6-8.3-1.4-12.4-1.8c-5.2-0.5-10.4-0.4-15.6,0.5c-1.8,0.3-3,0.9-3.2,2.9c-0.1,0.7-0.3,1.5-0.6,2.2
			c-0.4,0.9-0.2,1.6,0.8,1.9c0.4,0.1,1,0.2,1.4,0.1c1-0.3,2-0.8,3-1.1C445.1-250.5,455.2-250.3,465.1-244.5z M242.9,64.5
			c-0.2,0-0.4,0-0.5,0.1c-3.8,1.4-7.7,2.6-11.4,4.3c-2,0.9-3.9,2.4-5.5,3.9c-1.7,1.5-1.7,3.4-0.4,5.2c2,2.7,4.8,4.2,7.6,5.5
			C236.1,77.1,239.5,70.9,242.9,64.5z M201.7,236.5c-0.3,0.1-0.5,0.1-0.7,0.2c-2.4,1.5-4.9,2.8-7.1,4.6c-4.2,3.5-4.2,7.3-0.2,11
			c2.9,2.7,6.4,4.5,10.1,6.1c0,0,0.1-0.1,0.2-0.1C201.7,251.3,201.5,244,201.7,236.5z M263.4,95.1c-9.1-2-18-3.9-26.6-7.1
			c-1.8-0.6-2.7,0-2.5,2c0.1,0.8,0.3,1.6,0.8,2.2c1,1.1,2.1,2.4,3.4,3.1c3.3,1.7,6.7,3.1,10.1,4.6c0.4,0.2,0.9,0,1.4-0.1
			c3.7-1.3,7.5-2.6,11.2-3.9C261.9,95.5,262.6,95.3,263.4,95.1z M399.7-161.2c16,7,32.8,8.7,50,7.3
			C433.3-158.4,416.5-160,399.7-161.2z M391.8-171.6c-0.5,0.1-0.7,0.2-0.9,0.2c-6,2.2-12.3,3.1-18.7,3.1c-13.8,0-27.6,0.1-41.4,0
			c-3.7,0-7.4-0.5-11.1-1c-1.7-0.2-3.5-0.7-5.1-1.1c0.1,1.1,0.2,2.2,0.3,3.3c25.4-0.7,50.8,0.2,76.3,2.5
			C389.7-167.1,389.9-169.3,391.8-171.6z M279.5-222.2c-7.9-3.4-32.5-2-36.7,2c0.4,0.1,0.8,0.2,1.2,0.3c9.1,2.3,18.3,2.2,27.5,0.5
			C274.2-219.8,276.9-220.6,279.5-222.2z M253.6-157.6c9,2.8,42.3,1.2,49.1-2.4C294.3-162.1,258.1-160.3,253.6-157.6z M290.5-190.4
			c-11-2.2-30,1.6-36.5,4.9c0.5,0.1,0.9,0.2,1.3,0.3c6,1,12.1,1.1,18.2,0.4c4.9-0.5,9.7-1.4,14.2-3.8
			C288.6-189.1,289.5-189.8,290.5-190.4z M507.7,238.5c-0.1,0.1-0.2,0.2-0.3,0.3c1.3,3.4,0.7,5.2-2.5,7.1c-0.9,0.6-2,1.1-3,1.5
			c-0.8,0.3-1,0.8-1.2,1.6c-0.8,3.5-1.6,6.9-2.4,10.3c0,0.2-0.1,0.4-0.1,0.8c4-1.7,7.8-3.5,11-6.3c1-0.9,2-2,2.8-3.1
			c1.7-2.5,1.7-5.2,0-7.6C510.8,241.4,509.2,240,507.7,238.5z M418.8-133.9c11.8,2.3,23.6,4.5,34.8,8.9c0.8-1.6,0.3-2.8-1-3.8
			c-0.1-0.1-0.2-0.2-0.4-0.3c-3.9-3.2-8.5-5.2-13.1-7.1c-0.3-0.1-0.7-0.1-1,0c-3.3,0.4-6.6,0.9-10,1.3
			C424.9-134.5,421.9-134.2,418.8-133.9z M224.8,111.5c6.8-3.4,13.5-6.8,20.2-10.1c-4.7-1.9-9.6-3.7-12.9-8.5
			C229.6,99.2,227.2,105.4,224.8,111.5z M437.7,28.9c-6,2.1-11.9,4.1-17.3,6.1c7.6,2.4,15.5,5,23.4,7.5
			C441.7,37.9,439.7,33.3,437.7,28.9z M480.6,108.4c1.1-1.6,2.3-3.1,3.1-4.6c2.1-4,1.6-7.6-1.3-10.9c-2.6-3-6-4.7-9.5-6.3
			c-0.3-0.1-0.8,0-1.3,0.1C474.7,93.9,477.6,101,480.6,108.4z M226,225.1c-6.5-2.1-13.1-4.2-19.9-6.4c-0.3,4.3-0.6,8.5-0.9,12.6
			C212.3,229.3,219.3,227.2,226,225.1z M461.8,67.7c0.3,0.6,0.4,0.8,0.6,1.1c2.6,5,5.2,10,7.8,15c0.9,1.7,2.2,2.1,3.7,0.9
			c0.9-0.7,1.7-1.4,2.4-2.3c1.7-2.1,1.7-4.4,0-6.6c-0.4-0.5-0.9-1-1.4-1.5C471.2,71.2,466.7,69.5,461.8,67.7z M469.5,185.2
			c8.6,1.7,17.2,3.5,25.7,6.4c-0.4-3.8-0.8-7.3-1.2-10.7C485.8,182.4,477.7,183.8,469.5,185.2z M270.7,55.7
			c-5.1-2.9-10.3-5.5-12.5-11.5c-2.7,5.1-5.4,10.1-8.1,15.1C257,58.2,263.8,57,270.7,55.7z M436.9-73.2c-1.8,0.5-3.6,1-5.3,1.6
			c-0.2,0.1-0.5,0.3-0.6,0.5c-0.5,2.8-2.5,4.5-4.8,5.6c-2.9,1.5-6,2.7-9.1,3.9c-0.4,0.2-0.7,0.3-1.1,0.4c4.6,1.4,9,2.8,13.4,4.2
			C431.8-62.2,434.3-67.6,436.9-73.2z M464.9-243c0-0.1,0.1-0.3,0.1-0.4c-0.5-0.3-0.9-0.8-1.5-0.9c-1.9-0.6-3.8-1.4-5.8-1.7
			c-5.4-0.8-10.8-0.3-16.1,0.5c-1.9,0.3-3.9,0.8-5.8,1.2c0,0.2,0,0.3,0,0.5C445.5-241.5,455.2-240.1,464.9-243z M464.4,80.1
			c0.1-0.1,0.2-0.1,0.2-0.2c-2.5-4.4-5-8.8-7.4-13.2c-0.4-0.7-0.8-0.5-1.4-0.2c-3.3,1.2-6.7,2.4-10,3.6c-1,0.4-2.2,0.6-3.2,0.8
			C450.2,73.3,457.9,75.2,464.4,80.1z M269.9-258.7c-1-1.8-2.2-3.2-3.9-4c-4.8-2.2-9.7-3-14.8-1.3c-3.5,1.2-6.3,3.3-8.7,6.4
			C251.6-260.3,260.7-260.8,269.9-258.7z M497.5,232.8c0.1-0.1,0.2-0.2,0.3-0.3c-0.3-0.2-0.5-0.6-0.8-0.7c-1.2-0.6-2.4-1.1-3.6-1.7
			c-9.7-4.2-19.9-7.2-30.1-9.9c-1.8-0.5-3.4-1.1-5.4-0.7c-2.8,0.5-5.7,0.9-8.6,1.3C465.6,223.7,481.9,226.8,497.5,232.8z M276-234.5
			c-9.9-2.8-19.4-2.4-28.9,0c0.1,0.2,0.2,0.3,0.3,0.3c7.4,2,14.8,2.8,22.4,1.9C271.8-232.6,273.9-233.2,276-234.5z M459.2,63.7
			c3.7-2.2,4.5-6.1,2-9.4c-2.9-3.9-7.2-6-11.5-8.1c-0.1,0.1-0.2,0.2-0.3,0.2C452.7,52.2,456,58,459.2,63.7z M274.2-52.9
			c4.8-1.8,9.6-3.6,14.3-5.4c-6.6-1.4-13.4-3.1-19.9-6.1c1.1,2.1,2.1,4,3,5.9C272.6-56.6,273.4-54.6,274.2-52.9z M499.8,209.1
			c2.8-1.1,5.6-3,6.8-4.6c1.3-1.7,1.6-3.3,0.5-5c-1.9-3-5.1-4.3-8.3-5.8C499.1,199,499.4,204,499.8,209.1z M424.3-31.9
			c0.2-3.2,0.4-6.6,0.6-9.7c-6.1,1.7-12.3,3.4-18.3,5C412.4-35,418.4-33.4,424.3-31.9z M430.3-232.2c9.4,3.5,18.8,2.8,28.3-0.1
			C449.1-234.3,439.7-234.5,430.3-232.2z M429.5,4.6c-1-4.3-1.9-8.4-2.8-12.4c-2.4,0.8-4.7,1.6-7.1,2.3c-2.3,0.7-4.7,1.2-7.3,1.8
			C418.5-1.6,424.5,0.2,429.5,4.6z M272.5,8.1c-1.4,4.3-2.8,8.7-4.3,13.3c4.7-4.6,10.5-6.5,16.2-8.6C280.4,11.2,276.4,9.6,272.5,8.1
			z M454.9-139.7c-5,1.1-9.7,2.1-14.5,3.2c4.9,2.3,9.7,4.5,13.8,8.5C454.4-132,454.6-135.8,454.9-139.7z M252.3-205.2
			c3.7,1.7,22.8,1,28-1.1C276.2-208.5,258.1-207.8,252.3-205.2z M501.2,247.6c1.9-1.2,3.6-2,5.2-3.3c1.7-1.4,1.8-3.2,0.7-5.2
			c-1.3-2.2-3.6-2.8-5.9-4C501.2,239.3,501.2,243.2,501.2,247.6z M436.1,13.1c-0.2,0.1-0.3,0.3-0.5,0.4c1.5,4.2,3.1,8.4,4.7,12.9
			c0.8-0.8,1.5-1.3,2.1-1.9c2.4-2.6,2.4-5.3-0.3-7.6C440.2,15.5,438.1,14.4,436.1,13.1z M428.5-19.1c2.2-0.7,4.3-1.4,6-2.7
			c1.3-1,1.5-2.2,0.7-3.3c-1.8-2.4-4.5-3.3-7.4-4.6C428-26.1,428.2-22.7,428.5-19.1z M458.1-167.6c-0.3,4.1-0.5,8-0.7,12
			c2.2-0.6,3.9-1.5,5.3-3s1.6-3.2,0.4-5C462-165.3,460.3-166.5,458.1-167.6z M455.1-110.8c2.2-0.9,4.2-1.9,5.9-3.5
			c1.4-1.4,1.7-2.8,1-4.2c-1.1-2.1-3-3.2-5-4.3C456.3-118.8,455.7-114.9,455.1-110.8z M245-108.7c3.6-1.2,6.9-2.4,10-3.5
			c-3.3-1.6-6.7-3.4-10-5C245-114.5,245-111.7,245-108.7z M266-247.2c-7.5-1.6-14.9-1.9-22.3,0.5C251.2-245.5,258.6-246,266-247.2z
			 M448.4-171c-8.9-2.2-17.9-3.2-26.9-3.4C430.2-171.9,439.2-170.6,448.4-171z M457.5-151.3c0.2,3.3,0.5,6.5,0.7,10.1
			c1.6-1.2,3.1-2,4.2-3.1c1.2-1.1,1.2-2.4,0.2-3.6C461.4-149.5,459.6-150.5,457.5-151.3z M487,270.5c2.4-2.4,4.5-4.9,6.1-8
			c-3.9,1.2-7.5,2.2-11.3,3.4C483.9,267.1,486.1,268,487,270.5z M424.7-203.8c7,1.7,13.9,1,20.8-0.6
			C438.5-205.4,431.6-205.3,424.7-203.8z M245.3-159.8c-0.3-3.4-0.6-6.6-0.8-9.7c-0.1-0.1-0.3-0.2-0.4-0.2c-1.2,1.2-2.5,2.3-3.5,3.6
			c-0.9,1.1-0.7,2.3,0.2,3.4C241.9-161.4,243.4-160.6,245.3-159.8z M246-91.4c-1.3-4-2.5-8-3.7-11.9c-2.3,1.6-3.2,3.9-2.1,6.1
			C241.4-94.6,243.7-93,246-91.4z M461.2-210.1c-2.8,1.7-5.5,3.3-8.1,4.9c2.1,1.1,4.4,2.3,6.7,3.5
			C460.3-204.5,460.7-207.3,461.2-210.1z M265.7-80.1c-3.4-1.2-6.9-2.4-10.6-3.7c2.2,2.8,4.2,5.4,6.2,7.9
			C262.8-77.4,264.3-78.8,265.7-80.1z M432.2-54.5c-1.1,3.5-2.1,6.8-3.1,10c0.1,0.1,0.2,0.1,0.3,0.2c1.8-1,3.5-2,4.8-3.7
			c1.2-1.7,1.1-3.2-0.2-4.8C433.5-53.4,433-53.8,432.2-54.5z M262.4,35.5c2.5-1.3,4.9-2.5,7-3.6c-1.1-1.7-2.3-3.4-3.4-5.1
			C264.9,29.5,263.6,32.4,262.4,35.5z M462.5-197.9c-0.6,3.7-1.2,7.3-1.8,11C465.2-189.7,466-194.6,462.5-197.9z M284.8-220.1
			c1,3.4,2,6.6,3,9.9C291.3-213.1,289.9-217.9,284.8-220.1z M226,143.3c-0.8-0.4-1.5-0.7-2.1-1c-0.7-0.3-1.4-0.6-2-1
			c-1.7-0.9-1.7-0.9-3.1,0.5c-0.4,0.4-0.8,0.9-1,1.4c-0.4,0.9-0.4,1.7,0.2,2.6C220.6,145,223.2,144.2,226,143.3z M458.8-172.9
			c2-1,3.6-2,3.8-4.1c0.2-1.4-1.2-3.5-2.7-4.2C459.5-178.4,459.2-175.8,458.8-172.9z M244.8-147.9c0.2-0.1,0.3-0.2,0.5-0.3
			c-0.2-2.2-2.3-4-1.4-6.5c-1,0.5-1.8,1.1-2.6,1.8c-0.8,0.7-0.8,1.6,0,2.3C242.4-149.6,243.6-148.8,244.8-147.9z M447.7-85.2
			c-0.9,1.6-1.7,3-2.5,4.5c-0.8,1.4-1.6,2.8-2.4,4.2C446.4-78.2,449.5-81.7,447.7-85.2z M466.2-220c3.4-2,3.9-6.2,1.1-8
			C466.9-225.3,466.6-222.7,466.2-220z M215.1,131.5c1-3.5,2-6.7,3-10.2C215.6,123.6,213.5,128.1,215.1,131.5z M300.1-182.9
			c1.1-2.8-1.5-6.2-4.7-6.3C297-187.1,298.5-185.1,300.1-182.9z M407.3-177.4c-1.1-0.8-2.1-1.5-3.1-2.2c-1.4,1.2-2.8,2.4-4.4,3.7
			C402.4-176.4,404.7-176.9,407.3-177.4z M210,270c-0.8,0.8-0.8,1.4,0.2,2.4c1.6,1.6,3.6,2.4,5.3,3.1
			C213.8,273.7,211.9,271.9,210,270z M238.4-209.7c-0.4-2.4-0.8-4.6-1.1-6.9C234.9-214.5,235.3-211.9,238.4-209.7z M290.4-201.7
			c0.9,2.5,1.7,5,2.6,7.5C294.3-197,293.3-200,290.4-201.7z M275-36c-0.1-0.1-0.3-0.2-0.4-0.3c-0.7,0.8-1.9,1.5-2.1,2.3
			c-0.1,0.7,1.1,1.5,1.8,2.3c0.1,0.2,0.4,0.2,0.8,0.4C275-32.9,275-34.5,275-36z M243.3-179.1c-2.3,2.5-1.9,4.8,0.8,5.9
			C243.8-175.2,243.5-177.1,243.3-179.1z M276.3-251.1c2-2,1.2-4.4-1.6-5.3C275.2-254.7,275.7-253,276.3-251.1z M270.3,2.7
			c0.4-1.7,0.8-3.4,1.3-5.2C268.9-1.1,268.4,0.9,270.3,2.7z M274.1-42.4c-0.6-1.9-1.1-3.5-1.6-5.3C270.9-45.5,271.4-44,274.1-42.4z
			 M241.5-191.2c-0.4-2.3-0.7-4.3-1.1-6.5C239.1-195.3,239.4-193.1,241.5-191.2z M297-178c1.5,0.3,2.9,0.6,4.3,0.8
			c0-0.1,0.1-0.1,0.1-0.2c-0.9-0.8-1.8-1.5-2.7-2.3C298-179.1,297.6-178.6,297-178z M464.4-231.6c0.1-1.2,0.2-2.2,0.3-3.4
			c-1.1,0.8-1.9,1.4-2.8,2C462.8-232.5,463.5-232.1,464.4-231.6z M271-246.7c1.1,0.6,2.1,1.1,3.3,1.8c-0.3-1.2-0.6-2.1-0.8-3.1
			C272.7-247.6,271.9-247.2,271-246.7z M273.4-138c2.2,0.8,4.3,2.2,7.1,1.1C277.9-137.3,275.6-137.6,273.4-138z M465.8,89.1
			c0.9-0.4,1.7-0.7,2.6-1.1c-0.4-0.9-0.7-1.6-1.1-2.5C466.7,86.8,466.3,87.8,465.8,89.1z M281.8-230.5c0.4,1.3,0.7,2.6,1.1,3.9
			c0.1,0,0.2-0.1,0.3-0.1C283.6-228.2,283-229.4,281.8-230.5z M406.2-187.5c-1.9,0.6-2.6,1.5-2.3,3
			C404.8-185.5,405.5-186.5,406.2-187.5z M422.5-17.2c1.1,0.3,1.9,0.6,2.8,0.8C425.6-18.1,425.2-18.1,422.5-17.2z M429.7-10.5
			c1.1-1.4,0.9-2.3-0.5-3.2C429.4-12.6,429.6-11.7,429.7-10.5z M211.4,265.5c0.6-0.3,1-0.5,1.7-0.8c-1-0.3-1.8-0.6-2.8-0.9
			C210.8,264.5,211.1,264.9,211.4,265.5z M235.6-227.3c-0.2,0-0.3,0.1-0.5,0.1c0.2,0.9,0.3,1.9,0.5,2.8c0.1,0,0.3,0,0.4-0.1
			C235.9-225.4,235.8-226.4,235.6-227.3z M216.4,140c0.5-0.4,0.9-0.7,1.5-1.1c-0.4-0.3-0.7-0.4-1-0.7
			C216.7,138.9,216.6,139.5,216.4,140z"/>
		<path class="st0" d="M435.6,13.6c0.2-0.1,0.3-0.3,0.5-0.4"/>
		<path class="st0" d="M440.3,26.4"/>
		<path class="st0" d="M246-91.4"/>
		<path class="st0" d="M242.3-103.4"/>
		<path class="st0" d="M243.3-179.1"/>
		<path class="st0" d="M274.1-42.4"/>
		<path class="st0" d="M297-178"/>
		<path class="st0" d="M301.3-177.4c0,0.1-0.1,0.1-0.1,0.2"/>
		<path class="st0" d="M283.3-226.8c-0.1,0-0.2,0.1-0.3,0.1"/>
		<path class="st0" d="M406.2-187.5c-0.7,1-1.5,1.9-2.3,3"/>
		<path class="st0" d="M422.5-17.2"/>
		<path class="st0" d="M235.6-227.3"/>
		<path class="st0" d="M235.7-224.4"/>
	</g>
</g>
</svg>
