<?xml version="1.0" encoding="utf-8"?>
<!-- Generator: Adobe Illustrator 19.2.0, SVG Export Plug-In . SVG Version: 6.00 Build 0)  -->
<svg version="1.1" id="Layer_1" xmlns="http://www.w3.org/2000/svg" xmlns:xlink="http://www.w3.org/1999/xlink" x="0px" y="0px"
	 width="570.6px" height="898.7px" viewBox="0 0 570.6 898.7" style="enable-background:new 0 0 570.6 898.7;" xml:space="preserve"
	>
<style type="text/css">
	.st0{fill:#8C715D;}
	.st1{clip-path:url(#SVGID_3_);fill:#72594B;}
	.st2{clip-path:url(#SVGID_5_);fill:#72594B;}
	.st3{clip-path:url(#SVGID_7_);fill:#72594B;}
	.st4{fill:#543E36;}
	.st5{fill:#FFFAC0;}
	.st6{fill:#F4EEBD;}
	.st7{fill:#BDDBED;}
	.st8{fill:#EFF8FB;}
	.st9{fill:#FCF4A7;}
	.st10{fill:#FFC271;stroke:#BC7A2B;stroke-miterlimit:10;}
	.st11{fill:#F4B76E;}
	.st12{fill:#FFC271;}
	.st13{clip-path:url(#SVGID_9_);fill:#F4B76E;}
	.st14{fill:#FFFFFF;}
	.st15{fill:#191919;}
	.st16{fill:#632A1B;}
	.st17{clip-path:url(#SVGID_11_);fill:#F4B76E;}
	.st18{clip-path:url(#SVGID_13_);fill:#F4B76E;}
	.st19{clip-path:url(#SVGID_15_);fill:#F4B76E;}
	.st20{clip-path:url(#SVGID_17_);fill:#F4B76E;}
	.st21{fill:#BC7A2B;}
	.st22{opacity:0.56;}
	.st23{fill:#F7F7F7;}
</style>
<g id="HAIR2">
	<g>
		<path id="hair1_2_" class="st0" d="M196.8,2c0,0-33.3,3.7-56.7,25.7c0,0-65.3,16-70,87.3c0,0-19.7,44-19.7,78.7s17.9,64.6,20.7,74
			c4.2,14,18,56-11.1,62.1l-4.2-1.1c0,0,32.3,40,55.3,29.3c9-4.3,8.3-15,8.3-15s28.7,22.3,4.7,40.7c0,0,29-7,48.3-28.7
			c0,0,15,16,10,24.3c0,0,18.3-12.7,20.7-24.3c0,0,2.3,17,15,22.3c0,0,0-28,9-29c0,0,8,28.7,34,35.3c0,0-10.3-25.3-6-32
			c0,0,10.7,18.3,35,17s49.7-34.5,52.7-39.5c0,0-17.8,15-27.7,12.5c0,0,17.7-8,21-35.7s-3.3-36.7-3.3-36.7s21.3-29.3,21.3-104.7
			s-33-89.3-39.7-107.7c-1.7-4.6-6.8-21-15.3-26c-8.6-5-20.7,1.3-26,3c0,0-2.7-12-10-15.3c-7.3-3.3-30.7,2.3-30.7,2.3
			S211.1,5.7,196.8,2z"/>
	</g>
	<g>
		<defs>
			<path id="SVGID_2_" d="M196.8,2c0,0-33.3,3.7-56.7,25.7c0,0-65.3,16-70,87.3c0,0-19.7,44-19.7,78.7s17.9,64.6,20.7,74
				c4.2,14,18,56-11.1,62.1l-4.2-1.1c0,0,32.3,40,55.3,29.3c9-4.3,8.3-15,8.3-15s28.7,22.3,4.7,40.7c0,0,29-7,48.3-28.7
				c0,0,15,16,10,24.3c0,0,18.3-12.7,20.7-24.3c0,0,2.3,17,15,22.3c0,0,0-28,9-29c0,0,8,28.7,34,35.3c0,0-10.3-25.3-6-32
				c0,0,10.7,18.3,35,17s49.7-34.5,52.7-39.5c0,0-17.8,15-27.7,12.5c0,0,17.7-8,21-35.7s-3.3-36.7-3.3-36.7s21.3-29.3,21.3-104.7
				s-33-89.3-39.7-107.7c-1.7-4.6-6.8-21-15.3-26c-8.6-5-20.7,1.3-26,3c0,0-2.7-12-10-15.3c-7.3-3.3-30.7,2.3-30.7,2.3
				S211.1,5.7,196.8,2z"/>
		</defs>
		<clipPath id="SVGID_3_">
			<use xlink:href="#SVGID_2_"  style="overflow:visible;"/>
		</clipPath>
		<path class="st1" d="M124.2,31c-5.6,2.9-10.8,6.6-15.8,10.6c-5.1,4.1-9.7,8.6-13.8,13.7c-1.2,1.5-2.3,3.2-3.5,4.9v1
			c4.7-5.3,10.7-9.5,16.6-10.6c10.5-1.8,10.1,10.4,6.4,17.5h0.5c1.2-1.1,2.5-2.1,3.5-3.3c3.4-3.9,5.9-8.5,8.4-13
			c2.3-4.2,4.7-8.3,7.7-12.2c1.7-2.2,3.3-4.8,5.2-6.9v-7.8C134.3,26.7,129.2,28.4,124.2,31z M165.2,334.5
			c-0.6-7.4-1.8-14.8-1.6-22.2c-3-1.4-6-2.8-9.1-4.1c-7.9-3.4-16-6.8-22.3-12.9c-6.7-6.4-9.2-14.7-10.4-23.6
			c-1.2-8.6-1.7-17.6-0.7-26.3c-0.2-0.4-0.5-0.9-0.8-1.3c-2.6-4-6.7-1.2-10.3-2.9c-2.7-1.2-3.9-4-4.8-6.6c-1.4-4.3-2.6-8.6-4-12.8
			c-3.3-9.9-6.8-20.5-7.8-30.9c-0.4-4.6,0.3-8.8,1.3-13.3c1.1-5.2,1.3-9.9,1.5-15c-0.1-0.1-0.2-0.1-0.3-0.2
			c-0.2-0.2-0.3-0.4-0.4-0.6c-1.9,1.1-2.7,4.5-3.2,6.2c-1.3,4.1-2.4,8.2-3.3,12.4c-1.7,8-3.2,16.2-3.9,24.4
			c-1.3,15.7,2,31.6,5.2,46.8c1.7,7.9,3.6,15.5,6.5,23c3.1,7.9,6.6,15.5,9.4,23.5c0.2,0.5,0.2,0.9,0,1.3c1.9,5.7,2.4,12.1,0.8,17.6
			c-2.1,7.1-7.4,15.8-14.1,19.3c-5.5,2.8-12.3,2.1-18.5,0.2c0.4,0.5,0.8,1,1.3,1.5c3.1,3.5,6.1,7.1,9.4,10.5
			c5.9,6.2,15,15.4,24,13.1c1.9-1.5,3.6-3,5.8-4.2c1.9-1.1,4-1.9,5.9-3.1c1.8-1.1,3.7-2.4,5.3-3.7l0.9-0.9c-1.5-2.8-3.9-6.6-6.2-7.6
			c-0.3-0.1-0.7-0.2-1-0.2s-0.6,0-0.9,0.2c-1.3,0.5-3-0.7-2.1-2.1c1.7-2.7,4-2.5,6.2-1.1c7.5,1.6,14.8,11.5,16.1,17.7
			c1.5,7.2,0.3,14.6-3.6,20.9c-0.8,1.2-1.7,2.5-2.6,3.8c1.4-0.2,2.8-0.4,4.2-0.7c2.5-0.8,5-1.9,7.4-3.1c5.9-2.9,13.3-4.4,18.4-8.7
			c0.6-0.5,1.6,0.1,1.1,0.9c-0.1,0.1-0.2,0.3-0.3,0.4c2.7-2.2,3.4-5,3.3-8.6C166.9,352.3,165.8,343.3,165.2,334.5L165.2,334.5z"/>
	</g>
	<g>
		<defs>
			<path id="SVGID_4_" d="M196.8,2c0,0-33.3,3.7-56.7,25.7c0,0-65.3,16-70,87.3c0,0-19.7,44-19.7,78.7s17.9,64.6,20.7,74
				c4.2,14,18,56-11.1,62.1l-4.2-1.1c0,0,32.3,40,55.3,29.3c9-4.3,8.3-15,8.3-15s28.7,22.3,4.7,40.7c0,0,29-7,48.3-28.7
				c0,0,15,16,10,24.3c0,0,18.3-12.7,20.7-24.3c0,0,2.3,17,15,22.3c0,0,0-28,9-29c0,0,8,28.7,34,35.3c0,0-10.3-25.3-6-32
				c0,0,10.7,18.3,35,17s49.7-34.5,52.7-39.5c0,0-17.8,15-27.7,12.5c0,0,17.7-8,21-35.7s-3.3-36.7-3.3-36.7s21.3-29.3,21.3-104.7
				s-33-89.3-39.7-107.7c-1.7-4.6-6.8-21-15.3-26c-8.6-5-20.7,1.3-26,3c0,0-2.7-12-10-15.3c-7.3-3.3-30.7,2.3-30.7,2.3
				S211.1,5.7,196.8,2z"/>
		</defs>
		<clipPath id="SVGID_5_">
			<use xlink:href="#SVGID_4_"  style="overflow:visible;"/>
		</clipPath>
		<path class="st2" d="M67.5,327.1c1.3,0,2.6-0.1,4-0.8c2.4-1.1,4.4-3.1,6-5.2c4.6-5.7,5.5-12.3,5.4-19.5
			c-0.2-8.3-1.9-17.3-5.5-24.8c-2.8-5.9-6.8-11.1-9.1-17.2c-0.3,0.2-0.7,0.3-1.2,0.3c0.5,0,5.2,28.6,5.7,31.1
			c1.6,9.6,0.4,19.1-4.4,27.4c1.1,0.3,1.7,1.9,0.4,2.6c-1.4,0.8-2.7,1.6-4.1,2.4C65.7,324.6,66.6,325.9,67.5,327.1z M363.2,321.3
			c-5.7,1.4-11.1,4.1-15.5,8.1c-1.6,2.6-4,4.7-6.4,6.6c-2.2,1.7-4.2,3.6-6.5,5.1c-5,3.2-10.9,5.2-16.8,5.4
			c-4.9,0.2-9.8-0.6-14.3-2.4c-2.3-0.9-4.4-2-6.5-3.4c-0.7-0.5-2.5-1.3-2.7-2.2c-0.3-0.9,0.4-1.9,1.3-1.8c0.5,0,1,0.3,1.4,0.5
			c0.7,0.2,1.4,0.3,2.1,0.3c5.2,0.2,10.6-0.6,15.1-3.3c5.2-3.3,8.4-8.9,10.8-14.5c3.1-7.4,5.1-15.3,5.8-23.4
			c0.4-4.1,0.4-8.2,0.2-12.3c-0.2-3.1,0.4-6.3,0.2-9.4c-1.2,2.9-2,6.1-3.5,8.8c-2.1,3.9-4.2,7.6-6.4,11.4c-0.1,0.2-0.3,0.4-0.5,0.5
			s-0.5,0-0.7-0.2l-4.2-2.1c-0.5-0.3-1.1-0.5-1.4-1c-0.5-0.7-0.5-1.8-0.4-2.7c1.1-9,4.2-17.4,6.8-25.9c0.1-1.5,0.3-3.1,0.5-4.6
			c0.7-5.3,1.8-10.5,2.6-15.7c1-7,1.8-13.9,2.3-20.9c0.1-4.2,0.3-8.3,0.4-12.4c0-1.7,0-3.4-0.1-5.1c-0.2-5.8-0.5-11.6-0.8-17.4
			c-0.6-4.5-1.4-9.1-2.7-13.4c-1.5-5.2-4.2-9.7-6.7-14.4c-0.6,2.1-1.3,4.3-1.3,6.6c0,6.1,4.4,11.2,3.8,17.6
			c-0.2,2.5-1.1,4.7-2.1,6.9c-1.6,3.8-2.5,7.2-2.9,11.3c-0.5,6.1-1.3,11.9-2.6,17.9c-1.4,6.3-3.7,16.4-11.6,17.1
			c-2.8,0.3-5.3-0.8-7.8-1.9c-3.2-1.3-5.2-2.3-6.6,1.6c-4,10.9,0.9,23.6-0.6,34.9c-1.2,9.2-6.4,15.7-13.7,21
			c-7,5.1-15.1,8.6-22.2,13.6c-3.5,2.5-6.9,5.4-9.1,9.1c-2.5,4.2-3.4,9.5-4.4,14.2s-2,9.8-2.6,14.9V365c0.1,0.6,0.2,1.1,0.3,1.7
			c1.3,6.4,5.6,11.7,11.2,15c4.2,2.4,8.4,2.6,12.8,2.8c-1.6-2.2-2.9-4.6-4-6.7c-2.6-5.1-5-10.6-5.8-16.3c-0.6-4-0.6-10.7,4.1-12.5
			c4.1-1.5,6.3,4.1,5.2,7.3c-0.1,0.3-0.3,0.7-0.3,1.1s0.1,0.7,0.2,1c1.6,4.3,3.7,8.4,4.6,12.8c0.8,3.6,0.9,7.4,2.3,10.8
			c0.3,0.8,0.7,1.5,1.2,2.2c0.9,1.1,2.1,1.9,2.8,3.1c0.7,1.2,0.2,3.2-1.2,3.3h99.4v-70C365.1,320.8,364.1,321,363.2,321.3
			L363.2,321.3z"/>
	</g>
	<g>
		<defs>
			<path id="SVGID_6_" d="M196.8,2c0,0-33.3,3.7-56.7,25.7c0,0-65.3,16-70,87.3c0,0-19.7,44-19.7,78.7s17.9,64.6,20.7,74
				c4.2,14,18,56-11.1,62.1l-4.2-1.1c0,0,32.3,40,55.3,29.3c9-4.3,8.3-15,8.3-15s28.7,22.3,4.7,40.7c0,0,29-7,48.3-28.7
				c0,0,15,16,10,24.3c0,0,18.3-12.7,20.7-24.3c0,0,2.3,17,15,22.3c0,0,0-28,9-29c0,0,8,28.7,34,35.3c0,0-10.3-25.3-6-32
				c0,0,10.7,18.3,35,17s49.7-34.5,52.7-39.5c0,0-17.8,15-27.7,12.5c0,0,17.7-8,21-35.7s-3.3-36.7-3.3-36.7s21.3-29.3,21.3-104.7
				s-33-89.3-39.7-107.7c-1.7-4.6-6.8-21-15.3-26c-8.6-5-20.7,1.3-26,3c0,0-2.7-12-10-15.3c-7.3-3.3-30.7,2.3-30.7,2.3
				S211.1,5.7,196.8,2z"/>
		</defs>
		<clipPath id="SVGID_7_">
			<use xlink:href="#SVGID_6_"  style="overflow:visible;"/>
		</clipPath>
		<path class="st3" d="M259.5,387.2c-5.3,0.1-10.2,0.7-15.4-1.8c-4.4-2.1-8.3-5.6-11.1-9.7v14.9h30.8
			C262.2,389.8,260.8,388.6,259.5,387.2z"/>
	</g>
	<g id="Layer_15">
		<path id="XMLID_1_" class="st4" d="M322.5,292.2c8.1-13.8,14.9-27.7,20-42.9c5.3-15.9,9.2-32.3,11.5-48.9
			c4.8-34.3,1.8-69.4-11.6-101.6C336,83.5,328,70.3,316.6,58.2c-1.4-1.5-3.6,0.7-2.2,2.2C359,108.7,360,182.2,342,242
			c-5.1,16.9-11.4,34.4-19.9,49.9C321.9,292.2,322.4,292.5,322.5,292.2L322.5,292.2z"/>
		<path class="st4" d="M333,270.5c4.4,11.6,2.8,24.5,0.2,36.3c-2.8,12.8-7.7,25.6-19.4,32.8c-1.7,1-0.2,3.6,1.5,2.6
			c12.3-7.3,18-20.4,20.9-33.8c2.7-12.5,4.6-26.7-2.2-38.3C333.7,269.5,332.8,269.9,333,270.5z M261.8,383.7
			c-11.1-5-19.7-11.6-28.1-20.4c-1.4-1.5-3.4,0.7-2.2,2.2c7.3,9.3,18.6,16.2,29.9,19.1C261.9,384.6,262.3,383.9,261.8,383.7
			L261.8,383.7z"/>
		<path class="st4" d="M261.9,384c-2-10.5-7-20-5.4-31c0.4-2.4-3.1-2.9-3.3-0.4c-1,10.6,2.3,22.8,8.2,31.7
			C261.6,384.4,261.9,384.2,261.9,384L261.9,384z M341.1,330.8c-4.7,2-9,4.8-13.8,6.6c-4.3,1.7-8.7,2.1-13.2,2.8
			c-1.5,0.3-1,2.4,0.3,2.5c9.3,0.8,20.1-6,26.8-11.8C341.3,330.9,341.2,330.8,341.1,330.8L341.1,330.8z M125.6,383.2
			c18.6-9.1,5.5-36.1-7.1-44.4c-2-1.3-3.7,1.8-1.8,3.1c6.4,4.7,10.3,11.9,13.5,19c3.6,8,1.6,16.1-4.8,22.1
			C125.3,383.1,125.4,383.3,125.6,383.2L125.6,383.2z"/>
		<path class="st4" d="M56.3,329.6c12.5,12.2,24.1,29.7,42.7,32.6c6.4,1,14-0.1,17.9-5.9c2.8-4.2,4.6-12.5,1.2-16.8
			c-1-1.2-3,0.4-2.1,1.6c1.7,2.5,0.8,6.8,0,9.5c-1.2,4.1-4,7.1-8.1,8.3c-6.8,1.9-14.3-0.7-20.2-4c-11.6-6.6-21-17.1-30.3-26.4
			C56.7,327.7,55.5,328.9,56.3,329.6L56.3,329.6z"/>
		<path class="st4" d="M56,328.9c5.2,2.3,11.6-0.6,15.6-4c5.9-5,7.1-12.4,6.9-19.8c-0.4-15.8-3.6-31.6-7.8-46.8
			c-0.5-1.8-3.3-1-2.8,0.8c3.5,12.4,6.1,25.4,7.3,38.2c0.7,6.8,1.7,15.1-1.6,21.4c-3.8,7.4-10.3,8.3-17.6,9.7
			C55.8,328.4,55.7,328.8,56,328.9L56,328.9z M141.9,25.9c-21.4,3-40.1,19.7-52.7,36.2c-14.3,18.8-22,41.6-24.1,65
			c-0.2,2.4,3.5,2.4,3.7,0c3.9-42.4,30.3-87.6,73.6-99.2C143.7,27.5,143.1,25.7,141.9,25.9z M192.4,183.6c16-12.5,28.3-31,37.1-49.1
			c4.5-9.2,8.3-18.6,11.8-28.2c3.8-10.7,8-22.5,7.4-34c-0.1-1.2-1.9-1.6-2.2-0.3c-2.1,11.1-4.3,21.8-8.1,32.5
			c-3.5,9.9-7.4,19.7-11.9,29.2c-8.9,18.8-19.8,34.8-35,49C190.9,183.3,191.7,184.1,192.4,183.6L192.4,183.6z"/>
		<path class="st4" d="M197.4,171.4c9.4-20.7,10.8-43.3,11.1-65.7c0-1.8-2.8-1.8-2.8,0c0.4,22.1-0.2,44.8-8.7,65.6
			C197,171.5,197.3,171.6,197.4,171.4z"/>
		<path class="st4" d="M206.4,106.3c-13.2,2.9-26,8.7-38.8,13c-13,4.3-26,7.7-39.4,10.4c-1.3,0.3-1.1,2.6,0.3,2.4
			c13.5-1.7,26.8-6,39.7-10.5c12.7-4.5,26.4-8.5,38.4-14.7C207,106.8,206.7,106.2,206.4,106.3L206.4,106.3z M270,79.2
			c-0.3,0.3-0.6,0.4-0.8,0.8c-0.1,0.2,0.1,0.4,0.3,0.3c0.4-0.3,0.5-0.5,0.8-0.9C270.3,79.3,270.1,79.1,270,79.2z M265.6,82.2
			c-0.4,0.1-0.7,0.2-1.1,0.4c-0.2,0.1,0,0.5,0.2,0.4l0.9-0.6C265.7,82.3,265.7,82.2,265.6,82.2z"/>
		<path class="st4" d="M270.9,78.6c-4.4,2.4-8.8,5-13.3,7.2c-4.6,2.1-9.5,3.6-14,5.7c-1.1,0.5-0.3,2.1,0.8,1.9
			C253.8,91.5,263.9,85.3,270.9,78.6C271,78.7,271,78.6,270.9,78.6L270.9,78.6z"/>
		<path class="st4" d="M264,84.6c2.2,8.7,6.1,17,9.3,25.3c2.8,7.3,5.4,14.7,8.9,21.8c3.7,7.6,8.4,14.9,12.7,22.1
			c4.7,7.8,9,16,14.3,23.4c0.5,0.7,1.5,0.1,1.1-0.7c-7.4-15.6-18-29.8-25.9-45.1c-7.8-15.2-11.5-32.3-19.5-47.3
			C264.7,83.6,263.8,84,264,84.6z M138.5,128.3c-3.1,3.4-3.5,8.9-5.2,13.2c-2.3,5.9-5,11.7-8.3,17.1c-2.6,4.5-5.4,8.9-8.7,12.9
			c-3.7,4.4-8.3,7.5-13,10.6c-0.7,0.4-0.3,1.6,0.6,1.4c9.5-3.2,16.6-12.7,21.5-21.1c3.3-5.7,6.1-11.7,8.8-17.7
			c2.1-4.7,6.2-10.8,5.6-16C139.6,128.3,138.9,127.8,138.5,128.3z M197.8,0c-19.3,1-38,12.7-53.1,24.1
			c-14.3,10.8-21.6,29.1-31.1,43.7c-0.4,0.6,0.5,1.2,1,0.8c12.9-11.2,17-29.3,30.2-40.3c7.1-5.9,15.6-10.8,23.7-15.2
			c9.1-5,18.9-8.6,29.3-9.4C200.1,3.5,200.2-0.1,197.8,0L197.8,0z M275.4,39.1c-1.7-8-5-16.9-13.1-20.1c-9.6-3.9-21.4-2.4-30.5,2.2
			c-1.1,0.6-0.1,2.3,1,1.7c8.3-4.2,18.7-5.5,27.6-2.4c8.3,2.8,11.4,11.4,13.1,19.2C273.8,40.9,275.7,40.4,275.4,39.1z"/>
		<path class="st4" d="M324,83.7c-4-16-8.5-34.1-18.9-47.4c-4.2-5.4-10-8.3-16.9-7.4c-4.9,0.7-9.8,1.9-14.5,3.5
			c-2.2,0.8-1.3,4.2,1,3.5c3.8-1.2,7.7-2.4,11.6-3.3c9.1-2,15.1,2.6,19.9,10.2c8,12.9,11.1,27.4,17.4,41C323.6,84.2,324,84,324,83.7
			z M342.2,329.7c-6.8,5.6-12,13.1-18.6,19.1c-6.8,6.2-14.6,11.7-23.3,14.8c-15.5,5.5-34.6,3.1-43.8-12c-1.2-2-4.4-0.2-3.1,1.8
			c9,14.7,27.8,19.3,43.7,14.4c8.9-2.7,17.1-7.8,24.1-13.9c7.8-6.7,16.2-15,21.3-24C342.6,329.7,342.4,329.5,342.2,329.7
			L342.2,329.7z M125.2,383.5c6.8,0.1,15.1-4,21.2-7c7.1-3.5,14.3-7.8,20-13.3c1.2-1.1-0.4-3.3-1.8-2.3c-6.2,4.6-12.1,9.2-18.9,12.9
			c-3.2,1.8-6.5,3.4-9.8,4.9c-3.5,1.5-7.6,2.3-10.9,4.3C124.8,383.1,124.9,383.5,125.2,383.5z M238.6,30.6
			c-4.2-8.1-10.4-13.8-17.8-19C214,6.8,205.3,0.6,196.7,0c-2.1-0.2-2.1,3.1,0,3.3c7.9,0.6,16.3,6.5,22.6,10.9
			c6.6,4.6,14,10.1,18.4,16.9C238.1,31.8,239,31.3,238.6,30.6L238.6,30.6z M83.5,101.2c-33.4,37.5-42,95.2-23.4,141.5
			c6.4,16,15.9,30.2,25.7,44.3c0.6,0.9,2.1,0.1,1.5-0.9c-9.5-15.5-19.6-31.3-25.8-48.5c-5.4-14.9-8-30.8-8-46.6
			c0.1-32.4,11.1-63.2,30.9-88.8C84.9,101.4,84,100.5,83.5,101.2z"/>
	</g>
</g>
<g id="colour">
	<g id="clothes">
		<path class="st5" d="M155.5,409.7c0,0-34.3,17-47.3,7.3s-34.3-14.7-47.3,3s-18.7,55-18.7,78.4c0,23.3-13.7,72-13.7,72s22.3-2,37,3
			s24.7,15,24.7,15l7.7-21.7c0,0-0.8,29.1,14.8,45.6c0,0,1,11.2,0.5,30.8c-0.1,3.9-0.8,17.8,1.2,31.5c2.9,19.9-3.7,39.5-11.1,58.3
			c-13.2,33-33.5,84.7-36.4,97.6c-4.3,19.3,60.7,68.3,139.7,68.3s140.3-55.3,135-73.7c-3.6-12.2-23-61.6-35.5-93.2
			c-6.9-17.3-8.6-36.2-5-54.4c2.7-13.6,2-28.5,1.9-34.7c-0.5-22.7,1.1-28.1,1.7-31c0,0,17-21,18.3-40c0,0,2.7,25.7,10.3,37.7
			c0,0,0.7-27.3,25-38.3s32-6.3,32-6.3s-5.7-19.7-10.7-28c0,0,0-55.3-26-80.7c-26-25.3-70.3-29.5-70.3-29.5L185,410.9L155.5,409.7
			L155.5,409.7z"/>
		<g id="clothes-outline">
			<path class="st6" d="M117.5,425.3c-7.8-11-20.8-18.6-34.6-17.6c-14.9,1-25.5,13-31.2,25.8c-6.7,15.2-10.6,32.7-11.2,49.3
				c-0.6,17.7,4.2,34.1,14.2,48.7c0.9,1.3,3,0.1,2.1-1.2c-8.4-13.7-13.2-27.8-13.2-43.9c0-15.1,3.3-30.4,8.1-44.6
				c4.6-13.6,13.3-28.1,28.5-31.2c12.9-2.7,28.5,5.3,36.6,15.2C117.2,426,117.8,425.6,117.5,425.3L117.5,425.3z"/>
			<path class="st6" d="M43.2,500.6c-3.1,11.4-5,23.2-7.7,34.8c-2.8,11.6-6,23-8.8,34.6c-0.4,1.5,1.8,2.1,2.3,0.6
				c3.7-11.6,6.5-23.6,9-35.5c2.4-11.2,5.2-22.8,6.2-34.3C44.4,500.2,43.4,500.1,43.2,500.6L43.2,500.6z"/>
			<path class="st6" d="M89.9,588.3c-0.9-4.4-5.5-8.3-8.9-10.9c-4.2-3.3-9-5.8-14-7.6c-12.4-4.5-26.1-4.1-39-1.9
				c-1.8,0.3-1,2.9,0.7,2.7c22.3-3.4,45.7-0.6,60.6,18C89.6,588.8,89.9,588.5,89.9,588.3z M323.8,564.1
				C323.9,564.1,323.9,564,323.8,564.1C323.7,564,323.7,564.1,323.8,564.1z M297.9,689.3c-1.2,19.6,4.9,39.9,11.5,58
				c6.9,19.1,13.6,39.1,22.9,57.3c0.2,0.5,1,0.1,0.8-0.3c-5.6-19.6-13.9-38.6-20.9-57.7c-3.3-9.1-6.3-18.2-8.4-27.7
				c-2.2-9.8-3.1-19.8-4.7-29.8C298.9,688.5,298,688.7,297.9,689.3L297.9,689.3z M115,688.3c-3.9,22.6-10.9,45-20.2,66
				c-4.2,9.4-9.3,18.3-13.2,27.8c-4.4,10.7-6.8,21.9-9,33.2c-0.2,0.9,1.2,1.3,1.4,0.4c2.9-11.6,5.9-23.2,10.7-34.2
				c4.4-10,9.9-19.4,14-29.5c4.3-10.5,7.7-21.3,10.9-32.1c2.9-9.6,7.9-21.4,5.6-31.5C115.2,688.2,115.1,688.2,115,688.3L115,688.3z
				 M316.9,541.6c5.7,11.8,5.7,27.4,2.4,39.9c-3.2,12.2-10.1,22.3-20.2,29.8c-1.4,1-0.1,3.4,1.4,2.4c11-7,17.8-19.2,20.5-31.7
				c2.8-13.1,3.2-28.7-3.9-40.5C317,541.3,316.8,541.5,316.9,541.6L316.9,541.6z M102.7,544.5c-6.6,11.7-6.3,26.8-3.9,39.6
				c2.4,12.6,8.4,25.2,19.3,32.6c1.3,0.9,3-1.2,1.7-2.2c-9.7-7.7-16.1-17.9-19.1-30c-3.1-12.5-3.1-28,2.2-39.9
				C103,544.5,102.8,544.3,102.7,544.5L102.7,544.5z"/>
			<path class="st6" d="M97.6,565.6c-2.2,2.9-3,6.7-4.3,10c-1.5,3.9-3.1,7.7-4.5,11.6c-0.4,1,1.3,1.7,1.7,0.7
				c1.5-3.6,2.9-7.3,4.3-11c1.3-3.6,3.3-7.3,3.5-11.1C98.3,565.4,97.8,565.4,97.6,565.6z M322.3,570.3c0.2,0,0.2-0.3,0-0.3
				S322.1,570.3,322.3,570.3z"/>
			<path class="st6" d="M322.4,567.3c-0.6,7.4,1,14.9,2.4,22.1c1.4,6.9,3.4,13.6,7.2,19.5c0.7,1.1,2.5,0.1,1.8-1.1
				c-7.2-12.4-7.9-26.9-11.2-40.5C322.6,567.1,322.4,567.1,322.4,567.3L322.4,567.3z"/>
			<path class="st6" d="M389.1,563.4c-6-3.2-13.4-1.5-19.5,0.5c-7.1,2.3-13.4,5.6-19.8,9.6c-11.7,7.4-19.1,18.8-18.3,32.9
				c0.1,1.9,3,1.9,2.9,0c-1.6-27.5,30.4-44.4,54.5-42.6C389.2,563.7,389.3,563.5,389.1,563.4L389.1,563.4z"/>
			<path class="st6" d="M373.3,529c3.6,5.8,7.6,10.6,10.1,17.1c2.3,5.8,3.8,12,5.4,18c0.5,1.7,3,1,2.6-0.7
				c-3.5-13.2-7-25.4-17.8-34.6C373.4,528.6,373.1,528.8,373.3,529L373.3,529z"/>
			<path class="st6" d="M303.7,431.4c21.7,6.1,42.5,15.3,55.4,34.6c14.3,21.3,20,45.1,19.9,70.5c0,1.3,2.1,1.3,2.1,0
				c-0.1-26.2-6-51.1-21-72.8c-6.2-9-13.9-16.1-23.7-21c-10.2-5.1-21.4-9.8-32.5-12C303.4,430.6,303.2,431.3,303.7,431.4
				L303.7,431.4z M304.9,608.3c-4.2,5.8-4.4,15-4.4,21.9c0.1,8.8,1.2,17.5,0.9,26.3c-0.6,18.6-7.7,36.8-5.3,55.5
				c0.2,1.2,2.1,1.3,2,0c-1.2-18.2,4.7-35.5,5.5-53.6c0.3-8.2-0.6-16.5-1-24.7c-0.2-4-0.2-8.1,0.1-12.1c0.4-4.6,1.9-8.8,2.5-13.2
				C305.1,608.3,305,608.3,304.9,608.3L304.9,608.3z M113.2,659c-0.6,8.6,1.3,17.3,1.7,25.9c0.4,8.9,0.2,17.7-0.5,26.6
				c-0.1,1.1,1.6,1.1,1.7,0c1-8.8,1.3-17.8,0.6-26.6c-0.7-8.7-3.1-17.2-3.1-25.9C113.4,658.8,113.2,658.8,113.2,659z"/>
		</g>
		<g id="collafr">
			<path class="st7" d="M111.8,418.7c0,0,53.7-20.1,94.3-20.1s98.7,32.5,98.7,32.5s-67,91.1-98,40.1
				C206.8,471.2,173.8,530.8,111.8,418.7L111.8,418.7z"/>
			<path class="st8" d="M111.8,417.9c0,0,53.7-19.2,94.3-19.2s98.7,31.2,98.7,31.2s-67,87.5-98,38.5
				C206.8,468.3,173.8,525.5,111.8,417.9L111.8,417.9z"/>
		</g>
		<path id="Layer_24" class="st9" d="M212.5,591.3c-20.7,0-36.8,3.6-46.3,13.1c-7.6,7.6,18.8,63.3,46,63.3
			c29.7,0,50.7-57.5,42.7-65.5C247.4,594.8,236.1,591.3,212.5,591.3L212.5,591.3z"/>
	</g>
	<g id="HEAD_x2F_HAIR">
		<g id="neck">
			<path class="st10" d="M159.8,297.5c0,0,15.1,82.4-1.3,113.4c0,0,16.6,46.9,48.3,46.9c26.3,0,40.7-47.9,40.7-47.9
				s-19.7-26.4-2.7-112.4H159.8z"/>
			<path id="Layer_19" class="st11" d="M162.6,309.3l2.5,24.3c0,0,21.8,28.7,41.3,28.7s32.5-27.8,32.5-27.8l3.9-34.8l-83.3-0.7
				L162.6,309.3z"/>
		</g>
		<path id="right-ear" class="st10" d="M117.5,198.7c0,0-13.8-35.4-19.2-37.8s-8.6,26.3-8.6,26.3s1,44.6,13.1,56.2
			c12.1,11.5,16.5,1,16.5,1S128,222.9,117.5,198.7z"/>
		<path id="left-ear" class="st10" d="M294.1,197.1c0,0,16.4-35.7,22-37.8s7.2,27.7,7.2,27.7s-3.8,46-16.9,57.2
			c-13.1,11.1-16.9,0-16.9,0S281.8,221.4,294.1,197.1L294.1,197.1z"/>
		<g>
			<path id="SVGID_1_" class="st12" d="M311.1,153c0-57.4-46.6-104-104-104s-104,46.6-104,104c0,20.3,3.9,42,13.9,58
				c-0.3,2.1,0.3,53.4,0.3,53.4c0,15.8,9,30.4,22.7,38.3l43.4,24.9c13.7,7.9,30.7,7.9,44.4,0l42.8-24.9
				c13.7-7.9,21.7-22.5,21.7-38.3c0,0,0.4-52.5,0.3-53.4C304.1,194.3,311.1,174.8,311.1,153z"/>
		</g>
		<g>
			<defs>
				<path id="SVGID_8_" d="M311.1,153c0-57.4-46.6-104-104-104s-104,46.6-104,104c0,20.3,3.9,42,13.9,58c-0.3,2.1,0.3,53.4,0.3,53.4
					c0,15.8,9,30.4,22.7,38.3l43.4,24.9c13.7,7.9,30.7,7.9,44.4,0l42.8-24.9c13.7-7.9,21.7-22.5,21.7-38.3c0,0,0.4-52.5,0.3-53.4
					C304.1,194.3,311.1,174.8,311.1,153z"/>
			</defs>
			<clipPath id="SVGID_9_">
				<use xlink:href="#SVGID_8_"  style="overflow:visible;"/>
			</clipPath>
			<path class="st13" d="M114.2,165c1.1-0.6,2.2-1.3,3.2-2c5.9-4.3,10.4-10.2,13.6-16.7c3.2-6.4,5.1-13.6,6.4-20.6
				c0.2-1.1,0.3-2.3,0.4-3.4c-3.8-0.2-7.5-0.7-11.2-1.4c-0.6-0.1-1-0.4-1.2-0.7l-0.3,0.9c-2,5.7-4.3,11.1-8.1,15.8
				c-3.4,4.2-7.5,7.6-11.9,10.3v19c2.7,0,5.5-0.2,8.2-1C113.7,165.2,114,165.1,114.2,165L114.2,165z M207.5,101.7
				c0.1-0.7,0.2-1.5,0.4-2.2s1.3-0.9,1.6-0.2c0.1,0.2,0.2,0.5,0.3,0.7c0.2-0.2,0.5,0.2,0.4,0.4l-0.2,0.2c0.2,0.5,0.3,0.9,0.5,1.4
				c0.5,0.2,0.7,0.7,0.4,1.2c2,7.5,1.6,16.8,0.8,23.9c-0.8,7.7-2.6,15.4-4.6,22.8c-1,3.8-2.3,8-3.8,12.2c2.2-2.8,4.7-5.4,7.1-8.1
				c8.5-9.4,16.9-19.4,23.1-30.5c3.9-7.1,6.8-14.6,10.3-21.8c0.8-2.2,1.7-4.3,2.9-6.3c0.6-1,1.3-1.8,2-2.6c0.2-0.3,0.4-0.6,0.5-0.8
				c3.4-5.2,7-10.3,10.1-15.6c2-3.5,3.3-7.6,5.2-11.1h-7.4c-1.4,0.6-2.8,1.3-4.2,1.9c-3.9,1.6-8.1,2.4-11.9,4.2
				c-6.4,3-10.3,10.6-13.3,16.7c-3.6,7.4-3.5,16-7.3,23.3c-0.8,1.6-3.7,1.4-4.1-0.5c-0.8-4.4-0.7-9-1.4-13.4c-0.4-2.4-0.8-5.1-2-7.2
				c-1.5-2.6-2.8-2.1-5.3-1.2c-12.4,4-24.9,7.5-37.2,12.1c-6.9,2.6-13.8,5.2-21,6.8c-2.1,0.5-4.2,0.8-6.3,1.1c0.2,0.9,0.4,2,0.5,3
				c3.6,0.2,7.3,0.6,10.5,0.5c6.9-0.2,13.9-0.1,20.8-0.8c8.8-0.9,17.6-3,26-6C203.1,104.5,205.4,103.2,207.5,101.7L207.5,101.7z"/>
		</g>
		<path id="hair2" class="st0" d="M310.5,164.4c0,0-37-52.7-46.3-93.7c0,0-84.3,35.7-125.3,45.3c0,0-11.7,43.6-34.8,52
			c0,0-17.9-70,28.8-99.6s76.7-33.3,100.3-28s82.3,38.3,86,68.3C322.8,138.7,310.5,164.4,310.5,164.4L310.5,164.4z"/>
		<path id="lock" class="st0" d="M204.8,66c0,0,6.8,69.5-13.5,104c0,0,44.8-32.2,59.5-126c0,0-8-20.5-29.8-12.3S204.8,66,204.8,66z"
			/>
		<path class="st11" d="M170.5,159.7c-1.3-0.5-2.7-0.9-4.1-1.3c1.1,1.1,2,2.2,2.8,3.2c0.8,1.1,2.4,3.4,3.5,5.8c0.3-0.5,0.7-1,1-1.6
			c0.6-1,1.1-2.1,1.7-3.2C173.9,161.5,172.4,160.4,170.5,159.7z"/>
	</g>
	<g id="eyes">
		
			<ellipse transform="matrix(0.9564 -0.2919 0.2919 0.9564 -51.3983 54.9641)" class="st14" cx="158.5" cy="199.7" rx="23.4" ry="36.9"/>
		
			<ellipse transform="matrix(0.296 -0.9552 0.9552 0.296 -10.9131 384.7926)" class="st14" cx="255.6" cy="199.8" rx="36.9" ry="23.4"/>
		<ellipse class="st4" cx="173.1" cy="206.3" rx="8.5" ry="13.9"/>
		<ellipse class="st4" cx="241.1" cy="206.3" rx="8.5" ry="13.9"/>
		<ellipse class="st15" cx="173.5" cy="207.2" rx="4.5" ry="6.2"/>
		<ellipse class="st15" cx="241.5" cy="206.2" rx="4.5" ry="6.2"/>
		<ellipse class="st14" cx="244" cy="198.6" rx="4" ry="3.7"/>
		<ellipse class="st14" cx="176.5" cy="199.6" rx="4" ry="3.7"/>
	</g>
	<path id="nose" class="st11" d="M199.3,250.4c0,0,3.6,2.2,7.5,2.2s8.4-2.2,8.4-2.2s17.8,9.3,18.1,1.1c0,0,3,9.1-1.8,12.3
		c0,0-14-3.1-16.9,0.4s-2.2,11.8-7.9,11.8s-2-9.1-6.2-11.9s-16.9-0.6-16.9-0.6s-5.1-6.2-0.8-11.1
		C182.9,252.3,180.7,259.5,199.3,250.4L199.3,250.4z"/>
	<path class="st11" d="M247.8,161.1c-1,0.3-1.9,0.6-2.8,0.9c-0.5,0.3-1,0.5-1.4,0.8c-0.1,0.1-0.1,0.2-0.2,0.3
		c0.6,0.9,1.2,1.7,1.9,2.5c1.6-1.2,3.2-2.3,5-3.2c2.1-1.1,4.8-2.2,7.5-2.8c-0.4-0.1-0.7-0.2-1.1-0.2
		C253.7,159.8,250.7,160.3,247.8,161.1L247.8,161.1z"/>
</g>
<g id="mouth">
	<path class="st14" d="M241,301c0,0-0.1,5.7-9.8,7.8c-9.7,2.2-21.5,5.2-39,0.7c0,0-6.3-2.2-7.4-3.2c-1.1-1-4.4-9.2-4.4-10.7
		c0-1.4-0.8-4.1,3.6-6.3c4.3-2.2,24.4-4.8,24.4-4.8l31.4-1.2l8.6-0.1C248.4,283.4,242.5,296.7,241,301L241,301z"/>
	<path class="st16" d="M165.8,292.9c0,0,10.8,4.7,13.9,7.6c3.1,3,5.1,5.8,5.1,5.8s-4.2-8.7-2.6-14.2
		C182.2,292.1,180.2,294.5,165.8,292.9L165.8,292.9z M246.3,283.9c0,0-3.7,10-4.8,15.4c0,0,8.4-13.4,13.3-16.9L246.3,283.9z"/>
	<path class="st16" d="M198,298.4c0,0-7.2-0.4-8.2-0.8c0,0-4.5,1.6-8.7-1l1.2,4.7c0,0,2-2.2,5.8-1.8
		C188,299.5,189.6,298.5,198,298.4L198,298.4z M244.8,291.4c0,0-5,3.4-14.6,3.8l-2.6,1.2l-5.8,0.1c0,0,1.6,1.3,5.9,1.6
		c0,0,3.7-3,8.9-0.7c0,0,2.4-0.8,5.5,0.5L244.8,291.4L244.8,291.4z M182.3,292.9c0,0,9-5.6,23.6-3.1c0,0,10.1-3.7,25.4-3.6
		c15.2,0.1,23.2-2.3,25-4.6c0,0,5.7,0,9-1.2c0,0-3.4,1.4-10.5-1.3c0,0-1.1,1.2-4.8,1.8c-5.1,0.9-13.2-1.8-34.4-4.8
		c0,0-5.6,1.3-10.2,5.7c0,0-4.9-2.3-9.6-2.3c-4.8,0-17.2,13.4-17.2,13.4s-12.1,0.5-16.1-1.5c0,0,11.9,5.8,15.4,3.8
		S180.8,293.9,182.3,292.9L182.3,292.9z"/>
	<ellipse class="st11" cx="210.5" cy="320.7" rx="11.3" ry="2"/>
</g>
<g id="arms-fill">
	<g>
		<path id="XMLID_2_" class="st12" d="M29,570c0,0,40.7-7.5,61.1,18.2c0,0-5.1,21.2-11.2,32.7c0,0,19.1-8.8,37.1-23.9
			s35.2-30.2,35.2-30.2s2.4-1.5,3.5-5.5s4.5-20,5.3-27.6s4.7-28.5,6.3-31.6l6.6-5.1c0,0,15.8-12.7,21.7-14.2
			c5.4-2,11.3-3.6,11.3-3.6s5.5,6,4,18.4c0,0,5.7,2.2,3.3,16.9c0,0,4.6,0.5,3.8,3.7c0,0-2.2,15.4-4.7,17.9c0,0-0.1,10.1-6.1,20.5
			c0,0-7.1,6.1-11.6,1.4l-0.2-0.5l-1.8,24.6c0,0,0,2.5-4,4.2s-7.9,3.2-20.5,5.5h-0.4c0,0-26,28.9-36.7,45.6S104.7,676,104.7,676
			s-20.1,28.2-26.6,34.5c-7.1,7.4-21.4,23.2-49.1,30.8c0,0-13.3,3.2-15.8,3.1l-4.5-2.8c0,0-4-1.6-3.6-6.8c0.4-5.1,0-4.5,0-4.5
			s0.5-7.2,1-9.2c0.4-2-1.3-7.4-1.3-7.4s-3.6-11.5-4.2-19.9s0.1-20.4,0.1-20.4S5.3,644,8.3,637C10.9,628,27,575.9,29,570z"/>
	</g>
	<g>
		<defs>
			<path id="SVGID_10_" d="M29,570c0,0,40.7-7.5,61.1,18.2c0,0-5.1,21.2-11.2,32.7c0,0,19.1-8.8,37.1-23.9s35.2-30.2,35.2-30.2
				s2.4-1.5,3.5-5.5s4.5-20,5.3-27.6s4.7-28.5,6.3-31.6l6.6-5.1c0,0,15.8-12.7,21.7-14.2c5.4-2,11.3-3.6,11.3-3.6s5.5,6,4,18.4
				c0,0,5.7,2.2,3.3,16.9c0,0,4.6,0.5,3.8,3.7c0,0-2.2,15.4-4.7,17.9c0,0-0.1,10.1-6.1,20.5c0,0-7.1,6.1-11.6,1.4l-0.2-0.5
				l-1.8,24.6c0,0,0,2.5-4,4.2s-7.9,3.2-20.5,5.5h-0.4c0,0-26,28.9-36.7,45.6S104.7,676,104.7,676s-20.1,28.2-26.6,34.5
				c-7.1,7.4-21.4,23.2-49.1,30.8c0,0-13.3,3.2-15.8,3.1l-4.5-2.8c0,0-4-1.6-3.6-6.8c0.4-5.1,0-4.5,0-4.5s0.5-7.2,1-9.2
				c0.4-2-1.3-7.4-1.3-7.4s-3.6-11.5-4.2-19.9s0.1-20.4,0.1-20.4S5.3,644,8.3,637C10.9,628,27,575.9,29,570z"/>
		</defs>
		<clipPath id="SVGID_11_">
			<use xlink:href="#SVGID_10_"  style="overflow:visible;"/>
		</clipPath>
		<path class="st17" d="M78.8,620c1.3-0.7,2.6-1.5,3.9-2.2c0.3-0.5,0.6-0.9,0.9-1.3c1-1.4,1.9-2.4,3.2-3.1c-0.1-0.5,0-1,0.3-1.5
			c5.1-8.9,8.7-17.4,11-27.4c0.4-1.5,0.7-3.1,1.1-4.6c-5.1-2.9-9.7-7-14.5-10.2c-3-2-6-3.9-9.2-5.4c-0.3-0.1-0.6-0.3-0.9-0.4
			c-0.3,3.7-1.5,7.5-2.2,11.1c-1,5-1.9,10-3.1,15c-2.2,8.4-5.9,16-10.8,23.1c-4.8,6.9-10.4,13.1-15.3,20c-0.6,0.8-1.1,1.6-1.6,2.4
			c3.1-2.1,6.6-3.6,10.2-4.9c0.4-0.5,1-0.7,1.6-0.9c0.7-0.2,1.4-0.5,2.1-0.7c0.2-0.1,0.4-0.1,0.6,0c2.2-1.1,4.9-1.7,7.1-2.4
			c1.7-0.6,3.7-1.3,5.7-1.7c0.1-0.1,0.2-0.2,0.4-0.2c0.9-0.4,1.6-0.4,2.5-0.5c1.4-0.6,2.8-1.1,4.2-1.5c0.3-0.1,0.5-0.2,0.8-0.4
			c0.4-0.2,0.9-0.5,1.3-0.7C77.9,621,78.1,620.4,78.8,620L78.8,620z M216.2,528.6v-0.3c-0.3,0.1-0.7-0.1-0.7-0.5
			c-0.9-12.2-15.2,0.1-21.2,4.1c2.6-0.2,5.3-0.2,7.8-0.3c3-0.1,6.2,0.3,8.4,2.4c1.6,1.6,2.6,5.7,2.3,9.3
			C214.9,538.8,215.6,533.5,216.2,528.6z M204.2,507.2c-3.9,2.2-5.9,5.3-7.8,8.7c3.4-2.7,11.3-2.5,14.7-2c1.7,0.3,3.9,1.3,5.3,2.7
			c-0.2-1.9-0.5-3.7-1-5.5c-0.4-1.4-1-3.1-1.6-4.9c-0.6-0.6-1.4-1-2.5-1.1C209,504.8,206.2,506.1,204.2,507.2L204.2,507.2z"/>
	</g>
	<g>
		<defs>
			<path id="SVGID_12_" d="M29,570c0,0,40.7-7.5,61.1,18.2c0,0-5.1,21.2-11.2,32.7c0,0,19.1-8.8,37.1-23.9s35.2-30.2,35.2-30.2
				s2.4-1.5,3.5-5.5s4.5-20,5.3-27.6s4.7-28.5,6.3-31.6l6.6-5.1c0,0,15.8-12.7,21.7-14.2c5.4-2,11.3-3.6,11.3-3.6s5.5,6,4,18.4
				c0,0,5.7,2.2,3.3,16.9c0,0,4.6,0.5,3.8,3.7c0,0-2.2,15.4-4.7,17.9c0,0-0.1,10.1-6.1,20.5c0,0-7.1,6.1-11.6,1.4l-0.2-0.5
				l-1.8,24.6c0,0,0,2.5-4,4.2s-7.9,3.2-20.5,5.5h-0.4c0,0-26,28.9-36.7,45.6S104.7,676,104.7,676s-20.1,28.2-26.6,34.5
				c-7.1,7.4-21.4,23.2-49.1,30.8c0,0-13.3,3.2-15.8,3.1l-4.5-2.8c0,0-4-1.6-3.6-6.8c0.4-5.1,0-4.5,0-4.5s0.5-7.2,1-9.2
				c0.4-2-1.3-7.4-1.3-7.4s-3.6-11.5-4.2-19.9s0.1-20.4,0.1-20.4S5.3,644,8.3,637C10.9,628,27,575.9,29,570z"/>
		</defs>
		<clipPath id="SVGID_13_">
			<use xlink:href="#SVGID_12_"  style="overflow:visible;"/>
		</clipPath>
		<path class="st18" d="M213,475c0.4,1.5,0.6,3,0.8,4.4c0.4,3,0.9,6.2,0.6,9.3c1.5,4,1.7,8.7,3,12.8c1.6,4.9,3.4,9.7,4.1,14.8
			c1.2,9.9,0,23.1-5.2,31.8c-0.2,0.3-0.4,0.5-0.6,0.7c-0.4,3.1-2.3,6.1-4,8.5c-2.7,3.8-5.9,8.7-9.5,11.6c-0.6,0.5-1.6,0.5-2.2,0.1
			c-0.5,8.3,1.6,17.4-5.6,23.2c-1.3,1-2.8,1.9-4.3,2.5h39.2V475H213z"/>
	</g>
	<g>
		<defs>
			<path id="SVGID_14_" d="M29,570c0,0,40.7-7.5,61.1,18.2c0,0-5.1,21.2-11.2,32.7c0,0,19.1-8.8,37.1-23.9s35.2-30.2,35.2-30.2
				s2.4-1.5,3.5-5.5s4.5-20,5.3-27.6s4.7-28.5,6.3-31.6l6.6-5.1c0,0,15.8-12.7,21.7-14.2c5.4-2,11.3-3.6,11.3-3.6s5.5,6,4,18.4
				c0,0,5.7,2.2,3.3,16.9c0,0,4.6,0.5,3.8,3.7c0,0-2.2,15.4-4.7,17.9c0,0-0.1,10.1-6.1,20.5c0,0-7.1,6.1-11.6,1.4l-0.2-0.5
				l-1.8,24.6c0,0,0,2.5-4,4.2s-7.9,3.2-20.5,5.5h-0.4c0,0-26,28.9-36.7,45.6S104.7,676,104.7,676s-20.1,28.2-26.6,34.5
				c-7.1,7.4-21.4,23.2-49.1,30.8c0,0-13.3,3.2-15.8,3.1l-4.5-2.8c0,0-4-1.6-3.6-6.8c0.4-5.1,0-4.5,0-4.5s0.5-7.2,1-9.2
				c0.4-2-1.3-7.4-1.3-7.4s-3.6-11.5-4.2-19.9s0.1-20.4,0.1-20.4S5.3,644,8.3,637C10.9,628,27,575.9,29,570z"/>
		</defs>
		<clipPath id="SVGID_15_">
			<use xlink:href="#SVGID_14_"  style="overflow:visible;"/>
		</clipPath>
		<path class="st19" d="M203.1,496.8c1.2-0.1,5.4-0.2,8.1,0.8c-0.4-2-0.6-4-0.4-5.8c-1.4-2.2-3.6-3.4-7-1.8c-2.5,1.1-4.7,3-6.7,4.8
			c-1.1,1-2.1,2.1-3,3.2c2-0.4,4-0.6,5.5-0.7C201.1,497,202.4,496.9,203.1,496.8L203.1,496.8z M196.1,562.8
			c-0.3-0.8,0.1-1.9,0.8-2.4c1.8-1.4,4.3-1,5.8-3.1c1.1-1.5,1.2-3.7,1.3-5.5c0.1-1.9-0.1-4.4,0.3-6.6c-2.1,1.2-4.2,2-5.3,2.5
			c-2.7,1-6.8,2.1-10,1.4c1.9,10.3,4,21.8-2.6,30.6c-4.2,5.6-11,10.2-18.2,12.1c0.1,0.4,0.2,0.8,0.3,1.3c7.8-1.5,17,0.5,23.2-5.2
			C198,581.9,192.8,570.6,196.1,562.8z"/>
	</g>
	<g>
		<g>
			<path id="XMLID_4_" class="st12" d="M333.2,609c0,0-1.7-25,21.7-37.3S390,564,390,564s8.7,15.3,8.5,21.4c0,0,6.3-4.1,11.4-11.5
				s14-21.5,14-21.5s31.3-52.2,32.2-59.3c0,0-2.8-6.4-17.4-19c0,0-2.1-4-3.1-11.6s-2.1-11.5-2.1-11.5s0.5-6,1.2-8.3
				s0.9-11.6-7.2-31.3c0,0-3-7.1-4.4-8.9s0.3-3.1,1.8-3c1.5,0.2,11.4,1.5,19.1,13.7c0,0,4.4,5.9,4.8,9.9c0.5,4,0.7,7,0.8,7.7
				s0.7,5.3,4.3,7.7c0,0,10.1-7.9,13.4-18c3.3-10,7.8-37.7,8.4-48.2s2.4-23.5,8.1-23.6s5.2,9.2,5.2,9.2s-0.8,24.2-2.3,33.2
				s-2.6,20.7-2.4,24.8c0.2,4.2,0.1,6.7,3.1,7.6s5.7-2.9,5.7-2.9s6.1-7.1,15.2-41.1s8.3-30.6,8.3-30.6s2.6-7.2,7.4-6.3
				c4.8,0.9,4.6,3.1,4.3,6.2c-0.3,3.2-3.6,14.5-3.6,14.5L511,412.8c0,0-3.6,11.8,0.8,14.3c4.4,2.4,9.4-6.4,9.4-6.4
				s17.1-33.4,20.3-44.3s9.2-15.6,12-14.9s4.9,4.2,2.9,8.6s-17.6,38.5-17.6,38.5l-7.9,17.4c0,0-2,6.2,1.1,8.3
				c1.4,1.1,2.7-0.8,2.7-0.8s23.3-22,28.1-24.7s5.9-2.4,7.2-0.6s0.9,3.7-1.5,6.6s-17.7,15.6-17.7,15.6S541,439,537.5,448
				s-3.3,12.5-12.6,28c-9.4,15.5-11,17.3-18.9,23.7c-7.8,6.3-14.7,7.6-14.7,7.6l-38,85.2c0,0-24.8,57.1-27.1,61.5
				S416,672.4,408,681.4s-17.3,18-18.8,19s-6.2,4.9-12.6,4.6c-6.4-1.6-8-11.8-8.5-14C361.1,662,343.8,636.1,333.2,609z"/>
		</g>
		<g>
			<defs>
				<path id="SVGID_16_" d="M333.2,609c0,0-1.7-25,21.7-37.3S390,564,390,564s8.7,15.3,8.5,21.4c0,0,6.3-4.1,11.4-11.5
					s14-21.5,14-21.5s31.3-52.2,32.2-59.3c0,0-2.8-6.4-17.4-19c0,0-2.1-4-3.1-11.6s-2.1-11.5-2.1-11.5s0.5-6,1.2-8.3
					s0.9-11.6-7.2-31.3c0,0-3-7.1-4.4-8.9s0.3-3.1,1.8-3c1.5,0.2,11.4,1.5,19.1,13.7c0,0,4.4,5.9,4.8,9.9c0.5,4,0.7,7,0.8,7.7
					s0.7,5.3,4.3,7.7c0,0,10.1-7.9,13.4-18c3.3-10,7.8-37.7,8.4-48.2s2.4-23.5,8.1-23.6s5.2,9.2,5.2,9.2s-0.8,24.2-2.3,33.2
					s-2.6,20.7-2.4,24.8c0.2,4.2,0.1,6.7,3.1,7.6s5.7-2.9,5.7-2.9s6.1-7.1,15.2-41.1s8.3-30.6,8.3-30.6s2.6-7.2,7.4-6.3
					c4.8,0.9,4.6,3.1,4.3,6.2c-0.3,3.2-3.6,14.5-3.6,14.5L511,412.8c0,0-3.6,11.8,0.8,14.3c4.4,2.4,9.4-6.4,9.4-6.4
					s17.1-33.4,20.3-44.3s9.2-15.6,12-14.9s4.9,4.2,2.9,8.6s-17.6,38.5-17.6,38.5l-7.9,17.4c0,0-2,6.2,1.1,8.3
					c1.4,1.1,2.7-0.8,2.7-0.8s23.3-22,28.1-24.7s5.9-2.4,7.2-0.6s0.9,3.7-1.5,6.6s-17.7,15.6-17.7,15.6S541,439,537.5,448
					s-3.3,12.5-12.6,28c-9.4,15.5-11,17.3-18.9,23.7c-7.8,6.3-14.7,7.6-14.7,7.6l-38,85.2c0,0-24.8,57.1-27.1,61.5
					S416,672.4,408,681.4s-17.3,18-18.8,19s-6.2,4.9-12.6,4.6c-6.4-1.6-8-11.8-8.5-14C361.1,662,343.8,636.1,333.2,609z"/>
			</defs>
			<clipPath id="SVGID_17_">
				<use xlink:href="#SVGID_16_"  style="overflow:visible;"/>
			</clipPath>
			<path class="st20" d="M398.5,573.2c-1.2-6.3-4.2-11.8-7-17.4c-1.6,2.3-4.5,1.7-7.2,2c-4.7,0.4-8.8,3.1-13,4.9
				c-3.7,1.6-7.5,2.8-11.2,4.2c-1.6,0.6-3.1,1.4-4.5,2.3v1.3c1.8-0.7,3.8-0.8,5.5-0.5c4.8,1,8.3,5.2,10.8,9.1
				c2.9,4.6,5.2,10,6.4,15.4c0.4,1.8,0.8,3.9,1.1,6.1c1.1-0.9,2.2-1.7,3.4-2.5c3.1-3,7-5.7,10.1-7.9c1.5-1.1,4.1-3.2,6.7-4.4
				c0.5-0.5,1-1,1.4-1.5C399.3,580.7,398.9,575.5,398.5,573.2L398.5,573.2z M432,412.9c-1.3-2.7-3.1-5.1-5-7.4c-1.2-1.4-3-2.5-4.1-4
				c-0.5-0.7-0.8-1.4-0.9-2.1h-1.7c2.2,4.5,3.5,9.6,5.2,14.3c1.8,5.1,4.4,9.8,5.5,15.2c0.9,4.6,2.2,11.8,1.1,17.7h0.7
				c2.3-5.1,4-10,3.8-16C436.4,424.5,434.6,418.4,432,412.9z M457.1,431.2c-0.5-1.5-1.3-2.8-2-4.2c-0.2-0.3-0.3-0.7-0.4-1
				c-0.6,0.3-1.3,0.3-2,0c-2.2-1-5-3.7-7.5-0.4c-0.7,0.9-0.8,2.6-0.8,3.6c0,2.6,1.2,4.9,3.1,6.7c1.4,1.4,3.1,2.4,4.8,3.2
				c0.8-0.7,1.5-1.4,2.1-2.2c1.2-1.7,1.9-3.6,3-5.3C457.2,431.5,457.2,431.3,457.1,431.2L457.1,431.2z M468.2,568.2
				c8.2-14.8,14.3-31.6,24.7-45.1c9.1-11.9,22.5-19.7,31.4-31.7c4.9-6.6,7-14.3,10.1-21.7c2.6-6.3,5.7-14.6,10.9-19.3h-7.1
				c-1.1,2.9-3.1,5.8-3.9,7.2c-3.6,6-7.6,11.9-12.1,17.3c-6.8,8.3-14.9,15.9-24,21.6c-4.3,2.7-9.7,5.1-15,5.2
				c-0.7,5.6-2.3,11.3-3.6,16.7c-1.8,7.3-3.9,14.6-6.2,21.7c-4.7,14.7-10.1,29.2-15.1,43.7c-0.3,0.7-0.5,1.4-0.7,2.2
				C462.1,580.8,465,574.1,468.2,568.2L468.2,568.2z M487,420.9c-2-2.6-1.4-6-0.9-9c0.8-4.7,1.6-9.3,2.3-14
				c1.8-10.7,2.9-21.3,3.6-32.1c0.3-4.8,0.3-9.1-1.5-13.7c-0.4-1.1-0.8-2.1-1.2-3.2h-5.9c1.2,1.1,2,2.8,2.2,5
				c0.4,3.5-0.3,7.2-0.5,10.7c-0.3,5-0.6,10-1.2,15c-1.1,10.1-2.3,20.1-2.6,30.3c-0.1,3.5-0.3,7.5,1.4,10.7c1.3,2.5,4.7,4.5,7.5,2.9
				c0.2-0.1,0.4-0.3,0.7-0.4C489.4,422.8,488,422.2,487,420.9L487,420.9z M515.9,407.3c2.3-7.7,3.2-15.5,4.8-23.4
				c1.5-7.8,3.5-15.6,5.3-23.3c0.9-3.9,3-7.8,3.7-11.7c0.5-2.7-0.9-7.4-3.7-8.8h-1c0.8,1.3,1.5,2.6,1.7,3.5c1.9,8.1-3.5,17.3-5.5,25
				c-2.7,10.2-6.3,20.3-8.3,30.7c-1,5.1-2.1,10.1-3.3,15.1c-0.8,3.1-1.9,6.7-0.3,9.7c0.7,1.4,1.7,2.2,2.8,2.5
				C512.9,420.1,514.1,413.6,515.9,407.3L515.9,407.3z M532.6,428c4.2-7.9,8.7-15.6,12.6-23.8c4.1-8.7,8.2-17.6,11.8-26.4
				c1.4-3.3,2.8-7.1,2.4-10.8c-0.4-3.3-2.1-5.1-4.2-7c0.4,3.4-0.6,7.4-2,11c-1,2.9-2.2,5.6-3,7.5c-0.9,2.3-1.9,4.6-2.9,6.8
				c-0.8,2.1-1.7,4.1-2.5,6.2c-0.7,1.8-1.4,3.7-2.3,5.4c-2.2,6.1-4.5,12-7.5,17.8c-2.8,5.4-7.1,13.1-4.4,18.6
				C531,431.4,531.7,429.6,532.6,428L532.6,428z M537.2,450.3c1.1-1.7,2.3-3.3,3.5-4.8c3.6-4.5,7.6-9.5,12.2-13
				c5.1-4,11.1-7.9,14.7-13.5c0.9-1.3,1.5-2.7,2.1-4.1c-0.1,0.1-0.2,0.3-0.2,0.4c-2,3.6-4.8,6.6-8.4,8.5c-0.5,0.2-0.9,0.1-1.2-0.1
				c-1.2,1.1-2.5,1.9-3.9,2.1h-0.2c-3.5,3.2-7.7,6.1-11,8.8c-3.2,2.7-6.1,5.7-8.9,8.8c0.3,0.8,0.5,1.7,0.7,2.4
				C536.8,447.1,537.1,448.7,537.2,450.3L537.2,450.3z"/>
		</g>
	</g>
</g>
<g id="arms">
	<g id="arm">
		<path class="st21" d="M456.1,493.1c-10.3,21.3-21.8,41.8-34.3,61.9c-6,9.7-11.8,20.1-20.4,27.7c-7.4,6.6-16.6,10.9-22.9,18.9
			c-0.3,0.3,0.2,0.8,0.5,0.5c6.3-7.9,15.5-12.2,22.9-18.9c8.2-7.3,13.7-17.1,19.5-26.3c12.8-20.5,25.2-41.6,35-63.7
			C456.4,493.1,456.2,492.9,456.1,493.1L456.1,493.1z"/>
		<path class="st21" d="M456.5,493.2c-3.2-5.1-7.1-9.8-11.6-13.9c-1.1-1-2.3-2-3.4-2.9s-2.2-1.9-3-3.1c-0.9-1.3-1.2-2.8-1.4-4.3
			c-0.3-1.7-0.6-3.4-0.9-5.2c-0.6-3.4-1.2-6.9-1.8-10.3c-0.3-1.7-0.6-3.4-0.4-5.1c0.2-1.6,0.6-3.2,0.9-4.8
			c0.9-6.5-0.5-13.1-2.4-19.4c-1.9-6.2-4.1-12.3-7-18c-0.4-0.7-0.7-1.4-1.1-2.2l-1.2-2.1c-0.8-1.7,0.9-2.3,2.3-2.2
			c1.3,0.1,2.7,0.5,3.9,1c1.3,0.5,2.5,1.1,3.6,1.7c4.7,2.8,8.4,7,11.4,11.6c1.6,2.5,3.2,5.2,4,8.2c0.8,2.9,0.6,5.9,1,8.9
			c0.4,2.8,1.5,5.1,3.7,6.9c2.1,1.8,4.5,3,6.8,4.4c5.2,3.2,9.9,7,14,11.4c1,1.1,2,2.2,2.9,3.4c0.2,0.2,0.6-0.1,0.4-0.4
			c-3.9-4.8-8.4-9-13.5-12.6c-2.4-1.7-5-3.1-7.5-4.7c-2.5-1.5-4.8-3.4-5.8-6.3s-0.7-6-1.1-8.9c-0.4-3.1-1.8-6-3.4-8.6
			c-2.8-4.7-6.2-9.1-10.7-12.4c-2.1-1.6-4.5-2.8-7-3.6c-1.5-0.5-4.9-1.5-5.8,0.6c-0.2,0.5-0.1,1.1,0.1,1.6c0.4,0.8,0.9,1.5,1.3,2.3
			c0.8,1.4,1.5,2.9,2.2,4.3c1.4,3.1,2.7,6.2,3.8,9.4c2.3,6.5,4.5,13.2,4.7,20.1c0.1,1.6,0,3.3-0.2,4.9c-0.2,1.7-0.7,3.4-0.9,5.1
			c-0.2,1.6,0,3.2,0.3,4.8c0.3,1.8,0.6,3.5,0.9,5.3c0.6,3.5,1.2,7,1.9,10.6c0.3,1.5,0.5,3,1.3,4.4c0.7,1.2,1.7,2.2,2.7,3.1
			c2.3,2,4.7,4,6.9,6.2c2.2,2.3,4.2,4.7,6.1,7.2c0.9,1.2,1.7,2.5,2.5,3.8C456.3,493.7,456.7,493.4,456.5,493.2L456.5,493.2z"/>
		<path class="st21" d="M491.9,421.7c-2.1,1.4-5.8,2.7-6.9-0.5c-0.5-1.4-0.5-3-0.5-4.4c0-1.7,0-3.3,0.1-5c0.4-6.6,1.3-13.1,2.1-19.7
			c0.8-6.5,1.5-13,2-19.5c0.2-3.3,0.4-6.6,0.4-9.8v-4.9c0-1.5,0-2.9-0.3-4.4c-0.5-2.4-2.1-4.8-4.7-5.1c-2.4-0.3-4.2,1.6-5.1,3.6
			c-1.1,2.5-1.7,5.3-2.2,8c-0.5,2.9-0.9,5.8-1.1,8.7c-0.3,3-0.5,6-0.7,9.1c-0.3,3.1-0.7,6.2-1.1,9.3c-0.9,6.5-1.9,13-3.3,19.5
			c-1.2,5.8-2.4,11.8-5,17.1c-2.2,4.5-5.3,8.4-9,11.9c-0.9,0.9-1.9,1.8-2.9,2.6c-0.2,0.2,0.1,0.6,0.4,0.4c3.8-3.3,7.3-6.9,10-11.1
			c1.3-2,2.4-4.2,3.2-6.5c1-2.7,1.7-5.6,2.4-8.4c1.5-6.5,2.7-13,3.7-19.5c0.9-6.1,1.7-12.1,2.2-18.3c0.5-6,0.9-12.2,2.4-18.1
			c0.6-2.4,1.3-5.6,3.4-7.1c1.2-0.9,2.7-0.9,4-0.2c1.3,0.7,2.1,1.9,2.6,3.3c0.5,1.5,0.5,3,0.6,4.5c0,1.6,0.1,3.3,0,4.9
			c0,3.2-0.2,6.5-0.4,9.7c-0.4,6.6-1.2,13.1-2,19.6s-1.7,13-2.2,19.6c-0.1,1.7-0.2,3.3-0.2,5c0,1.4,0,2.9,0.2,4.3
			c0.2,1.1,0.7,2.2,1.6,2.9c0.9,0.6,2,0.7,3.1,0.5c1.2-0.2,2.3-0.8,3.3-1.5C492.4,422,492.2,421.6,491.9,421.7z"/>
		<path class="st21" d="M516.1,426.4c-1.4,0.5-3.2,1.1-4.6,0.2c-1.1-0.7-1.5-2.2-1.6-3.5c-0.3-3.4,0.5-6.9,1.3-10.1
			c1.5-5.7,3.2-11.4,4.7-17.1c2-7.3,3.8-14.6,5.9-21.9c2-7.1,4.4-14.2,6-21.4c0.6-2.7,1.8-6.4-0.4-8.7c-1.6-1.7-4.3-1.9-6.3-1.1
			c-2.6,1.1-4.1,3.8-5,6.3c-1.2,3.5-2.1,7.1-3,10.6c-1.9,7.2-3.7,14.5-5.7,21.7c-1,3.4-2,6.7-3.1,10.1l-2.7,9c-1.9,6-4,12-7.2,17.4
			c-0.8,1.3-1.6,2.6-2.6,3.8c-0.2,0.3,0.2,0.5,0.4,0.3c3.8-5,6.3-10.7,8.3-16.6c2.1-5.9,3.8-12,5.6-18c2.2-7.1,4-14.2,5.9-21.4
			c0.9-3.6,1.9-7.2,2.9-10.8l1.5-5.4c0.4-1.5,1-2.9,2-4.1c1.6-2.2,4.4-3.6,7.1-2.5c3.6,1.4,2.5,5.7,1.9,8.6
			c-1.5,7.2-3.9,14.1-5.9,21.2c-2.1,7.3-3.9,14.6-5.9,21.9c-1.6,5.9-3.3,11.7-4.8,17.6c-0.8,3.2-1.6,6.6-1.5,9.9
			c0,1.3,0.2,2.8,1,3.9c0.8,1,2,1.4,3.3,1.3c0.9-0.1,1.7-0.3,2.6-0.7C516.5,426.8,516.4,426.3,516.1,426.4L516.1,426.4z"/>
		<path class="st21" d="M534.3,433.7c-0.3,0.7-1.1,1-1.8,0.8s-1.2-0.9-1.5-1.6c-0.6-1.2-0.7-2.6-0.5-4c0.3-2.8,1.6-5.3,2.8-7.8
			c1.3-2.7,2.5-5.5,3.7-8.2c1.4-3.1,2.7-6.1,4.1-9.2c2.7-6,5.4-12,8.2-18l4.2-9l2.1-4.5c0.6-1.3,1.2-2.6,1.6-4
			c0.5-2.1,0.2-4.6-1.6-6c-1.1-0.8-2.7-0.9-4-0.5c-3,0.9-5,4-6.4,6.6c-1.7,3-3,6.2-4.2,9.5c-1.8,4.8-3.7,9.5-5.7,14.2
			c-2.5,5.8-5.3,11.6-8,17.3c-2.4,5-4.7,10-8.2,14.3c-0.9,1-1.8,2-2.8,2.9c-0.1,0.1,0.1,0.3,0.2,0.2c4.1-3.7,6.8-8.5,9.2-13.4
			c2.7-5.5,5.3-11.1,7.9-16.7c2.5-5.6,4.9-11.2,7.1-16.9c1.1-3,2.2-6,3.6-8.9c1.5-3,3.3-6.4,6.2-8.2c1.2-0.8,2.7-1.1,4.1-0.7
			c2.9,0.9,3.2,4.4,2.4,6.8c-0.5,1.5-1.2,3-1.9,4.4l-2.1,4.5c-1.4,3-2.8,6.1-4.2,9.1c-2.8,6-5.5,12.1-8.2,18.1
			c-2.6,5.7-5,11.5-7.7,17.1c-1.1,2.3-2.2,4.7-2.4,7.2c-0.1,1.7,0.3,5.1,2.5,5.4c0.8,0.1,1.5-0.2,1.8-1
			C534.6,433.6,534.3,433.6,534.3,433.7L534.3,433.7z"/>
		<path class="st21" d="M534.7,433.9c5.2-5.4,10.7-10.4,16.3-15.3l8.7-7.2c1.4-1.1,2.7-2.3,4.2-3.2c1.4-0.9,3.3-1.7,4.9-0.7
			c1.4,0.8,1.8,2.7,1.4,4.2c-0.4,1.6-1.6,2.9-2.8,4.1c-2.1,2.1-4.3,4-6.5,5.9c-4.4,3.8-9,7.4-13.1,11.5c-4.6,4.5-8.5,9.7-10.8,15.8
			c-0.1,0.2,0.2,0.2,0.2,0.1c4.3-11.8,14.8-19.4,24-27.2c2.3-1.9,4.5-3.9,6.6-6.1c1.8-1.9,3.8-4.8,2.1-7.4c-1.9-2.8-5.5-0.8-7.5,0.7
			c-3,2.3-5.8,4.7-8.7,7.1c-6.7,5.6-13.2,11.4-19.2,17.7C534.4,433.8,534.6,434,534.7,433.9L534.7,433.9z"/>
		<path class="st21" d="M537,448.7c-2.7,10.2-7.8,19.5-13.1,28.6c-2.7,4.5-5.2,9.1-8.5,13.2c-2.9,3.6-6.3,6.8-10,9.5
			c-4.2,3.1-8.9,5.5-13.8,7.2c-0.3,0.1-0.2,0.6,0.1,0.5c8.8-3,16.8-8.4,22.9-15.4c3.4-3.9,6-8.3,8.6-12.7c2.7-4.6,5.4-9.2,7.8-14
			c2.7-5.3,5-10.9,6.5-16.7C537.5,448.5,537,448.3,537,448.7z"/>
		<path class="st21" d="M491.4,507.2c-6.6,13.4-12.8,27-18.8,40.6c-6.3,14.3-12.5,28.6-18.6,42.9c-6.1,14.2-12.2,28.5-18.5,42.7
			s-12.3,28.7-21.9,41c-4.7,6-10,11.6-15.3,17c-4.4,4.5-8.8,9.8-14.9,12.2c-1.5,0.6-3,1-4.5,1.2c-0.3,0.1-0.2,0.5,0.1,0.5
			c2.9-0.5,5.7-1.5,8.2-3.1s4.6-3.6,6.7-5.7c5.4-5.4,10.8-10.9,15.8-16.7s9.4-11.9,13.1-18.6c3.9-6.9,7.1-14.2,10.3-21.4
			c6.3-14.2,12.5-28.5,18.6-42.7c6.2-14.5,12.4-28.9,18.8-43.4c6.1-13.9,12.4-27.7,19-41.4c0.8-1.6,1.6-3.2,2.4-4.9
			C491.9,507.1,491.5,506.9,491.4,507.2L491.4,507.2z"/>
		<path class="st21" d="M332.9,609.1c2.6,6.7,5.5,13.2,8.6,19.7s6.3,12.9,9.5,19.3c3.2,6.5,6.3,13.1,9.1,19.8
			c2.8,6.7,5.3,13.6,7.2,20.6c0.5,1.8,1,3.6,1.4,5.4c0.4,1.7,0.8,3.5,1.5,5.2c1.2,2.8,3.4,5.5,6.6,6.1c0.7,0.1,1.4,0.1,2.1,0
			c0.3,0,0.2-0.5-0.1-0.5c-3.5,0.5-6.4-2.3-7.8-5.3c-0.8-1.7-1.3-3.5-1.7-5.3c-0.4-1.7-0.8-3.5-1.3-5.2c-1.9-6.9-4.3-13.7-7-20.3
			c-5.3-12.9-11.8-25.3-17.9-37.9c-3.5-7.2-6.8-14.5-9.7-21.9C333.3,608.7,332.8,608.8,332.9,609.1L332.9,609.1z M389.9,564.2
			c3.1,6.9,7.5,13.6,8.3,21.3c0,0.4,0.6,0.4,0.6,0c-1-7.7-4.9-14.7-8.6-21.5C390,563.9,389.8,564,389.9,564.2z"/>
	</g>
	<g id="arm2">
		<path class="st21" d="M89.6,588c-1.9,8.8-4.3,17.4-7.9,25.7c-1,2.4-2.2,4.8-3.4,7.2c-0.1,0.3,0.3,0.5,0.4,0.3
			c4-8.1,7.2-16.5,9.4-25.2c0.7-2.6,1.3-5.2,1.8-7.9C90.1,587.8,89.6,587.7,89.6,588z"/>
		<path class="st21" d="M152,565.9c-6.9,6-13.7,12.1-20.6,18.1c-6.9,6-14,11.9-21.3,17.4c-7.4,5.5-15,10.7-23.1,15.2
			c-4.1,2.3-8.4,4.4-12.8,6.1c-3.9,1.5-7.9,2.7-11.9,3.8c-7.5,2.1-15.2,4.4-21.4,9.2c-0.8,0.6-1.5,1.2-2.2,1.9
			c-0.2,0.2,0.1,0.6,0.4,0.4c5.9-5.6,13.7-8.2,21.3-10.4c3.9-1.1,7.8-2.2,11.6-3.5c4.4-1.6,8.6-3.5,12.7-5.7
			c8.2-4.3,15.9-9.5,23.4-14.9c7.3-5.4,14.3-11.1,21.2-17c6.9-5.9,13.7-12,20.6-18c0.8-0.7,1.7-1.5,2.5-2.2
			C152.6,566,152.3,565.6,152,565.9L152,565.9z"/>
		<path class="st21" d="M166.1,501.9c-2.6,8.3-4.1,16.8-5.4,25.4c-1.3,8.5-2.4,17.1-4.1,25.6c-0.5,2.3-1,4.6-1.6,6.9
			c-0.6,2.2-1.4,4.3-2.9,6c-0.2,0.2,0.1,0.6,0.4,0.4c2.6-2.9,3.3-7.1,4.1-10.7c1-4.3,1.7-8.6,2.4-12.9c1.4-8.7,2.4-17.4,4.1-26
			c0.9-4.8,2.1-9.6,3.5-14.4C166.7,501.7,166.2,501.6,166.1,501.9z"/>
		<path class="st21" d="M206,479c-5.5,1.6-11,3.2-16.1,5.8c-2.6,1.3-5,3-7.3,4.8c-2.6,1.9-5.1,3.8-7.6,5.7c-2.9,2.2-5.8,4.3-8.7,6.5
			c-0.3,0.2,0,0.6,0.3,0.4c5.1-3.8,10.1-7.6,15.2-11.4c2.4-1.8,4.7-3.5,7.3-5c2.5-1.4,5.2-2.5,7.9-3.5c3-1.1,6.2-2,9.3-2.9
			C206.5,479.4,206.3,478.9,206,479L206,479z"/>
		<path class="st21" d="M206,479.2c3.3,5.5,4.7,12.1,4.1,18.5c0,0.2,0.2,0.2,0.2,0c0.7-6.5-0.8-13-4.1-18.6
			C206.1,479,205.9,479.1,206,479.2z"/>
		<path class="st21" d="M213.5,514.8c0.4-2.1,0.6-4.4,0.6-6.5c0-2.2-0.2-4.4-0.8-6.5c-0.3-1-0.8-2-1.4-2.8c-0.7-0.9-1.8-1.4-2.9-1.7
			c-1.2-0.2-2.3-0.2-3.5-0.3c-1.4,0-2.8,0-4.2,0.1c-2.9,0.2-5.8,0.8-8.5,2.2c-0.3,0.1,0,0.6,0.3,0.4c2.3-1.2,4.8-1.8,7.3-2
			c2.4-0.2,4.8-0.3,7.2-0.1c1.2,0.1,2.4,0.4,3.4,1.1c0.9,0.7,1.4,1.9,1.8,3c0.7,1.9,0.8,4,0.9,6.1c0.1,2.3-0.1,4.6-0.5,6.9
			C212.9,514.9,213.4,515.1,213.5,514.8L213.5,514.8z"/>
		<path class="st21" d="M212.9,536.4c2.2-5.5,3.5-11.4,4.3-17.2c0.1-1.1,0.5-2.4-0.4-3.2c-0.7-0.7-1.8-1-2.7-1.3
			c-2.3-0.8-4.6-1.4-7-1.7c-2.6-0.3-5.3-0.1-7.6,1.1c-0.3,0.2,0,0.6,0.3,0.4c4-2.2,9.1-1,13.2,0.3c1,0.3,2,0.6,2.9,1
			c1.5,0.8,1,2.4,0.8,3.7c-0.4,2.7-0.8,5.3-1.5,7.9c-0.7,3-1.6,5.9-2.8,8.8C212.3,536.6,212.8,536.7,212.9,536.4z"/>
		<path class="st21" d="M193.6,532.5c2.1-0.1,4.1-0.3,6.2-0.4c1.9-0.1,3.8-0.3,5.7-0.1c1.7,0.1,3.8,0.4,5.3,1.4
			c1.6,1.1,1.5,3.1,1.3,4.7c-0.4,3.9-1.6,7.8-2.8,11.5c-0.6,1.8-1.1,3.7-2.1,5.4c-0.8,1.5-2.2,2.6-3.7,3.3c-1.8,0.8-4.1,1.4-6,1.1
			c-1-0.2-1.8-0.6-2.2-1.5c-0.4-0.8-0.4-1.7-0.4-2.6c0-0.3-0.5-0.3-0.5,0c0,1.4,0.2,3,1.4,3.9c1.4,1.1,3.7,0.8,5.3,0.4
			c1.7-0.4,3.4-1.1,4.7-2.2c1.5-1.2,2.3-2.9,3-4.7c1.5-4.2,2.9-8.4,3.6-12.8c0.3-1.7,0.7-3.7,0.1-5.4c-0.6-1.7-2.4-2.4-4.1-2.8
			c-2.3-0.5-4.6-0.5-6.9-0.4c-2.6,0.1-5.2,0.3-7.8,0.5C193.3,532.1,193.3,532.6,193.6,532.5L193.6,532.5z"/>
		<path class="st21" d="M203.2,546.7c-3.9,3.3-8.8,5.1-13.9,5c-0.3,0-0.3,0.5,0,0.5c5.2,0,10.3-1.8,14.2-5.2
			C203.8,546.8,203.4,546.5,203.2,546.7z"/>
		<path class="st21" d="M192.4,584.1c1-2.4,0.9-5.1,1.1-7.6c0.2-2.2,0.3-4.4,0.5-6.6c0.3-4.5,0.5-9,0.7-13.5
			c0.1-1.6,0.1-3.2,0.1-4.8c0-0.3-0.5-0.3-0.5,0c0.1,3.4-0.2,6.8-0.3,10.2c-0.2,4.6-0.5,9.2-0.8,13.7l-0.3,3.6
			c-0.1,1.7-0.3,3.4-0.9,5C191.8,584.3,192.2,584.4,192.4,584.1L192.4,584.1z"/>
		<path class="st21" d="M191.9,583.9c-3.2,2.6-7.1,3.9-11,4.9c-4.3,1.1-8.8,2-13.2,2.7c-0.3,0.1-0.2,0.5,0.1,0.5
			c4.6-0.8,9.1-1.7,13.6-2.8c3.9-1,7.7-2.4,10.8-4.9C192.5,584,192.2,583.7,191.9,583.9L191.9,583.9z"/>
		<path class="st21" d="M167.7,591.5c-10.2,11.1-19.8,22.7-28.8,34.8c-9.1,12.1-17.5,24.6-25.9,37.1S96.1,688.3,86.7,700
			C77.9,711,68,721.2,56,728.8c-11.5,7.3-24.4,12.3-37.8,14.5c-1.7,0.3-3.4,0.5-5.2,0.7c-0.3,0-0.3,0.5,0,0.5
			c13.5-1.5,26.6-5.8,38.4-12.4c12.2-6.9,22.6-16.3,31.7-27c9.7-11.3,18.2-23.6,26.5-35.9c8.5-12.6,16.9-25.3,25.9-37.5
			c9.1-12.4,18.6-24.3,28.9-35.7c1.2-1.4,2.5-2.8,3.7-4.1C168.3,591.6,167.9,591.3,167.7,591.5L167.7,591.5z"/>
		<path class="st21" d="M13.1,744.1c-1.7-1.1-3.4-2.1-5-3.3c-0.8-0.6-1.5-1.3-2-2.1c-0.5-1-0.6-2.1-0.7-3.3c-0.3-4.6,0-9.3,0.8-13.8
			c0.1-0.3-0.4-0.4-0.5-0.1c-0.8,4.8-1.2,9.8-0.8,14.6c0.1,1,0.3,2,0.7,2.9c0.4,0.8,1.1,1.5,1.8,2c0.8,0.6,1.6,1.1,2.4,1.6
			c1,0.6,1.9,1.3,2.9,1.9C13.2,744.7,13.4,744.3,13.1,744.1L13.1,744.1z"/>
		<path class="st21" d="M6.2,721.6c0.4-4.3-1.4-8.4-2.7-12.4c-1.6-4.7-2.2-9.6-2.6-14.5c-0.9-10.3-0.2-20.7,1.5-31
			c1.7-10.2,4.3-20.2,7.2-30.1c2.9-9.9,6-19.8,9.1-29.6c3.1-9.9,6.3-19.8,9.2-29.7c0.4-1.2,0.7-2.4,1.1-3.7c0.1-0.3-0.4-0.4-0.5-0.1
			c-2.8,10-6,19.9-9.1,29.8c-3.2,9.9-6.3,19.9-9.3,29.9c-2.9,9.9-5.7,19.9-7.6,30.1c-1.8,10.1-2.8,20.3-2.3,30.6
			c0.2,5,0.7,10.1,1.8,15c1,4.3,3.2,8.4,3.7,12.9c0.1,1,0.1,2,0,3C5.7,721.9,6.2,721.9,6.2,721.6L6.2,721.6z"/>
	</g>
</g>
<g id="black2">
	<path class="st21" d="M232.8,252.2c1.3,4.1,1.5,8-0.9,11.8c-0.1,0.2,0.2,0.4,0.4,0.2C234.3,260.6,235,255.8,232.8,252.2
		C232.9,252.1,232.8,252.1,232.8,252.2L232.8,252.2z M181.9,253c-1.4,3.3-0.2,7.8,2,10.5c0.2,0.2,0.6-0.1,0.4-0.3
		c-2.4-3.3-2.8-6.2-2.2-10.1C182,252.9,181.9,252.9,181.9,253z M199.9,260.3c-0.8,3.4,3.2,7.4,6.4,7.7c0.3,0,0.4-0.5,0.1-0.6
		c-1.7-0.5-3.2-1.2-4.3-2.5c-1.3-1.4-1.4-3-2-4.6C200,260.2,199.9,260.2,199.9,260.3z M199.7,262.8c-2-0.9-4.3-1.4-6.4-1.6
		c-1.2-0.2-3.4-0.7-4.5,0c-2.6,1.6,2.7,2.7,3.3,2.9c0.4,0.1,0.6-0.5,0.2-0.6c-0.4-0.1-2.6-0.4-2.7-0.7c-0.8-1.7,2.3-1.1,2.9-1.1
		c2.5,0.2,4.8,0.8,7.2,1.4C199.7,263,199.8,262.8,199.7,262.8L199.7,262.8z M215.9,263.2c0.6-1.5,5.5-2,6.8-2c0.8,0,2.4-0.1,3,0.3
		c1,0,1.1,0.5,0.2,1.3c-0.5,0.1-0.9,0.2-1.4,0.3c-0.4,0.1-0.2,0.7,0.2,0.6c2.9-0.4,4.7-2.1,0.8-2.9c-2.3-0.4-4.6,0-6.8,0.6
		c-0.9,0.3-3.1,0.5-3,1.7C215.7,263.3,215.8,263.3,215.9,263.2z M215.8,250.4c-4,2-11.1,3.3-15,0.1c-0.3-0.2-0.7,0.2-0.4,0.4
		c2,1.7,5.4,1.9,8,1.9c2.7,0,5.4-0.6,7.5-2.4C216,250.4,215.9,250.3,215.8,250.4z M213.9,241.4c-3.5-0.7-7.4-0.7-10.9-0.2
		c-0.2,0-0.1,0.4,0,0.3c3.7-0.2,7.2-0.1,10.9,0C213.9,241.7,214,241.5,213.9,241.4z M213.9,240c-3.4-1.2-7.6-1.5-11.2-1
		c-0.3,0-0.3,0.5,0,0.5C206.5,239.3,210,239.5,213.9,240C213.9,240.1,213.9,240,213.9,240z M230.7,308.9
		c-13.5,2.6-25.4,2.9-38.9,0.2c-0.3-0.1-0.4,0.3-0.1,0.4C203.9,313.1,218.6,313,230.7,308.9C230.7,309,230.7,308.9,230.7,308.9
		L230.7,308.9z M158.3,411.6v-0.4l-0.3-0.6c0-0.1-0.1,0-0.1,0c0.1,0.2,0.1,0.5,0.1,0.7S158.1,411.6,158.3,411.6
		C158.2,411.7,158.3,411.7,158.3,411.6z M173.4,176.9c-5.5-11.3-22.2-19.5-32.9-10.2c-12.3,10.6-8.8,31.2-5.1,44.9
		c0.4,1.4,2.6,0.8,2.2-0.6c-3.1-12-6-27.4,1-38.6c8.6-13.7,27.4-6.8,34.5,4.8C173.2,177.2,173.5,177.1,173.4,176.9z M241.4,176.6
		c4.9-3.7,9.3-8,15.3-10c7.2-2.3,14.8-0.3,18.9,6.2c7,10.8,4.7,26.5,0.9,38c-0.5,1.6,2,2.3,2.6,0.7c4.5-12.8,6.9-32.9-3.9-43.5
		c-10.8-10.7-27.1-2.4-34,8.5C241.2,176.6,241.3,176.7,241.4,176.6L241.4,176.6z M206.1,279.7C206.2,279.7,206.2,279.7,206.1,279.7z
		 M291.5,242.8c0,10.1,0.6,20-0.4,30.1c-0.1,0.5,0.8,0.5,0.9,0c1-9.9,1.7-20.3,0-30.2C291.9,242.4,291.5,242.5,291.5,242.8z"/>
	<path class="st21" d="M291.4,271.6c-1.4,5.8-3,11.2-6.2,16.3c-3,4.7-6.7,8.1-10.9,11.6c-0.4,0.3,0.2,0.8,0.5,0.5
		c8.9-7.3,16-16.5,16.9-28.4C291.9,271.4,291.5,271.3,291.4,271.6z"/>
	<path class="st21" d="M276.2,298.3c-9.2,6.2-18.7,11.7-28.3,17.1c-9.9,5.6-19.7,11.9-30.2,16.3c-0.5,0.2-0.3,1.1,0.2,0.8
		c10.3-4.3,19.9-10.4,29.6-16c9.8-5.6,20.1-10.9,29-18C276.7,298.5,276.4,298.2,276.2,298.3L276.2,298.3z M165,316.5
		c-8.1-5.7-17.3-10.1-25.8-15.2c-4.8-2.9-9.6-6.2-12.8-11c-2.7-3.9-4.6-8.4-6.5-12.7c-0.2-0.5-1-0.1-0.8,0.5c4,9.1,8.2,16.5,16.6,22
		c9.1,6.1,19.2,12.1,29.1,16.8C165,317,165.2,316.6,165,316.5L165,316.5z"/>
	<path class="st21" d="M117.5,239.4c-1.1,6.9-1.3,14.6-0.7,21.5c0.6,6.1,0,12,2.5,17.7c0.2,0.5,1,0.1,0.8-0.3
		c-2.4-5.9-2.1-12.6-2.5-18.9c-0.4-6.6,0.3-13.3,0.4-19.9C117.9,239.2,117.5,239.2,117.5,239.4L117.5,239.4z M222.8,329.8
		c-11.4,5.3-24.2,4.5-35.4-0.9c-9.6-4.7-18.4-10.9-27.8-16c-0.5-0.3-0.9,0.5-0.4,0.7c18,10.3,42.3,29.7,63.8,16.3
		C223.1,329.9,223,329.8,222.8,329.8z"/>
</g>
<g id="ear">
	<g id="Layer_26">
		<path class="st11" d="M309.8,209.3c1.9-7.1,4.1-15,7.5-21.9c0.7-8,0.7-13.8,0.7-13.8s-6.4,12.7-12,28.2s-3.9,31.9-3.9,31.9
			c2-1.7,3.7-3.9,5.3-6.5C307,221.2,308.4,214.5,309.8,209.3z M96.3,175.7c0,0-0.8,7.1-0.7,16.4c1.9,5.8,3.9,11.6,5.7,17.5
			c1.7,5.7,3.7,13.4,2.5,19.7c1.2,1.6,2.5,2.9,3.9,4C107.7,233.3,113.1,215.1,96.3,175.7L96.3,175.7z"/>
	</g>
	<g id="Layer_27">
		<path class="st21" d="M95.3,182.3C95.3,182.3,95.3,182.2,95.3,182.3C95.3,182.2,95.3,182.3,95.3,182.3z M317.9,173.6
			c-3.3,3.7-5.3,8.8-7.3,13.3c-2.1,4.7-4.2,9.4-5.7,14.3c-3.3,10.4-5,21.2-5.5,32c-0.1,1.9,2.9,1.9,3,0c0.5-10.6,2.1-21.1,4.9-31.4
			c1.2-4.6,2.6-9.2,4.3-13.6c1.9-5,4.9-9.5,6.5-14.6C318.1,173.6,318,173.5,317.9,173.6L317.9,173.6z"/>
		<path class="st21" d="M308.3,219.8c1.2-4.1,0.3-9.3-2.4-12.6c-1.2-1.4-3.2,0.6-2,2c1.3,1.5,2.6,3.1,3.4,4.9
			c0.8,1.9,0.8,3.6,0.7,5.6C307.9,220,308.2,220,308.3,219.8z M95.9,175.7c3.1,9.2,6.7,17.8,8.5,27.4c1.9,9.9,3,19.9,3.3,30
			c0.1,2,3.1,2,3.1,0c-0.3-10-1.8-19.9-4.4-29.6C103.8,194.2,100.8,184.2,95.9,175.7C96,175.6,95.9,175.6,95.9,175.7L95.9,175.7z"/>
		<path class="st21" d="M102.8,218.3c0-3.5,1.9-6.1,4.6-8.2c1.3-1-0.6-2.9-1.8-1.8c-2.8,2.5-3.8,6.3-3.7,10
			C101.9,218.9,102.8,218.9,102.8,218.3z M96.7,161.4c2.4,0.1,4.3,4.1,5.2,6c1.1,2.1,2.1,4.4,2.7,6.7c0.1,0.4,0.6,0.2,0.5-0.1
			c-0.5-3.4-1.5-6.3-3.6-9.2c-1-1.4-3-4.4-4.9-3.7C96.4,161.1,96.5,161.3,96.7,161.4z"/>
		<path class="st21" d="M96.6,161.6c5.6,4,6.5,10.8,8.8,16.7c0.1,0.4,0.8,0.4,0.7-0.1c-0.4-3.9-1.6-7.8-3.5-11.3
			c-1.3-2.2-3.1-5.4-5.9-5.7C96.5,161.3,96.5,161.5,96.6,161.6L96.6,161.6z M104.8,211.2c-1,0.7-0.7,2.1-0.4,3.1
			c0.4,1.2,1,2.9,2,3.7c0.5,0.4,1.3,0,1.1-0.6c-0.3-1-1-1.8-1.4-2.7c-0.3-0.6-0.5-1.2-0.7-1.8c-0.1-0.5-0.1-1-0.3-1.6
			C105.1,211.2,105,211.1,104.8,211.2L104.8,211.2z"/>
		<path class="st21" d="M105.2,211.6c0.1,1.3,0.1,2.5,0.5,3.7c0.5-0.2,0.9-0.4,1.4-0.6c-0.4-1-0.9-1.9-1.3-2.9
			c-0.4,0.3-0.9,0.5-1.3,0.8c0.7,1.4,1.3,3,2.4,4.2c0.4,0.4,1,0,0.9-0.5c-0.3-1.6-1.3-3-2-4.4c-0.4-0.9-1.7-0.1-1.3,0.8
			c0.4,1,0.9,1.9,1.3,2.9c0.4,0.9,1.7,0.1,1.3-0.8c-0.5-1-0.9-2.2-1.2-3.3C105.8,211.2,105.2,211.2,105.2,211.6z M106.5,246.8
			c5.3,3.6,9.6-2.6,11.7-6.9c0.3-0.7-0.7-1.3-1-0.6c-2,3.9-5.3,9.2-10.6,7.3C106.4,246.6,106.4,246.7,106.5,246.8z"/>
		<path class="st21" d="M116.9,241.7c-0.6,1.5-1.2,2.7-2.3,3.9c0.3,0.3,0.7,0.5,1,0.8c0.4-0.8,0.8-1.7,1.2-2.6
			c0.2-0.5-0.4-1.1-0.9-0.7c-0.7,0.8-1.1,1.9-2.2,2.4c-1.1,0.6-2.4,1-3.5,1.7c-0.5,0.3-0.4,1.1,0.2,1.2c0.9,0.2,1.9,0.5,2.8,0.4
			c1.1-0.1,2.3-0.8,3.2-1.4c1.6-1.1,1.5-3.3,0.7-5c-0.4-0.8-1.4-0.2-1.3,0.5s0.4,1.4,0.2,2.1c-0.2,0.9-0.9,1.2-1.6,1.6
			c-1.4,0.7-2.4,0.6-3.9,0.5c0.1,0.4,0.1,0.8,0.2,1.3c1.3-0.5,2.7-1,3.9-1.8c1-0.7,1.3-1.9,2.1-2.7c-0.3-0.2-0.6-0.4-0.9-0.7
			c-0.4,0.8-0.9,1.6-1.3,2.5c-0.3,0.6,0.5,1.3,1,0.8c1.2-1.3,1.8-2.9,1.7-4.7C117.2,241.5,117,241.5,116.9,241.7L116.9,241.7z
			 M317.5,159.5c-1.7-1.1-3.8,2.1-4.7,3.2c-1.9,2.5-3.6,5.3-4.2,8.3c-0.1,0.4,0.4,0.6,0.7,0.3c1.1-1.8,2-3.8,3.1-5.7
			c1-1.6,3.1-5.7,5-6C317.6,159.6,317.6,159.5,317.5,159.5z M306.8,212.5c-1.2,2.1-1.3,4.9-3.3,6.4c0.4,0.3,0.8,0.6,1.1,0.9
			c1-2.6,2.6-6.5,1.3-9.2c-0.3-0.7-1.3-0.4-1.5,0.2c-0.8,2-0.3,4.2-0.9,6.2c-0.2,0.8,0.8,1.3,1.3,0.8c1.2-1.1,2.9-4.3,2.3-5.9
			c-0.2-0.6-1.1-0.8-1.4-0.2s-0.5,1.1-0.4,1.8c0,0.6,0.8,0.9,1.1,0.3c0.3-0.5,0.4-0.8,0.6-1.3c-0.5-0.1-0.9-0.1-1.4-0.2
			c0.2,0.6-0.5,1.9-0.7,2.4c-0.3,0.8-0.6,1.4-1.3,2c0.4,0.3,0.9,0.5,1.3,0.8c0.3-0.9,0.5-1.8,0.6-2.7c0.1-1.2,0-2.4,0.4-3.5
			c-0.5,0.1-1,0.1-1.5,0.2c1.1,2.3-0.6,5.8-1.3,8c-0.3,0.8,0.8,1.2,1.3,0.8c1-0.8,1.5-1.9,1.9-3.1c0.5-1.4,1.2-3,0.9-4.5
			C307.1,212.4,306.9,212.3,306.8,212.5z M304.8,245.4c-2.2,1.4-4.6,2.7-7.3,1.6c-2.1-0.8-3.2-3-4.6-4.6c-0.6-0.7-1.8,0.2-1.3,1
			c1.7,2.4,3.3,4.8,6.4,5.2C300.7,249,303.4,247.7,304.8,245.4C304.9,245.4,304.9,245.4,304.8,245.4z"/>
		<path class="st21" d="M291.9,244.2c0,1.1,0.6,2.6,1.5,3.3c1,0.9,2.7,1.3,3.9,1.7c0.1-0.5,0.1-1,0.2-1.5c-1.7-0.1-3.3-0.2-4.2-1.9
			c-0.2-0.4-0.7-0.5-1.1-0.3c0,0-0.1,0-0.1,0.1c-0.5,0.2-0.4,1,0,1.3c0.2,0.1,0.4,0.7,0.6,0.9c0.4,0.4,0.8,0.7,1.3,0.9
			c1,0.5,2.2,0.5,3.3,0.6c0.8,0.1,1.5-1,0.6-1.4c-1.1-0.5-2.3-0.7-3.3-1.3c-0.9-0.6-1.3-1.8-2-2.5
			C292.3,243.7,291.9,243.9,291.9,244.2L291.9,244.2z"/>
	</g>
</g>
<g id="details">
	<path class="st21" d="M195.9,262c-1-0.4-2.2-0.6-3.3-0.7c-0.9-0.1-2.1-0.2-2.8,0.5c-1.4,1.3,1.5,2,2.2,2.3c0.4,0.1,0.5-0.4,0.2-0.6
		c-0.3-0.1-1.6-0.4-1.7-0.7c-0.4-1,1.3-0.8,1.7-0.8C193.4,261.9,194.6,262,195.9,262L195.9,262z"/>
	<path class="st21" d="M190.4,262.9c-0.2-0.2-0.4-0.5-0.5-0.7c-0.1-0.3,0-0.2,0.3-0.4c0.4-0.3,0-0.9-0.4-0.6c-0.4,0.2-0.8,0.4-0.6,1
		c0.2,0.5,0.6,0.8,1.1,0.9C190.4,263.2,190.5,263,190.4,262.9L190.4,262.9z"/>
	<path class="st21" d="M196.7,262.1c-1-0.4-2-0.5-3.1-0.5c-0.8,0-2.2-0.2-2.9,0.4c-1.1,0.8-0.1,1.8,0.9,1.9c0.2,0,0.3-0.3,0.1-0.4
		c-0.5-0.2-0.6-0.6-0.2-1.2c0.3,0,0.5-0.1,0.8-0.1c0.5,0,1-0.1,1.6-0.1L196.7,262.1L196.7,262.1z"/>
	<path class="st21" d="M192.9,261.8c-0.6-0.1-1.3,0-1.7,0.5c-0.3,0.4-0.4,1.2,0.3,1.4c0.3,0.1,0.4-0.2,0.3-0.4
		c-0.6-0.7,0.7-1.1,1.2-1.4C192.9,261.9,192.9,261.8,192.9,261.8z"/>
	<path class="st21" d="M193.4,261.8c-0.7-0.1-1.4-0.2-1.9,0.5c-0.3,0.4-0.4,1.4,0.3,1.5c0.2,0,0.5-0.2,0.3-0.4
		c-0.1-0.2-0.3-0.3-0.2-0.6c0.1-0.2,0.2-0.4,0.3-0.5C192.5,262,193,261.9,193.4,261.8L193.4,261.8z M220.2,261.4
		c0.2,0.1,0.3,0,0.5,0c0.3-0.1,0.5-0.1,0.8-0.1v-0.1h-0.7c-0.3,0-0.3-0.1-0.6,0.1C220.1,261.3,220.1,261.4,220.2,261.4z
		 M221.6,261.2c0.7,0.1,1.4,0.2,2,0.3c0.2,0,0.5,0.1,0.7,0.2c0.6,0.2,0.8,0.9,0.2,1.3c-0.3,0.2-0.1,0.7,0.3,0.6
		c0.7-0.2,1.3-0.8,1.5-1.6c0.1-0.7-0.2-1.1-0.9-1.1c-0.4,0-0.4,0.7,0,0.7s0.1,0.7,0,0.8c-0.2,0.3-0.4,0.4-0.7,0.5l0.3,0.6
		c0.8-0.5,1.3-1.4,0.4-2.2C224.4,260.6,222.7,260.8,221.6,261.2L221.6,261.2z"/>
	<path class="st21" d="M225.2,261.5c0.2,0.4,0.8,0.7,0.5,1.3c-0.2,0.3,0.3,0.7,0.5,0.4c0.4-0.4,1-2-0.1-1.9c-0.2,0-0.2,0.3-0.1,0.4
		c0.2,0.3-0.1,0.8-0.3,1l0.6,0.3c0.3-0.7-0.1-1.9-1-1.8C225.2,261.3,225.1,261.4,225.2,261.5L225.2,261.5z"/>
</g>
<g id="HAIR3">
	<path class="st4" d="M205.2,91.3c-7,2.4-13.6,5.7-20.6,8.3c-7.2,2.7-14.6,5.1-21.9,7.4c-14.5,4.4-29.2,7.7-44,10.7
		c-1,0.2-0.8,2,0.3,1.9c15.1-1.9,30-5.3,44.6-9.8c14.2-4.3,29.6-9,42.6-16.4C207.1,92.8,206.4,90.9,205.2,91.3L205.2,91.3z
		 M192,170.7c16.3-14.8,28.7-32.8,38.1-52.6c9.7-20.4,17.1-41.8,19.6-64.4c0.3-2.4-3.5-2.4-3.8,0c-2.5,22.2-9.8,44.1-19.2,64.4
		c-8.8,19.1-20.6,37-35.4,52C191,170.4,191.6,171,192,170.7L192,170.7z"/>
	<path class="st4" d="M192.3,170.5c12.5-23.9,14.7-51.2,15.7-77.7c0.1-2.3-3.5-2.3-3.6,0c-1,25.5-0.8,54-13.1,77.2
		C191.1,170.6,192,171.1,192.3,170.5L192.3,170.5z M269,64.4c-7.5,7.4-16.7,9.9-26,14.2c-1.5,0.7-0.4,3.1,1.1,2.7
		c9.6-2.7,19.8-7.8,25.4-16.5C269.8,64.5,269.3,64.1,269,64.4z"/>
	<path class="st4" d="M310.6,164.6c-3.7-7.3-9.1-14.1-13.4-21.1c-4.6-7.4-8.8-15-12.6-22.7c-8-16.1-14.4-33.1-18.9-50.5
		c-0.5-1.9-3.4-1.1-3,0.8c4.2,17.4,11.1,34.2,19.2,50.2c4,8,8.4,15.8,13.2,23.4c4.4,6.9,9.1,14.6,15.1,20.1
		C310.4,165.1,310.7,164.8,310.6,164.6L310.6,164.6z M104.4,168c9.6-3.5,17.6-12.4,23.1-20.6c6.3-9.5,10.4-20.5,13.1-31.5
		c0.6-2.2-2.9-3.2-3.4-0.9c-2.6,10.2-5.8,20-10.8,29.3c-2.4,4.6-5.4,8.8-8.9,12.7c-4,4.5-8.5,7.3-13.3,10.7
		C104,167.7,104.1,168.1,104.4,168L104.4,168z"/>
</g>
<g id="light" class="st22">
	<path class="st23" d="M171,507.1c0.3,0.2,0.3,0.7,0.5,1c0.2,0.4,0.6,0.7,0.8,1.1c0.4,0.7,0.5,1.6,1,2.3c0.3,0.3,0.7,0.2,0.9-0.1
		c0.6-0.9,0.1-2.2-0.4-3c-0.2-0.4-0.6-1-1-1.3c-0.2-0.1-0.4-0.3-0.6-0.3c-0.3-0.1-0.5,0-0.8-0.2C171.1,506.3,170.6,506.8,171,507.1z
		 M176.7,518c0.2,0.2,0.4,0.9,0.5,1.2c0.2,0.5,0.5,1,0.6,1.5c0.2,1-0.1,2-0.1,2.9c0,0.6,0.7,0.8,1.1,0.5c1-0.9,1.1-2.5,0.7-3.7
		c-0.2-0.6-0.5-1.3-0.9-1.8c-0.2-0.2-0.4-0.5-0.7-0.6c-0.3-0.2-0.8-0.1-1.1-0.3C176.7,517.5,176.5,517.8,176.7,518L176.7,518z
		 M180.3,535.1c0.5,1.8,0,3.7,0.3,5.4c0.1,0.5,0.8,0.6,1.1,0.1c0.5-1,0.5-1.9,0.3-2.9c-0.2-1.1-0.7-1.9-1.2-2.9
		C180.6,534.6,180.2,534.8,180.3,535.1L180.3,535.1z M156.2,562.9c-4.9,9.1-14.2,15.6-22,22.3c-8.3,7.1-17.1,13.5-25.5,20.3
		c-0.7,0.6,0.2,1.7,1,1.2c10-6.4,19.3-14.1,28.2-21.9c4.4-3.8,8.8-7.8,12.9-11.9c2.8-2.8,5.6-5.8,6-9.9
		C156.8,562.7,156.4,562.7,156.2,562.9L156.2,562.9z M25.7,650.2c-5.7,9.2-7.4,20.3-5.9,31c0.3,1.8,3.3,1.1,2.9-0.8
		c-2.5-10.5-1.1-20.3,3.2-30.1C25.9,650.2,25.8,650.1,25.7,650.2L25.7,650.2z M14,721.3c4,0,10.6,0.7,12.9-3.5
		c0.4-0.8-0.4-1.4-1.1-1.1c-1.9,0.8-3.4,2-5.5,2.5c-2,0.5-4.2,0.8-6.3,0.8C13.2,720,13.2,721.3,14,721.3z M371,611.5
		c-3.3,5.8-4.5,14.3-2.9,20.8c0.3,1.4,2.3,0.8,2.1-0.6c-0.6-3.4-1.5-6.6-1.3-10.1S370.1,614.8,371,611.5L371,611.5z M439,463.5
		c1,8.1,5.6,13.2,11.3,18.6c0.6,0.6,1.7,0,1.5-0.9c-0.8-3.1-4.1-4.6-6.1-6.9c-2.8-3.1-5-7-6.4-10.9C439.2,463.3,439,463.3,439,463.5
		L439,463.5z M480.5,356.2c-2.1,7-2.5,14.7-3.4,21.9c-1,8.4-2.2,17.3-1.9,25.7c0,0.7,1.2,1,1.3,0.2c1.5-7.8,1.6-16,2.3-23.9
		c0.7-7.9,2.1-15.9,2.1-23.8C480.9,356,480.6,356,480.5,356.2L480.5,356.2z M520.7,349.2c-4.5,7.4-6.4,16.4-9,24.6
		c-3,9.6-6.2,20.1-7.5,30.1c-0.1,1,1.2,1.4,1.6,0.4c6.2-18.1,7.7-37.3,15.1-55.1C520.9,349.2,520.8,349.1,520.7,349.2z M549.2,366.1
		c-3.4,6.3-5.8,13.2-8.6,19.7c-2.6,6.1-5.3,12.1-7.7,18.3c-0.3,0.7,0.8,1.1,1.2,0.5c2.9-5.9,5.5-12,8.1-18.1
		c2.8-6.5,5.9-13.2,7.7-20.1C550,366,549.4,365.7,549.2,366.1z M553.5,420.2c-0.3,0.2-0.7,0.5-1,0.8c-0.1,0.1,0,0.2,0.1,0.2
		c0.3-0.2,0.7-0.5,1-0.8C553.7,420.3,553.6,420.1,553.5,420.2z M566.2,409.2c-4.4,1.4-8.1,4.8-11.7,7.6c-4.3,3.4-8.8,6.8-12.4,11
		c-0.5,0.6,0.3,1.5,0.9,0.9c3.6-3.4,7.3-6.6,11.1-9.8c4-3.2,8.5-6,12.1-9.6C566.4,409.3,566.3,409.2,566.2,409.2L566.2,409.2z
		 M467.8,427.8c-2.7,4.6-5.2,9.4-10,12.1c-0.6,0.3-0.1,1.3,0.5,0.9c4.8-2.8,7.6-7.9,9.8-12.8C468.3,427.8,467.9,427.6,467.8,427.8z
		 M444.3,524.9c-4.8,8.3-8.6,17-13.7,25.1c-5,8.1-11,15.6-16,23.7c-0.3,0.4,0.3,0.9,0.7,0.5c6.4-7.2,11.2-15.5,16-23.8
		s9.9-16.5,13.2-25.5C444.6,524.8,444.3,524.7,444.3,524.9z M231,524.5c-11.4,10.4-17.8,25.3-20.9,40.2c-0.4,1.8,2.5,2.6,2.8,0.8
		c2.4-15.3,9.5-28.3,18.3-40.8C231.2,524.5,231.1,524.4,231,524.5L231,524.5z"/>
	<path class="st23" d="M209.1,555.5c-0.1,1.9,0.4,3.9,0.6,5.8c0.2,1.7,0,3.5,0.8,5c0.5,0.8,1.6,0.5,1.9-0.2c0.6-1.6,0-3.8-0.4-5.4
		c-0.4-1.8-0.9-3.8-2.1-5.3C209.7,555,209.2,555.1,209.1,555.5L209.1,555.5z M61.1,431.9C47.6,450,41.9,478.6,50.3,500
		c0.5,1.4,2.5,0.9,2.2-0.6c-2.5-11.6-4.5-22.6-2.8-34.5c1.6-11.7,5.9-22.6,11.7-32.8C61.4,431.8,61.2,431.7,61.1,431.9z M43.1,525.7
		c-1.1,6.5-2.1,12.9-3.6,19.3c-1.4,6.4-4.2,12.6-5.2,19c-0.1,0.8,0.9,1.4,1.4,0.6c3-5.7,4-12.9,5.2-19.2c1.3-6.5,2.2-13,2.4-19.7
		C43.4,525.6,43.1,525.6,43.1,525.7L43.1,525.7z M25.6,597.9c-5.6,15.7-12,31.2-17.1,47c-0.1,0.4,0.5,0.7,0.7,0.3
		c7-15.1,12-31.3,16.6-47.2C25.8,597.9,25.6,597.8,25.6,597.9z M103.3,746.9c-3.3,12.1-7.2,24-11.8,35.6
		c-4.6,11.6-10.8,22.5-15.1,34.2c-8.1,22,7.9,38.4,24.9,50c1.1,0.7,2.4-1,1.4-1.8c-8.3-6.4-17.2-12.4-22.5-21.7
		c-6.6-11.7-3.4-22.9,1.9-34.4c9.2-19.9,16.6-40.3,21.3-61.8C103.5,746.9,103.4,746.8,103.3,746.9z M127.4,417.8
		c4.3-2.6,9.5-3.7,14.3-4.7c3-0.6,8.6-0.5,11.1-2.3c1.1-0.8,0.7-2.4-0.7-2.5h-0.2c-0.6,0-1.3,0.6-1.3,1.3v0.1c0.1,1,1.3,1.7,2.1,0.9
		l0.1-0.1H151l0.1,0.1l0.3-2.1c-1.7,1.3-5.5,1.3-7.6,1.9c-2.2,0.6-4.3,1.3-6.4,2c-3.7,1.2-7.7,1.8-10.9,4.2
		C126,417.1,126.6,418.3,127.4,417.8z"/>
	<path class="st23" d="M174.4,446.5c-3.7-6-9.1-11-12.8-17.2c-3.7-6.3-5.5-12.7-7.6-19.7c-0.4-1.4-2.7-1.2-2.6,0.4
		c0.3,6.6,4,13.5,7.7,18.9c4.3,6.1,9.4,13.1,15.2,17.7C174.4,446.6,174.4,446.6,174.4,446.5L174.4,446.5z M138.9,451.5
		c4.3,8.6,11.9,15.4,19.7,20.7c6.1,4.1,17,11.3,24.3,6.8c1.3-0.8,0.1-2.8-1.2-2c-7.1,4.4-19.7-4-25.5-8.3
		c-6.7-4.9-11.9-11-17.2-17.3L138.9,451.5L138.9,451.5z M211.7,470c2.3,4.9,7.3,7.5,12.3,8.8c4.7,1.2,10.7,2.3,14.8-1
		c0.8-0.7-0.1-2.2-1.1-1.8c-8.3,3.3-19.6,0-25.3-6.5C212.1,469,211.5,469.5,211.7,470z M171.9,357c0.2,9.6-0.2,19-1.8,28.4
		c-1.3,8.3-3.8,16.6-4.8,24.9c-0.1,1.1,1.5,1.2,1.8,0.2c2.8-8.5,4.1-17.9,5.2-26.8c1.1-8.9,1.5-18-0.1-26.8
		C172.3,356.7,171.9,356.7,171.9,357L171.9,357z M132.5,149.7c-1.3,1.5-2.7,2.9-4,4.5c-0.2,0.2,0.1,0.5,0.3,0.3
		C130.1,153,131.3,151.3,132.5,149.7z M120.5,243c-0.3,6.6,0.5,12.8,1,19.4c0.4,5,0.7,10,2.1,14.9c2.1,7.5,6.7,15.6,14.2,18.7
		c0.5,0.2,0.7-0.5,0.3-0.8c-17.5-11.7-15.7-33.5-17.4-52.2C120.7,242.9,120.5,242.9,120.5,243L120.5,243z M130.3,348.1
		c2.8,5.4,4.3,10.9,5,16.9c0,0.4,0.6,0.4,0.6,0c-0.4-6.1-2.3-11.8-5.3-17.1C130.5,347.7,130.1,347.9,130.3,348.1z"/>
</g>
<g id="eyebrows_1_">
	<path class="st4" d="M130.4,158c1.4-0.9,3.8-1.2,5.4-1.7c2.2-0.7,4.2-1.4,6.5-1.9c3.5-0.8,6.9-1.5,10.4-1.7
		c3.8-0.1,7.6,0.1,11.3,0.9c3.8,0.8,7.4,3.4,11.2,3.4c4.8,0,4-8.3,1.6-10.5c-2.9-2.6-7.5-3-11.4-3.5c-4.6-0.6-9.2-0.4-13.7,0.5
		c-4,0.8-8.2,1.9-11.7,4c-1.5,0.9-3,1.9-4.5,2.9c-2.5,1.7-3.5,3.9-5.7,5.9C129.4,156.7,129.7,158.5,130.4,158L130.4,158z M287.8,151
		c-3.2-2.8-5.8-5.8-9.7-7.7c-3.9-1.9-8-3.2-12.3-3.8c-8-1.1-17.8-0.2-25,3.8c-3.7,2-2.6,12.1,2.1,10c7.4-3.3,14.1-5.7,22.4-5.6
		c3.8,0.1,7.5,0.4,11.2,1.3c3.5,0.8,7.9,1.4,11.1,3.1C288,152.3,288.1,151.2,287.8,151L287.8,151z"/>
</g>
</svg>
