<svg xmlns="http://www.w3.org/2000/svg" width="100" height="100" viewBox="0 0 100 100"><title>code</title><path d="M62.17 14l-3.34-.92a1.5 1.5 0 0 0-1.26.13 1.75 1.75 0 0 0-.84 1l-20.08 69.6a1.61 1.61 0 0 0 .13 1.32 1.75 1.75 0 0 0 1 .83l3.34.92a1.5 1.5 0 0 0 1.27-.13 1.75 1.75 0 0 0 .83-1l20.08-69.5a1.61 1.61 0 0 0-.14-1.32 1.75 1.75 0 0 0-.99-.93z" fill="#f7d54a"/><path d="M32.08 27.61a1.7 1.7 0 0 0-.54-1.24l-2.69-2.69a1.69 1.69 0 0 0-2.48 0L1.28 48.76a1.69 1.69 0 0 0 0 2.48l25.09 25.08a1.69 1.69 0 0 0 2.48 0l2.69-2.69a1.69 1.69 0 0 0 0-2.48L10.38 50l21.16-21.16a1.7 1.7 0 0 0 .54-1.23zM98.72 48.76L73.63 23.68a1.69 1.69 0 0 0-2.48 0l-2.69 2.69a1.69 1.69 0 0 0 0 2.48L89.62 50 68.46 71.16a1.69 1.69 0 0 0 0 2.48l2.69 2.69a1.69 1.69 0 0 0 2.48 0l25.09-25.09a1.69 1.69 0 0 0 0-2.48z" fill="#86aedd"/></svg>