<svg xmlns="http://www.w3.org/2000/svg" viewBox="0 0 570 570"><style>.st0{fill:#DFDED8;} .st1{fill:#706C60;} .st2{fill:#E8DFDC;} .st3{fill:#C3BEBE;} .st4{fill:#FFFFFF;} .st5{fill:#D3ECF1;} .st6{fill:#A1D9D7;} .st7{fill:#6D4B1D;} .st8{fill:#FAAD59;} .st9{fill:#FAB26A;stroke:#000000;stroke-width:2;stroke-linejoin:round;stroke-miterlimit:10;} .st10{fill:none;stroke:#000000;stroke-width:2.8657;stroke-linecap:round;stroke-miterlimit:10;} .st11{fill:#F9A952;} .st12{fill:#FBB672;stroke:#000000;stroke-width:2.8657;stroke-linecap:round;stroke-linejoin:round;stroke-miterlimit:10;} .st13{fill:none;stroke:#000000;stroke-width:5;stroke-linecap:round;stroke-miterlimit:10;} .st14{fill:#D3ECF1;stroke:#000000;stroke-width:2.8657;stroke-linecap:round;stroke-miterlimit:10;} .st15{fill:#E8DFDC;stroke:#000000;stroke-width:2.8657;stroke-linecap:round;stroke-miterlimit:10;} .st16{fill:#DFDED8;stroke:#000000;stroke-width:2.8657;stroke-linecap:round;stroke-miterlimit:10;} .st17{fill:#DFDED8;stroke:#000000;stroke-width:1.4279;stroke-linecap:round;stroke-miterlimit:10;} .st18{fill:none;stroke:#000000;stroke-width:5.3732;stroke-linecap:round;stroke-miterlimit:10;} .st19{fill:none;stroke:#000000;stroke-width:8.9553;stroke-linecap:round;stroke-linejoin:round;stroke-miterlimit:10;} .st20{fill:none;stroke:#000000;stroke-width:8.8253;stroke-linecap:round;stroke-linejoin:round;stroke-miterlimit:10;} .st21{fill:none;stroke:#000000;stroke-width:7.034;stroke-linecap:round;stroke-linejoin:round;stroke-miterlimit:10;} .st22{stroke:#000000;stroke-width:2.1493;stroke-miterlimit:10;} .st23{fill:#543A17;}</style><g id="Layer_3"><path d="M287.6 61.9c29.6 0 45.7 13.3 45.7 13.3-2.2-.8-4.1-1-5.8-1-4.6 0-7.1 2.1-7.1 2.1 84.5 40.8 66.2 115.7 65.2 126.4-.5 5.3.8 6.6 2.3 6.6 1.5 0 3.2-1.4 3.2-1.4-.5 19.3-21.1 23.1-21.1 23.1 2.1 3.8 7.7 4.5 11.4 4.5 2 0 3.5-.2 3.5-.2-6.8 8.7-14.8 11.3-21.9 11.3-9.4 0-17.4-4.5-19.4-5.8l.3-.3c.5-.6.5-1.2 1-1.8-.5.6-.8 1.2-1.8 1.8 0 0 .2.1.5.3-1.5 1.9-3 3.6-4.7 5.4h.6c12.3 0 26.4 1.5 27 8.5 0 0 .2.3.5 1 6.5-1.5 19.6-1.9 29.2-1.9 6.6 0 11.6.2 11.6.2l-1.8-26.2s-.7-5.8 4.7-6.6c.4-.1.7-.1 1-.1h.2c4.3 0 5.6 4.2 5.6 4.2l5.4 16.5 3.9-23.9s.5-1.8 1.9-3c.7-.7 1.5-1.2 2.6-1.2h.5c3.8 0 4.6 4.3 4.6 4.3.4 1 .3 2.2.3 2.2l-1.1 23.7 5.6-12.2s.8-1 .8-2c0 0 1.3-2.9 4.1-2.9.5 0 1 .1 1.6.3 3.9 1.3 3.1 4.4 3.1 4.4 0 1.3-.4 2.4-.4 2.4l-1.8 9c1.3-1.9 2.4-3.2 3.4-4 0 0 1-1.3 2.4-1.3h.4c.4 0 .8.2 1.1.4 2.3 1.4 1 4.3 1 4.3s-1.9 41.3-26.5 45c-1.5.3-2.9.4-4.3.4-7.5 0-13.4-3.2-13.4-3.2s-18.3 7.1-38.3 8.5c-1 6.2-3.7 12.1-9.1 16.6 0 0-1.7.5-4.5.9 8.6 28.2 12.5 54.4 12.5 54.4s-.1.1-.2.1c2.7 7.5 4.2 15 4.2 15s7.8-17.3 21.5-17.3c.7 0 1.4 0 2.1.1 0 0 27.6.9 26.2 24.5l-.4 10.1s-5 .8-1.4 7.4c0 0-6.1 42.5-33.9 42.5-1.6 0-3.2-.1-4.9-.4-7.3 11.8-17.7 20.8-31.8 20.8-2.1 0-4.3-.2-6.6-.6-43.6-8.1-52.3-41-52.3-41-15.2 36-44.9 69.3-44.9 69.3h-.3c-.9 0-1.9-.5-2.9-1.5-.6 4.5-1.8 8.7-3.9 12.2-5.3 8.6-11.3 11.2-16.6 11.2-1.8 0-3.5-.3-5.1-.8-11.9-1.7-25.2-26.7-25.2-26.7 7.5-10-5.7-11.5-5.7-11.5-2.1-3.5-3.9-5.4-5.4-9.4 0 0-.2-.9-.5-1.6-1.9-4.1-3.3-8.4-4.3-11.8-4.9-15.1-9.4-39.7 10.5-46.9 3.5-1.3 6.8-1.8 9.9-1.8 8.3 0 15.1 4.1 20.3 9.2 11-13 19.3-30.8 23.5-41l-.6-.6c-15.1-26.1-22.1-48.6-24.8-67-9.9-2.1-14.9-7.2-14.9-7.2-2.1-4.3-3.8-9.1-3.8-13.8 0 0-1.3-.4-3.4-.9-6.2-1.3-30.6-6.2-37.3-6.9-.9 0-1.7-.1-2.5-.1-1.7 0-3.3.1-4.6.3-5.6.9-9.7 1.9-13.1 2.1-.4.1-.9.1-1.3.1h-.9c-2.7-.1-5.1-.9-7.8-3-1.5-1-2.8-2.1-3.4-3.1h-.1c-.8 0-6.8-.1-10.7-2.1-3.9-1.4-8.3-5.9-1.5-10.6v-.1c2.9-2.9 8-3.1 8-3.1l-2.1-6.6-7.9-23.1s-1.8-3.4.1-5.6c.2-.3.4-.5.7-.6.7-.5 1.4-.7 2-.7 1 0 2 .5 2.7 1 .4.2.7.5 1 .9 1.4 1.8 7.9 10.4 7.9 10.4l-5.3-13s-1.7-4.2 1.1-6.3c.2-.1.4-.3.6-.4.7-.4 1.3-.5 1.9-.5 2.5 0 4.2 2.7 4.2 2.7l7.9 14.3-2.9-10.6s-1.2-2.3 1.3-3.4c.3-.2.4-.2.7-.2h.1c1.9 0 2.5 2.4 2.5 2.4l4.3 11.8V227v-1.5s1-.2 1.1-.4c.9-1.4 3.4-1.4 3.4-1.4h.1c1.8 0 3.6 1.8 3.6 3.2 0 1.2 2.5 14.5 5.2 20.2 1.1 1.8 2 2.5 2.3 2.8 4.6 2.3 24.9 6.7 37.9 6.8 3-.1 4.8-.3 4.8-.3v.1c.6-.1 1.2-.1 1.7-.2.8-3.4 1.5-5.5 1.5-5.5 1.2-.6 5.4-1.6 10.1-2.6-6.2-6.2-11.5-13.3-15.6-21.1-.3-.5-.6-1.1-.8-1.6.3.5.5 1.1.8 1.6-4 1.8-7.4 2.5-10.5 2.5-14.7 0-19.5-16.9-19.5-16.9.6.2 1.2.3 1.8.3 8.1 0 9.5-17.1 9.5-17.1-2 1.2-3.7 1.7-5.2 1.7-6.2 0-8.3-8.5-8.3-8.5 14.5 0 17.4-1.2 11.3-37.1-6.1-35.9 39.9-65.5 39.9-65.5 5-17.2 14.4-22.6 14.4-22.6-5.4 8.7-3.3 10.7-.4 10.7 2.3 0 5.1-1.2 5.1-1.2 19.3-8.6 36.2-11.5 50.1-11.5m-37.5-14.8l-20.4 11.7c-1.1.6-10.9 6.6-16.5 24-9.1 6.3-46.7 34.9-40.7 70.3 1.9 11.4 2.8 18.6 2.9 23.4.1 5-.8 6-.8 6-.8.7-5.9.7-7.5.7h-7.7l1.8 7.4c1.1 4.4 4.7 11.4 11.6 12.8-.6 1.8-1.4 3.2-1.9 3.6l-10.3-2.9 2.9 10.3c.2.5 1.6 5.4 5.1 10.3 5.1 7.2 12.1 10.9 20.1 10.9 2.5 0 5.1-.4 7.7-1.1 2.2 3.6 4.6 7.1 7.2 10.4-.8.3-1.3.5-1.6.7l-2.2 1.1-.8 2.4s-.2.7-.5 1.7c-.5 0-1.2.1-1.9.1-12-.2-29.6-4.1-34.4-5.9-.1-.1-.2-.3-.4-.6-2.1-4.7-4.3-15.6-4.5-17.6-.2-4.6-4.5-8.8-9.3-8.9H147.4c-.9 0-1.9.1-2.9.4l-.1-.2c-1-3.3-3.8-6.5-8.1-6.5h-.2c-1.6 0-2.7.5-3.3.8h-.1c-1.8-1.9-4.5-3.6-7.8-3.6-1.6 0-3.2.4-4.7 1.2l-1.5.9c-2 1.5-3.2 3.6-3.7 5.8h-.1c-1.9 0-3.7.6-5.3 1.7-.9.6-1.7 1.3-2.3 2.2-2.8 3.7-2.2 8.3-.7 11.4l7.8 22.7.2.5c-1.5.7-3.1 1.7-4.5 3l-.1.1c-5.2 4-5.5 8.3-5.2 10.6.6 5 4.8 8.3 8.6 9.8 3.5 1.7 7.7 2.3 10.5 2.5.8.7 1.6 1.4 2.6 2 3.4 2.6 6.9 3.9 10.9 4.1.4 0 .9.1 1.3.1.7 0 1.4 0 2.1-.1 2.3-.2 4.7-.6 7.5-1.2 1.7-.3 3.7-.7 5.8-1 1-.2 2.2-.2 3.7-.2.7 0 1.4 0 2.1.1 5.2.5 22.1 3.8 35.6 6.6.8 4.6 2.5 8.7 3.9 11.6l.4.9.7.7c.6.6 5.2 5 13.9 7.7 3.5 20.4 11.6 41.7 23.9 63.4-3.7 8.5-9.8 21.1-17.5 31.7-6-4.4-12.6-6.6-19.5-6.6-3.9 0-7.9.7-11.9 2.2-11 4-17.4 12.9-18.5 25.7-.7 8.2.8 17.8 4.3 28.7 1.1 3.5 2.5 8 4.6 12.4 0 .1.1.2.1.3l.9 4.9h1.1c.8 1.4 1.6 2.6 2.4 3.8.6.8 1.1 1.7 1.7 2.7l1.5 2.5 2.9.3c.8.1 1.8.4 2.4.7-.2.3-.4.7-.8 1.3l-2.3 3 1.8 3.4c.1.3 3.6 6.7 8.6 13.5 7.3 9.8 14 15.2 20.6 16.3 2.2.6 4.3.9 6.4.9 6 0 14.6-2.4 21.7-14.1 1.5-2.4 2.6-5.1 3.5-8.1l1.7-.3 1.4-1.6c1.1-1.2 24.5-27.6 40.5-59.2 1.4 2.3 3.1 4.7 5.1 7.2 7.6 9.2 21.7 21.1 46 25.6 2.6.5 5.2.7 7.7.7 13.5 0 25.5-7.1 34.8-20.5.7 0 1.3.1 1.9.1 9.7 0 23.2-4.3 32.8-24.7 5.3-11.3 6.9-22.5 7-23l.3-2-.5-.8 1.6-.2.1-5 .4-10c.5-8-1.7-14.8-6.6-20.1-5.8-6.4-14.1-9-19.6-10h-.4c-2.4-.4-4.2-.6-5-.6-.9-.1-1.8-.2-2.7-.2-8.2 0-14.6 4.5-19.1 9.3-.2-.5-.3-1-.5-1.4l-.1-.4c-.2-1-3.5-23.4-10.9-49.2l.8-.6c5-4.1 8.4-9.3 10.2-15.7 14.8-1.6 27.9-5.8 33.1-7.6 2.9 1.2 7.8 2.8 13.7 2.8 1.8 0 3.5-.1 5.2-.4 27.1-4.2 31-43 31.5-49.8 1.1-3.6.2-8-3.6-10.5-.8-.6-1.6-1-2.6-1.2.4-3.5-1.2-8.4-7.3-10.4-1.1-.4-2.3-.6-3.5-.6-1.2 0-2.4.2-3.4.6V220.5c0-.5 0-2.2-.6-4-.2-.9-.5-1.8-1-2.7l-.6-1.6h-.4c-1.7-2.3-4.4-4.1-7.9-4.3-.3 0-.6-.1-1-.1-2.5 0-4.9 1-6.7 2.9-2.4 2.2-3.3 4.8-3.5 5.6l-.1.3-.1.4-.3 2c-2-2.2-4.9-3.8-8.5-3.8h-.4c-.7 0-1.4.1-2.1.2-4.4.8-7.6 3.6-9 7.7-.8 2.4-.7 4.5-.6 5.3l1.3 19.5h-5.2c-6.4 0-12 .1-16.7.4 3.7-2.2 7.2-5.3 10.1-9.1l9.1-11.7-11.3 1.6c5.2-4.6 9.5-11.4 9.7-20.8l.4-13.9-5.3 4.7c1.5-10.1 4.2-31.4-2.7-55.4-6.5-22.3-19.7-41.1-39.3-56.2l12.8 4.4-25.8-21.3c-.7-.6-18.1-14.7-49.5-14.7-15.8 0-32.4 3.6-49.4 10.6l12.4-19.4z"/><path class="st0" d="M391.7 448.5c-1.7 0-3.6-.2-5.4-.5-5.1-.9-8.7-3.5-10.6-7.8-9.5-20.9 23.3-75.9 24.7-78.2l.4-.7h.8c.6 0 14 .6 21.9 9.2 4 4.4 5.8 10.1 5.4 16.9l-.8 11.2-1.1.2s-1 .2-1.3.9c-.4.9-.1 2.4.9 4.3l.2.4-.1.5c-.1.4-1.6 10.9-6.6 21.6-6.7 14.4-16.5 22-28.4 22z"/><path d="M401.6 362.7s27.3.9 25.9 24.5l-.7 10s-5 .7-1.4 7.4c0 0-6 42.4-33.7 42.4-1.6 0-3.4-.1-5.1-.5-32.2-5.6 15-83.8 15-83.8m-1.6-2.9l-.9 1.4c-.1.1-8.7 14.4-16 31.1-10.1 22.9-13 39.2-8.8 48.5 2.2 4.8 6.1 7.7 11.7 8.7 1.9.3 3.8.5 5.6.5 12.5 0 22.8-7.9 29.8-22.9 5.1-10.9 6.6-21.6 6.7-22l.1-.9-.5-.8c-1-1.9-1-2.8-.9-3 0 0 .2-.1.3-.2l2.4-.2v-2.4l.7-10c.4-7.2-1.5-13.3-5.8-17.9-8.3-9.1-22.3-9.6-22.9-9.7l-1.5-.2z"/><path class="st1" d="M385 448.1c-4.5 0-8.1-1.7-10.7-5.2-11.6-15.5 1.5-61.5 2.1-63.4v-.2c.3-.7 8.7-18.2 23.1-18.2 1.7 0 3.4.2 5.1.7 17 4.8 18.8 20 17.1 28.2-.1.7-.3 1.9-.5 3.4-1.9 12.9-7.6 52.2-34.6 54.6-.5.1-1.1.1-1.6.1z"/><path d="M399.6 362.6c1.5 0 3 .2 4.7.7 16.5 4.7 17.6 19.3 16.1 26.5-1.4 7.2-5 54.3-33.8 56.9-.5 0-1 .1-1.5.1-26.6 0-7.2-66.8-7.2-66.8s8-17.4 21.7-17.4m0-2.6c-15.3 0-24 18.1-24.4 18.8l-.1.1-.1.2c-.1.5-3.5 12.1-5.5 25.8-2.8 18.9-1.5 32 3.7 38.9 2.9 3.8 6.8 5.7 11.8 5.7.6 0 1.2 0 1.8-.1 28.1-2.5 33.9-42.7 35.9-55.8.2-1.5.4-2.6.5-3.3 1.7-8.7-.1-24.6-18.2-29.7-1.8-.5-3.6-.6-5.4-.6z"/><path class="st2" d="M248.3 367s-12.9 37.1-32.5 55.3c0 0 25 74.7 35.2 73.1 0 0 29.7-33.3 44.9-69.3 0 0 8.7 32.8 52.3 40.8 43.6 8.1 55.4-65 53.2-75.2-2.1-10.2-15-16.1-23.6-11.8 0 0-5.9-26.3-13.4-29.6L248.3 367z"/><path class="st3" d="M289.2 409.4c-3 6.5-11.2 22.3-29.4 33-10.8 6.3-21 8.5-27.6 9.3 5.1 15.6 10.3 31.3 15.4 46.9 7.2-7.5 15-16.5 22.6-27.2 5.5-7.8 10.1-15.2 14-22.2 3.3-6.2 6.7-12.3 10-18.5-.5-2.1-1.6-7-2.1-9.1-.8-3.4-2.1-8.7-2.9-12.2zM365.2 423.5s4.3-39.4-6-45.6l14.8-10.5s11.5 22.7 5 31.8c0 0 2.1-17.2 1.2-20.2 1.5-.3 3.4-.5 5.5-.4 4.6.2 8.2 1.7 10.3 2.9 1.4 1.3 3.4 3.7 4.7 7.2.5 1.4 1.1 3.6.7 9.7-.1 1.3-.8 13.2-2.5 13.3-1.5 0-.9-8.8-4.3-10-7-2.6-22.8 28.8-28 26.6-1.2-.6-1.4-2.7-1.4-4.8z"/><path class="st1" d="M227.2 518.8c-8.4 0-14.9-5.9-15.2-6.2l-.5-.5 1.8-40.5-28.5-2.4-.4-.7c-.6-1.2-14.4-29.8-7-48.3 2.5-6.1 7-10.4 13.5-12.8 3.5-1.3 7-1.9 10.4-1.9 9.8 0 19.1 5.5 26.8 16 5.6 7.5 8.4 15 8.7 15.7.4.9 5.6 12.4 9.2 26.3 5 19.5 4.7 34.1-1 43.4-4.9 7.9-10.9 11.9-17.8 11.9z"/><path d="M201.3 406.9c22.8 0 34.2 30.9 34.2 30.9s21.5 46.9 8.2 68.4c-5.3 8.6-11.3 11.2-16.6 11.2-7.9 0-14.2-5.8-14.2-5.8l1.8-41.2-29-2.5s-23.6-48.4 5.7-59.1c3.5-1.4 6.8-1.9 9.9-1.9m-.3-2.9v2.9-2.9h.3c-3.5 0-7.2.7-10.9 2-6.9 2.5-11.7 7.1-14.3 13.6-7.7 19 6.4 48.2 7 49.5l.7 1.5 1.6.1 26.3 2.2-1.7 38.5-.1 1.3 1 .9c.3.3 7.2 6.5 16.2 6.5 5.1 0 12.6-2.2 19-12.5 13.7-22.3-6.7-68-8-71-.4-1-3.5-8.5-9-16-8-10.9-17.1-16.6-28.1-16.6z"/><path class="st0" d="M223.3 518.1c-13 0-27.1-26.6-27.7-27.7l-.4-.8.5-.7c1.8-2.4 2.4-4.4 1.8-5.9-1-2.4-5.1-3.5-6.6-3.7l-.7-.1-.4-.6c-17.6-29.4-12.5-46-12.3-46.7l.1-.2.1-.2c2-3.2 4.6-5.6 7.7-7 2.3-1.1 4.8-1.6 7.4-1.6 6.3 0 13 3 18.3 8.3l.1.1 6.9 10.2v.1c1.1 2 27.9 49.7 14.6 70.3-2.5 4.1-5.7 6.2-9.4 6.2z"/><path d="M192.8 424.4c5.8 0 12.1 2.8 17.3 7.9 4.4 6.5 6.8 10 6.8 10s27.6 48.7 14.7 68.8c-2.5 3.9-5.4 5.5-8.3 5.5-12.3 0-26.4-27-26.4-27 7.5-10-5.7-11.8-5.7-11.8-17.4-29.2-12.2-45.5-12.2-45.5 1.4-2.2 3.6-4.9 7.1-6.5 2-.9 4.3-1.4 6.7-1.4m0-2.8c-2.9 0-5.6.6-8 1.7-3.3 1.6-6.1 4.1-8.3 7.6l-.2.3-.1.3c-.2.7-5.5 17.9 12.4 47.8l.7 1.2 1.4.2c1.8.3 4.8 1.3 5.4 2.8.5 1.3-.8 3.4-1.6 4.5l-1.1 1.4.8 1.6c.1.3 3.7 7 8.9 13.9 7.3 9.7 14.1 14.6 20.1 14.6 4.2 0 7.8-2.3 10.7-6.8 13.7-21.3-13.4-69.7-14.6-71.7l-.1-.1-.1-.1-6.8-10-.2-.2-.2-.2c-5.4-5.6-12.4-8.8-19.1-8.8z"/><path class="st4" d="M203.2 256.5l-2.3 30.1s-34.2-9.7-47.8-7.5c-13.6 2.1-17.9 5-26.5-3.9 0 0-14.3.4-14.3-7.5s10-8.2 10-8.2l-10-31.5s-1.1-3.5.7-4.4c1.8-.9 4.3-.6 5.7 1.2s7.9 10.4 7.9 10.4l-5-14.3s-1.4-3.9 1.4-5.4c2.9-1.4 6.1 2.1 6.1 2.1l7.9 14.3-2.9-10.6s-.7-2.3 1.4-3.4c2.1-1.1 4 2.1 4 2.1l5.4 12.2v-6.4s1-1.8 2.8-1.8c1.8 0 3.6 1.8 3.6 3.2 0 1.4 3.6 20.1 6.8 22.6 3.3 2.4 33.2 8.8 45.1 6.7z" id="right"/><g id="shirt"><path class="st5" d="M301.8 398c-34.9 0-58.1-22.2-58.3-22.4l-.1-.2-.1-.2c-13.3-22.9-21.6-45.3-24.9-66.5-9.5-2.3-14.5-7.1-14.7-7.4l-.2-.2-.1-.2c-5.1-10.9-4.9-24-3.8-33.2 1.2-9.8 3.6-17 3.7-17.3l.2-.6.5-.3c3.3-1.7 24.3-5.6 26.7-6l1.8-.3-.3 4.9 91-4.1.4.2c.6.3 1.2.7 1.8 1.1 3.5-.3 8.6-.6 14-.6 18 0 27.6 3.2 28.4 9.5.8 1.6 5.1 10.4 7.3 21.1 3.2 15.7.1 27.9-8.9 35.2l-.2.2-.3.1c-.1 0-1.2.4-3.1.7 8.2 27.4 12.1 52.8 12.1 53.1l.1.8-.6.6c-23.3 21.2-47.7 32-72.4 32z"/><path d="M231.1 245l-.3 4.7 92.2-4.1c.7.4 1.4.8 2.1 1.3 3.4-.3 8.7-.6 14.4-.6 12.3 0 26.4 1.5 27 8.5 0 0 19.9 37.6-1.1 54.8 0 0-1.7.5-4.5.9 8.6 28.2 12.6 54.4 12.6 54.4-26.6 24.1-51.2 31.6-71.6 31.6-34.7 0-57.3-22-57.3-22-15.1-26.1-22.2-48.6-24.8-67-9.9-2.1-14.9-7.2-14.9-7.2-9.7-20.4 0-49.4 0-49.4 3.1-1.6 26.2-5.9 26.2-5.9m3.1-3.5l-3.6.7c-3.9.7-23.7 4.5-27.1 6.2l-1.1.5-.4 1.1c-.4 1.2-9.9 30.4.1 51.6l.2.4.4.4c.2.2 5.1 5 14.4 7.5 3.4 21.1 11.7 43.3 24.9 66.1l.2.3.3.3c1 .9 23.8 22.8 59.3 22.8 25 0 49.8-10.9 73.5-32.4l1.1-1-.2-1.5c0-.3-3.8-24.9-11.7-51.7 1-.2 1.6-.4 1.7-.4l.5-.2.4-.3c9.4-7.7 12.7-20.4 9.4-36.6-2.1-10.5-6.3-19.1-7.3-21.2-1.1-7-10.9-10.5-29.8-10.5-5.3 0-10.2.3-13.6.5l-1.5-.9-.7-.4h-.8l-89 4 .1-1.5.3-3.8z"/></g><path class="st6" d="M345.8 311.3s18.6 60 8 68.7c0 0 14.9-9.9 19.6-15.1 0 0-9-49.7-12.9-52-3.9-2.3-14.7-1.6-14.7-1.6z"/><path class="st6" d="M345.8 311.2s-2.5-6.6-9-10.2c-6.4-3.6 22.6 7 25.8-9h11.8s-.7 12.4-9.1 17c.1 0-17.7 4.3-19.5 2.2zM215 285.2s-11.4 4.1-14.4-2.9c0 0 .9 12.1 4.2 18 0 0 5.2 4.7 10.2 6.1v-21.2z"/><path class="st4" d="M364.5 256.5s-15 4.2-14 19.3c1.1 15.1 13.3 17.2 13.3 17.2s24.4-.7 49.1-8.6c0 0 38.3 21.1 44.4-44.4 0 0-1.8-7.2-8.6 2.9l1.8-9s1.8-5.4-2.5-6.8c-4.3-1.4-6.4 4.7-6.4 4.7l-5.7 12.2 1.1-23.6s-.4-5.7-5-6.4c-4.7-.7-5.4 7.3-5.4 7.3l-3.6 20.6-5.4-16.5s-2.5-5-6.8-4.1c-4.3.9-4.7 6.6-4.7 6.6l1.8 26.1c-.1 0-35.6-1.1-43.4 2.5z" id="left"/><path class="st7" d="M363.5 248.1c-11.1 0-20.1-6.2-20.5-6.4l-.8-.6.3-1.3.2-.2c11.9-15.1 18.2-33.3 18.2-52.6 0-3.6-.2-7.2-.7-10.8v-.3l.5-1.6c-.8-.4-2.1-.8-3.6-.8-3.9 0-7.1 2.8-9.7 8.2-5.5 12-13.7 13.2-17 13.2-.7 0-1.1-.1-1.2-.1l-1.2-.2v-1.2c.1-10.5-3.1-19.2-9.5-25.6-6.6-6.7-20.2-14.6-47.6-14.6-5.3 0-9.6.3-12.1.6 3.9 6 5 11.3 3.5 15.7-2.1 6.1-8.6 8-8.8 8.1l-3.3 1 1.6-3c.8-1.4.8-2.8-.1-4.2-1-1.7-5.8-7.1-25.6-7.1-16.4 0-26.3-5.6-30.8-9.1l.4 3-.1.3c-3.2 9.1-4.9 18.7-4.9 28.5 0 13.7 3.4 27.4 9.7 39.5l.7 1.4-1.4.6c-3.9 1.7-7.6 2.6-11.1 2.6-15.6 0-20.8-17.7-20.8-17.9l-.7-2.5 2.5.7c.5.1.9.2 1.4.2 4.7 0 6.9-8 7.8-13.2-1.2.4-2.3.7-3.4.7-7.2 0-9.6-9.1-9.7-9.5l-.4-1.6h1.8c5.5 0 9.2-.3 11-2.5 2.8-3.3 2.5-12-1.1-33.1-2.6-15.1 3.7-31.6 18-47.5 9.7-10.7 19.8-17.8 22.1-19.3 5.1-17.1 14.5-22.7 14.9-22.9l4.9-2.8-3 4.8c-3.7 6.1-3.2 7.8-3 8 .2.4.9.4 1.3.4 1.6 0 3.8-.8 4.5-1.1 17.6-7.7 34.7-11.6 50.8-11.6 15.5 0 27.4 3.7 34.5 6.8 7.8 3.4 11.9 6.7 12.1 6.9l6.2 5.1-7.5-2.6c-1.8-.6-3.6-1-5.3-1-1.6 0-2.9.3-3.9.6 32.2 16.2 52.9 39.3 61.5 68.7 7 24.1 3.8 45.6 2.4 54.8-.2 1.4-.4 2.5-.4 3.2-.4 3.7.3 4.7.5 4.9.1.1.2.2.4.2.8 0 1.9-.7 2.3-1.1l2.4-2-.1 3.2c-.5 16.3-14.3 22.2-19.9 23.9 2.4 1.9 6.5 2.3 9 2.3 1.9 0 3.3-.2 3.3-.2l3.5-.5-2.2 2.8c-6.1 7.7-13.8 11.7-22.8 11.7z"/><path d="M287.6 61.9c29.6 0 45.7 13.3 45.7 13.3-2.2-.8-4.1-1-5.8-1-4.6 0-7.1 2.1-7.1 2.1 84.5 40.8 66.3 115.7 65.2 126.4-.5 5.3.8 6.6 2.3 6.6 1.5 0 3.3-1.4 3.3-1.4-.5 19.3-21 23.1-21 23.1 2.1 3.8 7.8 4.5 11.5 4.5 2 0 3.5-.2 3.5-.2-6.8 8.7-14.7 11.3-21.8 11.3-10.8 0-19.7-6.2-19.7-6.2 11.6-14.7 18.6-33.3 18.6-53.5 0-3.7-.2-7.4-.7-11l.7-2.5s-.4-.3-1.1-.6c-1-.4-2.5-.9-4.2-.9-3.3 0-7.6 1.7-11 9-5.2 11.4-13 12.4-15.7 12.4-.6 0-1-.1-1-.1.4-36.5-37.1-41.7-58.5-41.7-8.6 0-14.6.8-14.6.8 13.4 18.8-3.2 23.6-3.2 23.6 3.2-5.9-3.8-13.4-26.9-13.4-16.5 0-26.1-5.7-30.3-9-1.7-1.3-2.5-2.3-2.5-2.3l.9 6.5c-3.2 9.1-5 18.8-5 29 0 14.5 3.6 28.2 9.9 40.2-4 1.8-7.4 2.5-10.5 2.5-14.7 0-19.5-16.9-19.5-16.9.6.2 1.2.3 1.8.3 8.1 0 9.5-17.1 9.5-17.1-2 1.2-3.7 1.7-5.2 1.7-6.2 0-8.3-8.5-8.3-8.5 14.5 0 17.4-1.2 11.3-37.1-6.1-35.9 39.9-65.5 39.9-65.5 5-17.2 14.4-22.6 14.4-22.6-5.4 8.7-3.3 10.7-.4 10.7 2.3 0 5.1-1.2 5.1-1.2 19.6-8.4 36.5-11.3 50.4-11.3m-46.6-6l-9.8 5.6c-.4.2-10.1 5.9-15.4 23.2-3 2-12.7 8.9-21.9 19.2-14.7 16.2-21 33.1-18.4 48.6 2.9 17.3 4.2 28.5 1.5 31.8-1.4 1.7-5 1.7-9.9 1.7h-3.7l.9 3.7c1 4 4.4 10.8 11 10.8.5 0 1 0 1.6-.1-1 4.6-3 9.8-5.9 9.8-.3 0-.6 0-1-.1l-4.9-1.4 1.4 4.9c.1.2 1.4 4.8 4.6 9.3 4.5 6.3 10.6 9.6 17.6 9.6 3.6 0 7.6-.9 11.6-2.7l2.8-1.2-1.4-2.7c-6.3-11.9-9.6-25.3-9.6-38.8 0-9.6 1.6-19 4.8-28l.2-.7v-.1c5.5 3.4 14.9 7.5 29 7.5 19.5 0 23.7 5.3 24.3 6.4.6.9.6 1.8 0 2.8l-3.3 6 6.6-1.9c.3-.1 7.4-2.2 9.8-9 1.5-4.3.7-9.4-2.5-15 2.5-.2 5.8-.4 9.7-.4 14.9 0 35 2.5 46.6 14.2 6.1 6.2 9.2 14.5 9.1 24.6v2.5l2.4.4c.1 0 .6.1 1.4.1 3.5 0 12.4-1.4 18.3-14.1 2.2-4.9 5.1-7.3 8.4-7.3.7 0 1.4.1 1.9.3v.1l-.2.6.1.6c.4 3.5.7 7.1.7 10.6 0 19-6.2 36.9-17.9 51.8l-.4.4-.2.6-.6 2 1.7 1.2c.4.3 9.8 6.7 21.3 6.7 9.5 0 17.6-4.2 24-12.4l4.3-5.6-7 1s-1.3.2-3.1.2c-2.1 0-3.8-.2-5.3-.6 1.7-.7 3.6-1.7 5.6-2.9 7.6-4.9 11.7-12.2 12-21.1l.2-6.3-4.9 4-.9.6c-.1-.5-.2-1.6 0-3.3.1-.7.2-1.8.4-3.1 1.4-9.3 4.7-31-2.5-55.4-8.3-28.5-27.9-51.2-58.2-67.5 1.3.1 2.7.4 4.1.9l15.1 5.2-12-10.7c-.7-.6-17.2-13.9-47.5-13.9-16.4 0-33.7 4.1-51.4 11.9-.9.4-2.7 1.1-3.9 1.1.1-1 .6-2.7 2.9-6.4l5.8-9.8z"/><path class="st8" d="M271.2 291.1c-1.3 0-2.7-.1-4-.3-6.8-1-11.6-3.5-14.5-7.4-2.3-3.2-3.2-7.5-2.6-12.3-22.3-6.8-41.2-22.5-52.1-43.3-1-1.8-1.9-3.7-2.7-5.6-.3.2-.7.3-1 .3-.2 0-.4.1-.6.1-5 0-9.2-9.4-10.7-18.7-.9-5.1-1-10.1-.3-13.9 1-5.6 3.2-7.1 4.9-7.4.2 0 .3 0 .5-.1.4-8.6 2.1-17 4.9-25 .5-1.5 1.1-2.9 1.7-4.3l.7-1.7 1.5 1.2c4.1 3.3 13.5 8.7 29.4 8.7 14.6 0 24.8 3.1 28 8.5.7 1.2 1.1 2.5 1 3.8 1.6-1 3.5-2.6 4.4-5.1 1.4-4-.2-9-4.5-15.1l-1.4-1.9 2.3-.3c.2 0 6.2-.8 14.8-.8 15.7 0 37 2.7 49.6 15.4 6.7 6.7 10.1 15.6 10.3 26.3 2.2-.1 6.8-1 11-6.5 2.5-11.2 8.6-18.4 15.6-18.4 9.4 0 16.7 12.7 16.7 28.8s-7.4 28.8-16.7 28.8c-.7 0-1.4-.1-2.1-.2-2.8 6-6.3 11.6-10.4 16.8-10.8 13.7-25.3 23.8-41.9 29.2-5.5 7.8-16.8 20.4-31.8 20.4z"/><path d="M270.9 151.8c21.4 0 58.9 5.2 58.5 41.7 0 0 .4.1 1 .1 2.2 0 7.9-.7 12.7-7.4 2.2-10.3 7.8-17.6 14.3-17.6 8.5 0 15.3 12.3 15.3 27.4 0 15.1-6.9 27.4-15.3 27.4-1 0-1.9-.2-2.8-.5-2.9 6.3-6.5 12.3-10.8 17.7-10.6 13.4-25 23.6-41.6 28.9-5.8 8.3-16.6 20.3-30.9 20.3-1.3 0-2.5-.1-3.8-.3-16-2.4-16.9-12.7-15.7-19.3-22.8-6.6-41.6-22.3-52.5-42.9-1.2-2.4-2.4-4.8-3.4-7.3-.5.7-1.2 1.1-1.9 1.2h-.4c-3.6 0-7.7-7.6-9.3-17.5-1.7-10.2-.2-19 3.5-19.7h.4c.4 0 .8.1 1.2.3.3-9.2 2-18 4.9-26.3.5-1.4 1-2.8 1.6-4.2 4.2 3.3 13.8 9 30.3 9 23.1 0 30.1 7.5 26.9 13.4 0 0 16.7-4.8 3.2-23.6 0 0 6-.8 14.6-.8m.1-2.9v2.9-2.9c-9 0-14.8.8-15 .9l-4.7.7 2.7 3.9c4 5.6 5.5 10.4 4.3 13.8-.4 1.2-1.1 2.2-1.9 3-.2-.6-.5-1.3-.9-1.9-3.5-5.9-13.9-9.2-29.2-9.2-15.5 0-24.5-5.3-28.5-8.4l-3-2.3-1.5 3.5c-.6 1.4-1.2 2.9-1.7 4.4-2.8 7.8-4.4 16-5 24.3-5.9 1.7-6.9 12.9-5.2 22.8 1.7 9.9 6.1 19.9 12.2 19.9.3 0 .6 0 .9-.1.7 1.5 1.4 3.1 2.2 4.6 10.9 20.7 29.7 36.5 51.9 43.6-.4 4.7.7 8.8 3 12.1 3.1 4.3 8.2 7 15.4 8 1.4.2 2.8.3 4.3.3 15.4 0 26.9-12.6 32.7-20.7 16.6-5.5 31.2-15.7 42.1-29.5 3.9-5 7.4-10.4 10.1-16.1.4 0 .8.1 1.2.1 10.2 0 18.2-13.3 18.2-30.3s-8-30.3-18.2-30.3c-7.7 0-14.3 7.5-17 19.2-3 3.8-6.1 5.1-8.3 5.5-.5-10.4-4-19-10.6-25.7-7.1-7.4-21.5-16.1-50.5-16.1z"/><path class="st9" d="M196.1 286.7c-1.6 1.8-5.5-.1-17-3.2-4.6-1.2-7.5-1.8-13.4-3-3-.6-5.2-1-8.2-.9-2.4.1-3 .5-7.7 1.3-5.6.9-8.4 1.4-10.6 1.3-3.4-.2-6.6-.5-9.3-2.7-1.6-1.3-2.6-2.9-5-3.6-1.3-.3-1.5 0-3.4-.2-1.2-.1-4.4-.4-7.2-2.5-1.1-.8-3.6-2.8-3.5-5.6.1-2.6 2.4-4.3 3.6-5.1 6.8-4.6 9.4.6 9.4.6l-11.5-33.4s-2.1-4.1.7-6.2c2.9-2.2 5.7 1.2 5.7 1.2l7.9 10.4-5.3-13s-1.9-4.8 1.7-6.7c3.6-1.9 6.1 2.1 6.1 2.1l7.9 14.3-2.9-10.6s-1.1-2.3 1.4-3.4 3.6 2.1 3.6 2.1l4.8 12.2v-4.9c0-3.3 3.3-3.3 3.3-3.3 3.9.5 3.9 3.8 3.9 3.8 1.8 18.8 7.6 22.5 7.6 22.5 6.8 3.2 12.4 4.4 16.3 4.9 3.2.4 7.1.1 12.2.7.5.1 2.1.2 5.2.4 1.9.1 3 .2 4.5-.2 1.4-.3 1.6-.7 2-.5 1.4.7-1.3 6.2-2 14.5-.7 8-.5 12.2-.5 12.2.2 2.8.4 3.7-.3 4.5z"/><path class="st10" d="M161.1 251.6s-7-.7-9.2 2.1"/><path class="st11" d="M360 268.3s-2.7-9.6-6.9-3.3-2.9 18.2 2.9 24.3c5.9 6 4-21 4-21z"/><path class="st12" d="M352.3 266.3s4.5-8.4 14.7-10.6 40.9-1.7 40.9-1.7l-1.8-26.1s-.7-5.8 4.7-6.6 6.8 4.1 6.8 4.1l5.4 16.5 3.9-23.9s1.2-4.1 5-4.1 4.6 4.4 4.6 4.4l-.6 25.7 6.8-14.2s1.5-3.9 5.4-2.6 2.9 4.4 2.9 4.4l-2.2 11.3 3.4-4s1.6-2.3 4-.9c2.3 1.4 1 4.3 1 4.3s-2.8 59.5-44.2 42.2c0 0-25.4 9.9-49.1 8.6 0 0-6.8-.7-9.5-6.3"/><path class="st13" d="M407 252.7v7.8h-10s-4.8 2.2-4.5 7.5c.2 5.3 6 6.5 6 6.5h8.5"/><path class="st14" d="M416.4 285.5s-3.9-1.8-5.1-4.9"/><path class="st15" d="M289.6 409.8c2.1 18.6 14.8 33.9 14.8 33.9"/><path class="st16" d="M190.4 478.9s20.8 1.4 26.9 0"/><path class="st17" d="M197.5 484.7s13.2 1.4 17.1 0"/><path class="st16" d="M195.7 489.7s20.8 1.4 26.9 0"/><path class="st10" d="M190.4 165.6s-5 23.2-1 36.5M356.5 224.7s-3.7.2-5-3.3M362.8 195s3.3-15.5-4.5-18.4"/><path class="st10" d="M356.5 209.9s-5.4-.4-5-8.7c0 0 6 1 6-4.3s-7.1-3.8-7.1-3.8-1.8-15.8 7.8-16.5 10 16 10 16 1 9.3-3.3 14.1M374 366.5s9.7 16.7 5.9 32.2"/><path class="st18" d="M367.3 311.3s-4.7 3.6-19.3 0M217.4 310.7s-2.3-12.9-1-25"/><path class="st19" d="M257 312.1l-14.5 14.4 13.6 13.6"/><path class="st20" d="M316.1 311l14.1 14.5L317 339"/><path class="st21" d="M301.2 309.9L288 342"/><path class="st22" d="M226.7 176.5c7.8-1.5 15.5 3.8 17 11.9l3.2-.6c-1.9-10-11.3-16.3-20.9-14.5s-15.9 11.2-13.9 21.2l3.2-.6c-1.5-8.2 3.6-15.9 11.4-17.4zM280.4 168.7c7.9-.3 14.5 6 14.8 14.2l3.2-.1c-.4-10.1-8.5-17.7-18.2-17.3-9.7.3-17.3 8.5-16.9 18.6l3.2-.1c-.1-8.2 6.1-15 13.9-15.3z"/><g><path class="st23" d="M275.8 275.6c-8.4 0-16.7-1.3-24.7-4-32.8-10.7-48.1-34.6-54.6-48.6 4.8 6.4 10.5 12.4 15 12.4h.4c.7-.1 3-.3 4.3-2 2.2-3.1-.8-7.7-1.7-9-.5-1.4-.9-3.5-.6-5.9.1-.9.6-3.1 1.9-5.1 2.5-3.7 7-4.6 11.3-5.5 1.4-.3 4.3-.9 8.1-.9 2.6 0 5.2.3 7.8.9 1.6.4 2.9.8 4 1.2 1.8.6 3.3 1.1 5.3 1.1.5 0 1 0 1.6-.1 4.4-.6 7.3-2.9 8.7-4.1l.2-.2c7.2-5.7 19.1-8.6 35.6-8.6h1.3c8.7 0 16.4.5 22 6 2.5 2.5 4.3 5.6 5.4 9.4l2.2 9.4 1.7-1c1.9-1.2 3.6-2.6 5-4.2 2.2-2.6 3.3-5.2 4.2-7.6 1.8-5.1 2.9-10.7 3.6-15.3 4.7 10.7 1.5 29.9 1.5 30.1l-.1.5.2.4c1.6 3 4 3.6 5.8 3.6h.8c-8.4 20.4-38.4 47.1-76.2 47.1z"/><path d="M299.9 198.4c8.7 0 15.7.4 21 5.6 2.3 2.3 4 5.2 5 8.7l1.8 7.5.9 3.8 3.4-2.1c2-1.2 3.8-2.8 5.3-4.5 2.4-2.8 3.6-5.5 4.5-8.1 1.1-3.1 2-6.4 2.6-9.6 1.6 8.4.5 19-.3 23.6l-.2 1 .5.9c1.3 2.4 3.3 3.9 5.7 4.3-4.7 10-13.7 20.3-25 28.3-14.8 10.5-32.3 16.3-49.2 16.3-8.2 0-16.4-1.3-24.3-3.9-19.6-6.4-35.3-18.2-46.5-35-.5-.8-1.1-1.6-1.6-2.4 3 2.6 5.7 3.9 8.1 3.9h.6c2.4-.2 4.2-1.1 5.3-2.6 2.6-3.7-.4-8.8-1.6-10.5-.4-1.2-.8-3-.5-5.1.1-.6.5-2.7 1.7-4.5 2.2-3.2 6.4-4.1 10.4-4.9 1.4-.3 4.2-.9 7.8-.9 2.5 0 5 .3 7.4.8 1.6.4 2.8.8 3.9 1.1 1.8.6 3.5 1.2 5.7 1.2.6 0 1.2 0 1.8-.1 4.8-.6 8.1-3.2 9.5-4.4l.2-.2c8.6-6.8 23.6-8.3 34.8-8.3l1.3.1m43.2-9c-.4 3.4-1.5 11.7-4.1 19.1-.9 2.5-1.9 4.8-3.9 7.2-1.7 1.9-3.4 3.2-4.7 3.9l-1.8-7.5c-.8-2.7-2.3-6.6-5.7-10-6.2-6.2-14.7-6.4-23-6.4h-1.3c-5.4 0-25.4 0-36.5 9-1.2 1-4 3.4-8.2 3.9-.5.1-1 .1-1.4.1-2.9 0-4.7-1.3-9-2.2-2.9-.7-5.7-.9-8.1-.9-3.8 0-6.8.6-8.4.9-4.4.9-9.3 1.9-12.2 6.1-1.6 2.4-2.1 5.1-2.1 5.7-.4 3.1.3 5.6.7 6.8.2.3 3.6 5 1.8 7.5-.9 1.2-2.6 1.4-3.2 1.4h-.3c-6.9 0-18.1-17.7-20.5-21.5 0 0 10.6 44.5 59.6 60.6 8.6 2.8 17 4.1 25.2 4.1 38.6 0 70.9-27.8 78.7-51 0 0-1.4.7-3.1.7-1.6 0-3.3-.6-4.5-2.9-.2 0 4.1-24.7-4-34.6z"/></g><g><path class="st4" d="M268.4 258.3c-10.7 0-25.5-3.7-34.5-12.1-9.8-9.1-12.9-24.6-11.2-28.2.8-1.5 2.3-2.3 4.5-2.3.8 0 1.5.1 1.7.2 5.3 2.2 11.7 3.4 19.2 3.4 22.3 0 46.7-9.7 49.3-10.7.3 0 1-.1 2-.1 13.3 0 16.8 8.3 17.7 13.3 2.8 15.1-3.5 23.4-4.2 24.3-12.3 10.3-31.7 11.6-42.1 12.2h-2.4z"/><path d="M299.5 209.9c12.2 0 15.5 7.6 16.3 12.1 1.2 6.3.9 12.1-.9 17.3-1.1 3.3-2.5 5.2-2.9 5.7-12 9.9-30.9 11.2-41.1 11.8-.8.1-1.7.1-2.6.1-10.4 0-24.8-3.6-33.5-11.7-9.6-8.9-12.2-23.8-10.8-26.5.2-.4.8-1.5 3.2-1.5.6 0 1.1.1 1.3.1 5.4 2.3 12 3.4 19.7 3.4 22.1 0 46.1-9.4 49.6-10.8h1.7m0-2.9c-1.4 0-2.4.1-2.4.1s-25.9 10.7-49 10.7c-6.8 0-13.3-.9-18.8-3.3 0 0-.9-.2-2.2-.2-1.9 0-4.5.5-5.8 3.1-2.1 4.3 1.4 20.5 11.5 29.9 9.2 8.6 24.4 12.5 35.5 12.5.9 0 1.9 0 2.7-.1 11.2-.7 30.6-2.1 43-12.7 0 0 7.6-8.8 4.5-25.6-2.3-12.9-14-14.4-19-14.4z"/></g><path d="M223.5 227.6s3.8 7 10.6 4.5c0 0 2.9 3.9 8.4 2.3 0 0 3 2 0 2.9-3 .9-6.3.4-7.9-.9 0 0-6.4-1.4-6.6 1.3l-4.5-10.1zM315.6 216.3s-1.4 10.9-10.9 15.2c0 0-3.4 2.3-11.3.5 0 0-.9 3.2-10.6 3.2 0 0-3.6 2.3-6.4.4 0 0-3.6 1.8 0 2.5s2-2 7.9-.5c0 0 5.2-3.3 10.6-1.2s12.7-4.5 20.8 2.7l2.5-5.2-.4-10-2.2-7.6z"/></g></svg>