<svg xmlns="http://www.w3.org/2000/svg" viewBox="0 0 570 570"><style>.st0{fill:#706C60;stroke:#000000;stroke-width:2.7696;stroke-miterlimit:10;} .st1{fill:#30271B;stroke:#000000;stroke-width:2.7696;stroke-miterlimit:10;} .st2{fill:none;stroke:#000000;stroke-width:2.7696;stroke-miterlimit:10;} .st3{fill:#E8DFDC;stroke:#000000;stroke-width:2.7696;stroke-miterlimit:10;} .st4{fill:#C3BEBE;} .st5{fill:#FBB672;stroke:#000000;stroke-width:2.301;stroke-linecap:round;stroke-linejoin:round;stroke-miterlimit:10;} .st6{fill:none;stroke:#000000;stroke-width:4.0027;stroke-linecap:round;stroke-miterlimit:10;} .st7{fill:#D3ECF1;stroke:#000000;stroke-width:2.301;stroke-linecap:round;stroke-miterlimit:10;} .st8{fill:#D3ECF1;stroke:#000000;stroke-width:2.7696;stroke-linejoin:round;stroke-miterlimit:10;} .st9{fill:#A1D9D7;} .st10{fill:none;stroke:#000000;stroke-width:2.7696;stroke-linejoin:round;stroke-miterlimit:10;} .st11{fill:#6B908D;} .st12{fill:#FBB672;stroke:#000000;stroke-width:2.7696;stroke-linecap:round;stroke-linejoin:round;stroke-miterlimit:10;} .st13{fill:none;stroke:#000000;stroke-width:3.3019;stroke-miterlimit:10;} .st14{fill:none;stroke:#000000;stroke-width:2.7696;stroke-linecap:round;stroke-miterlimit:10;} .st15{fill:#543A17;stroke:#000000;stroke-width:2.7696;stroke-miterlimit:10;} .st16{fill:#FAAD59;} .st17{stroke:#000000;stroke-width:2.0772;stroke-miterlimit:10;} .st18{fill:#6D4B1D;} .st19{fill:#FAAD59;stroke:#000000;stroke-width:2.7696;stroke-miterlimit:10;} .st20{fill:#FFFFFF;}</style><g id="Layer_5"><path d="M309.5 34.6h3.6c6.5.2 16.4.5 28.7 3.5 8.9 2.2 15.3 3.7 22.5 8.7 7.4 5.1 11.6 10.9 13.2 13.2 3.4 5 5.1 9.6 5.9 11.8 1.3 3.7 1.7 6.6 2.4 10.7.8 5.1 1.2 9.3 1.4 12.5.2 2.6.4 5.4.3 8.3 0 5-.4 9.5-1 13.5 0 2.2-.2 5.1-.9 8.4.8 3.3 1.3 6.9 1.3 10.7 0 14.6-6.6 26.5-14.8 26.5-.9 0-1.9-.2-2.8-.5-2.8 6.1-6.3 11.8-10.4 17.1-3.4 4.4-7.3 8.4-11.6 12 5 7.5 19.8 12.6 19.8 12.6s17.2 28.7 19.5 33c2.3 4.3 1.3 6.4 1.3 6.4-3.7 2.9-7.2 5.5-10.4 7.7 3.4-2.2 6.3-4.4 8.8-6.5 0 0 15.4 30.4 11.7 40.3 0 0-37.5 27.3-39.7 31.9 0 0-3.3 12.5-6 13.6 0 0-1.6.4-4 .8l2.2 18.1s-.8.2-2.6.6c-2 45.9.9 137.3 3.1 146.6 1.5 6.4-2.7 10.1-5.5 11.9-.4.4-.9.8-1.4 1.2-1.9 1.4-5.6 3.3-10.4 5.4-.8.3-1.6.7-2.4 1-.3.1-.6.2-.8.3-1.4.6-2.9 1.2-4.4 1.8-1.2.5-2.5 1-3.8 1.5-.6.2-1.3.5-2 .7-.3.1-.7.2-1 .4-.7.2-1.3.5-2 .7-3.1 1.1-6.3 2.2-9.5 3.3-.7.2-1.5.5-2.2.7-3.6 1.2-7.3 2.4-11 3.5-.7.2-1.5.5-2.2.7-7.6 2.3-15 4.4-21.3 5.8-1.2.3-2.3.5-3.4.8-.8.2-1.6.3-2.4.5-1.3.2-2.5.4-3.6.6-.2 0-.4.1-.7.1-.6.1-1.3.2-1.8.2-.4 0-.8.1-1.1.1h-1.4-.1c-.6 0-1.1 0-1.6-.1-.2 0-.4-.1-.6-.1-.1 0-.2-.1-.3-.1-.2-.1-.3-.1-.4-.2-.1 0-.1-.1-.2-.1-.1-.1-.2-.2-.2-.3-.4-.7.3-2 2.4-3.8 1.8-1.5 3.7-3.1 5.7-4.5 2.2-1.6 4.5-3.3 6.9-4.8-8.7.9-18.7 1.7-26.3 1.7-10 0-15.9-1.4-9.6-5.8 10.2-7 29.6-13.3 43.7-17.3 0 0 .1 0 .1.1 0 0 .5-.2 1.3-.5 8.7-2.4 15.1-3.9 15.2-3.9-5.7.8-12.4 2.9-15.2 3.9-.5.1-.9.3-1.4.4-38-34.2-54.2-60.8-54.2-60.8 4.5-13.2 10.7-76.3 12.3-93.4-4.8-2-3.9-3.7-3.9-3.7l7.4-50.3c-9.3 3.8-16.9 5.6-16.9 5.6-.9 1.6-5.5 9.4-14.3 11.2-1.2.3-2.5.4-3.8.4-8.9 0-18.1-6.1-22.5-16.3-6.7-2.4-11.3-5.4-11.5-7.6-.2-1.7.6-2.7.6-2.7.6-.7 1.4-1 1.6-1 .3-.1.6-.1.8-.1 1 0 1.8.5 1.9.6 2.6 1.3 5.2 2.7 7.7 4-2.8-2.3-5.5-4.7-8.3-7-.5-.4-1.5-1.1-2.1-2.4-.3-.7-.7-1.6-.3-2.7.4-1.2 1.5-1.8 1.7-1.8.5-.2 1-.3 1.5-.3.9 0 1.9.4 2.8 1 3.5 2.8 7.1 5.6 10.6 8.4l-11.9-16.7s-1.4-3.2 1.1-5c.7-.5 1.5-.7 2.2-.7 1.7 0 3 1.1 3 1.1 5.1 4.9 10.2 9.9 15.3 14.8-1.6-3.6-3.2-7.2-4.8-10.7-1.5-2.4-2.6-4.6-3.2-6.2-.6-1.5-1.1-3-.8-4.6.2-1.2.8-1.8.9-2 1-1 2.3-1 2.8-1h.1c2.2 0 3.7 1.7 3.9 2l14.7 23.1s18.6-13 27-16.9l.3-16.2c-13.1-9.2-9.3-25.3-7.5-28.1 1.3-1.9 12-11.8 18.5-17.7-12.5-7.8-22.7-18.9-29.6-32-1.2-2.3-2.3-4.6-3.3-7-.5.6-1.1 1-1.8 1.2h-.4c-3.4 0-7.4-7.3-9-16.9-1.7-9.9-.2-18.4 3.4-19h.4c.4 0 .8.1 1.2.3v-1.3c-.4-.1-.9-.2-1.3-.4-7.1-13.5-7-26.7-.5-32.5 1.3-1.2 3.5-2.6 7.2-3.2-1.6-2.8-6.1-11.4-3-20.1 1.9-5.4 6-8.2 13.8-13.6 2.6-1.8 9-6 18.7-9.7 8.3-3.1 14.8-4.2 22.5-5.5 7.9-1.3 13.7-1.8 22.2-2.4 8.9-1.1 14.2-1.5 20.2-1.5m35.6 256.7c.3-1.1.6-2.3.9-3.4.5-.3 1.8-1.3 3.8-1.3h.1c2.6.1 4.2 1.7 4.5 2 0 0 12.3-8.8 13.5-12.6-1-2.6-2.2-5.3-3.4-8.1-1.3-2.9-2.6-5.6-3.9-8.2-.4.1-.7.1-1 .1-.5 0-.8-.1-1-.3-.1-.1-1.3-1.1-2.6-2.6-1-1.1-1.8-2.2-2.3-2.9l-8.6 37.3m-54.7 162.4l-7.8-54.4-8 34.7 15.8 19.7m19.1-426.1c-6.3 0-11.7.4-20.8 1.1-8.5.6-14.6 1.1-22.8 2.5-8 1.4-14.9 2.5-23.8 5.9-7.3 2.8-14.3 6.4-20.2 10.5l-.1.1c-8.2 5.7-13.6 9.5-16.3 16.9-2.5 6.8-1.5 13.4.2 18.6-.9.6-1.7 1.2-2.4 1.9-8.4 7.6-9.5 22-3 36.9-1.1 1.7-2.1 4-2.6 7.1-.8 4.4-.7 9.8.2 15.4 1.7 10.2 6.3 21 14 22.5.4.8.8 1.5 1.1 2.3 6 11.5 14.4 21.5 24.6 29.4-11.6 10.7-12.6 12.2-13.2 13.1-3.7 5.5-6.6 23.6 6.2 35.3l-.2 8.6c-5.7 3.2-13 7.9-18.1 11.3l-3.5-5.4-7.3-11.5-.3-.4-.3-.4c-1.1-1.3-4.3-4.4-9.2-4.4h-.1c-3.1 0-5.9 1.1-7.9 3.2-1 1-2.2 2.8-2.8 5.5 0 .1 0 .2-.1.3-.8-.2-1.6-.3-2.5-.3-2.2 0-4.3.6-6.1 1.9-4.6 3.1-5.3 8.4-4 12.5-2.1 1.3-3.8 3.2-4.5 5.5-.8 2.5-.4 4.7 0 6.2l-.3.3c-.6.7-2.4 3.5-2 7.7.7 6.5 8.5 10.5 13.4 12.5 5.8 10.7 16.5 17.8 27.5 17.8 1.8 0 3.5-.2 5.2-.5 8.8-1.8 14.4-7.8 17.3-12 1.1-.3 2.4-.7 3.9-1.1l-5.6 38.3c-.3 1.5-.2 3.2.4 4.8.6 1.6 1.6 2.9 3 4.1-3.4 35.4-8.4 77.9-11.5 87.4l-1 3.1 1.7 2.8c.6 1 14.6 23.6 46.5 53.9-12.4 4-25.7 9.1-33.9 14.7-6 4.1-6.2 8.4-5.3 11.3 2.1 6.7 10.5 7.3 18.8 7.3 1.6 0 3.4 0 5.1-.1-1.6 3.1-1.1 5.7-.1 7.6.5.9 1.1 1.7 1.8 2.3.2.2.5.5 1 .8.6.4 1.2.7 1.8.9.3.1.5.2.8.3.5.1.9.2 1.4.3.8.1 1.6.2 2.6.2h.1c.6 0 1.2 0 1.8-.1.4 0 .9-.1 1.3-.1.7-.1 1.4-.1 2.1-.2.2 0 .5-.1.7-.1 1.2-.2 2.5-.4 3.9-.7.8-.2 1.7-.3 2.5-.5 1.1-.2 2.3-.5 3.6-.8 6.1-1.4 13.6-3.5 21.7-5.9.7-.2 1.5-.5 2.2-.7 3.7-1.1 7.4-2.3 11.1-3.6.7-.2 1.5-.5 2.2-.7 3.3-1.1 6.6-2.3 9.7-3.4.7-.3 1.4-.5 2.1-.8l1-.4c.7-.3 1.3-.5 2-.8l3.9-1.5c1.6-.6 3.1-1.2 4.5-1.8l.9-.4c.9-.4 1.7-.7 2.5-1.1 5.7-2.5 9.6-4.5 11.8-6.2.5-.4 1-.8 1.5-1.3 6.8-4.5 9.8-11.5 8-19-1.7-7.2-4.8-90.3-3.1-139.4l3.5-.9-.7-6.1-1.5-12c2.1-1.1 5.4-4.2 8.8-16.5 3.8-4.1 21.9-18 37.4-29.3l1.7-1.2.7-2c1.4-3.7 2.4-10.8-4.5-28.8-2-5.1-4-9.8-5.5-13 .7-2 1.3-6.1-1.8-11.9-2.4-4.4-18.9-32.1-19.6-33.3l-1.3-2.2-2.4-.8c-3.4-1.2-8.2-3.4-11.9-5.9 2.4-2.4 4.7-5 6.8-7.7 3.5-4.4 6.5-9.1 9.1-14 11.7-1 20.4-15.1 20.4-33.4 0-3.7-.4-7.3-1.1-10.8.5-2.5.7-5.2.7-7.8.7-4.6 1-9.3 1-14 0-2.9-.1-5.9-.4-8.8-.3-4.4-.7-8.8-1.5-13.1-.7-4.2-1.3-7.6-2.7-11.8-1.6-4.7-3.9-9.3-6.7-13.5-2.7-4-7.6-9.9-15-15-8.3-5.7-15.6-7.4-24.8-9.7-13.3-3.2-23.9-3.5-30.2-3.7-.7-.1-2-.1-3.2-.1zM355 279.4l2.4-10.5c.3.6.5 1.2.8 1.7.6 1.4 1.3 2.9 1.9 4.3-1.3 1.3-3.1 2.9-5.1 4.5z"/><path class="st0" d="M292.7 498.2s-43.2 9.4-60.3 21.2c-17.2 11.8 55.1 1.5 55.1 1.5l27.9-8.8s3.3-16.9-22.7-13.9z"/><path class="st1" d="M258.2 507.2c-10.3 4.9-15.2 8.1-14.8 9.5.7 2.3 15.1.2 43-6.3 3.5-.9 6.9-1.8 10.4-2.7 1.8-1.1 3.7-2.1 5.5-3.2-1.2-2.6-2.5-5.1-3.7-7.7l-5.8-.6-34.6 11z"/><path class="st2" d="M292.7 498.2s-43.2 9.4-60.3 21.2c-17.2 11.8 55.1 1.5 55.1 1.5l27.9-8.8s3.3-16.9-22.7-13.9z"/><path class="st0" d="M309.8 502.6s-35.1 13.6-54.1 29.8 75.6-14 88.3-23.5c12.7-9.5-12-18.4-12-18.4l-22.2 12.1z"/><path class="st1" d="M284.7 514.2s-60.9 35.3 49.8-9.2l1.8-.6-7.3-3.5-14.7-.4-11.5 2.8-18.1 10.9z"/><path class="st2" d="M309.8 502.6s-35.1 13.6-54.1 29.8c-19 16.2 75.6-14 88.3-23.5 12.7-9.5-12-18.4-12-18.4l-22.2 12.1z"/><path class="st3" d="M350.9 495.9c-2.2-9.5-5.2-105.7-2.9-150.2l-113.4-2.3s-7.5 82.3-12.7 97.6c0 0 16.3 27 54.3 61.2 0 0 17.1-6.3 23.5-3.3 0 0 .8 6.7 4.2 5.8 0 0 24.1-12.8 39 4.1 0 .2 10.2-3.4 8-12.9zM274.6 434l8-34.7 7.8 54.4-15.8-19.7z"/><path class="st4" d="M270.2 374.9c-1.8 14.7-4.6 35.9-8.4 62.4 0 0 36.9 55 18.9 62.4 0 0 16.6-2.7 18.3-1.5l-8.4-44.5-16-19.9 8.5-34-3-22c-1.3-11.9-3.1-25.5-5.2-25.5-2 0-3.3 10.9-4.7 22.6zM279.4 353.2c3.1.9 7.5 1.8 12.7 1.2 1.5-.2 2.9-.5 4.2-.8 3.9.1 7.9.1 12 0 6.9-.1 13.4-.5 19.6-1 .5 7.6 1.1 15.2 1.6 22.8 1.5 19.1 2.7 33.9 3.5 42.2 2.6 30.8 4.7 51.7-5.1 64.2-5 6.3-9.5 9.5-9.5 9.5-8.6 6-17.3 6.5-17.3 9.5 0 .7.5 1.8 3.5 3.2 1.9-1.4 8.3-5.6 17.2-5 11.6.7 18.4 8.8 19.5 10.1 0 0 9.6-1.3 9.9-14.1l-2.3-25.3-2.1-67.6-.1-53.2c-22.5 1.3-44.9 2.8-67.3 4.3z"/><path class="st2" d="M350.9 495.9c-2.2-9.5-5.2-105.7-2.9-150.2l-113.4-2.3s-7.5 82.3-12.7 97.6c0 0 16.3 27 54.3 61.2 0 0 17.1-6.3 23.5-3.3 0 0 .8 6.7 4.2 5.8 0 0 24.1-12.8 39 4.1 0 .2 10.2-3.4 8-12.9zM274.6 434l8-34.7 7.8 54.4-15.8-19.7z"/><path class="st5" d="M253.1 259.9s-6.8-3.5-14.6-.4c-7.8 3.2-28.1 17.4-28.1 17.4l-14.7-23.1c-.3-.3-1.7-2-3.9-2-.4 0-1.9 0-2.9 1-.1.1-.7.7-.9 2-.3 1.6.2 3.1.8 4.6.7 1.6 1.7 3.8 3.2 6.2 1.6 3.6 3.2 7.2 4.8 10.7-5.1-4.9-10.2-9.9-15.3-14.8 0 0-2.6-2.1-5.2-.4-2.6 1.7-1.1 5-1.1 5l11.9 16.7c-3.5-2.8-7.1-5.6-10.6-8.4-1.3-1-3-1.3-4.3-.7-.2.1-1.3.6-1.7 1.8-.4 1.1.1 2 .3 2.7.6 1.3 1.5 2.1 2.1 2.4 2.8 2.3 5.5 4.7 8.3 7-2.6-1.3-5.2-2.7-7.7-4-.2-.1-1.4-.8-2.8-.5-.2.1-1 .3-1.6 1 0 0-.7 1-.6 2.7.2 2.2 4.8 5.2 11.5 7.6 5 11.7 16.3 18 26.2 16 8.8-1.8 13.4-9.6 14.3-11.2 0 0 21.4-5 36.7-16.5 1.2-2.8 2.4-5.7 3.6-8.5"/><path class="st6" d="M210.6 275.8l3 4.8 6.7-4.5s4.5-.2 6.7 3.4-.8 7.5-.8 7.5l-5.4 3.6"/><path class="st7" d="M219.1 301.6s1.8-3 1.2-5.6"/><path class="st8" d="M253.8 193.3s-21.7 19.5-23.6 22.3c-1.9 2.8-5.6 18.9 7.5 28.1l-.4 21.6s1.2 2.6 3.9 3.8l-10.9 74.8s-3.7 7.7 48.2 8.9c52 1.2 72-4.1 72-4.1L344 296l9.6-42c.5.8 1.3 1.8 2.3 2.9 1.4 1.5 2.5 2.5 2.6 2.6 2.2 1.8 14.6-5 29.4-16.7 0 0 1-2.1-1.3-6.4-2.3-4.3-19.5-33-19.5-33s-18.4-6.3-21.2-15.3l-92.1 5.2z"/><path class="st9" d="M345.3 240.4c-.2-.4-.7-1.4-1.6-1.6h-.5s-.6.1-1.1.5c-1 .7-2 11-4.6 16.3-.8 1.7-2.3 4-5.2 6.2-2.3 1.6-4.7 3.1-7 4.7l10.7.9c-2 9.3-4.3 16.5-5.9 21.4-1.5 4.3-2.5 6.8-4.4 13-.9 2.7-1.7 5.5-3.8 12.1-.8 2.4-1.2 3.9-1.6 4.9-4.9 15.4-5.1 18-6.5 20.9-2.4 4.6-8.1 9.8-23.3 12.1 9.1.7 19.6.8 31.2.1 10.4-.7 19.8-2.1 28-3.7-2.3-17-4.6-34.1-6.9-51.1l11.2-43.3-8.7-13.4zM238.7 252.8c-.1 1.4-.1 6.2 3.3 10.5 1.9 2.3 4.1 3.5 5.4 4.1-2.4.3-4.8.7-7.3 1-.6-.7-1-1.4-1.4-2-2.9-5.4-.8-11.6 0-13.6zM238.9 222.1s-7.2 6-1.2 17.4l1.2-17.4z"/><path class="st9" d="M313.6 322.7c-2.3.5-4.2 2.2-4.6 4.2-.7 3 2 5.4 3.7 6.4.4.2 3.5 1.9 6.4.3.3-.2 2.1-1.2 2.5-2.8.5-2.6-2.5-6.2-8-8.1z"/><path class="st10" d="M253.8 193.3s-21.7 19.5-23.6 22.3c-1.9 2.8-5.6 18.9 7.5 28.1l-.4 21.6s1.2 2.6 3.9 3.8l-10.9 74.8s-3.7 7.7 48.2 8.9c52 1.2 72-4.1 72-4.1L344 296l9.6-42c.5.8 1.3 1.8 2.3 2.9 1.4 1.5 2.5 2.5 2.6 2.6 2.2 1.8 14.6-5 29.4-16.7 0 0 1-2.1-1.3-6.4-2.3-4.3-19.5-33-19.5-33s-18.4-6.3-21.2-15.3l-92.1 5.2z"/><path class="st11" d="M261.9 260.3v.8c0 2.7.2 4.7.7 5.8.5 1.1 1.6 1.8 3.2 1.9 1.7.1 2.8-.4 3.3-1.6.3-.7.5-1.9.6-3.6l.7-24.8 7.5.4-.7 24.6c-.1 3-.7 5.4-1.7 7.1-1.8 2.9-5 4.2-9.5 3.9-4.5-.3-7.5-1.7-9-4.2s-2.2-5.8-2-10v-.8l6.9.5zM259.3 322.3c.3 0 .9-.2 1-.4h-.1l8.8-12.7 1.5.1-.4 12.8c0 .4.4.9 1 .9l5.6.3c.6 0 1.1-.4 1.1-.8l.5-19.1c0-.4-.4-.9-1-.9l-3.6-.2c.7-1 1.5-2 2.2-3l2.7-3.9.2-5.6c0-.4-.4-.9-1-.9l-11.1-.7s-12.2-.7-12.5 9.6c-.2 5.8 3.4 8.6 6.7 9.9l-8.8 12.8c-.5.6 0 1.3.8 1.4l6.4.4zm6-20.5c-1.6-.2-3.5-1-3.4-3.4.1-3.2 3.6-3 4.6-2.9l3.2.2-4.4 6.1zM296.3 297.1l-.2 6.6 12.7.8c.6 0 1 .5 1 .9l-.1 5.3c0 .4-.4.8-1 .8l-12.7-.8-.2 6.6 15.4.9c.6 0 1.1.5 1.1 1l-.2 5.5c0 .4-.5.8-1.1.8l-22-1.3c-.6 0-1-.5-1-.9l.9-32.7c0-.4.4-.9 1.1-.8l21.6 1.3c.6 0 1 .5 1 .9l-.1 5.3c0 .4-.5.9-1.1.8l-15.1-1zM293.1 274.8c1.6.7 3.5 1.3 5.7 1.5 11.3 1.4 17.8-6.7 18.6-15.3.5-4.9-1-10.2-4.4-13.9l1-4.7c-1.6.5.6-.6-.2-.7l-3.8-.1c-.5-.1-.8.1-.9.3l-1.7 1c-1.5-.6-3.3-1.2-5.3-1.4-11.4-1.4-17.9 6.6-18.7 15.3-.5 5 .9 10.2 4.4 14-1.1 1.5-2.6 3.4-3.6 4.9h.1c-.1.1-.1.2-.1.2l8 .5.9-1.6zm15.1-22c1.3 2.1 1.9 4.8 1.6 7.4-.5 5.2-4.2 10-10.4 9.3-.9-.1-1.7-.3-2.5-.6l11.3-16.1zm-17.3 5.1c.5-5.3 4.1-10.2 10.4-9.4.7.1 1.5.3 2.2.5l-11.2 15.9c-1.2-2.1-1.6-4.5-1.4-7z"/><path class="st11" d="M317 241.6c-2.9-.2-5.7-.3-8.6-.5-8.3 11.3-16.7 23.2-25.1 34.9l8.9.5c8.3-11.7 16.6-23.6 24.8-34.9zM250.6 321.8c3.1.2 6.3.4 9.4.6 7.8-10.8 15.5-22 23.3-33l-9.1-.5c-7.9 10.9-15.7 22-23.6 32.9z"/><path class="st12" d="M360.5 259.3c3.7-1.4 7.8-3.3 12.1-5.8 5.5-3.1 10.1-6.4 13.8-9.5 0 0 15.4 30.4 11.7 40.3 0 0-37.5 27.3-39.7 31.9 0 0-3.3 12.5-6 13.6 0 0-16.7 4.6-25.2-4.2l-7.4 3.2s-5 2.1-7.7-2.8 2.8-7.8 2.8-7.8c4.2-2.8 8.4-5.6 12.7-8.7 5.5-3.8 10.7-7.7 15.8-11.5.9-3.4 1.8-6.8 2.6-10.2.5-.3 1.9-1.3 4-1.3 2.6.1 4.2 1.7 4.5 2 0 0 12.3-8.8 13.5-12.6-1-2.6-2.2-5.3-3.4-8.1-1.4-3-2.7-5.8-4.1-8.5z"/><path class="st13" d="M276.2 353.6l11.9 88.2 12 59.2"/><path class="st14" d="M358.1 316.9s1.5-7.3.2-11.9M342.4 298.8l6.6-4.2M367.8 276.5s2.1-2.6 8.1-1.5M237.7 243.8l1.4-22.4M353.8 254.2s-7-10.8-8.5-14.1M326.9 325.6l8.4-4.1"/><path class="st15" d="M208.3 122.8c-7.1-13.5-7-26.7-.5-32.5 1.3-1.2 3.5-2.6 7.2-3.2-1.6-2.8-6.1-11.4-3-20.1 1.9-5.4 6-8.2 13.8-13.6 2.6-1.8 9-6 18.7-9.7 8.3-3.1 14.8-4.2 22.5-5.5 7.9-1.3 13.7-1.8 22.2-2.4 10.8-.8 16.2-1.2 23.9-1 6.5.2 16.4.5 28.7 3.5 8.9 2.2 15.3 3.7 22.5 8.7 7.4 5.1 11.6 10.9 13.2 13.2 3.4 5 5.1 9.6 5.9 11.8 1.3 3.7 1.7 6.6 2.4 10.7.8 5.1 1.2 9.3 1.4 12.5.2 2.6.4 5.4.3 8.3 0 5-.4 9.5-1 13.5 0 3.3-.4 8.2-2.4 13.5 0 0-3.3 8.6-11.7 15.7-10.5 8.6-76.3.4-164.1-23.4z"/><path class="st16" d="M288.8 227.8c-1.3 0-2.6-.1-3.9-.3-6.5-1-11.2-3.4-14-7.2-2.3-3.1-3.1-7.2-2.5-11.9-21.5-6.6-39.9-21.8-50.4-41.8-.9-1.8-1.8-3.6-2.6-5.4-.3.2-.7.3-1 .3-.2 0-.4.1-.6.1-4.8 0-8.9-9.1-10.4-18-1.6-9.6-.6-19.7 4.5-20.6h.4c-.1-8.4 1.6-16.8 4.9-24.3 2-4.4 4.6-8.6 7.7-12.4 4-4.9 8.7-8.9 14-11.9 7-3.9 13.4-5.1 20.2-6.4 6.5-1.2 11.3-1.4 19.2-1.8 3.3-.1 6.4-.2 9.6-.2 4 0 7.9.1 11.3.2 19.3.5 25.6 2 27.6 2.5 9.8 2.2 16.3 3.7 17.6 8.6 1 3.7-1.1 9-2.9 13.8-1 2.5-2 5-2 6.2 0 .4 0 1.4-.1 2.8 0 .4-.1.7-.1 1-.1.5-.1.9-.1 1.4.3 3.5 3.3 5.5 6.8 7.9 3.1 2.1 6.4 4.4 8.1 8 2 4.4 1.3 10-2 16.7 1.2-.2 2.5-.7 3.8-1.4 3.5-2 5.1-5.3 5.6-6.8.4-2.5 1-4.9 1.9-7.3 1-2.6 1.6-4.5 3.2-6.4 2.1-2.5 5.9-5.3 9.5-5.3 9.1 0 16.2 12.2 16.2 27.9s-7.1 27.9-16.2 27.9c-.7 0-1.3-.1-2-.2-2.7 5.8-6.1 11.3-10.1 16.3-10.5 13.3-24.5 23-40.5 28.2-5.3 7.5-16.3 19.8-30.7 19.8z"/><path d="M283.9 67.3c3.9 0 7.4.1 11.2.2 18.6.5 25 1.9 27.3 2.4 9.3 2.1 15.5 3.5 16.6 7.6 1.5 5.2-4.9 15.9-5 19.6 0 .1.1 1.2-.1 2.7-.1 1.2-.3 1.6-.2 2.6.7 7.6 11.6 9.1 15 16.4 1.5 3.3 1.9 8.7-3.2 17.8 1.4 0 4.1-.2 6.9-1.8 4.3-2.5 5.8-6.5 6.2-7.6.3-1.8.8-4.3 1.8-7.2.9-2.5 1.6-4.3 3-6 2.1-2.6 5.6-4.8 8.5-4.8 8.2 0 14.8 11.9 14.8 26.5s-6.6 26.5-14.8 26.5c-.9 0-1.9-.2-2.8-.5-2.8 6.1-6.3 11.8-10.4 17.1-10.2 12.9-24.2 22.8-40.2 27.9-5.6 8-16.1 19.6-29.9 19.6-1.2 0-2.4-.1-3.7-.3-15.4-2.3-16.3-12.3-15.2-18.7-22-6.4-40.3-21.6-50.7-41.5-1.2-2.3-2.3-4.6-3.3-7-.5.6-1.1 1-1.8 1.2h-.4c-3.4 0-7.4-7.3-9-16.9-1.7-9.9-.2-18.4 3.4-19h.4c.4 0 .8.1 1.2.3-.3-5.5.1-15 4.8-25.4 2.3-5.1 5.1-9.1 7.5-12.1 2.7-3.3 7.1-7.9 13.6-11.5 6.8-3.8 12.9-5 19.7-6.2 6.4-1.2 11.2-1.4 19-1.7 3.7-.1 6.8-.2 9.8-.2m0-2.7c-3.2 0-6.4.1-9.7.2-8 .3-12.8.5-19.4 1.8-6.9 1.3-13.4 2.5-20.6 6.5-5.5 3.1-10.3 7.2-14.4 12.2-3.2 3.9-5.8 8.2-7.9 12.7-3.3 7.3-5 15.5-5.1 23.7-5.6 1.8-6.5 12.5-4.9 22 1.6 9.6 5.9 19.2 11.8 19.2.3 0 .6 0 .9-.1.7 1.5 1.4 3 2.2 4.4 10.5 20 28.7 35.3 50.1 42.1-.4 4.5.6 8.5 2.9 11.7 3 4.1 8 6.7 14.9 7.8 1.4.2 2.8.3 4.1.3 14.9 0 26-12.2 31.6-20 16.1-5.3 30.1-15.2 40.7-28.6 3.8-4.8 7.1-10.1 9.8-15.6.4 0 .8.1 1.2.1 9.9 0 17.6-12.8 17.6-29.3s-7.7-29.3-17.6-29.3c-4.1 0-8.3 3-10.6 5.8-1.7 2.1-2.4 4.1-3.4 6.8-.9 2.4-1.5 4.9-1.9 7.4-.5 1.3-1.9 4.2-4.9 5.9-.2.1-.3.2-.5.3 2.4-5.9 2.6-10.9.7-15-1.9-4-5.4-6.4-8.6-8.6-3.7-2.5-5.9-4.2-6.2-6.9 0-.4 0-.6.1-1.1 0-.3.1-.6.2-1 .1-1.4.1-2.5.1-2.9 0-1 1-3.6 1.8-5.7 1.9-4.9 4.1-10.6 2.9-14.7-1.6-5.7-8.4-7.2-18.7-9.6-2.1-.5-8.5-1.9-27.9-2.5-3.4.1-7.3 0-11.3 0z"/><path class="st14" d="M377.6 134.8s3.2-15-4.4-17.8M371.5 149.2s-5.2-.4-4.8-8.4c0 0 5.8.9 5.8-4.2 0-5.1-6.9-3.7-6.9-3.7s-1.7-15.2 7.6-15.9c9.2-.7 9.7 15.5 9.7 15.5s.9 9-3.2 13.6"/><path class="st17" d="M246.1 116.9c7.6-1.5 14.9 3.6 16.5 11.5l3.1-.6c-1.9-9.7-10.9-15.8-20.2-14-9.3 1.8-15.4 10.8-13.5 20.5l3.1-.6c-1.5-7.8 3.4-15.3 11-16.8zM298 109.4c7.6-.3 14.1 5.8 14.3 13.7l3.1-.1c-.4-9.8-8.2-17.1-17.6-16.8-9.4.3-16.7 8.2-16.3 18l3.1-.1c-.2-7.9 5.8-14.4 13.4-14.7z"/><path class="st18" d="M292.7 212.2c-7.9 0-15.6-1.1-23.1-3.3-24.5-7.1-46-26.2-53.5-47.5-1-3-1.9-6.1-2.5-8.9.8 1.6 1.8 3.2 3 4.8 1.3 1.8 2.4 3 2.7 3.4 2.7 2.9 5.5 5 9.1 7.6 4.1 3 5.6 3.4 6.6 3.4.5 0 1-.1 1.4-.4 2-1.3 1.5-4.7.8-8.7-.3-1.6-.6-2.5-.8-3.2-.3-.8-.4-1.2-.4-2 0-3.3 2.4-5.9 2.5-6 1.1-1.2 4.6-2.3 10.5-3.2 4.7-.7 7.7-1.2 10.3-1.2 1 0 1.9.1 2.8.2 2.1.3 3.5.8 4.7 1.2 1.4.5 2.7.9 4.5.9.4 0 .7 0 1.2-.1 4-.4 6.7-2.3 8.6-3.6.2-.2.4-.3.6-.5 3-2 5.1-2.2 19-3 3.4-.2 7.5-.4 12.4-.8l1.3-.1c4.1-.3 7.4-.5 10.1-.5 4.6 0 7.1.6 9.3 2.4 1.1.8 3.4 2.6 4.4 5.6.5 1.4.5 2.4.5 4 0 1.1 0 2.3.2 3.9.3 2.6.8 5.2 1.7 7.7l.6 1.7 1.5-1.1c3.7-2.6 6.9-5.8 9.5-9.5l.2-.3c.7-1 2.5-3.4 3.8-7 1.8-4.9 2.8-10.3 3.5-14.8 4.6 10.3 1.5 28.9 1.4 29.1l-.1.5.2.4c.7 1.3 1.6 2.2 2.7 2.8.9.5 1.9.7 3 .7h.4c-4.2 8.5-9.6 15.9-16.2 22.3-15.4 14.7-36.7 23.1-58.4 23.1z"/><path d="M359.8 139.6c1.5 8.1.5 18.4-.3 22.8l-.2.9.4.8c.8 1.5 1.9 2.7 3.3 3.4.6.3 1.2.6 1.9.7-4 7.6-9 14.3-15 20-15 14.3-35.9 22.5-57.3 22.5-7.7 0-15.4-1.1-22.7-3.2-12-3.5-23.4-9.8-32.8-18.3-9.3-8.3-16.1-18.1-19.8-28.4-.1-.2-.1-.4-.2-.6.6.7 1 1.2 1.2 1.3 2.8 3 5.7 5.1 9.4 7.8 4.2 3 6 3.7 7.4 3.7.8 0 1.5-.2 2.2-.6 2.9-1.9 2-6.5 1.4-10.1-.3-1.7-.7-2.7-.9-3.4-.2-.7-.3-1-.3-1.6 0-2.8 2-5 2.1-5.1.3-.3 2-1.6 9.7-2.8 4.6-.7 7.6-1.2 10.1-1.2.9 0 1.7.1 2.6.2 2 .3 3.2.7 4.4 1.1 1.4.5 2.9 1 5 1 .4 0 .8 0 1.3-.1 4.4-.4 7.3-2.5 9.2-3.8.2-.2.4-.3.6-.4 2.6-1.8 4.2-1.9 18.3-2.7 3.3-.2 7.5-.4 12.4-.8l1.3-.1c4.1-.3 7.4-.5 10-.5 4.3 0 6.5.5 8.5 2.1 1.1.8 3.1 2.4 3.9 4.9.4 1.1.4 2 .4 3.5 0 1 0 2.3.2 4 .3 2.7.9 5.4 1.8 8l1.2 3.5 3-2.1c3.8-2.7 7.1-6 9.8-9.8 0-.1.1-.1.2-.3.8-1.1 2.6-3.5 4-7.3.8-2.8 1.7-6 2.3-9m-1.2-10.2c-.4 3.3-1.4 11.3-4 18.5-1.4 3.9-3.3 6.3-3.8 6.9-3.1 4.5-6.7 7.4-9.1 9.1-.5-1.6-1.3-4.1-1.6-7.4-.4-3.9.2-5.6-.7-8.1-1.1-3.4-3.7-5.3-4.8-6.2-2.6-2-5.5-2.6-10.2-2.6-3 0-6.7.3-11.5.6-25.8 1.7-28 1.2-32.1 4-1.8 1.2-4.5 3.4-8.5 3.8h-1c-3.1 0-4.4-1.4-9-2.1-1-.1-2-.2-3-.2-2.7 0-5.7.5-10.5 1.3-9 1.4-10.6 3-11.3 3.6-.3.3-2.8 3.1-2.8 7 0 1.9.7 2.3 1.3 5.5.5 2.5 1.2 6.4-.2 7.3-.2.1-.4.2-.6.2-.9 0-2.4-.7-5.8-3.1-3.6-2.6-6.4-4.6-8.9-7.5-.5-.6-1.5-1.6-2.6-3.1-5.3-7.4-6.8-14.7-7.1-14.7-.3 0 .9 10.8 4.2 20.1 7.6 21.6 29 40.9 54.4 48.3 7.7 2.2 15.6 3.3 23.4 3.3 22.4 0 44-8.7 59.2-23.3 9.3-8.9 14.7-18.5 17.8-25.4-.1.1-1.4.7-2.9.7-.7 0-1.6-.1-2.4-.6-.8-.4-1.5-1.1-2.1-2.2-.1-.3 4-24.1-3.8-33.7z"/><path class="st19" d="M332.5 156.7c2.2 4.3 4.4 10.3 4.7 17.7.2 4.3.4 9.2-2.4 14.4-2.7 5-6.8 7.8-9 9-1.7.7-19.3 8.4-26.3 6.1-.6-.2-2.1-.7-3.3-2.1-2.3-2.8-1.4-7-1-8.3 12.4-12.3 24.8-24.6 37.3-36.8zM242.1 159.8c-.3 5.2-.1 12.4 1.9 20.4 1.1 4.4 2.5 8.1 4 11.3 1.8 1.2 16.5 11.4 23.2 10 .8-.2 2.6-.5 3.6-2 1.3-1.9.4-4.8.1-6.2-.3-1-.6-1.7-.9-2.3-10.6-10.3-21.3-20.8-31.9-31.2z"/><path class="st20" d="M286.3 196.1c-10.3 0-24.6-3.6-33.3-11.7-9.4-8.8-12.5-23.8-10.8-27.2.7-1.5 2.2-2.2 4.3-2.2.8 0 1.4.1 1.7.2 5.1 2.2 11.3 3.3 18.6 3.3 21.5 0 45.1-9.4 47.7-10.4.3 0 1-.1 1.9-.1 12.8 0 16.2 8 17.1 12.8 2.7 14.5-3.3 22.6-4 23.5-11.9 10-30.6 11.2-40.6 11.8-.8-.1-1.7 0-2.6 0z"/><path d="M316.4 149.2c5.1 0 13.9 1.5 15.8 11.7 1.1 6.1.8 11.7-.9 16.7-1.1 3.2-2.4 5-2.8 5.5-11.6 9.6-29.9 10.8-39.7 11.4-.8.1-1.6.1-2.5.1-10 0-24-3.5-32.4-11.3-9.3-8.6-11.8-23-10.5-25.6.2-.4.7-1.5 3.1-1.5.6 0 1 .1 1.3.1 5.2 2.2 11.6 3.3 19 3.3 21.3 0 44.6-9 48-10.4.3.1.9 0 1.6 0m0-2.7c-1.4 0-2.3.1-2.3.1s-25 10.3-47.3 10.3c-6.5 0-12.8-.9-18.2-3.2 0 0-.9-.2-2.1-.2-1.8 0-4.3.5-5.6 3-2.1 4.2 1.4 19.8 11.1 28.9 8.9 8.3 23.6 12.1 34.3 12.1.9 0 1.8 0 2.6-.1 10.8-.7 29.5-2.1 41.5-12.2 0 0 7.4-8.5 4.4-24.7-2.2-12.6-13.5-14-18.4-14z"/><path d="M243 166.4s3.6 6.8 10.2 4.3c0 0 2.8 3.8 8.1 2.3 0 0 2.9 1.9 0 2.8s-6.1.3-7.6-.9c0 0-6.2-1.4-6.4 1.3l-4.3-9.8zM332 155.5s-1.4 10.6-10.6 14.7c0 0-3.3 2.3-10.9.5 0 0-.9 3.1-10.2 3.1 0 0-3.5 2.3-6.2.3 0 0-3.5 1.7 0 2.4s1.9-1.9 7.6-.4c0 0 5-3.2 10.2-1.1 5.2 2.1 12.3-4.3 20.1 2.6l2.4-5-.3-9.7-2.1-7.4z"/></g></svg>