<svg id="Layer_1" xmlns="http://www.w3.org/2000/svg" viewBox="0 0 57.9 62.9"><style>.st0{fill:#FFFFFF;}</style><path class="st0" d="M34.2 50.6l-2.7 12.3 3.7-1.8 2.2-11.2c13-10.8 17-22.3 17-22.3l-7.8-.3s7.7-7.3 10.5-8c1.1-2.4 2-8.5-4.9-19.3-26.7 15.6-22.1 33.7-18 50.6zm2.4-4.2h-.2c.3-4.1 2.8-28.1 14.1-42-5.4 8.7-12.5 36.3-13.9 42z"/><path class="st0" d="M27 54.9l-1.6-1.6-1.6 1.6L8 38.5l1.6-1.6L8 35.3l13.1-12.6 1.6 1.6 1.6-1.6 1.6-1.6 1.6-1.6-4.5-4.9-5 4.8 1.6 1.6L6.5 33.6 4.9 32 0 36.7l4.7 4.9L6.4 40l15.8 16.4-1.7 1.6 4.7 4.9 4.9-4.7-1.6-1.6M4.8 38.4l-1.6-1.6 1.6-1.6 1.6 1.6-1.6 1.6zm20.5 21.3l-1.6-1.6 1.6-1.6 1.6 1.6-1.6 1.6zm-2.4-41.9l1.6 1.6-1.6 1.6-1.6-1.6 1.6-1.6z"/></svg>