<svg id="Layer_4" viewBox="0 0 500 400.48" xmlns="http://www.w3.org/2000/svg"><style>.st0{fill:#231f20}</style><g transform="scale(1.0002)"><circle class="st0" cx="450.1" cy="50.2" r="49.8"/><path class="st0" d="M0 200.2c0 110.5 89.6 200.2 200.2 200.2 71.5 0 134.3-37.5 169.7-94l36.3 67.3c8.4 15.7 24.9 26.4 43.9 26.4 27.5 0 49.8-22.3 49.8-49.8 0-8.5-2.1-16.5-5.9-23.5L380 112.6C347.6 45.9 279.2 0 200.2 0 89.6 0 0 89.6 0 200.2zm97.8 0c0-55.8 45.2-101 101-101s101 45.2 101 101c0 15.6-3.5 30.4-9.9 43.6l-.9 1.8c-16.6 33-50.8 55.6-90.3 55.6-55.7 0-100.9-45.3-100.9-101z"/></g></svg>