<svg xmlns="http://www.w3.org/2000/svg" width="100" height="100" viewBox="0 0 100 100"><title>code</title><path d="M62.17,14l-3.34-.92a1.5,1.5,0,0,0-1.26.13,1.75,1.75,0,0,0-.84,1L36.65,83.81a1.61,1.61,0,0,0,.13,1.32,1.75,1.75,0,0,0,1,.83l3.34,0.92a1.5,1.5,0,0,0,1.27-.13,1.75,1.75,0,0,0,.83-1l20.08-69.5a1.61,1.61,0,0,0-.14-1.32A1.75,1.75,0,0,0,62.17,14Z" style="fill:#f7d54a"/><path d="M32.08,27.61a1.7,1.7,0,0,0-.54-1.24l-2.69-2.69a1.69,1.69,0,0,0-2.48,0L1.28,48.76a1.69,1.69,0,0,0,0,2.48L26.37,76.32a1.69,1.69,0,0,0,2.48,0l2.69-2.69a1.69,1.69,0,0,0,0-2.48L10.38,50,31.54,28.84A1.7,1.7,0,0,0,32.08,27.61Z" style="fill:#86aedd"/><path d="M98.72,48.76L73.63,23.68a1.69,1.69,0,0,0-2.48,0l-2.69,2.69a1.69,1.69,0,0,0,0,2.48L89.62,50,68.46,71.16a1.69,1.69,0,0,0,0,2.48l2.69,2.69a1.69,1.69,0,0,0,2.48,0L98.72,51.24A1.69,1.69,0,0,0,98.72,48.76Z" style="fill:#86aedd"/></svg>