<?xml version="1.0" encoding="utf-8"?>
<!-- Generator: Adobe Illustrator 19.1.0, SVG Export Plug-In . SVG Version: 6.00 Build 0)  -->
<svg version="1.1" id="code" xmlns="http://www.w3.org/2000/svg" xmlns:xlink="http://www.w3.org/1999/xlink" x="0px" y="0px"
	 viewBox="0 1001 1000 1000" style="enable-background:new 0 1001 1000 1000;" xml:space="preserve">
<style type="text/css">
	.st0{fill:#EBEBEB;}
</style>
<g>
	<title>code</title>
	<path class="st0" d="M578.1,1266.1l-21.8-6c-2.7-0.9-5.7-0.6-8.2,0.8c-2.6,1.4-4.6,3.7-5.5,6.5l-130.9,453.7c-1,2.9-0.7,6,0.8,8.6
		c1.4,2.6,3.7,4.5,6.5,5.4l21.8,6c2.7,1,5.8,0.7,8.3-0.8c2.6-1.4,4.5-3.7,5.4-6.5l130.9-453c0.9-2.9,0.6-6-0.9-8.6
		C583.3,1269.3,581,1267.1,578.1,1266.1z"/>
	<path d="M382,1354.8c0-3.1-1.3-6-3.5-8.1l-17.5-17.5c-4.1-4.5-11.1-4.7-15.6-0.6c-0.2,0.2-0.4,0.4-0.6,0.6l-163.6,163.5
		c-4.5,4.1-4.7,11.1-0.6,15.6c0.2,0.2,0.4,0.4,0.6,0.6l163.6,163.5c4.1,4.5,11.1,4.7,15.6,0.6c0.2-0.2,0.4-0.4,0.6-0.6l17.5-17.5
		c4.5-4.1,4.7-11.1,0.6-15.6c-0.2-0.2-0.4-0.4-0.6-0.6l-137.9-137.9l137.9-137.9C380.7,1360.7,382,1357.8,382,1354.8z"/>
	<path d="M816.4,1492.7l-163.6-163.5c-4.1-4.5-11.1-4.7-15.6-0.6c-0.2,0.2-0.4,0.4-0.6,0.6l-17.5,17.5c-4.5,4.1-4.7,11.1-0.6,15.6
		c0.2,0.2,0.4,0.4,0.6,0.6l137.9,137.9l-137.9,137.9c-4.5,4.1-4.7,11.1-0.6,15.6c0.2,0.2,0.4,0.4,0.6,0.6l17.5,17.5
		c4.1,4.5,11.1,4.7,15.6,0.6c0.2-0.2,0.4-0.4,0.6-0.6l163.6-163.6c4.5-4.1,4.7-11.1,0.6-15.6
		C816.8,1493.1,816.6,1492.9,816.4,1492.7z"/>
</g>
</svg>
