<?xml version="1.0" encoding="utf-8"?>
<!-- Generator: Adobe Illustrator 19.2.1, SVG Export Plug-In . SVG Version: 6.00 Build 0)  -->
<svg version="1.1" id="code" xmlns="http://www.w3.org/2000/svg" xmlns:xlink="http://www.w3.org/1999/xlink" x="0px" y="0px"
	 width="1000px" height="1000px" viewBox="0 0 1000 1000" style="enable-background:new 0 0 1000 1000;" xml:space="preserve">
<style type="text/css">
	.st0{fill:#A1E7FF;}
</style>
<g>
	<title>code</title>
	<path class="st0" d="M582,268.1l-21.8-6c-2.7-0.9-5.7-0.6-8.2,0.8c-2.6,1.4-4.6,3.7-5.5,6.5L415.6,723.1c-1,2.9-0.7,6,0.8,8.6
		c1.4,2.6,3.7,4.5,6.5,5.4l21.8,6c2.7,1,5.8,0.7,8.3-0.8c2.6-1.4,4.5-3.7,5.4-6.5l130.9-453c0.9-2.9,0.6-6-0.9-8.6
		C587.2,271.3,584.9,269.1,582,268.1z"/>
	<path d="M385.9,356.8c0-3.1-1.3-6-3.5-8.1l-17.5-17.5c-4.1-4.5-11.1-4.7-15.6-0.6c-0.2,0.2-0.4,0.4-0.6,0.6L185.1,494.7
		c-4.5,4.1-4.7,11.1-0.6,15.6c0.2,0.2,0.4,0.4,0.6,0.6l163.6,163.5c4.1,4.5,11.1,4.7,15.6,0.6c0.2-0.2,0.4-0.4,0.6-0.6l17.5-17.5
		c4.5-4.1,4.7-11.1,0.6-15.6c-0.2-0.2-0.4-0.4-0.6-0.6L244.5,502.8l137.9-137.9C384.6,362.7,385.9,359.8,385.9,356.8z"/>
	<path d="M820.3,494.7L656.7,331.2c-4.1-4.5-11.1-4.7-15.6-0.6c-0.2,0.2-0.4,0.4-0.6,0.6L623,348.7c-4.5,4.1-4.7,11.1-0.6,15.6
		c0.2,0.2,0.4,0.4,0.6,0.6l137.9,137.9L623,640.7c-4.5,4.1-4.7,11.1-0.6,15.6c0.2,0.2,0.4,0.4,0.6,0.6l17.5,17.5
		c4.1,4.5,11.1,4.7,15.6,0.6c0.2-0.2,0.4-0.4,0.6-0.6l163.6-163.6c4.5-4.1,4.7-11.1,0.6-15.6C820.7,495.1,820.5,494.9,820.3,494.7z"
		/>
</g>
</svg>
