<?xml version="1.0" encoding="utf-8"?>
<!-- Generator: Adobe Illustrator 19.2.1, SVG Export Plug-In . SVG Version: 6.00 Build 0)  -->
<svg version="1.1" id="Layer_1" xmlns="http://www.w3.org/2000/svg" xmlns:xlink="http://www.w3.org/1999/xlink" x="0px" y="0px"
	 width="67.7px" height="81.4px" viewBox="0 0 67.7 81.4" style="enable-background:new 0 0 67.7 81.4;" xml:space="preserve">
<style type="text/css">
	.st0{fill:#D4D4D4;}
</style>
<path class="st0" d="M67.5,49.5c-0.3-1.2-1-2.2-1.8-3c0.5-2.4,0.8-4.8,0.8-7.3c0-3.2-0.5-6.4-1.4-9.3v-7c0-14.2-12.6-17.1-15.6-17.6
	C46.8,1.8,43,0,38.4,0c-5.7,0-10.9,2.7-12.7,3.7c-2.2-0.8-4.4-1.2-6.4-1.2c-6.9,0-10.8,5.2-12.2,8.4c-2.4,0.8-4.2,2.2-5.4,4.4
	c-3.7,6.5-0.5,17.1-0.3,17.5c0.1,0.3,0.2,0.5,0.5,0.7c-0.3,1.9-0.5,3.8-0.5,5.7c0,2.3,0.2,4.5,0.7,6.6c-0.8,1-1.6,2.2-1.9,3.6
	c-0.3,1.7,0,3.4,1.1,5c-0.4,2.7,0.2,7.2,4.2,8.8c0.3,3.2,2,7.8,7,8.4c0.8,2.9,3.1,7,7.8,7c0.3,0,0.7,0,1.1-0.1
	c1.1,0.9,3.8,2.8,7.5,2.8c1.8,0,3.6-0.5,5.3-1.4c1.9,0.8,3.7,1.1,5.3,1.1l0,0c4.4,0,6.6-2.6,7.5-4.1c0.3,0,0.7,0.1,1,0.1
	c4.4,0,6.6-3.3,7.5-5.7c5-0.6,6.8-5.3,7.1-8.4c4-1.6,4.6-6.1,4.2-8.8C67.9,52.3,67.8,50.6,67.5,49.5 M34,60.9
	c-6.3,0-11.4-3.9-13.6-9.5h27.2C45.4,56.9,40.3,60.9,34,60.9 M60.8,43.2c-0.6-0.2-1.3-0.4-2-0.4c-2.5,0-4.6,1.6-5.8,2.8
	c-1.3-1.1-2.8-1.7-4.4-1.7c-2.3,0-4.2,1.2-5.3,1.9c-1.2-0.5-2.4-0.7-3.6-0.7c-2.6,0-4.6,1.1-5.7,1.9c-1.6-1.2-3.4-1.8-5.5-1.8
	c-1.6,0-3.1,0.4-3.9,0.7c-1.6-1.1-3.3-1.6-5.1-1.6c-1.9,0-3.4,0.7-4.4,1.3c-2.2-2.4-4.7-2.9-6.5-2.9c-0.6,0-1.1,0.1-1.6,0.1
	c-0.2-1.2-0.3-2.3-0.3-3.5c0-6.1,2.1-11.8,5.5-16.3c0.7,0.1,1.4,0.1,2.1,0.1c8,0,14.6-4.4,19-7.4c1.5-1,2.9-1.9,3.9-2.4
	c0.7-0.3,1.4-0.5,2.1-0.7C51.7,15,61.1,26,61.1,39.2C61.1,40.5,61,41.9,60.8,43.2"/>
<path class="st0" d="M28.2,34.2c0,2.2-1.8,4-4,4s-4-1.8-4-4c0-2.2,1.8-4,4-4S28.2,32,28.2,34.2"/>
<path class="st0" d="M47.8,34.2c0,2.2-1.8,4-4,4c-2.2,0-4-1.8-4-4c0-2.2,1.8-4,4-4C46,30.2,47.8,32,47.8,34.2"/>
</svg>
