<?xml version="1.0" encoding="utf-8"?>
<!-- Generator: Adobe Illustrator 19.1.0, SVG Export Plug-In . SVG Version: 6.00 Build 0)  -->
<svg version="1.1" xmlns="http://www.w3.org/2000/svg" xmlns:xlink="http://www.w3.org/1999/xlink" x="0px" y="0px"
	 viewBox="0 0 570 570" style="enable-background:new 0 0 570 570;" xml:space="preserve">
<style type="text/css">
	.st0{fill:#DFDED8;}
	.st1{fill:#706C60;}
	.st2{fill:#E8DFDC;}
	.st3{fill:#C3BEBE;}
	.st4{fill:#FFFFFF;}
	.st5{fill:#D3ECF1;}
	.st6{fill:#A1D9D7;}
	.st7{fill:#6D4B1D;}
	.st8{fill:#FAAD59;}
	.st9{fill:#FAB26A;stroke:#000000;stroke-width:2;stroke-linejoin:round;stroke-miterlimit:10;}
	.st10{fill:none;stroke:#000000;stroke-width:2.8657;stroke-linecap:round;stroke-miterlimit:10;}
	.st11{fill:#F9A952;}
	.st12{fill:#FBB672;stroke:#000000;stroke-width:2.8657;stroke-linecap:round;stroke-linejoin:round;stroke-miterlimit:10;}
	.st13{fill:none;stroke:#000000;stroke-width:5;stroke-linecap:round;stroke-miterlimit:10;}
	.st14{fill:#D3ECF1;stroke:#000000;stroke-width:2.8657;stroke-linecap:round;stroke-miterlimit:10;}
	.st15{fill:#E8DFDC;stroke:#000000;stroke-width:2.8657;stroke-linecap:round;stroke-miterlimit:10;}
	.st16{fill:#DFDED8;stroke:#000000;stroke-width:2.8657;stroke-linecap:round;stroke-miterlimit:10;}
	.st17{fill:#DFDED8;stroke:#000000;stroke-width:1.4279;stroke-linecap:round;stroke-miterlimit:10;}
	.st18{fill:none;stroke:#000000;stroke-width:5.3732;stroke-linecap:round;stroke-miterlimit:10;}
	.st19{fill:none;stroke:#000000;stroke-width:8.9553;stroke-linecap:round;stroke-linejoin:round;stroke-miterlimit:10;}
	.st20{fill:none;stroke:#000000;stroke-width:8.8253;stroke-linecap:round;stroke-linejoin:round;stroke-miterlimit:10;}
	.st21{fill:none;stroke:#000000;stroke-width:7.034;stroke-linecap:round;stroke-linejoin:round;stroke-miterlimit:10;}
	.st22{stroke:#000000;stroke-width:2.1493;stroke-miterlimit:10;}
	.st23{fill:#543A17;}
</style>
<g id="Layer_3">
	<g>
		<path d="M287.6,61.9c29.6,0,45.7,13.3,45.7,13.3c-2.2-0.8-4.1-1-5.8-1c-4.6,0-7.1,2.1-7.1,2.1c84.5,40.8,66.2,115.7,65.2,126.4
			c-0.5,5.3,0.8,6.6,2.3,6.6c1.5,0,3.2-1.4,3.2-1.4c-0.5,19.3-21.1,23.1-21.1,23.1c2.1,3.8,7.7,4.5,11.4,4.5c2,0,3.5-0.2,3.5-0.2
			c-6.8,8.7-14.8,11.3-21.9,11.3c-9.4,0-17.4-4.5-19.4-5.8c0.1-0.1,0.2-0.2,0.3-0.3c0.5-0.6,0.5-1.2,1-1.8c-0.5,0.6-0.8,1.2-1.8,1.8
			v0c0,0,0.2,0.1,0.5,0.3c-1.5,1.9-3,3.6-4.7,5.4c0.2,0,0.4,0,0.6,0c12.3,0,26.4,1.5,27,8.5c0,0,0.2,0.3,0.5,1v0c0,0,0,0,0,0
			c6.5-1.5,19.6-1.9,29.2-1.9c6.6,0,11.6,0.2,11.6,0.2l-1.8-26.2c0,0-0.7-5.8,4.7-6.6c0.4-0.1,0.7-0.1,1-0.1c0.1,0,0.2,0,0.2,0
			c4.3,0,5.6,4.2,5.6,4.2l5.4,16.5l3.9-23.9c0,0,0.5-1.8,1.9-3c0.7-0.7,1.5-1.2,2.6-1.2c0.2,0,0.4,0,0.5,0c3.8,0,4.6,4.3,4.6,4.3h0
			c0.4,1,0.3,2.2,0.3,2.2l-1.1,23.7l5.6-12.2c0,0,0.8-1,0.8-2v0c0,0,1.3-2.9,4.1-2.9c0.5,0,1,0.1,1.6,0.3c3.9,1.3,3.1,4.4,3.1,4.4v0
			c0,1.3-0.4,2.4-0.4,2.4l-1.8,9c1.3-1.9,2.4-3.2,3.4-4l0,0c0,0,1-1.3,2.4-1.3c0.1,0,0.3,0,0.4,0c0.4,0,0.8,0.2,1.1,0.4c0,0,0,0,0,0
			c2.3,1.4,1,4.3,1,4.3s-1.9,41.3-26.5,45c-1.5,0.3-2.9,0.4-4.3,0.4c-7.5,0-13.4-3.2-13.4-3.2s-18.3,7.1-38.3,8.5
			c-1,6.2-3.7,12.1-9.1,16.6c0,0-1.7,0.5-4.5,0.9c8.6,28.2,12.5,54.4,12.5,54.4c0,0-0.1,0.1-0.2,0.1c2.7,7.5,4.2,15,4.2,15
			s7.8-17.3,21.5-17.3c0.7,0,1.4,0,2.1,0.1v0c0,0,27.6,0.9,26.2,24.5l-0.4,10.1c0,0-5,0.8-1.4,7.4c0,0-6.1,42.5-33.9,42.5
			c-1.6,0-3.2-0.1-4.9-0.4l0,0c-7.3,11.8-17.7,20.8-31.8,20.8c-2.1,0-4.3-0.2-6.6-0.6c-43.6-8.1-52.3-41-52.3-41
			c-15.2,36-44.9,69.3-44.9,69.3c-0.1,0-0.2,0-0.3,0c-0.9,0-1.9-0.5-2.9-1.5c-0.6,4.5-1.8,8.7-3.9,12.2
			c-5.3,8.6-11.3,11.2-16.6,11.2c-1.8,0-3.5-0.3-5.1-0.8c-11.9-1.7-25.2-26.7-25.2-26.7c7.5-10-5.7-11.5-5.7-11.5
			c-2.1-3.5-3.9-5.4-5.4-9.4h0c0,0-0.2-0.9-0.5-1.6c-1.9-4.1-3.3-8.4-4.3-11.8c-4.9-15.1-9.4-39.7,10.5-46.9
			c3.5-1.3,6.8-1.8,9.9-1.8c8.3,0,15.1,4.1,20.3,9.2c11-13,19.3-30.8,23.5-41c-0.4-0.4-0.6-0.6-0.6-0.6
			c-15.1-26.1-22.1-48.6-24.8-67c-9.9-2.1-14.9-7.2-14.9-7.2c-2.1-4.3-3.8-9.1-3.8-13.8v0c0,0-1.3-0.4-3.4-0.9
			c-6.2-1.3-30.6-6.2-37.3-6.9c-0.9,0-1.7-0.1-2.5-0.1c-1.7,0-3.3,0.1-4.6,0.3c-5.6,0.9-9.7,1.9-13.1,2.1c0,0,0,0,0,0
			c-0.4,0.1-0.9,0.1-1.3,0.1c-0.3,0-0.6,0-0.9,0c-2.7-0.1-5.1-0.9-7.8-3c-1.5-1-2.8-2.1-3.4-3.1c0,0,0,0-0.1,0
			c-0.8,0-6.8-0.1-10.7-2.1h0c-3.9-1.4-8.3-5.9-1.5-10.6c0,0,0-0.1,0-0.1c2.9-2.9,8-3.1,8-3.1l-2.1-6.6l-7.9-23.1
			c0,0-1.8-3.4,0.1-5.6c0.2-0.3,0.4-0.5,0.7-0.6c0.7-0.5,1.4-0.7,2-0.7c1,0,2,0.5,2.7,1c0.4,0.2,0.7,0.5,1,0.9c0,0,0,0,0,0
			c1.4,1.8,7.9,10.4,7.9,10.4l-5.3-13c0,0-1.7-4.2,1.1-6.3c0.2-0.1,0.4-0.3,0.6-0.4c0.7-0.4,1.3-0.5,1.9-0.5c2.5,0,4.2,2.7,4.2,2.7
			l7.9,14.3l-2.9-10.6c0,0-1.2-2.3,1.3-3.4c0.3-0.2,0.4-0.2,0.7-0.2c0,0,0.1,0,0.1,0c0,0,0,0,0,0c1.9,0,2.5,2.4,2.5,2.4l4.3,11.8
			v-4.5c0-0.5,0-0.9,0-1.2v-0.3c0,0,1-0.2,1.1-0.4c0.9-1.4,3.4-1.4,3.4-1.4c0,0,0,0,0,0c0,0,0,0,0.1,0c1.8,0,3.6,1.8,3.6,3.2
			c0,1.2,2.5,14.5,5.2,20.2c1.1,1.8,2,2.5,2.3,2.8c4.6,2.3,24.9,6.7,37.9,6.8c3-0.1,4.8-0.3,4.8-0.3l0,0.1c0.6-0.1,1.2-0.1,1.7-0.2
			v0c0.8-3.4,1.5-5.5,1.5-5.5c1.2-0.6,5.4-1.6,10.1-2.6c-6.2-6.2-11.5-13.3-15.6-21.1c-0.3-0.5-0.6-1.1-0.8-1.6
			c0.3,0.5,0.5,1.1,0.8,1.6c-4,1.8-7.4,2.5-10.5,2.5c-14.7,0-19.5-16.9-19.5-16.9c0.6,0.2,1.2,0.3,1.8,0.3c8.1,0,9.5-17.1,9.5-17.1
			c-2,1.2-3.7,1.7-5.2,1.7c-6.2,0-8.3-8.5-8.3-8.5c14.5,0,17.4-1.2,11.3-37.1c-6.1-35.9,39.9-65.5,39.9-65.5
			c5-17.2,14.4-22.6,14.4-22.6c-5.4,8.7-3.3,10.7-0.4,10.7c2.3,0,5.1-1.2,5.1-1.2C256.8,64.8,273.7,61.9,287.6,61.9 M250.1,47.1
			l-20.4,11.7c-1.1,0.6-10.9,6.6-16.5,24c-9.1,6.3-46.7,34.9-40.7,70.3c1.9,11.4,2.8,18.6,2.9,23.4c0.1,5-0.8,6-0.8,6
			c-0.8,0.7-5.9,0.7-7.5,0.7h-7.7l1.8,7.4c1.1,4.4,4.7,11.4,11.6,12.8c-0.6,1.8-1.4,3.2-1.9,3.6c0,0,0,0,0,0l-10.3-2.9l2.9,10.3
			c0.2,0.5,1.6,5.4,5.1,10.3c5.1,7.2,12.1,10.9,20.1,10.9c2.5,0,5.1-0.4,7.7-1.1c2.2,3.6,4.6,7.1,7.2,10.4c-0.8,0.3-1.3,0.5-1.6,0.7
			l-2.2,1.1l-0.8,2.4c0,0-0.2,0.7-0.5,1.7c-0.5,0-1.2,0.1-1.9,0.1c-12-0.2-29.6-4.1-34.4-5.9c-0.1-0.1-0.2-0.3-0.4-0.6
			c-2.1-4.7-4.3-15.6-4.5-17.6c-0.2-4.6-4.5-8.8-9.3-8.9l0,0h-0.4h-0.2l0,0c-0.9,0-1.9,0.1-2.9,0.4l-0.1-0.2c-1-3.3-3.8-6.5-8.1-6.5
			c-0.1,0-0.1,0-0.2,0c-1.6,0-2.7,0.5-3.3,0.8c0,0-0.1,0-0.1,0c-1.8-1.9-4.5-3.6-7.8-3.6c-1.6,0-3.2,0.4-4.7,1.2
			c-0.5,0.3-1,0.6-1.5,0.9c-2,1.5-3.2,3.6-3.7,5.8c0,0,0,0-0.1,0c-1.9,0-3.7,0.6-5.3,1.7c-0.9,0.6-1.7,1.3-2.3,2.2
			c-2.8,3.7-2.2,8.3-0.7,11.4l7.8,22.7l0.2,0.5c-1.5,0.7-3.1,1.7-4.5,3c0,0-0.1,0.1-0.1,0.1c-5.2,4-5.5,8.3-5.2,10.6
			c0.6,5,4.8,8.3,8.6,9.8c3.5,1.7,7.7,2.3,10.5,2.5c0.8,0.7,1.6,1.4,2.6,2c3.4,2.6,6.9,3.9,10.9,4.1c0.4,0,0.9,0.1,1.3,0.1
			c0.7,0,1.4,0,2.1-0.1c2.3-0.2,4.7-0.6,7.5-1.2c1.7-0.3,3.7-0.7,5.8-1c1-0.2,2.2-0.2,3.7-0.2c0.7,0,1.4,0,2.1,0.1
			c5.2,0.5,22.1,3.8,35.6,6.6c0.8,4.6,2.5,8.7,3.9,11.6l0.4,0.9l0.7,0.7c0.6,0.6,5.2,5,13.9,7.7c3.5,20.4,11.6,41.7,23.9,63.4
			c-3.7,8.5-9.8,21.1-17.5,31.7c-6-4.4-12.6-6.6-19.5-6.6c-3.9,0-7.9,0.7-11.9,2.2c-11,4-17.4,12.9-18.5,25.7
			c-0.7,8.2,0.8,17.8,4.3,28.7c1.1,3.5,2.5,8,4.6,12.4c0,0.1,0.1,0.2,0.1,0.3l0.9,4.9l1.1,0c0.8,1.4,1.6,2.6,2.4,3.8
			c0.6,0.8,1.1,1.7,1.7,2.7l1.5,2.5l2.9,0.3c0.8,0.1,1.8,0.4,2.4,0.7c-0.2,0.3-0.4,0.7-0.8,1.3l-2.3,3l1.8,3.4
			c0.1,0.3,3.6,6.7,8.6,13.5c7.3,9.8,14,15.2,20.6,16.3c2.2,0.6,4.3,0.9,6.4,0.9c6,0,14.6-2.4,21.7-14.1c1.5-2.4,2.6-5.1,3.5-8.1
			l1.7-0.3l1.4-1.6c1.1-1.2,24.5-27.6,40.5-59.2c1.4,2.3,3.1,4.7,5.1,7.2c7.6,9.2,21.7,21.1,46,25.6c2.6,0.5,5.2,0.7,7.7,0.7
			c13.5,0,25.5-7.1,34.8-20.5c0.7,0,1.3,0.1,1.9,0.1c9.7,0,23.2-4.3,32.8-24.7c5.3-11.3,6.9-22.5,7-23l0.3-2l-0.5-0.8l1.6-0.2l0.1-5
			l0.4-10c0.5-8-1.7-14.8-6.6-20.1c-5.8-6.4-14.1-9-19.6-10v0l-0.4,0c-2.4-0.4-4.2-0.6-5-0.6c-0.9-0.1-1.8-0.2-2.7-0.2
			c-8.2,0-14.6,4.5-19.1,9.3c-0.2-0.5-0.3-1-0.5-1.4l-0.1-0.4c-0.2-1-3.5-23.4-10.9-49.2l0.8-0.6c5-4.1,8.4-9.3,10.2-15.7
			c14.8-1.6,27.9-5.8,33.1-7.6c2.9,1.2,7.8,2.8,13.7,2.8c1.8,0,3.5-0.1,5.2-0.4c27.1-4.2,31-43,31.5-49.8c1.1-3.6,0.2-8-3.6-10.5
			c-0.8-0.6-1.6-1-2.6-1.2c0.4-3.5-1.2-8.4-7.3-10.4c-1.1-0.4-2.3-0.6-3.5-0.6c-1.2,0-2.4,0.2-3.4,0.6l0-1l0-0.1l0-0.1
			c0-0.5,0-2.2-0.6-4c-0.2-0.9-0.5-1.8-1-2.7l-0.6-1.6h-0.4c-1.7-2.3-4.4-4.1-7.9-4.3c-0.3,0-0.6-0.1-1-0.1c-2.5,0-4.9,1-6.7,2.9
			c-2.4,2.2-3.3,4.8-3.5,5.6l-0.1,0.3l-0.1,0.4l-0.3,2c-2-2.2-4.9-3.8-8.5-3.8c-0.1,0-0.2,0-0.4,0c-0.7,0-1.4,0.1-2.1,0.2
			c-4.4,0.8-7.6,3.6-9,7.7c-0.8,2.4-0.7,4.5-0.6,5.3l1.3,19.5c-1.5,0-3.3,0-5.2,0c-6.4,0-12,0.1-16.7,0.4c3.7-2.2,7.2-5.3,10.1-9.1
			l9.1-11.7l-11.3,1.6c5.2-4.6,9.5-11.4,9.7-20.8l0.4-13.9l-5.3,4.7c1.5-10.1,4.2-31.4-2.7-55.4c-6.5-22.3-19.7-41.1-39.3-56.2
			l12.8,4.4l-25.8-21.3c-0.7-0.6-18.1-14.7-49.5-14.7c-15.8,0-32.4,3.6-49.4,10.6L250.1,47.1L250.1,47.1z"/>
	</g>
	<g>
		<path class="st0" d="M391.7,448.5c-1.7,0-3.6-0.2-5.4-0.5c-5.1-0.9-8.7-3.5-10.6-7.8c-9.5-20.9,23.3-75.9,24.7-78.2l0.4-0.7l0.8,0
			c0.6,0,14,0.6,21.9,9.2c4,4.4,5.8,10.1,5.4,16.9l-0.8,11.2l-1.1,0.2c0,0-1,0.2-1.3,0.9c-0.4,0.9-0.1,2.4,0.9,4.3l0.2,0.4l-0.1,0.5
			c-0.1,0.4-1.6,10.9-6.6,21.6C413.4,440.9,403.6,448.5,391.7,448.5z"/>
		<path d="M401.6,362.7c0,0,27.3,0.9,25.9,24.5l-0.7,10c0,0-5,0.7-1.4,7.4c0,0-6,42.4-33.7,42.4c-1.6,0-3.4-0.1-5.1-0.5
			C354.4,440.9,401.6,362.7,401.6,362.7 M400,359.8l-0.9,1.4c-0.1,0.1-8.7,14.4-16,31.1c-10.1,22.9-13,39.2-8.8,48.5
			c2.2,4.8,6.1,7.7,11.7,8.7c1.9,0.3,3.8,0.5,5.6,0.5c12.5,0,22.8-7.9,29.8-22.9c5.1-10.9,6.6-21.6,6.7-22l0.1-0.9l-0.5-0.8
			c-1-1.9-1-2.8-0.9-3c0,0,0.2-0.1,0.3-0.2l2.4-0.2l0-2.4l0.7-10c0.4-7.2-1.5-13.3-5.8-17.9c-8.3-9.1-22.3-9.6-22.9-9.7L400,359.8
			L400,359.8z"/>
	</g>
	<g>
		<path class="st1" d="M385,448.1c-4.5,0-8.1-1.7-10.7-5.2c-11.6-15.5,1.5-61.5,2.1-63.4l0-0.1l0-0.1c0.3-0.7,8.7-18.2,23.1-18.2
			c1.7,0,3.4,0.2,5.1,0.7c17,4.8,18.8,20,17.1,28.2c-0.1,0.7-0.3,1.9-0.5,3.4c-1.9,12.9-7.6,52.2-34.6,54.6
			C386.1,448.1,385.5,448.1,385,448.1z"/>
		<path d="M399.6,362.6c1.5,0,3,0.2,4.7,0.7c16.5,4.7,17.6,19.3,16.1,26.5c-1.4,7.2-5,54.3-33.8,56.9c-0.5,0-1,0.1-1.5,0.1
			c-26.6,0-7.2-66.8-7.2-66.8S385.9,362.6,399.6,362.6 M399.6,360L399.6,360c-15.3,0-24,18.1-24.4,18.8l-0.1,0.1l-0.1,0.2
			c-0.1,0.5-3.5,12.1-5.5,25.8c-2.8,18.9-1.5,32,3.7,38.9c2.9,3.8,6.8,5.7,11.8,5.7c0.6,0,1.2,0,1.8-0.1
			c28.1-2.5,33.9-42.7,35.9-55.8c0.2-1.5,0.4-2.6,0.5-3.3c1.7-8.7-0.1-24.6-18.2-29.7C403.2,360.1,401.4,360,399.6,360L399.6,360z"
			/>
	</g>
	<g>
		<path class="st2" d="M248.3,367c0,0-12.9,37.1-32.5,55.3c0,0,25,74.7,35.2,73.1c0,0,29.7-33.3,44.9-69.3c0,0,8.7,32.8,52.3,40.8
			c43.6,8.1,55.4-65,53.2-75.2c-2.1-10.2-15-16.1-23.6-11.8c0,0-5.9-26.3-13.4-29.6L248.3,367z"/>
	</g>
	<path class="st3" d="M289.2,409.4c-3,6.5-11.2,22.3-29.4,33c-10.8,6.3-21,8.5-27.6,9.3c5.1,15.6,10.3,31.3,15.4,46.9
		c7.2-7.5,15-16.5,22.6-27.2c5.5-7.8,10.1-15.2,14-22.2c3.3-6.2,6.7-12.3,10-18.5c-0.5-2.1-1.6-7-2.1-9.1
		C291.3,418.2,290,412.9,289.2,409.4z"/>
	<path class="st3" d="M367.7,422"/>
	<path class="st3" d="M365.2,423.5c0,0,4.3-39.4-6-45.6l14.8-10.5c0,0,11.5,22.7,5,31.8c0,0,2.1-17.2,1.2-20.2
		c1.5-0.3,3.4-0.5,5.5-0.4c4.6,0.2,8.2,1.7,10.3,2.9c1.4,1.3,3.4,3.7,4.7,7.2c0.5,1.4,1.1,3.6,0.7,9.7c-0.1,1.3-0.8,13.2-2.5,13.3
		c-1.5,0-0.9-8.8-4.3-10c-7-2.6-22.8,28.8-28,26.6C365.4,427.7,365.2,425.6,365.2,423.5z"/>
	<g>
		<path class="st1" d="M227.2,518.8c-8.4,0-14.9-5.9-15.2-6.2l-0.5-0.5l1.8-40.5l-28.5-2.4l-0.4-0.7c-0.6-1.2-14.4-29.8-7-48.3
			c2.5-6.1,7-10.4,13.5-12.8c3.5-1.3,7-1.9,10.4-1.9c9.8,0,19.1,5.5,26.8,16c5.6,7.5,8.4,15,8.7,15.7c0.4,0.9,5.6,12.4,9.2,26.3
			c5,19.5,4.7,34.1-1,43.4C240.1,514.8,234.1,518.8,227.2,518.8z"/>
		<path d="M201.3,406.9c22.8,0,34.2,30.9,34.2,30.9s21.5,46.9,8.2,68.4c-5.3,8.6-11.3,11.2-16.6,11.2c-7.9,0-14.2-5.8-14.2-5.8
			l1.8-41.2l-29-2.5c0,0-23.6-48.4,5.7-59.1C194.9,407.4,198.2,406.9,201.3,406.9 M201,404v2.9V404l0.3,0c-3.5,0-7.2,0.7-10.9,2
			c-6.9,2.5-11.7,7.1-14.3,13.6c-7.7,19,6.4,48.2,7,49.5l0.7,1.5l1.6,0.1l26.3,2.2l-1.7,38.5l-0.1,1.3l1,0.9
			c0.3,0.3,7.2,6.5,16.2,6.5c5.1,0,12.6-2.2,19-12.5c13.7-22.3-6.7-68-8-71c-0.4-1-3.5-8.5-9-16C221.1,409.7,212,404,201,404
			L201,404z"/>
	</g>
	<g>
		<path class="st0" d="M223.3,518.1c-13,0-27.1-26.6-27.7-27.7l-0.4-0.8l0.5-0.7c1.8-2.4,2.4-4.4,1.8-5.9c-1-2.4-5.1-3.5-6.6-3.7
			l-0.7-0.1l-0.4-0.6c-17.6-29.4-12.5-46-12.3-46.7l0.1-0.2l0.1-0.2c2-3.2,4.6-5.6,7.7-7c2.3-1.1,4.8-1.6,7.4-1.6
			c6.3,0,13,3,18.3,8.3l0.1,0.1l6.9,10.2l0,0.1c1.1,2,27.9,49.7,14.6,70.3C230.2,516,227,518.1,223.3,518.1
			C223.3,518.1,223.3,518.1,223.3,518.1z"/>
		<path d="M192.8,424.4c5.8,0,12.1,2.8,17.3,7.9c4.4,6.5,6.8,10,6.8,10s27.6,48.7,14.7,68.8c-2.5,3.9-5.4,5.5-8.3,5.5
			c-12.3,0-26.4-27-26.4-27c7.5-10-5.7-11.8-5.7-11.8c-17.4-29.2-12.2-45.5-12.2-45.5c1.4-2.2,3.6-4.9,7.1-6.5
			C188.1,424.9,190.4,424.4,192.8,424.4 M192.8,421.6c-2.9,0-5.6,0.6-8,1.7c-3.3,1.6-6.1,4.1-8.3,7.6l-0.2,0.3l-0.1,0.3
			c-0.2,0.7-5.5,17.9,12.4,47.8l0.7,1.2l1.4,0.2c1.8,0.3,4.8,1.3,5.4,2.8c0.5,1.3-0.8,3.4-1.6,4.5l-1.1,1.4l0.8,1.6
			c0.1,0.3,3.7,7,8.9,13.9c7.3,9.7,14.1,14.6,20.1,14.6c4.2,0,7.8-2.3,10.7-6.8c13.7-21.3-13.4-69.7-14.6-71.7l-0.1-0.1l-0.1-0.1
			l-6.8-10l-0.2-0.2l-0.2-0.2C206.5,424.8,199.5,421.6,192.8,421.6L192.8,421.6z"/>
	</g>
	<g id="right">
		<path class="st4" d="M203.2,256.5l-2.3,30.1c0,0-34.2-9.7-47.8-7.5c-13.6,2.1-17.9,5-26.5-3.9c0,0-14.3,0.4-14.3-7.5
			c0-7.9,10-8.2,10-8.2l-10-31.5c0,0-1.1-3.5,0.7-4.4c1.8-0.9,4.3-0.6,5.7,1.2s7.9,10.4,7.9,10.4l-5-14.3c0,0-1.4-3.9,1.4-5.4
			c2.9-1.4,6.1,2.1,6.1,2.1l7.9,14.3l-2.9-10.6c0,0-0.7-2.3,1.4-3.4c2.1-1.1,4,2.1,4,2.1l5.4,12.2v-6.4c0,0,1-1.8,2.8-1.8
			c1.8,0,3.6,1.8,3.6,3.2c0,1.4,3.6,20.1,6.8,22.6C161.4,252.2,191.3,258.6,203.2,256.5z"/>
	</g>
	<g id="shirt">
		<path class="st5" d="M301.8,398c-34.9,0-58.1-22.2-58.3-22.4l-0.1-0.2l-0.1-0.2c-13.3-22.9-21.6-45.3-24.9-66.5
			c-9.5-2.3-14.5-7.1-14.7-7.4l-0.2-0.2l-0.1-0.2c-5.1-10.9-4.9-24-3.8-33.2c1.2-9.8,3.6-17,3.7-17.3l0.2-0.6l0.5-0.3
			c3.3-1.7,24.3-5.6,26.7-6l1.8-0.3l-0.3,4.9l91-4.1l0.4,0.2c0.6,0.3,1.2,0.7,1.8,1.1c3.5-0.3,8.6-0.6,14-0.6
			c18,0,27.6,3.2,28.4,9.5c0.8,1.6,5.1,10.4,7.3,21.1c3.2,15.7,0.1,27.9-8.9,35.2l-0.2,0.2l-0.3,0.1c-0.1,0-1.2,0.4-3.1,0.7
			c8.2,27.4,12.1,52.8,12.1,53.1l0.1,0.8l-0.6,0.6C350.9,387.2,326.5,398,301.8,398C301.8,398,301.8,398,301.8,398z"/>
		<path d="M231.1,245l-0.3,4.7l92.2-4.1c0.7,0.4,1.4,0.8,2.1,1.3c3.4-0.3,8.7-0.6,14.4-0.6c12.3,0,26.4,1.5,27,8.5
			c0,0,19.9,37.6-1.1,54.8c0,0-1.7,0.5-4.5,0.9c8.6,28.2,12.6,54.4,12.6,54.4c-26.6,24.1-51.2,31.6-71.6,31.6
			c-34.7,0-57.3-22-57.3-22c-15.1-26.1-22.2-48.6-24.8-67c-9.9-2.1-14.9-7.2-14.9-7.2c-9.7-20.4,0-49.4,0-49.4
			C208,249.3,231.1,245,231.1,245 M234.2,241.5l-3.6,0.7c-3.9,0.7-23.7,4.5-27.1,6.2l-1.1,0.5L202,250c-0.4,1.2-9.9,30.4,0.1,51.6
			l0.2,0.4l0.4,0.4c0.2,0.2,5.1,5,14.4,7.5c3.4,21.1,11.7,43.3,24.9,66.1l0.2,0.3l0.3,0.3c1,0.9,23.8,22.8,59.3,22.8
			c25,0,49.8-10.9,73.5-32.4l1.1-1l-0.2-1.5c0-0.3-3.8-24.9-11.7-51.7c1-0.2,1.6-0.4,1.7-0.4l0.5-0.2l0.4-0.3
			c9.4-7.7,12.7-20.4,9.4-36.6c-2.1-10.5-6.3-19.1-7.3-21.2c-1.1-7-10.9-10.5-29.8-10.5c-5.3,0-10.2,0.3-13.6,0.5
			c-0.5-0.3-1-0.6-1.5-0.9l-0.7-0.4l-0.8,0l-89,4l0.1-1.5L234.2,241.5L234.2,241.5z"/>
	</g>
	<path class="st6" d="M345.8,311.3c0,0,18.6,60,8,68.7c0,0,14.9-9.9,19.6-15.1c0,0-9-49.7-12.9-52
		C356.6,310.6,345.8,311.3,345.8,311.3z"/>
	<path class="st6" d="M345.8,311.2c0,0-2.5-6.6-9-10.2c-6.4-3.6,22.6,7,25.8-9h11.8c0,0-0.7,12.4-9.1,17
		C365.4,309,347.6,313.3,345.8,311.2z"/>
	<path class="st6" d="M215,285.2c0,0-11.4,4.1-14.4-2.9c0,0,0.9,12.1,4.2,18c0,0,5.2,4.7,10.2,6.1V285.2z"/>
	<g id="left">
		<path class="st4" d="M364.5,256.5c0,0-15,4.2-14,19.3c1.1,15.1,13.3,17.2,13.3,17.2s24.4-0.7,49.1-8.6c0,0,38.3,21.1,44.4-44.4
			c0,0-1.8-7.2-8.6,2.9l1.8-9c0,0,1.8-5.4-2.5-6.8c-4.3-1.4-6.4,4.7-6.4,4.7l-5.7,12.2l1.1-23.6c0,0-0.4-5.7-5-6.4
			c-4.7-0.7-5.4,7.3-5.4,7.3l-3.6,20.6l-5.4-16.5c0,0-2.5-5-6.8-4.1c-4.3,0.9-4.7,6.6-4.7,6.6l1.8,26.1
			C407.8,254,372.3,252.9,364.5,256.5z"/>
	</g>
	<g>
		<path class="st7" d="M363.5,248.1c-11.1,0-20.1-6.2-20.5-6.4l-0.8-0.6l0.3-1.3l0.2-0.2c11.9-15.1,18.2-33.3,18.2-52.6
			c0-3.6-0.2-7.2-0.7-10.8l0-0.3l0.5-1.6c0,0,0,0,0,0c-0.8-0.4-2.1-0.8-3.6-0.8c-3.9,0-7.1,2.8-9.7,8.2c-5.5,12-13.7,13.2-17,13.2
			c-0.7,0-1.1-0.1-1.2-0.1l-1.2-0.2l0-1.2c0.1-10.5-3.1-19.2-9.5-25.6c-6.6-6.7-20.2-14.6-47.6-14.6c-5.3,0-9.6,0.3-12.1,0.6
			c3.9,6,5,11.3,3.5,15.7c-2.1,6.1-8.6,8-8.8,8.1l-3.3,1l1.6-3c0.8-1.4,0.8-2.8-0.1-4.2c-1-1.7-5.8-7.1-25.6-7.1
			c-16.4,0-26.3-5.6-30.8-9.1l0.4,3l-0.1,0.3c-3.2,9.1-4.9,18.7-4.9,28.5c0,13.7,3.4,27.4,9.7,39.5l0.7,1.4l-1.4,0.6
			c-3.9,1.7-7.6,2.6-11.1,2.6c-15.6,0-20.8-17.7-20.8-17.9l-0.7-2.5l2.5,0.7c0.5,0.1,0.9,0.2,1.4,0.2c4.7,0,6.9-8,7.8-13.2
			c-1.2,0.4-2.3,0.7-3.4,0.7c-7.2,0-9.6-9.1-9.7-9.5l-0.4-1.6h1.8c5.5,0,9.2-0.3,11-2.5c2.8-3.3,2.5-12-1.1-33.1
			c-2.6-15.1,3.7-31.6,18-47.5c9.7-10.7,19.8-17.8,22.1-19.3c5.1-17.1,14.5-22.7,14.9-22.9l4.9-2.8l-3,4.8c-3.7,6.1-3.2,7.8-3,8
			c0.2,0.4,0.9,0.4,1.3,0.4c1.6,0,3.8-0.8,4.5-1.1c17.6-7.7,34.7-11.6,50.8-11.6c15.5,0,27.4,3.7,34.5,6.8
			c7.8,3.4,11.9,6.7,12.1,6.9l6.2,5.1l-7.5-2.6c-1.8-0.6-3.6-1-5.3-1c-1.6,0-2.9,0.3-3.9,0.6c32.2,16.2,52.9,39.3,61.5,68.7
			c7,24.1,3.8,45.6,2.4,54.8c-0.2,1.4-0.4,2.5-0.4,3.2c-0.4,3.7,0.3,4.7,0.5,4.9c0.1,0.1,0.2,0.2,0.4,0.2c0.8,0,1.9-0.7,2.3-1.1
			l2.4-2l-0.1,3.2c-0.5,16.3-14.3,22.2-19.9,23.9c2.4,1.9,6.5,2.3,9,2.3c1.9,0,3.3-0.2,3.3-0.2l3.5-0.5l-2.2,2.8
			C380.2,244.1,372.5,248.1,363.5,248.1z"/>
		<g>
			<path d="M287.6,61.9c29.6,0,45.7,13.3,45.7,13.3c-2.2-0.8-4.1-1-5.8-1c-4.6,0-7.1,2.1-7.1,2.1c84.5,40.8,66.3,115.7,65.2,126.4
				c-0.5,5.3,0.8,6.6,2.3,6.6c1.5,0,3.3-1.4,3.3-1.4c-0.5,19.3-21,23.1-21,23.1c2.1,3.8,7.8,4.5,11.5,4.5c2,0,3.5-0.2,3.5-0.2
				c-6.8,8.7-14.7,11.3-21.8,11.3c-10.8,0-19.7-6.2-19.7-6.2l0,0c11.6-14.7,18.6-33.3,18.6-53.5c0-3.7-0.2-7.4-0.7-11l0.7-2.5
				c0,0-0.4-0.3-1.1-0.6c-1-0.4-2.5-0.9-4.2-0.9c-3.3,0-7.6,1.7-11,9c-5.2,11.4-13,12.4-15.7,12.4c-0.6,0-1-0.1-1-0.1
				c0.4-36.5-37.1-41.7-58.5-41.7c-8.6,0-14.6,0.8-14.6,0.8c13.4,18.8-3.2,23.6-3.2,23.6c3.2-5.9-3.8-13.4-26.9-13.4
				c-16.5,0-26.1-5.7-30.3-9c-1.7-1.3-2.5-2.3-2.5-2.3l0.9,6.5c-3.2,9.1-5,18.8-5,29c0,14.5,3.6,28.2,9.9,40.2
				c-4,1.8-7.4,2.5-10.5,2.5c-14.7,0-19.5-16.9-19.5-16.9c0.6,0.2,1.2,0.3,1.8,0.3c8.1,0,9.5-17.1,9.5-17.1c-2,1.2-3.7,1.7-5.2,1.7
				c-6.2,0-8.3-8.5-8.3-8.5c14.5,0,17.4-1.2,11.3-37.1c-6.1-35.9,39.9-65.5,39.9-65.5c5-17.2,14.4-22.6,14.4-22.6
				c-5.4,8.7-3.3,10.7-0.4,10.7c2.3,0,5.1-1.2,5.1-1.2C256.8,64.8,273.7,61.9,287.6,61.9 M241,55.9l-9.8,5.6
				c-0.4,0.2-10.1,5.9-15.4,23.2c-3,2-12.7,8.9-21.9,19.2c-14.7,16.2-21,33.1-18.4,48.6c2.9,17.3,4.2,28.5,1.5,31.8
				c-1.4,1.7-5,1.7-9.9,1.7h-3.7l0.9,3.7c1,4,4.4,10.8,11,10.8c0.5,0,1,0,1.6-0.1c-1,4.6-3,9.8-5.9,9.8c-0.3,0-0.6,0-1-0.1l-4.9-1.4
				l1.4,4.9c0.1,0.2,1.4,4.8,4.6,9.3c4.5,6.3,10.6,9.6,17.6,9.6c3.6,0,7.6-0.9,11.6-2.7l2.8-1.2l-1.4-2.7
				c-6.3-11.9-9.6-25.3-9.6-38.8c0-9.6,1.6-19,4.8-28l0.2-0.7l0-0.1c5.5,3.4,14.9,7.5,29,7.5c19.5,0,23.7,5.3,24.3,6.4
				c0.6,0.9,0.6,1.8,0,2.8l-3.3,6l6.6-1.9c0.3-0.1,7.4-2.2,9.8-9c1.5-4.3,0.7-9.4-2.5-15c2.5-0.2,5.8-0.4,9.7-0.4
				c14.9,0,35,2.5,46.6,14.2c6.1,6.2,9.2,14.5,9.1,24.6l0,2.5l2.4,0.4c0.1,0,0.6,0.1,1.4,0.1c3.5,0,12.4-1.4,18.3-14.1
				c2.2-4.9,5.1-7.3,8.4-7.3c0.7,0,1.4,0.1,1.9,0.3l0,0.1l-0.2,0.6l0.1,0.6c0.4,3.5,0.7,7.1,0.7,10.6c0,19-6.2,36.9-17.9,51.8
				l-0.4,0.4l-0.2,0.6l-0.6,2l1.7,1.2c0.4,0.3,9.8,6.7,21.3,6.7c9.5,0,17.6-4.2,24-12.4l4.3-5.6l-7,1c0,0-1.3,0.2-3.1,0.2
				c-2.1,0-3.8-0.2-5.3-0.6c1.7-0.7,3.6-1.7,5.6-2.9c7.6-4.9,11.7-12.2,12-21.1l0.2-6.3l-4.9,4c-0.3,0.2-0.6,0.4-0.9,0.6
				c-0.1-0.5-0.2-1.6,0-3.3c0.1-0.7,0.2-1.8,0.4-3.1c1.4-9.3,4.7-31-2.5-55.4c-8.3-28.5-27.9-51.2-58.2-67.5
				c1.3,0.1,2.7,0.4,4.1,0.9l15.1,5.2L335.1,73c-0.7-0.6-17.2-13.9-47.5-13.9c-16.4,0-33.7,4.1-51.4,11.9c-0.9,0.4-2.7,1.1-3.9,1.1
				c0,0,0,0,0,0c0.1-1,0.6-2.7,2.9-6.4L241,55.9L241,55.9z"/>
		</g>
	</g>
	<g>
		<path class="st8" d="M271.2,291.1c-1.3,0-2.7-0.1-4-0.3c-6.8-1-11.6-3.5-14.5-7.4c-2.3-3.2-3.2-7.5-2.6-12.3
			c-22.3-6.8-41.2-22.5-52.1-43.3c-1-1.8-1.9-3.7-2.7-5.6c-0.3,0.2-0.7,0.3-1,0.3c-0.2,0-0.4,0.1-0.6,0.1c-5,0-9.2-9.4-10.7-18.7
			c-0.9-5.1-1-10.1-0.3-13.9c1-5.6,3.2-7.1,4.9-7.4c0.2,0,0.3,0,0.5-0.1c0.4-8.6,2.1-17,4.9-25c0.5-1.5,1.1-2.9,1.7-4.3l0.7-1.7
			l1.5,1.2c4.1,3.3,13.5,8.7,29.4,8.7c14.6,0,24.8,3.1,28,8.5c0.7,1.2,1.1,2.5,1,3.8c1.6-1,3.5-2.6,4.4-5.1c1.4-4-0.2-9-4.5-15.1
			l-1.4-1.9l2.3-0.3c0.2,0,6.2-0.8,14.8-0.8c15.7,0,37,2.7,49.6,15.4c6.7,6.7,10.1,15.6,10.3,26.3c2.2-0.1,6.8-1,11-6.5
			c2.5-11.2,8.6-18.4,15.6-18.4c9.4,0,16.7,12.7,16.7,28.8s-7.4,28.8-16.7,28.8c-0.7,0-1.4-0.1-2.1-0.2c-2.8,6-6.3,11.6-10.4,16.8
			c-10.8,13.7-25.3,23.8-41.9,29.2C297.5,278.5,286.2,291.1,271.2,291.1z"/>
		<g>
			<path d="M270.9,151.8c21.4,0,58.9,5.2,58.5,41.7c0,0,0.4,0.1,1,0.1c2.2,0,7.9-0.7,12.7-7.4c2.2-10.3,7.8-17.6,14.3-17.6
				c8.5,0,15.3,12.3,15.3,27.4c0,15.1-6.9,27.4-15.3,27.4c-1,0-1.9-0.2-2.8-0.5c-2.9,6.3-6.5,12.3-10.8,17.7
				c-10.6,13.4-25,23.6-41.6,28.9c-5.8,8.3-16.6,20.3-30.9,20.3c-1.3,0-2.5-0.1-3.8-0.3c-16-2.4-16.9-12.7-15.7-19.3
				c-22.8-6.6-41.6-22.3-52.5-42.9c-1.2-2.4-2.4-4.8-3.4-7.3c-0.5,0.7-1.2,1.1-1.9,1.2c-0.1,0-0.3,0-0.4,0c-3.6,0-7.7-7.6-9.3-17.5
				c-1.7-10.2-0.2-19,3.5-19.7c0.1,0,0.3,0,0.4,0c0.4,0,0.8,0.1,1.2,0.3c0.3-9.2,2-18,4.9-26.3c0.5-1.4,1-2.8,1.6-4.2
				c4.2,3.3,13.8,9,30.3,9c23.1,0,30.1,7.5,26.9,13.4c0,0,16.7-4.8,3.2-23.6C256.3,152.6,262.3,151.8,270.9,151.8 M271,148.9v2.9
				V148.9c-9,0-14.8,0.8-15,0.9l-4.7,0.7l2.7,3.9c4,5.6,5.5,10.4,4.3,13.8c-0.4,1.2-1.1,2.2-1.9,3c-0.2-0.6-0.5-1.3-0.9-1.9
				c-3.5-5.9-13.9-9.2-29.2-9.2c-15.5,0-24.5-5.3-28.5-8.4l-3-2.3l-1.5,3.5c-0.6,1.4-1.2,2.9-1.7,4.4c-2.8,7.8-4.4,16-5,24.3
				c-5.9,1.7-6.9,12.9-5.2,22.8c1.7,9.9,6.1,19.9,12.2,19.9c0.3,0,0.6,0,0.9-0.1c0.7,1.5,1.4,3.1,2.2,4.6
				c10.9,20.7,29.7,36.5,51.9,43.6c-0.4,4.7,0.7,8.8,3,12.1c3.1,4.3,8.2,7,15.4,8c1.4,0.2,2.8,0.3,4.3,0.3
				c15.4,0,26.9-12.6,32.7-20.7c16.6-5.5,31.2-15.7,42.1-29.5c3.9-5,7.4-10.4,10.1-16.1c0.4,0,0.8,0.1,1.2,0.1
				c10.2,0,18.2-13.3,18.2-30.3c0-17-8-30.3-18.2-30.3c-7.7,0-14.3,7.5-17,19.2c-3,3.8-6.1,5.1-8.3,5.5c-0.5-10.4-4-19-10.6-25.7
				C314.4,157.6,300,148.9,271,148.9L271,148.9z"/>
		</g>
	</g>
	<path class="st9" d="M196.1,286.7c-1.6,1.8-5.5-0.1-17-3.2c-4.6-1.2-7.5-1.8-13.4-3c-3-0.6-5.2-1-8.2-0.9c-2.4,0.1-3,0.5-7.7,1.3
		c-5.6,0.9-8.4,1.4-10.6,1.3c-3.4-0.2-6.6-0.5-9.3-2.7c-1.6-1.3-2.6-2.9-5-3.6c-1.3-0.3-1.5,0-3.4-0.2c-1.2-0.1-4.4-0.4-7.2-2.5
		c-1.1-0.8-3.6-2.8-3.5-5.6c0.1-2.6,2.4-4.3,3.6-5.1c6.8-4.6,9.4,0.6,9.4,0.6l-11.5-33.4c0,0-2.1-4.1,0.7-6.2
		c2.9-2.2,5.7,1.2,5.7,1.2l7.9,10.4l-5.3-13c0,0-1.9-4.8,1.7-6.7c3.6-1.9,6.1,2.1,6.1,2.1l7.9,14.3l-2.9-10.6c0,0-1.1-2.3,1.4-3.4
		c2.5-1.1,3.6,2.1,3.6,2.1l4.8,12.2v-4.9c0-3.3,3.3-3.3,3.3-3.3c3.9,0.5,3.9,3.8,3.9,3.8c1.8,18.8,7.6,22.5,7.6,22.5
		c6.8,3.2,12.4,4.4,16.3,4.9c3.2,0.4,7.1,0.1,12.2,0.7c0.5,0.1,2.1,0.2,5.2,0.4c1.9,0.1,3,0.2,4.5-0.2c1.4-0.3,1.6-0.7,2-0.5
		c1.4,0.7-1.3,6.2-2,14.5c-0.7,8-0.5,12.2-0.5,12.2C196.6,285,196.8,285.9,196.1,286.7z"/>
	<path class="st10" d="M161.1,251.6c0,0-7-0.7-9.2,2.1"/>
	<path class="st11" d="M360,268.3c0,0-2.7-9.6-6.9-3.3c-4.2,6.3-2.9,18.2,2.9,24.3C361.9,295.3,360,268.3,360,268.3z"/>
	<path class="st12" d="M352.3,266.3c0,0,4.5-8.4,14.7-10.6s40.9-1.7,40.9-1.7l-1.8-26.1c0,0-0.7-5.8,4.7-6.6s6.8,4.1,6.8,4.1
		l5.4,16.5l3.9-23.9c0,0,1.2-4.1,5-4.1c3.8,0,4.6,4.4,4.6,4.4l-0.6,25.7l6.8-14.2c0,0,1.5-3.9,5.4-2.6s2.9,4.4,2.9,4.4l-2.2,11.3
		l3.4-4c0,0,1.6-2.3,4-0.9c2.3,1.4,1,4.3,1,4.3s-2.8,59.5-44.2,42.2c0,0-25.4,9.9-49.1,8.6c0,0-6.8-0.7-9.5-6.3"/>
	<path class="st13" d="M407,252.7l0,7.8h-10c0,0-4.8,2.2-4.5,7.5c0.2,5.3,6,6.5,6,6.5h8.5"/>
	<path class="st14" d="M416.4,285.5c0,0-3.9-1.8-5.1-4.9"/>
	<path class="st15" d="M289.6,409.8c2.1,18.6,14.8,33.9,14.8,33.9"/>
	<path class="st16" d="M190.4,478.9c0,0,20.8,1.4,26.9,0"/>
	<path class="st17" d="M197.5,484.7c0,0,13.2,1.4,17.1,0"/>
	<path class="st16" d="M195.7,489.7c0,0,20.8,1.4,26.9,0"/>
	<path class="st10" d="M190.4,165.6c0,0-5,23.2-1,36.5"/>
	<path class="st10" d="M356.5,224.7c0,0-3.7,0.2-5-3.3"/>
	<path class="st10" d="M362.8,195c0,0,3.3-15.5-4.5-18.4"/>
	<path class="st10" d="M356.5,209.9c0,0-5.4-0.4-5-8.7c0,0,6,1,6-4.3s-7.1-3.8-7.1-3.8s-1.8-15.8,7.8-16.5s10,16,10,16
		s1,9.3-3.3,14.1"/>
	<path class="st10" d="M374,366.5c0,0,9.7,16.7,5.9,32.2"/>
	<path class="st18" d="M367.3,311.3c0,0-4.7,3.6-19.3,0"/>
	<path class="st18" d="M217.4,310.7c0,0-2.3-12.9-1-25"/>
	<polyline class="st19" points="257,312.1 242.5,326.5 256.1,340.1 	"/>
	<polyline class="st20" points="316.1,311 330.2,325.5 317,339 	"/>
	<line class="st21" x1="301.2" y1="309.9" x2="288" y2="342"/>
	<path class="st22" d="M226.7,176.5c7.8-1.5,15.5,3.8,17,11.9l3.2-0.6c-1.9-10-11.3-16.3-20.9-14.5s-15.9,11.2-13.9,21.2l3.2-0.6
		C213.8,185.7,218.9,178,226.7,176.5z"/>
	<path class="st22" d="M280.4,168.7c7.9-0.3,14.5,6,14.8,14.2l3.2-0.1c-0.4-10.1-8.5-17.7-18.2-17.3c-9.7,0.3-17.3,8.5-16.9,18.6
		l3.2-0.1C266.4,175.8,272.6,169,280.4,168.7z"/>
	<g>
		<path class="st23" d="M275.8,275.6c-8.4,0-16.7-1.3-24.7-4C218.3,260.9,203,237,196.5,223c4.8,6.4,10.5,12.4,15,12.4
			c0.2,0,0.3,0,0.4,0c0.7-0.1,3-0.3,4.3-2c2.2-3.1-0.8-7.7-1.7-9c-0.5-1.4-0.9-3.5-0.6-5.9c0.1-0.9,0.6-3.1,1.9-5.1
			c2.5-3.7,7-4.6,11.3-5.5c1.4-0.3,4.3-0.9,8.1-0.9c2.6,0,5.2,0.3,7.8,0.9c1.6,0.4,2.9,0.8,4,1.2c1.8,0.6,3.3,1.1,5.3,1.1
			c0.5,0,1,0,1.6-0.1c4.4-0.6,7.3-2.9,8.7-4.1l0.2-0.2c7.2-5.7,19.1-8.6,35.6-8.6l1.3,0c8.7,0,16.4,0.5,22,6
			c2.5,2.5,4.3,5.6,5.4,9.4l2.2,9.4l1.7-1c1.9-1.2,3.6-2.6,5-4.2c2.2-2.6,3.3-5.2,4.2-7.6c1.8-5.1,2.9-10.7,3.6-15.3
			c4.7,10.7,1.5,29.9,1.5,30.1l-0.1,0.5l0.2,0.4c1.6,3,4,3.6,5.8,3.6c0.3,0,0.5,0,0.8,0C343.6,248.9,313.6,275.6,275.8,275.6z"/>
		<path d="M299.9,198.4c8.7,0,15.7,0.4,21,5.6c2.3,2.3,4,5.2,5,8.7l1.8,7.5l0.9,3.8l3.4-2.1c2-1.2,3.8-2.8,5.3-4.5
			c2.4-2.8,3.6-5.5,4.5-8.1c1.1-3.1,2-6.4,2.6-9.6c1.6,8.4,0.5,19-0.3,23.6l-0.2,1l0.5,0.9c1.3,2.4,3.3,3.9,5.7,4.3
			c-4.7,10-13.7,20.3-25,28.3c-14.8,10.5-32.3,16.3-49.2,16.3c-8.2,0-16.4-1.3-24.3-3.9c-19.6-6.4-35.3-18.2-46.5-35
			c-0.5-0.8-1.1-1.6-1.6-2.4c3,2.6,5.7,3.9,8.1,3.9c0.2,0,0.4,0,0.6,0c2.4-0.2,4.2-1.1,5.3-2.6c2.6-3.7-0.4-8.8-1.6-10.5
			c-0.4-1.2-0.8-3-0.5-5.1c0.1-0.6,0.5-2.7,1.7-4.5c2.2-3.2,6.4-4.1,10.4-4.9c1.4-0.3,4.2-0.9,7.8-0.9c2.5,0,5,0.3,7.4,0.8
			c1.6,0.4,2.8,0.8,3.9,1.1c1.8,0.6,3.5,1.2,5.7,1.2c0.6,0,1.2,0,1.8-0.1c4.8-0.6,8.1-3.2,9.5-4.4l0.2-0.2
			c8.6-6.8,23.6-8.3,34.8-8.3L299.9,198.4 M343.1,189.4c-0.4,3.4-1.5,11.7-4.1,19.1c-0.9,2.5-1.9,4.8-3.9,7.2
			c-1.7,1.9-3.4,3.2-4.7,3.9c-0.6-2.5-1.2-5-1.8-7.5c-0.8-2.7-2.3-6.6-5.7-10c-6.2-6.2-14.7-6.4-23-6.4c-0.4,0-0.9,0-1.3,0
			c-5.4,0-25.4,0-36.5,9c-1.2,1-4,3.4-8.2,3.9c-0.5,0.1-1,0.1-1.4,0.1c-2.9,0-4.7-1.3-9-2.2c-2.9-0.7-5.7-0.9-8.1-0.9
			c-3.8,0-6.8,0.6-8.4,0.9c-4.4,0.9-9.3,1.9-12.2,6.1c-1.6,2.4-2.1,5.1-2.1,5.7c-0.4,3.1,0.3,5.6,0.7,6.8c0.2,0.3,3.6,5,1.8,7.5
			c-0.9,1.2-2.6,1.4-3.2,1.4c-0.1,0-0.2,0-0.3,0c-6.9,0-18.1-17.7-20.5-21.5c0,0,10.6,44.5,59.6,60.6c8.6,2.8,17,4.1,25.2,4.1
			c38.6,0,70.9-27.8,78.7-51c0,0-1.4,0.7-3.1,0.7c-1.6,0-3.3-0.6-4.5-2.9C346.9,224,351.2,199.3,343.1,189.4L343.1,189.4z"/>
	</g>
	<g>
		<path class="st4" d="M268.4,258.3c-10.7,0-25.5-3.7-34.5-12.1c-9.8-9.1-12.9-24.6-11.2-28.2c0.8-1.5,2.3-2.3,4.5-2.3
			c0.8,0,1.5,0.1,1.7,0.2c5.3,2.2,11.7,3.4,19.2,3.4c22.3,0,46.7-9.7,49.3-10.7c0.3,0,1-0.1,2-0.1c13.3,0,16.8,8.3,17.7,13.3
			c2.8,15.1-3.5,23.4-4.2,24.3c-12.3,10.3-31.7,11.6-42.1,12.2C270.1,258.3,269.3,258.3,268.4,258.3z"/>
		<path d="M299.5,209.9c12.2,0,15.5,7.6,16.3,12.1c1.2,6.3,0.9,12.1-0.9,17.3c-1.1,3.3-2.5,5.2-2.9,5.7c-12,9.9-30.9,11.2-41.1,11.8
			c-0.8,0.1-1.7,0.1-2.6,0.1c-10.4,0-24.8-3.6-33.5-11.7c-9.6-8.9-12.2-23.8-10.8-26.5c0.2-0.4,0.8-1.5,3.2-1.5
			c0.6,0,1.1,0.1,1.3,0.1c5.4,2.3,12,3.4,19.7,3.4c22.1,0,46.1-9.4,49.6-10.8C298.2,209.9,298.7,209.9,299.5,209.9 M299.5,207
			c-1.4,0-2.4,0.1-2.4,0.1s-25.9,10.7-49,10.7c-6.8,0-13.3-0.9-18.8-3.3c0,0-0.9-0.2-2.2-0.2c-1.9,0-4.5,0.5-5.8,3.1
			c-2.1,4.3,1.4,20.5,11.5,29.9c9.2,8.6,24.4,12.5,35.5,12.5c0.9,0,1.9,0,2.7-0.1c11.2-0.7,30.6-2.1,43-12.7c0,0,7.6-8.8,4.5-25.6
			C316.2,208.5,304.5,207,299.5,207L299.5,207z"/>
	</g>
	<path d="M223.5,227.6c0,0,3.8,7,10.6,4.5c0,0,2.9,3.9,8.4,2.3c0,0,3,2,0,2.9c-3,0.9-6.3,0.4-7.9-0.9c0,0-6.4-1.4-6.6,1.3
		L223.5,227.6z"/>
	<path d="M315.6,216.3c0,0-1.4,10.9-10.9,15.2c0,0-3.4,2.3-11.3,0.5c0,0-0.9,3.2-10.6,3.2c0,0-3.6,2.3-6.4,0.4c0,0-3.6,1.8,0,2.5
		c3.6,0.7,2-2,7.9-0.5c0,0,5.2-3.3,10.6-1.2s12.7-4.5,20.8,2.7l2.5-5.2l-0.4-10L315.6,216.3z"/>
</g>
<g id="guides">
</g>
</svg>
