<svg xmlns="http://www.w3.org/2000/svg" width="100" height="100" viewBox="0 0 100 100"><title>illustration</title><rect x="70.77" y="8.96" width="11.66" height="10.83" transform="translate(32.6 -49.95) rotate(45)" style="fill:#86aedd"/><rect x="27.28" y="56.71" width="10.78" height="2.81" transform="translate(50.66 -6.08) rotate(45)" style="fill:#d9d9d9"/><path d="M31.56,68.82a4.81,4.81,0,0,1-3.41-1.41l-5-5a4.82,4.82,0,0,1,0-6.82L73,5.79a4.94,4.94,0,0,1,6.82,0l5,5a4.83,4.83,0,0,1,0,6.82L35,67.41A4.81,4.81,0,0,1,31.56,68.82Zm-6.1-8.64,5,5a1.61,1.61,0,0,0,2.27,0L82.55,15.29a1.61,1.61,0,0,0,0-2.27l-5-5a1.65,1.65,0,0,0-2.27,0L25.47,57.91A1.61,1.61,0,0,0,25.47,60.18Z"/><path d="M18.61,72.09l-0.76.85a29.17,29.17,0,0,0-2,2.49,25.44,25.44,0,0,0-2.5,4.2,17.3,17.3,0,0,0-1.64,5.92A8.73,8.73,0,0,0,13.55,92a12.55,12.55,0,0,0,6.61,3.62,26.57,26.57,0,0,0,4.15.67l2.29,0.1c0.69-.05,1.37-0.05,2.08-0.12A24.13,24.13,0,0,0,37,93.54c2.73-1.36,5.43-3,8.25-4.48a40.14,40.14,0,0,1,8.79-3.41c0.75-.22,1.5-0.36,2.21-0.51s1.51-.26,2.24-0.34a35.54,35.54,0,0,1,4.31-.24,38.77,38.77,0,0,1,7.79.82A43.35,43.35,0,0,1,77,87.15,45.91,45.91,0,0,1,81.62,89c1.27,0.56,2.23,1.09,2.88,1.44l1,0.53-1.08-.37c-0.7-.25-1.73-0.6-3-1C80.74,89.42,80,89.21,79.21,89s-1.66-.46-2.59-0.67a54.33,54.33,0,0,0-6.27-1.12A44.6,44.6,0,0,0,62.91,87a33,33,0,0,0-4,.46c-0.68.11-1.35,0.26-2,.4s-1.4.33-2.06,0.55a42.33,42.33,0,0,0-8.09,3.43c-2.69,1.42-5.34,3.11-8.25,4.6A27.29,27.29,0,0,1,29,99.32c-0.84.07-1.71,0.07-2.56,0.1l-2.29-.18a28.9,28.9,0,0,1-4.71-.92,14.3,14.3,0,0,1-7.81-4.94,9.76,9.76,0,0,1-1.72-4,12.25,12.25,0,0,1,0-4,17.27,17.27,0,0,1,2.39-6.28,25.29,25.29,0,0,1,5.45-6.24Z" style="fill:#f15a24"/><rect x="81.22" y="2.42" width="6.06" height="8.31" rx="1" ry="1" transform="translate(29.33 -57.65) rotate(45)" style="fill:#fff"/><path d="M83.46,12.6a3.19,3.19,0,0,1-2.27-.94h0l-2-2a3.22,3.22,0,0,1,0-4.55l3.61-3.6a3.3,3.3,0,0,1,4.55,0l2,2a3.22,3.22,0,0,1,0,4.55l-3.61,3.6A3.19,3.19,0,0,1,83.46,12.6Zm0-3.21-1.14,1.14,1.14-1.14h0ZM85,3.77l-3.6,3.6,2,2,3.61-3.6Z"/><rect x="15.03" y="62.68" width="13.45" height="3.21" transform="translate(-46.03 67.5) rotate(-74.02)"/><rect x="19.35" y="67.38" width="13.05" height="3.21" transform="translate(-18.21 9.96) rotate(-16.2)"/><circle cx="19.67" cy="70.94" r="1.44"/><rect x="73.67" y="10.11" width="11.2" height="2.39" transform="translate(31.21 -52.74) rotate(45)"/></svg>