<?xml version="1.0" encoding="utf-8"?>
<!-- Generator: Adobe Illustrator 19.2.1, SVG Export Plug-In . SVG Version: 6.00 Build 0)  -->
<svg version="1.1" id="draw" xmlns="http://www.w3.org/2000/svg" xmlns:xlink="http://www.w3.org/1999/xlink" x="0px" y="0px"
	 width="1000px" height="1000px" viewBox="0 0 1000 1000" style="enable-background:new 0 0 1000 1000;" xml:space="preserve">
<style type="text/css">
	.st0{fill:#EBEBEB;}
	.st1{fill:#A1E7FF;}
	.st2{fill:#FFFFFF;}
</style>
<g>
	<title>illustration</title>
	
		<rect x="622.9" y="237.2" transform="matrix(0.7071 -0.7071 0.7071 0.7071 -0.8407 543.9032)" class="st0" width="66.5" height="71.6"/>
	
		<rect x="377.6" y="508.5" transform="matrix(0.7071 -0.7071 0.7071 0.7071 -269.8589 431.7647)" class="st1" width="17.3" height="66.2"/>
	<path d="M379.5,607.3c-7.9,0-15.4-3.1-20.9-8.7l-30.7-30.7c-11.6-11.6-11.6-30.3,0-41.9l0,0L634,220.3c11.7-11.2,30.2-11.2,41.9,0
		l30.7,30.7c11.5,11.6,11.5,30.3,0,41.9l-306,305.8C395,604.3,387.4,607.4,379.5,607.3z M342,554.3l30.7,30.7
		c3.9,3.8,10.1,3.8,13.9,0l306-306.4c3.8-3.9,3.8-10.1,0-13.9L661.9,234c-3.9-3.7-10-3.7-13.9,0L342.1,540.4
		C338.2,544.2,338.2,550.4,342,554.3L342,554.3z"/>
	<path class="st1" d="M299.9,627.4l-4.7,5.2c-4.4,4.9-8.5,10-12.3,15.3c-5.9,8.1-11.1,16.7-15.4,25.8c-5.5,11.4-8.9,23.7-10.1,36.4
		c-1.7,14.2,2.4,28.4,11.3,39.6c10.9,11.4,25.1,19.2,40.6,22.2c8.4,2,16.9,3.4,25.5,4.1l14.1,0.6c4.2-0.3,8.4-0.3,12.8-0.7
		c17.9-2.4,35.2-8.1,51.1-16.8c16.8-8.4,33.3-18.4,50.7-27.5c17.1-9.1,35.2-16.1,54-20.9c4.6-1.4,9.2-2.2,13.6-3.1
		c4.4-0.9,9.3-1.6,13.8-2.1c8.8-1,17.6-1.5,26.5-1.5c16.1,0.1,32.1,1.7,47.8,5c13.4,2.6,26.5,6.2,39.4,10.9
		c9.7,3.3,19.1,7.1,28.4,11.4c7.8,3.4,13.7,6.7,17.7,8.8l6.1,3.3l-6.6-2.3c-4.3-1.5-10.6-3.7-18.4-6.1c-4.2-1.1-8.7-2.4-13.6-3.7
		c-4.9-1.3-10.2-2.8-15.9-4.1c-12.7-3-25.5-5.3-38.5-6.9c-15.2-1.7-30.5-2.1-45.7-1.3c-8.2,0.4-16.4,1.4-24.6,2.8
		c-4.2,0.7-8.3,1.6-12.3,2.5s-8.6,2-12.7,3.4c-17.2,5.3-33.9,12.3-49.7,21.1c-16.5,8.7-32.8,19.1-50.7,28.2
		c-18.2,9.4-38,15.4-58.4,17.7c-5.2,0.4-10.5,0.4-15.7,0.6l-14.1-1.1c-9.8-1.1-19.5-3-28.9-5.6c-18.9-4.5-35.8-15.2-48-30.3
		c-5.3-7.3-8.9-15.7-10.6-24.6c-1.3-8.1-1.3-16.4,0-24.6c2.3-13.7,7.3-26.8,14.7-38.6c9-14.5,20.3-27.5,33.5-38.3L299.9,627.4z"/>
	<path class="st2" d="M712.3,198.2l17.6,17.6c2.4,2.4,2.4,6.3,0,8.7l-27.4,27.4c-2.4,2.4-6.3,2.4-8.7,0l-17.6-17.6
		c-2.4-2.4-2.4-6.3,0-8.7l27.4-27.4C706,195.8,709.9,195.8,712.3,198.2z"/>
	<path d="M698.2,262.1c-5.2,0-10.3-2.1-13.9-5.8l0,0L672,244c-7.7-7.7-7.7-20.2,0-27.9l22.2-22.1c7.8-7.4,20.1-7.4,27.9,0l12.3,12.3
		c7.7,7.7,7.7,20.2,0,27.9l-22.2,22.1C708.5,260,703.5,262.1,698.2,262.1z M698.2,242.4l-7,7L698.2,242.4L698.2,242.4z M707.7,207.8
		l-22.1,22.1l12.3,12.3l22.2-22.1L707.7,207.8z"/>
	<rect x="278" y="569.6" transform="matrix(0.2753 -0.9614 0.9614 0.2753 -325.6313 726.9338)" width="82.6" height="19.7"/>
	<rect x="304.6" y="598.5" transform="matrix(0.9603 -0.279 0.279 0.9603 -156.0422 120.3166)" width="80.1" height="19.7"/>
	<circle cx="306.5" cy="620.4" r="8.8"/>
	<rect x="665.1" y="219.8" transform="matrix(0.7071 -0.7071 0.7071 0.7071 17.2501 549.9515)" width="14.7" height="68.8"/>
</g>
</svg>
