<?xml version="1.0" encoding="utf-8"?>
<!-- Generator: Adobe Illustrator 19.1.0, SVG Export Plug-In . SVG Version: 6.00 Build 0)  -->
<svg version="1.1" xmlns="http://www.w3.org/2000/svg" xmlns:xlink="http://www.w3.org/1999/xlink" x="0px" y="0px"
	 viewBox="0 0 570 570" style="enable-background:new 0 0 570 570;" xml:space="preserve">
<style type="text/css">
	.st0{fill:#706C60;stroke:#000000;stroke-width:2.7696;stroke-miterlimit:10;}
	.st1{fill:#30271B;stroke:#000000;stroke-width:2.7696;stroke-miterlimit:10;}
	.st2{fill:none;stroke:#000000;stroke-width:2.7696;stroke-miterlimit:10;}
	.st3{fill:#E8DFDC;stroke:#000000;stroke-width:2.7696;stroke-miterlimit:10;}
	.st4{fill:#C3BEBE;}
	.st5{fill:#FBB672;stroke:#000000;stroke-width:2.301;stroke-linecap:round;stroke-linejoin:round;stroke-miterlimit:10;}
	.st6{fill:none;stroke:#000000;stroke-width:4.0027;stroke-linecap:round;stroke-miterlimit:10;}
	.st7{fill:#D3ECF1;stroke:#000000;stroke-width:2.301;stroke-linecap:round;stroke-miterlimit:10;}
	.st8{fill:#D3ECF1;stroke:#000000;stroke-width:2.7696;stroke-linejoin:round;stroke-miterlimit:10;}
	.st9{fill:#A1D9D7;}
	.st10{fill:none;stroke:#000000;stroke-width:2.7696;stroke-linejoin:round;stroke-miterlimit:10;}
	.st11{fill:#6B908D;}
	.st12{fill:#FBB672;stroke:#000000;stroke-width:2.7696;stroke-linecap:round;stroke-linejoin:round;stroke-miterlimit:10;}
	.st13{fill:none;stroke:#000000;stroke-width:3.3019;stroke-miterlimit:10;}
	.st14{fill:none;stroke:#000000;stroke-width:2.7696;stroke-linecap:round;stroke-miterlimit:10;}
	.st15{fill:#543A17;stroke:#000000;stroke-width:2.7696;stroke-miterlimit:10;}
	.st16{fill:#FAAD59;}
	.st17{stroke:#000000;stroke-width:2.0772;stroke-miterlimit:10;}
	.st18{fill:#6D4B1D;}
	.st19{fill:#FAAD59;stroke:#000000;stroke-width:2.7696;stroke-miterlimit:10;}
	.st20{fill:#FFFFFF;}
</style>
<g id="guides">
</g>
<g id="Layer_5">
	<g>
		<g>
			<path d="M309.5,34.6c1.2,0,2.3,0,3.6,0c6.5,0.2,16.4,0.5,28.7,3.5c8.9,2.2,15.3,3.7,22.5,8.7c7.4,5.1,11.6,10.9,13.2,13.2
				c3.4,5,5.1,9.6,5.9,11.8c1.3,3.7,1.7,6.6,2.4,10.7c0.8,5.1,1.2,9.3,1.4,12.5c0.2,2.6,0.4,5.4,0.3,8.3c0,5-0.4,9.5-1,13.5
				c0,2.2-0.2,5.1-0.9,8.4c0.8,3.3,1.3,6.9,1.3,10.7c0,14.6-6.6,26.5-14.8,26.5c-0.9,0-1.9-0.2-2.8-0.5c-2.8,6.1-6.3,11.8-10.4,17.1
				c-3.4,4.4-7.3,8.4-11.6,12c5,7.5,19.8,12.6,19.8,12.6s17.2,28.7,19.5,33c2.3,4.3,1.3,6.4,1.3,6.4c-3.7,2.9-7.2,5.5-10.4,7.7
				c3.4-2.2,6.3-4.4,8.8-6.5c0,0,15.4,30.4,11.7,40.3c0,0-37.5,27.3-39.7,31.9c0,0-3.3,12.5-6,13.6c0,0-1.6,0.4-4,0.8l2.2,18.1
				c0,0-0.8,0.2-2.6,0.6c-2,45.9,0.9,137.3,3.1,146.6c1.5,6.4-2.7,10.1-5.5,11.9c-0.4,0.4-0.9,0.8-1.4,1.2
				c-1.9,1.4-5.6,3.3-10.4,5.4c-0.8,0.3-1.6,0.7-2.4,1c-0.3,0.1-0.6,0.2-0.8,0.3c-1.4,0.6-2.9,1.2-4.4,1.8c-1.2,0.5-2.5,1-3.8,1.5
				c-0.6,0.2-1.3,0.5-2,0.7c-0.3,0.1-0.7,0.2-1,0.4c-0.7,0.2-1.3,0.5-2,0.7c-3.1,1.1-6.3,2.2-9.5,3.3c-0.7,0.2-1.5,0.5-2.2,0.7
				c-3.6,1.2-7.3,2.4-11,3.5c-0.7,0.2-1.5,0.5-2.2,0.7c-7.6,2.3-15,4.4-21.3,5.8c-1.2,0.3-2.3,0.5-3.4,0.8c-0.8,0.2-1.6,0.3-2.4,0.5
				c-1.3,0.2-2.5,0.4-3.6,0.6c-0.2,0-0.4,0.1-0.7,0.1c-0.6,0.1-1.3,0.2-1.8,0.2c-0.4,0-0.8,0.1-1.1,0.1c-0.5,0-0.9,0-1.4,0
				c0,0-0.1,0-0.1,0c-0.6,0-1.1,0-1.6-0.1c-0.2,0-0.4-0.1-0.6-0.1c-0.1,0-0.2-0.1-0.3-0.1c-0.2-0.1-0.3-0.1-0.4-0.2
				c-0.1,0-0.1-0.1-0.2-0.1c-0.1-0.1-0.2-0.2-0.2-0.3c-0.4-0.7,0.3-2,2.4-3.8c1.8-1.5,3.7-3.1,5.7-4.5c2.2-1.6,4.5-3.3,6.9-4.8
				c-8.7,0.9-18.7,1.7-26.3,1.7c-10,0-15.9-1.4-9.6-5.8c10.2-7,29.6-13.3,43.7-17.3c0,0,0.1,0,0.1,0.1c0,0,0.5-0.2,1.3-0.5
				c8.7-2.4,15.1-3.9,15.2-3.9c0,0,0,0,0,0h0c0,0,0,0,0,0c-5.7,0.8-12.4,2.9-15.2,3.9c-0.5,0.1-0.9,0.3-1.4,0.4
				c-38-34.2-54.2-60.8-54.2-60.8c4.5-13.2,10.7-76.3,12.3-93.4c-4.8-2-3.9-3.7-3.9-3.7l7.4-50.3c-9.3,3.8-16.9,5.6-16.9,5.6
				c-0.9,1.6-5.5,9.4-14.3,11.2c-1.2,0.3-2.5,0.4-3.8,0.4c-8.9,0-18.1-6.1-22.5-16.3c-6.7-2.4-11.3-5.4-11.5-7.6
				c-0.2-1.7,0.6-2.7,0.6-2.7c0.6-0.7,1.4-1,1.6-1c0.3-0.1,0.6-0.1,0.8-0.1c1,0,1.8,0.5,1.9,0.6c2.6,1.3,5.2,2.7,7.7,4
				c-2.8-2.3-5.5-4.7-8.3-7c-0.5-0.4-1.5-1.1-2.1-2.4c-0.3-0.7-0.7-1.6-0.3-2.7c0.4-1.2,1.5-1.8,1.7-1.8c0.5-0.2,1-0.3,1.5-0.3
				c0.9,0,1.9,0.4,2.8,1c3.5,2.8,7.1,5.6,10.6,8.4l-11.9-16.7c0,0-1.4-3.2,1.1-5c0.7-0.5,1.5-0.7,2.2-0.7c1.7,0,3,1.1,3,1.1
				c5.1,4.9,10.2,9.9,15.3,14.8c-1.6-3.6-3.2-7.2-4.8-10.7c-1.5-2.4-2.6-4.6-3.2-6.2c-0.6-1.5-1.1-3-0.8-4.6c0.2-1.2,0.8-1.8,0.9-2
				c1-1,2.3-1,2.8-1c0,0,0,0,0.1,0c2.2,0,3.7,1.7,3.9,2c4.9,7.7,9.8,15.4,14.7,23.1c0,0,18.6-13,27-16.9l0.3-16.2
				c-13.1-9.2-9.3-25.3-7.5-28.1c1.3-1.9,12-11.8,18.5-17.7c-12.5-7.8-22.7-18.9-29.6-32c-1.2-2.3-2.3-4.6-3.3-7
				c-0.5,0.6-1.1,1-1.8,1.2c-0.1,0-0.3,0-0.4,0c-3.4,0-7.4-7.3-9-16.9c-1.7-9.9-0.2-18.4,3.4-19c0.1,0,0.3,0,0.4,0
				c0.4,0,0.8,0.1,1.2,0.3c0-0.4,0-0.9,0-1.3c-0.4-0.1-0.9-0.2-1.3-0.4c-7.1-13.5-7-26.7-0.5-32.5c1.3-1.2,3.5-2.6,7.2-3.2
				c-1.6-2.8-6.1-11.4-3-20.1c1.9-5.4,6-8.2,13.8-13.6c2.6-1.8,9-6,18.7-9.7c8.3-3.1,14.8-4.2,22.5-5.5c7.9-1.3,13.7-1.8,22.2-2.4
				C298.2,35,303.5,34.6,309.5,34.6 M345.1,291.3c0.3-1.1,0.6-2.3,0.9-3.4c0.5-0.3,1.8-1.3,3.8-1.3c0,0,0.1,0,0.1,0
				c2.6,0.1,4.2,1.7,4.5,2c0,0,12.3-8.8,13.5-12.6c-1-2.6-2.2-5.3-3.4-8.1c-1.3-2.9-2.6-5.6-3.9-8.2c-0.4,0.1-0.7,0.1-1,0.1
				c-0.5,0-0.8-0.1-1-0.3c-0.1-0.1-1.3-1.1-2.6-2.6c-1-1.1-1.8-2.2-2.3-2.9L345.1,291.3 M290.4,453.7l-7.8-54.4l-8,34.7L290.4,453.7
				 M309.5,27.6c-6.3,0-11.7,0.4-20.8,1.1c-8.5,0.6-14.6,1.1-22.8,2.5c-8,1.4-14.9,2.5-23.8,5.9c-7.3,2.8-14.3,6.4-20.2,10.5
				l-0.1,0.1c-8.2,5.7-13.6,9.5-16.3,16.9c-2.5,6.8-1.5,13.4,0.2,18.6c-0.9,0.6-1.7,1.2-2.4,1.9c-8.4,7.6-9.5,22-3,36.9
				c-1.1,1.7-2.1,4-2.6,7.1c-0.8,4.4-0.7,9.8,0.2,15.4c1.7,10.2,6.3,21,14,22.5c0.4,0.8,0.8,1.5,1.1,2.3c6,11.5,14.4,21.5,24.6,29.4
				c-11.6,10.7-12.6,12.2-13.2,13.1c-3.7,5.5-6.6,23.6,6.2,35.3l-0.2,8.6c-5.7,3.2-13,7.9-18.1,11.3l-3.5-5.4l-7.3-11.5l-0.3-0.4
				l-0.3-0.4c-1.1-1.3-4.3-4.4-9.2-4.4l-0.1,0c-3.1,0-5.9,1.1-7.9,3.2c-1,1-2.2,2.8-2.8,5.5c0,0.1,0,0.2-0.1,0.3
				c-0.8-0.2-1.6-0.3-2.5-0.3c-2.2,0-4.3,0.6-6.1,1.9c-4.6,3.1-5.3,8.4-4,12.5c-2.1,1.3-3.8,3.2-4.5,5.5c-0.8,2.5-0.4,4.7,0,6.2
				c-0.1,0.1-0.2,0.2-0.3,0.3c-0.6,0.7-2.4,3.5-2,7.7c0.7,6.5,8.5,10.5,13.4,12.5c5.8,10.7,16.5,17.8,27.5,17.8
				c1.8,0,3.5-0.2,5.2-0.5c8.8-1.8,14.4-7.8,17.3-12c1.1-0.3,2.4-0.7,3.9-1.1l-5.6,38.3c-0.3,1.5-0.2,3.2,0.4,4.8
				c0.6,1.6,1.6,2.9,3,4.1c-3.4,35.4-8.4,77.9-11.5,87.4l-1,3.1l1.7,2.8c0.6,1,14.6,23.6,46.5,53.9c-12.4,4-25.7,9.1-33.9,14.7
				c-6,4.1-6.2,8.4-5.3,11.3c2.1,6.7,10.5,7.3,18.8,7.3c1.6,0,3.4,0,5.1-0.1c-1.6,3.1-1.1,5.7-0.1,7.6c0.5,0.9,1.1,1.7,1.8,2.3
				c0.2,0.2,0.5,0.5,1,0.8c0.6,0.4,1.2,0.7,1.8,0.9c0.3,0.1,0.5,0.2,0.8,0.3c0.5,0.1,0.9,0.2,1.4,0.3c0.8,0.1,1.6,0.2,2.6,0.2l0.1,0
				c0.6,0,1.2,0,1.8-0.1c0.4,0,0.9-0.1,1.3-0.1c0.7-0.1,1.4-0.1,2.1-0.2c0.2,0,0.5-0.1,0.7-0.1c1.2-0.2,2.5-0.4,3.9-0.7
				c0.8-0.2,1.7-0.3,2.5-0.5c1.1-0.2,2.3-0.5,3.6-0.8c6.1-1.4,13.6-3.5,21.7-5.9c0.7-0.2,1.5-0.5,2.2-0.7c3.7-1.1,7.4-2.3,11.1-3.6
				c0.7-0.2,1.5-0.5,2.2-0.7c3.3-1.1,6.6-2.3,9.7-3.4c0.7-0.3,1.4-0.5,2.1-0.8l1-0.4c0.7-0.3,1.3-0.5,2-0.8c1.3-0.5,2.6-1,3.9-1.5
				c1.6-0.6,3.1-1.2,4.5-1.8l0.9-0.4c0.9-0.4,1.7-0.7,2.5-1.1c5.7-2.5,9.6-4.5,11.8-6.2c0.5-0.4,1-0.8,1.5-1.3
				c6.8-4.5,9.8-11.5,8-19c-1.7-7.2-4.8-90.3-3.1-139.4l3.5-0.9l-0.7-6.1l-1.5-12c2.1-1.1,5.4-4.2,8.8-16.5
				c3.8-4.1,21.9-18,37.4-29.3l1.7-1.2l0.7-2c1.4-3.7,2.4-10.8-4.5-28.8c-2-5.1-4-9.8-5.5-13c0.7-2,1.3-6.1-1.8-11.9
				c-2.4-4.4-18.9-32.1-19.6-33.3l-1.3-2.2l-2.4-0.8c-3.4-1.2-8.2-3.4-11.9-5.9c2.4-2.4,4.7-5,6.8-7.7c3.5-4.4,6.5-9.1,9.1-14
				c11.7-1,20.4-15.1,20.4-33.4c0-3.7-0.4-7.3-1.1-10.8c0.5-2.5,0.7-5.2,0.7-7.8c0.7-4.6,1-9.3,1-14c0-2.9-0.1-5.9-0.4-8.8
				c-0.3-4.4-0.7-8.8-1.5-13.1c-0.7-4.2-1.3-7.6-2.7-11.8c-1.6-4.7-3.9-9.3-6.7-13.5c-2.7-4-7.6-9.9-15-15
				c-8.3-5.7-15.6-7.4-24.8-9.7c-13.3-3.2-23.9-3.5-30.2-3.7C312,27.6,310.7,27.6,309.5,27.6L309.5,27.6z M355,279.4l2.4-10.5
				c0.3,0.6,0.5,1.2,0.8,1.7c0.6,1.4,1.3,2.9,1.9,4.3C358.8,276.2,357,277.8,355,279.4L355,279.4z"/>
		</g>
	</g>
	<path class="st0" d="M292.7,498.2c0,0-43.2,9.4-60.3,21.2c-17.2,11.8,55.1,1.5,55.1,1.5l27.9-8.8
		C315.4,512.1,318.7,495.2,292.7,498.2z"/>
	<path class="st1" d="M258.2,507.2c-10.3,4.9-15.2,8.1-14.8,9.5c0.7,2.3,15.1,0.2,43-6.3c3.5-0.9,6.9-1.8,10.4-2.7
		c1.8-1.1,3.7-2.1,5.5-3.2c-1.2-2.6-2.5-5.1-3.7-7.7l-5.8-0.6L258.2,507.2z"/>
	<path class="st2" d="M292.7,498.2c0,0-43.2,9.4-60.3,21.2c-17.2,11.8,55.1,1.5,55.1,1.5l27.9-8.8
		C315.4,512.1,318.7,495.2,292.7,498.2z"/>
	<path class="st0" d="M309.8,502.6c0,0-35.1,13.6-54.1,29.8s75.6-14,88.3-23.5c12.7-9.5-12-18.4-12-18.4L309.8,502.6z"/>
	<path class="st1" d="M284.7,514.2c0,0-60.9,35.3,49.8-9.2l1.8-0.6l-7.3-3.5l-14.7-0.4l-11.5,2.8L284.7,514.2z"/>
	<path class="st2" d="M309.8,502.6c0,0-35.1,13.6-54.1,29.8c-19,16.2,75.6-14,88.3-23.5c12.7-9.5-12-18.4-12-18.4L309.8,502.6z"/>
	<path class="st3" d="M350.9,495.9c-2.2-9.5-5.2-105.7-2.9-150.2l-113.4-2.3c0,0-7.5,82.3-12.7,97.6c0,0,16.3,27,54.3,61.2
		c0,0,17.1-6.3,23.5-3.3c0,0,0.8,6.7,4.2,5.8c0,0,24.1-12.8,39,4.1C342.9,509,353.1,505.4,350.9,495.9z M274.6,434l8-34.7l7.8,54.4
		L274.6,434z"/>
	<path class="st4" d="M270.2,374.9c-1.8,14.7-4.6,35.9-8.4,62.4c0,0,36.9,55,18.9,62.4c0,0,16.6-2.7,18.3-1.5l-8.4-44.5l-16-19.9
		l8.5-34l-3-22c-1.3-11.9-3.1-25.5-5.2-25.5C272.9,352.3,271.6,363.2,270.2,374.9z"/>
	<path class="st4" d="M279.4,353.2c3.1,0.9,7.5,1.8,12.7,1.2c1.5-0.2,2.9-0.5,4.2-0.8c3.9,0.1,7.9,0.1,12,0c6.9-0.1,13.4-0.5,19.6-1
		c0.5,7.6,1.1,15.2,1.6,22.8c1.5,19.1,2.7,33.9,3.5,42.2c2.6,30.8,4.7,51.7-5.1,64.2c-5,6.3-9.5,9.5-9.5,9.5
		c-8.6,6-17.3,6.5-17.3,9.5c0,0.7,0.5,1.8,3.5,3.2c1.9-1.4,8.3-5.6,17.2-5c11.6,0.7,18.4,8.8,19.5,10.1c0,0,9.6-1.3,9.9-14.1
		l-2.3-25.3l-2.1-67.6l-0.1-53.2C324.2,350.2,301.8,351.7,279.4,353.2z"/>
	<path class="st2" d="M350.9,495.9c-2.2-9.5-5.2-105.7-2.9-150.2l-113.4-2.3c0,0-7.5,82.3-12.7,97.6c0,0,16.3,27,54.3,61.2
		c0,0,17.1-6.3,23.5-3.3c0,0,0.8,6.7,4.2,5.8c0,0,24.1-12.8,39,4.1C342.9,509,353.1,505.4,350.9,495.9z M274.6,434l8-34.7l7.8,54.4
		L274.6,434z"/>
	<path class="st5" d="M253.1,259.9c0,0-6.8-3.5-14.6-0.4c-7.8,3.2-28.1,17.4-28.1,17.4c-4.9-7.7-9.8-15.4-14.7-23.1
		c-0.3-0.3-1.7-2-3.9-2c-0.4,0-1.9,0-2.9,1c-0.1,0.1-0.7,0.7-0.9,2c-0.3,1.6,0.2,3.1,0.8,4.6c0.7,1.6,1.7,3.8,3.2,6.2
		c1.6,3.6,3.2,7.2,4.8,10.7c-5.1-4.9-10.2-9.9-15.3-14.8c0,0-2.6-2.1-5.2-0.4c-2.6,1.7-1.1,5-1.1,5l11.9,16.7
		c-3.5-2.8-7.1-5.6-10.6-8.4c-1.3-1-3-1.3-4.3-0.7c-0.2,0.1-1.3,0.6-1.7,1.8c-0.4,1.1,0.1,2,0.3,2.7c0.6,1.3,1.5,2.1,2.1,2.4
		c2.8,2.3,5.5,4.7,8.3,7c-2.6-1.3-5.2-2.7-7.7-4c-0.2-0.1-1.4-0.8-2.8-0.5c-0.2,0.1-1,0.3-1.6,1c0,0-0.7,1-0.6,2.7
		c0.2,2.2,4.8,5.2,11.5,7.6c5,11.7,16.3,18,26.2,16c8.8-1.8,13.4-9.6,14.3-11.2c0,0,21.4-5,36.7-16.5c1.2-2.8,2.4-5.7,3.6-8.5"/>
	<path class="st6" d="M210.6,275.8l3,4.8l6.7-4.5c0,0,4.5-0.2,6.7,3.4c2.2,3.6-0.8,7.5-0.8,7.5l-5.4,3.6"/>
	<path class="st7" d="M219.1,301.6c0,0,1.8-3,1.2-5.6"/>
	<path class="st8" d="M253.8,193.3c0,0-21.7,19.5-23.6,22.3c-1.9,2.8-5.6,18.9,7.5,28.1l-0.4,21.6c0,0,1.2,2.6,3.9,3.8l-10.9,74.8
		c0,0-3.7,7.7,48.2,8.9c52,1.2,72-4.1,72-4.1L344,296l9.6-42c0.5,0.8,1.3,1.8,2.3,2.9c1.4,1.5,2.5,2.5,2.6,2.6
		c2.2,1.8,14.6-5,29.4-16.7c0,0,1-2.1-1.3-6.4c-2.3-4.3-19.5-33-19.5-33s-18.4-6.3-21.2-15.3L253.8,193.3z"/>
	<path class="st9" d="M345.3,240.4c-0.2-0.4-0.7-1.4-1.6-1.6l0,0c0,0-0.2,0-0.5,0c0,0-0.6,0.1-1.1,0.5c-1,0.7-2,11-4.6,16.3
		c-0.8,1.7-2.3,4-5.2,6.2c-2.3,1.6-4.7,3.1-7,4.7l10.7,0.9c-2,9.3-4.3,16.5-5.9,21.4c-1.5,4.3-2.5,6.8-4.4,13
		c-0.9,2.7-1.7,5.5-3.8,12.1c-0.8,2.4-1.2,3.9-1.6,4.9c-4.9,15.4-5.1,18-6.5,20.9c-2.4,4.6-8.1,9.8-23.3,12.1
		c9.1,0.7,19.6,0.8,31.2,0.1c10.4-0.7,19.8-2.1,28-3.7c-2.3-17-4.6-34.1-6.9-51.1l11.2-43.3L345.3,240.4z"/>
	<path class="st9" d="M238.7,252.8c-0.1,1.4-0.1,6.2,3.3,10.5c1.9,2.3,4.1,3.5,5.4,4.1c-2.4,0.3-4.8,0.7-7.3,1c-0.6-0.7-1-1.4-1.4-2
		C235.8,261,237.9,254.8,238.7,252.8z"/>
	<path class="st9" d="M238.9,222.1c0,0-7.2,6-1.2,17.4L238.9,222.1z"/>
	<path class="st9" d="M313.6,322.7c-2.3,0.5-4.2,2.2-4.6,4.2c-0.7,3,2,5.4,3.7,6.4c0.4,0.2,3.5,1.9,6.4,0.3c0.3-0.2,2.1-1.2,2.5-2.8
		C322.1,328.2,319.1,324.6,313.6,322.7z"/>
	<path class="st10" d="M253.8,193.3c0,0-21.7,19.5-23.6,22.3c-1.9,2.8-5.6,18.9,7.5,28.1l-0.4,21.6c0,0,1.2,2.6,3.9,3.8l-10.9,74.8
		c0,0-3.7,7.7,48.2,8.9c52,1.2,72-4.1,72-4.1L344,296l9.6-42c0.5,0.8,1.3,1.8,2.3,2.9c1.4,1.5,2.5,2.5,2.6,2.6
		c2.2,1.8,14.6-5,29.4-16.7c0,0,1-2.1-1.3-6.4c-2.3-4.3-19.5-33-19.5-33s-18.4-6.3-21.2-15.3L253.8,193.3z"/>
	<g>
		<path class="st11" d="M261.9,260.3l0,0.8c0,2.7,0.2,4.7,0.7,5.8c0.5,1.1,1.6,1.8,3.2,1.9c1.7,0.1,2.8-0.4,3.3-1.6
			c0.3-0.7,0.5-1.9,0.6-3.6l0.7-24.8l7.5,0.4l-0.7,24.6c-0.1,3-0.7,5.4-1.7,7.1c-1.8,2.9-5,4.2-9.5,3.9c-4.5-0.3-7.5-1.7-9-4.2
			c-1.5-2.5-2.2-5.8-2-10l0-0.8L261.9,260.3z"/>
	</g>
	<g>
		<path class="st11" d="M259.3,322.3c0.3,0,0.9-0.2,1-0.4l-0.1,0l8.8-12.7l1.5,0.1l-0.4,12.8c0,0.4,0.4,0.9,1,0.9l5.6,0.3
			c0.6,0,1.1-0.4,1.1-0.8l0.5-19.1c0-0.4-0.4-0.9-1-0.9l-3.6-0.2c0.7-1,1.5-2,2.2-3l2.7-3.9l0.2-5.6c0-0.4-0.4-0.9-1-0.9l-11.1-0.7
			c0,0-12.2-0.7-12.5,9.6c-0.2,5.8,3.4,8.6,6.7,9.9l-8.8,12.8l0,0c-0.5,0.6,0,1.3,0.8,1.4L259.3,322.3z M265.3,301.8
			c-1.6-0.2-3.5-1-3.4-3.4c0.1-3.2,3.6-3,4.6-2.9l3.2,0.2L265.3,301.8z"/>
	</g>
	<g>
		<path class="st11" d="M296.3,297.1l-0.2,6.6l12.7,0.8c0.6,0,1,0.5,1,0.9l-0.1,5.3c0,0.4-0.4,0.8-1,0.8l-12.7-0.8l-0.2,6.6
			l15.4,0.9c0.6,0,1.1,0.5,1.1,1l-0.2,5.5c0,0.4-0.5,0.8-1.1,0.8l-22-1.3c-0.6,0-1-0.5-1-0.9l0.9-32.7c0-0.4,0.4-0.9,1.1-0.8
			l21.6,1.3c0.6,0,1,0.5,1,0.9l-0.1,5.3c0,0.4-0.5,0.9-1.1,0.8L296.3,297.1z"/>
	</g>
	<path class="st11" d="M293.1,274.8c1.6,0.7,3.5,1.3,5.7,1.5c11.3,1.4,17.8-6.7,18.6-15.3c0.5-4.9-1-10.2-4.4-13.9l1-4.7
		c-1.6,0.5,0.6-0.6-0.2-0.7l-3.8-0.1c-0.5-0.1-0.8,0.1-0.9,0.3l-1.7,1c-1.5-0.6-3.3-1.2-5.3-1.4c-11.4-1.4-17.9,6.6-18.7,15.3
		c-0.5,5,0.9,10.2,4.4,14c-1.1,1.5-2.6,3.4-3.6,4.9l0.1,0c-0.1,0.1-0.1,0.2-0.1,0.2l8,0.5L293.1,274.8z M308.2,252.8
		c1.3,2.1,1.9,4.8,1.6,7.4c-0.5,5.2-4.2,10-10.4,9.3c-0.9-0.1-1.7-0.3-2.5-0.6L308.2,252.8z M290.9,257.9c0.5-5.3,4.1-10.2,10.4-9.4
		c0.7,0.1,1.5,0.3,2.2,0.5l-11.2,15.9C291.1,262.8,290.7,260.4,290.9,257.9z"/>
	<path class="st11" d="M317,241.6c-2.9-0.2-5.7-0.3-8.6-0.5c-8.3,11.3-16.7,23.2-25.1,34.9l8.9,0.5
		C300.5,264.8,308.8,252.9,317,241.6z"/>
	<path class="st11" d="M250.6,321.8c3.1,0.2,6.3,0.4,9.4,0.6c7.8-10.8,15.5-22,23.3-33l-9.1-0.5
		C266.3,299.8,258.5,310.9,250.6,321.8z"/>
	<path class="st12" d="M360.5,259.3c3.7-1.4,7.8-3.3,12.1-5.8c5.5-3.1,10.1-6.4,13.8-9.5c0,0,15.4,30.4,11.7,40.3
		c0,0-37.5,27.3-39.7,31.9c0,0-3.3,12.5-6,13.6c0,0-16.7,4.6-25.2-4.2l-7.4,3.2c0,0-5,2.1-7.7-2.8s2.8-7.8,2.8-7.8
		c4.2-2.8,8.4-5.6,12.7-8.7c5.5-3.8,10.7-7.7,15.8-11.5c0.9-3.4,1.8-6.8,2.6-10.2c0.5-0.3,1.9-1.3,4-1.3c2.6,0.1,4.2,1.7,4.5,2
		c0,0,12.3-8.8,13.5-12.6c-1-2.6-2.2-5.3-3.4-8.1C363.2,264.8,361.9,262,360.5,259.3z"/>
	<polyline class="st13" points="276.2,353.6 288.1,441.8 300.1,501 	"/>
	<path class="st14" d="M358.1,316.9c0,0,1.5-7.3,0.2-11.9"/>
	<line class="st14" x1="342.4" y1="298.8" x2="349" y2="294.6"/>
	<path class="st14" d="M367.8,276.5c0,0,2.1-2.6,8.1-1.5"/>
	<line class="st14" x1="237.7" y1="243.8" x2="239.1" y2="221.4"/>
	<path class="st14" d="M353.8,254.2c0,0-7-10.8-8.5-14.1"/>
	<line class="st14" x1="326.9" y1="325.6" x2="335.3" y2="321.5"/>
	<path class="st15" d="M208.3,122.8c-7.1-13.5-7-26.7-0.5-32.5c1.3-1.2,3.5-2.6,7.2-3.2c-1.6-2.8-6.1-11.4-3-20.1
		c1.9-5.4,6-8.2,13.8-13.6c2.6-1.8,9-6,18.7-9.7c8.3-3.1,14.8-4.2,22.5-5.5c7.9-1.3,13.7-1.8,22.2-2.4c10.8-0.8,16.2-1.2,23.9-1
		c6.5,0.2,16.4,0.5,28.7,3.5c8.9,2.2,15.3,3.7,22.5,8.7c7.4,5.1,11.6,10.9,13.2,13.2c3.4,5,5.1,9.6,5.9,11.8
		c1.3,3.7,1.7,6.6,2.4,10.7c0.8,5.1,1.2,9.3,1.4,12.5c0.2,2.6,0.4,5.4,0.3,8.3c0,5-0.4,9.5-1,13.5c0,3.3-0.4,8.2-2.4,13.5
		c0,0-3.3,8.6-11.7,15.7C361.9,154.8,296.1,146.6,208.3,122.8z"/>
	<g>
		<path class="st16" d="M288.8,227.8c-1.3,0-2.6-0.1-3.9-0.3c-6.5-1-11.2-3.4-14-7.2c-2.3-3.1-3.1-7.2-2.5-11.9
			c-21.5-6.6-39.9-21.8-50.4-41.8c-0.9-1.8-1.8-3.6-2.6-5.4c-0.3,0.2-0.7,0.3-1,0.3c-0.2,0-0.4,0.1-0.6,0.1c-4.8,0-8.9-9.1-10.4-18
			c-1.6-9.6-0.6-19.7,4.5-20.6c0.1,0,0.3,0,0.4,0c-0.1-8.4,1.6-16.8,4.9-24.3c2-4.4,4.6-8.6,7.7-12.4c4-4.9,8.7-8.9,14-11.9
			c7-3.9,13.4-5.1,20.2-6.4c6.5-1.2,11.3-1.4,19.2-1.8c3.3-0.1,6.4-0.2,9.6-0.2c4,0,7.9,0.1,11.3,0.2c19.3,0.5,25.6,2,27.6,2.5
			c9.8,2.2,16.3,3.7,17.6,8.6c1,3.7-1.1,9-2.9,13.8c-1,2.5-2,5-2,6.2c0,0.4,0,1.4-0.1,2.8c0,0.4-0.1,0.7-0.1,1
			c-0.1,0.5-0.1,0.9-0.1,1.4c0.3,3.5,3.3,5.5,6.8,7.9c3.1,2.1,6.4,4.4,8.1,8c2,4.4,1.3,10-2,16.7c1.2-0.2,2.5-0.7,3.8-1.4
			c3.5-2,5.1-5.3,5.6-6.8c0.4-2.5,1-4.9,1.9-7.3c1-2.6,1.6-4.5,3.2-6.4c2.1-2.5,5.9-5.3,9.5-5.3c9.1,0,16.2,12.2,16.2,27.9
			s-7.1,27.9-16.2,27.9c-0.7,0-1.3-0.1-2-0.2c-2.7,5.8-6.1,11.3-10.1,16.3c-10.5,13.3-24.5,23-40.5,28.2
			C314.2,215.5,303.2,227.8,288.8,227.8z"/>
		<g>
			<path d="M283.9,67.3c3.9,0,7.4,0.1,11.2,0.2c18.6,0.5,25,1.9,27.3,2.4c9.3,2.1,15.5,3.5,16.6,7.6c1.5,5.2-4.9,15.9-5,19.6
				c0,0.1,0.1,1.2-0.1,2.7c-0.1,1.2-0.3,1.6-0.2,2.6c0.7,7.6,11.6,9.1,15,16.4c1.5,3.3,1.9,8.7-3.2,17.8c1.4,0,4.1-0.2,6.9-1.8
				c4.3-2.5,5.8-6.5,6.2-7.6c0.3-1.8,0.8-4.3,1.8-7.2c0.9-2.5,1.6-4.3,3-6c2.1-2.6,5.6-4.8,8.5-4.8c8.2,0,14.8,11.9,14.8,26.5
				s-6.6,26.5-14.8,26.5c-0.9,0-1.9-0.2-2.8-0.5c-2.8,6.1-6.3,11.8-10.4,17.1c-10.2,12.9-24.2,22.8-40.2,27.9
				c-5.6,8-16.1,19.6-29.9,19.6c-1.2,0-2.4-0.1-3.7-0.3c-15.4-2.3-16.3-12.3-15.2-18.7c-22-6.4-40.3-21.6-50.7-41.5
				c-1.2-2.3-2.3-4.6-3.3-7c-0.5,0.6-1.1,1-1.8,1.2c-0.1,0-0.3,0-0.4,0c-3.4,0-7.4-7.3-9-16.9c-1.7-9.9-0.2-18.4,3.4-19
				c0.1,0,0.3,0,0.4,0c0.4,0,0.8,0.1,1.2,0.3c-0.3-5.5,0.1-15,4.8-25.4c2.3-5.1,5.1-9.1,7.5-12.1c2.7-3.3,7.1-7.9,13.6-11.5
				c6.8-3.8,12.9-5,19.7-6.2c6.4-1.2,11.2-1.4,19-1.7C277.8,67.4,280.9,67.3,283.9,67.3 M283.9,64.6c-3.2,0-6.4,0.1-9.7,0.2
				c-8,0.3-12.8,0.5-19.4,1.8c-6.9,1.3-13.4,2.5-20.6,6.5c-5.5,3.1-10.3,7.2-14.4,12.2c-3.2,3.9-5.8,8.2-7.9,12.7
				c-3.3,7.3-5,15.5-5.1,23.7c-5.6,1.8-6.5,12.5-4.9,22c1.6,9.6,5.9,19.2,11.8,19.2c0.3,0,0.6,0,0.9-0.1c0.7,1.5,1.4,3,2.2,4.4
				c10.5,20,28.7,35.3,50.1,42.1c-0.4,4.5,0.6,8.5,2.9,11.7c3,4.1,8,6.7,14.9,7.8c1.4,0.2,2.8,0.3,4.1,0.3c14.9,0,26-12.2,31.6-20
				c16.1-5.3,30.1-15.2,40.7-28.6c3.8-4.8,7.1-10.1,9.8-15.6c0.4,0,0.8,0.1,1.2,0.1c9.9,0,17.6-12.8,17.6-29.3s-7.7-29.3-17.6-29.3
				c-4.1,0-8.3,3-10.6,5.8c-1.7,2.1-2.4,4.1-3.4,6.8c-0.9,2.4-1.5,4.9-1.9,7.4c-0.5,1.3-1.9,4.2-4.9,5.9c-0.2,0.1-0.3,0.2-0.5,0.3
				c2.4-5.9,2.6-10.9,0.7-15c-1.9-4-5.4-6.4-8.6-8.6c-3.7-2.5-5.9-4.2-6.2-6.9c0-0.4,0-0.6,0.1-1.1c0-0.3,0.1-0.6,0.2-1
				c0.1-1.4,0.1-2.5,0.1-2.9v0c0-1,1-3.6,1.8-5.7c1.9-4.9,4.1-10.6,2.9-14.7c-1.6-5.7-8.4-7.2-18.7-9.6c-2.1-0.5-8.5-1.9-27.9-2.5
				C291.8,64.7,287.9,64.6,283.9,64.6L283.9,64.6z"/>
		</g>
	</g>
	<path class="st14" d="M377.6,134.8c0,0,3.2-15-4.4-17.8"/>
	<path class="st14" d="M371.5,149.2c0,0-5.2-0.4-4.8-8.4c0,0,5.8,0.9,5.8-4.2c0-5.1-6.9-3.7-6.9-3.7s-1.7-15.2,7.6-15.9
		c9.2-0.7,9.7,15.5,9.7,15.5s0.9,9-3.2,13.6"/>
	<path class="st17" d="M246.1,116.9c7.6-1.5,14.9,3.6,16.5,11.5l3.1-0.6c-1.9-9.7-10.9-15.8-20.2-14c-9.3,1.8-15.4,10.8-13.5,20.5
		l3.1-0.6C233.6,125.9,238.5,118.4,246.1,116.9z"/>
	<path class="st17" d="M298,109.4c7.6-0.3,14.1,5.8,14.3,13.7l3.1-0.1c-0.4-9.8-8.2-17.1-17.6-16.8c-9.4,0.3-16.7,8.2-16.3,18
		l3.1-0.1C284.4,116.2,290.4,109.7,298,109.4z"/>
	<g>
		<path class="st18" d="M292.7,212.2c-7.9,0-15.6-1.1-23.1-3.3c-24.5-7.1-46-26.2-53.5-47.5c-1-3-1.9-6.1-2.5-8.9
			c0.8,1.6,1.8,3.2,3,4.8c1.3,1.8,2.4,3,2.7,3.4c2.7,2.9,5.5,5,9.1,7.6c4.1,3,5.6,3.4,6.6,3.4c0.5,0,1-0.1,1.4-0.4
			c2-1.3,1.5-4.7,0.8-8.7c-0.3-1.6-0.6-2.5-0.8-3.2c-0.3-0.8-0.4-1.2-0.4-2c0-3.3,2.4-5.9,2.5-6c1.1-1.2,4.6-2.3,10.5-3.2
			c4.7-0.7,7.7-1.2,10.3-1.2c1,0,1.9,0.1,2.8,0.2c2.1,0.3,3.5,0.8,4.7,1.2c1.4,0.5,2.7,0.9,4.5,0.9c0.4,0,0.7,0,1.2-0.1
			c4-0.4,6.7-2.3,8.6-3.6c0.2-0.2,0.4-0.3,0.6-0.5c3-2,5.1-2.2,19-3c3.4-0.2,7.5-0.4,12.4-0.8l1.3-0.1c4.1-0.3,7.4-0.5,10.1-0.5
			c4.6,0,7.1,0.6,9.3,2.4c1.1,0.8,3.4,2.6,4.4,5.6c0.5,1.4,0.5,2.4,0.5,4c0,1.1,0,2.3,0.2,3.9c0.3,2.6,0.8,5.2,1.7,7.7l0.6,1.7
			l1.5-1.1c3.7-2.6,6.9-5.8,9.5-9.5l0.2-0.3c0.7-1,2.5-3.4,3.8-7c1.8-4.9,2.8-10.3,3.5-14.8c4.6,10.3,1.5,28.9,1.4,29.1l-0.1,0.5
			l0.2,0.4c0.7,1.3,1.6,2.2,2.7,2.8c0.9,0.5,1.9,0.7,3,0.7c0.1,0,0.3,0,0.4,0c-4.2,8.5-9.6,15.9-16.2,22.3
			C335.7,203.8,314.4,212.2,292.7,212.2z"/>
		<g>
			<path d="M359.8,139.6c1.5,8.1,0.5,18.4-0.3,22.8l-0.2,0.9l0.4,0.8c0.8,1.5,1.9,2.7,3.3,3.4c0.6,0.3,1.2,0.6,1.9,0.7
				c-4,7.6-9,14.3-15,20c-15,14.3-35.9,22.5-57.3,22.5c-7.7,0-15.4-1.1-22.7-3.2c-12-3.5-23.4-9.8-32.8-18.3
				c-9.3-8.3-16.1-18.1-19.8-28.4c-0.1-0.2-0.1-0.4-0.2-0.6c0.6,0.7,1,1.2,1.2,1.3c2.8,3,5.7,5.1,9.4,7.8c4.2,3,6,3.7,7.4,3.7
				c0.8,0,1.5-0.2,2.2-0.6c2.9-1.9,2-6.5,1.4-10.1c-0.3-1.7-0.7-2.7-0.9-3.4c-0.2-0.7-0.3-1-0.3-1.6c0-2.8,2-5,2.1-5.1
				c0.3-0.3,2-1.6,9.7-2.8c4.6-0.7,7.6-1.2,10.1-1.2c0.9,0,1.7,0.1,2.6,0.2c2,0.3,3.2,0.7,4.4,1.1c1.4,0.5,2.9,1,5,1
				c0.4,0,0.8,0,1.3-0.1c4.4-0.4,7.3-2.5,9.2-3.8c0.2-0.2,0.4-0.3,0.6-0.4c2.6-1.8,4.2-1.9,18.3-2.7c3.3-0.2,7.5-0.4,12.4-0.8
				l1.3-0.1c4.1-0.3,7.4-0.5,10-0.5c4.3,0,6.5,0.5,8.5,2.1c1.1,0.8,3.1,2.4,3.9,4.9c0.4,1.1,0.4,2,0.4,3.5c0,1,0,2.3,0.2,4
				c0.3,2.7,0.9,5.4,1.8,8l1.2,3.5l3-2.1c3.8-2.7,7.1-6,9.8-9.8c0-0.1,0.1-0.1,0.2-0.3c0.8-1.1,2.6-3.5,4-7.3
				C358.3,145.8,359.2,142.6,359.8,139.6 M358.6,129.4c-0.4,3.3-1.4,11.3-4,18.5c-1.4,3.9-3.3,6.3-3.8,6.9c-3.1,4.5-6.7,7.4-9.1,9.1
				c-0.5-1.6-1.3-4.1-1.6-7.4c-0.4-3.9,0.2-5.6-0.7-8.1c-1.1-3.4-3.7-5.3-4.8-6.2c-2.6-2-5.5-2.6-10.2-2.6c-3,0-6.7,0.3-11.5,0.6
				c-25.8,1.7-28,1.2-32.1,4c-1.8,1.2-4.5,3.4-8.5,3.8c-0.4,0-0.7,0-1,0c-3.1,0-4.4-1.4-9-2.1c-1-0.1-2-0.2-3-0.2
				c-2.7,0-5.7,0.5-10.5,1.3c-9,1.4-10.6,3-11.3,3.6c-0.3,0.3-2.8,3.1-2.8,7c0,1.9,0.7,2.3,1.3,5.5c0.5,2.5,1.2,6.4-0.2,7.3
				c-0.2,0.1-0.4,0.2-0.6,0.2c-0.9,0-2.4-0.7-5.8-3.1c-3.6-2.6-6.4-4.6-8.9-7.5c-0.5-0.6-1.5-1.6-2.6-3.1
				c-5.3-7.4-6.8-14.7-7.1-14.7c0,0,0,0,0,0c-0.3,0,0.9,10.8,4.2,20.1c7.6,21.6,29,40.9,54.4,48.3c7.7,2.2,15.6,3.3,23.4,3.3
				c22.4,0,44-8.7,59.2-23.3c9.3-8.9,14.7-18.5,17.8-25.4c-0.1,0.1-1.4,0.7-2.9,0.7c-0.7,0-1.6-0.1-2.4-0.6
				c-0.8-0.4-1.5-1.1-2.1-2.2C362.3,162.8,366.4,139,358.6,129.4L358.6,129.4z"/>
		</g>
	</g>
	<path class="st19" d="M332.5,156.7c2.2,4.3,4.4,10.3,4.7,17.7c0.2,4.3,0.4,9.2-2.4,14.4c-2.7,5-6.8,7.8-9,9
		c-1.7,0.7-19.3,8.4-26.3,6.1c-0.6-0.2-2.1-0.7-3.3-2.1c-2.3-2.8-1.4-7-1-8.3C307.6,181.2,320,168.9,332.5,156.7z"/>
	<path class="st19" d="M242.1,159.8c-0.3,5.2-0.1,12.4,1.9,20.4c1.1,4.4,2.5,8.1,4,11.3c1.8,1.2,16.5,11.4,23.2,10
		c0.8-0.2,2.6-0.5,3.6-2c1.3-1.9,0.4-4.8,0.1-6.2c-0.3-1-0.6-1.7-0.9-2.3C263.4,180.7,252.7,170.2,242.1,159.8z"/>
	<g>
		<path class="st20" d="M286.3,196.1c-10.3,0-24.6-3.6-33.3-11.7c-9.4-8.8-12.5-23.8-10.8-27.2c0.7-1.5,2.2-2.2,4.3-2.2
			c0.8,0,1.4,0.1,1.7,0.2c5.1,2.2,11.3,3.3,18.6,3.3c21.5,0,45.1-9.4,47.7-10.4c0.3,0,1-0.1,1.9-0.1c12.8,0,16.2,8,17.1,12.8
			c2.7,14.5-3.3,22.6-4,23.5c-11.9,10-30.6,11.2-40.6,11.8C288.1,196,287.2,196.1,286.3,196.1z"/>
		<path d="M316.4,149.2c5.1,0,13.9,1.5,15.8,11.7c1.1,6.1,0.8,11.7-0.9,16.7c-1.1,3.2-2.4,5-2.8,5.5c-11.6,9.6-29.9,10.8-39.7,11.4
			c-0.8,0.1-1.6,0.1-2.5,0.1c-10,0-24-3.5-32.4-11.3c-9.3-8.6-11.8-23-10.5-25.6c0.2-0.4,0.7-1.5,3.1-1.5c0.6,0,1,0.1,1.3,0.1
			c5.2,2.2,11.6,3.3,19,3.3c21.3,0,44.6-9,48-10.4C315.1,149.3,315.7,149.2,316.4,149.2 M316.4,146.5c-1.4,0-2.3,0.1-2.3,0.1
			s-25,10.3-47.3,10.3c-6.5,0-12.8-0.9-18.2-3.2c0,0-0.9-0.2-2.1-0.2c-1.8,0-4.3,0.5-5.6,3c-2.1,4.2,1.4,19.8,11.1,28.9
			c8.9,8.3,23.6,12.1,34.3,12.1c0.9,0,1.8,0,2.6-0.1c10.8-0.7,29.5-2.1,41.5-12.2c0,0,7.4-8.5,4.4-24.7
			C332.6,147.9,321.3,146.5,316.4,146.5L316.4,146.5z"/>
	</g>
	<path d="M243,166.4c0,0,3.6,6.8,10.2,4.3c0,0,2.8,3.8,8.1,2.3c0,0,2.9,1.9,0,2.8s-6.1,0.3-7.6-0.9c0,0-6.2-1.4-6.4,1.3L243,166.4z"
		/>
	<path d="M332,155.5c0,0-1.4,10.6-10.6,14.7c0,0-3.3,2.3-10.9,0.5c0,0-0.9,3.1-10.2,3.1c0,0-3.5,2.3-6.2,0.3c0,0-3.5,1.7,0,2.4
		c3.5,0.7,1.9-1.9,7.6-0.4c0,0,5-3.2,10.2-1.1c5.2,2.1,12.3-4.3,20.1,2.6l2.4-5l-0.3-9.7L332,155.5z"/>
</g>
</svg>
