<svg id="code" xmlns="http://www.w3.org/2000/svg" viewBox="0 1001 1000 1000"><style>.st0{fill:#ebebeb}</style><title>code</title><path class="st0" d="M578.1 1266.1l-21.8-6c-2.7-.9-5.7-.6-8.2.8-2.6 1.4-4.6 3.7-5.5 6.5l-130.9 453.7c-1 2.9-.7 6 .8 8.6 1.4 2.6 3.7 4.5 6.5 5.4l21.8 6c2.7 1 5.8.7 8.3-.8 2.6-1.4 4.5-3.7 5.4-6.5l130.9-453c.9-2.9.6-6-.9-8.6-1.2-2.9-3.5-5.1-6.4-6.1z"/><path d="M382 1354.8c0-3.1-1.3-6-3.5-8.1l-17.5-17.5c-4.1-4.5-11.1-4.7-15.6-.6l-.6.6-163.6 163.5c-4.5 4.1-4.7 11.1-.6 15.6l.6.6 163.6 163.5c4.1 4.5 11.1 4.7 15.6.6l.6-.6 17.5-17.5c4.5-4.1 4.7-11.1.6-15.6l-.6-.6-137.9-137.9 137.9-137.9c2.2-2.2 3.5-5.1 3.5-8.1zM816.4 1492.7l-163.6-163.5c-4.1-4.5-11.1-4.7-15.6-.6l-.6.6-17.5 17.5c-4.5 4.1-4.7 11.1-.6 15.6l.6.6L757 1500.8l-137.9 137.9c-4.5 4.1-4.7 11.1-.6 15.6l.6.6 17.5 17.5c4.1 4.5 11.1 4.7 15.6.6l.6-.6 163.6-163.6c4.5-4.1 4.7-11.1.6-15.6-.2-.1-.4-.3-.6-.5z"/></svg>