<svg id="Layer_1" xmlns="http://www.w3.org/2000/svg" width="67.7" height="81.4" viewBox="0 0 67.7 81.4"><style>.st0{fill:#d4d4d4}</style><path class="st0" d="M67.5 49.5c-.3-1.2-1-2.2-1.8-3 .5-2.4.8-4.8.8-7.3 0-3.2-.5-6.4-1.4-9.3v-7c0-14.2-12.6-17.1-15.6-17.6C46.8 1.8 43 0 38.4 0c-5.7 0-10.9 2.7-12.7 3.7-2.2-.8-4.4-1.2-6.4-1.2-6.9 0-10.8 5.2-12.2 8.4-2.4.8-4.2 2.2-5.4 4.4-3.7 6.5-.5 17.1-.3 17.5.1.3.2.5.5.7-.3 1.9-.5 3.8-.5 5.7 0 2.3.2 4.5.7 6.6-.8 1-1.6 2.2-1.9 3.6-.3 1.7 0 3.4 1.1 5-.4 2.7.2 7.2 4.2 8.8.3 3.2 2 7.8 7 8.4.8 2.9 3.1 7 7.8 7 .3 0 .7 0 1.1-.1 1.1.9 3.8 2.8 7.5 2.8 1.8 0 3.6-.5 5.3-1.4 1.9.8 3.7 1.1 5.3 1.1 4.4 0 6.6-2.6 7.5-4.1.3 0 .7.1 1 .1 4.4 0 6.6-3.3 7.5-5.7 5-.6 6.8-5.3 7.1-8.4 4-1.6 4.6-6.1 4.2-8.8 1.1-1.8 1-3.5.7-4.6M34 60.9c-6.3 0-11.4-3.9-13.6-9.5h27.2c-2.2 5.5-7.3 9.5-13.6 9.5m26.8-17.7c-.6-.2-1.3-.4-2-.4-2.5 0-4.6 1.6-5.8 2.8-1.3-1.1-2.8-1.7-4.4-1.7-2.3 0-4.2 1.2-5.3 1.9-1.2-.5-2.4-.7-3.6-.7-2.6 0-4.6 1.1-5.7 1.9-1.6-1.2-3.4-1.8-5.5-1.8-1.6 0-3.1.4-3.9.7-1.6-1.1-3.3-1.6-5.1-1.6-1.9 0-3.4.7-4.4 1.3-2.2-2.4-4.7-2.9-6.5-2.9-.6 0-1.1.1-1.6.1-.2-1.2-.3-2.3-.3-3.5 0-6.1 2.1-11.8 5.5-16.3.7.1 1.4.1 2.1.1 8 0 14.6-4.4 19-7.4 1.5-1 2.9-1.9 3.9-2.4.7-.3 1.4-.5 2.1-.7C51.7 15 61.1 26 61.1 39.2c0 1.3-.1 2.7-.3 4"/><path class="st0" d="M28.2 34.2c0 2.2-1.8 4-4 4s-4-1.8-4-4 1.8-4 4-4 4 1.8 4 4m19.6 0c0 2.2-1.8 4-4 4s-4-1.8-4-4 1.8-4 4-4 4 1.8 4 4"/></svg>