<svg id="draw" xmlns="http://www.w3.org/2000/svg" width="1000" height="1000" viewBox="0 0 1000 1000"><style>.st0{fill:#ebebeb}.st1{fill:#a1e7ff}.st2{fill:#fff}</style><title>illustration</title><path transform="rotate(-45.001 656.129 272.975)" class="st0" d="M622.9 237.2h66.5v71.6h-66.5z"/><path transform="rotate(-45.001 386.252 541.638)" class="st1" d="M377.6 508.5h17.3v66.2h-17.3z"/><path d="M379.5 607.3c-7.9 0-15.4-3.1-20.9-8.7l-30.7-30.7c-11.6-11.6-11.6-30.3 0-41.9L634 220.3c11.7-11.2 30.2-11.2 41.9 0l30.7 30.7c11.5 11.6 11.5 30.3 0 41.9l-306 305.8c-5.6 5.6-13.2 8.7-21.1 8.6zm-37.5-53l30.7 30.7c3.9 3.8 10.1 3.8 13.9 0l306-306.4c3.8-3.9 3.8-10.1 0-13.9L661.9 234c-3.9-3.7-10-3.7-13.9 0L342.1 540.4c-3.9 3.8-3.9 10-.1 13.9z"/><path class="st1" d="M299.9 627.4l-4.7 5.2c-4.4 4.9-8.5 10-12.3 15.3-5.9 8.1-11.1 16.7-15.4 25.8-5.5 11.4-8.9 23.7-10.1 36.4-1.7 14.2 2.4 28.4 11.3 39.6 10.9 11.4 25.1 19.2 40.6 22.2 8.4 2 16.9 3.4 25.5 4.1l14.1.6c4.2-.3 8.4-.3 12.8-.7 17.9-2.4 35.2-8.1 51.1-16.8 16.8-8.4 33.3-18.4 50.7-27.5 17.1-9.1 35.2-16.1 54-20.9 4.6-1.4 9.2-2.2 13.6-3.1 4.4-.9 9.3-1.6 13.8-2.1 8.8-1 17.6-1.5 26.5-1.5 16.1.1 32.1 1.7 47.8 5 13.4 2.6 26.5 6.2 39.4 10.9 9.7 3.3 19.1 7.1 28.4 11.4 7.8 3.4 13.7 6.7 17.7 8.8l6.1 3.3-6.6-2.3c-4.3-1.5-10.6-3.7-18.4-6.1-4.2-1.1-8.7-2.4-13.6-3.7-4.9-1.3-10.2-2.8-15.9-4.1-12.7-3-25.5-5.3-38.5-6.9-15.2-1.7-30.5-2.1-45.7-1.3-8.2.4-16.4 1.4-24.6 2.8-4.2.7-8.3 1.6-12.3 2.5s-8.6 2-12.7 3.4c-17.2 5.3-33.9 12.3-49.7 21.1-16.5 8.7-32.8 19.1-50.7 28.2-18.2 9.4-38 15.4-58.4 17.7-5.2.4-10.5.4-15.7.6l-14.1-1.1c-9.8-1.1-19.5-3-28.9-5.6-18.9-4.5-35.8-15.2-48-30.3-5.3-7.3-8.9-15.7-10.6-24.6-1.3-8.1-1.3-16.4 0-24.6 2.3-13.7 7.3-26.8 14.7-38.6 9-14.5 20.3-27.5 33.5-38.3l5.3-4.8z"/><path class="st2" d="M712.3 198.2l17.6 17.6c2.4 2.4 2.4 6.3 0 8.7l-27.4 27.4c-2.4 2.4-6.3 2.4-8.7 0l-17.6-17.6c-2.4-2.4-2.4-6.3 0-8.7l27.4-27.4c2.4-2.4 6.3-2.4 8.7 0z"/><path d="M698.2 262.1c-5.2 0-10.3-2.1-13.9-5.8L672 244c-7.7-7.7-7.7-20.2 0-27.9l22.2-22.1c7.8-7.4 20.1-7.4 27.9 0l12.3 12.3c7.7 7.7 7.7 20.2 0 27.9l-22.2 22.1c-3.7 3.7-8.7 5.8-14 5.8zm0-19.7l-7 7 7-7zm9.5-34.6l-22.1 22.1 12.3 12.3 22.2-22.1-12.4-12.3z"/><path transform="rotate(-74.021 319.327 579.426)" d="M278 569.6h82.6v19.7H278z"/><path transform="rotate(-16.199 344.68 608.337)" d="M304.6 598.5h80.1v19.7h-80.1z"/><circle cx="306.5" cy="620.4" r="8.8"/><path transform="rotate(-45.001 672.476 254.162)" d="M665.1 219.8h14.7v68.8h-14.7z"/></svg>