<svg xmlns="http://www.w3.org/2000/svg" width="100" height="100" viewBox="0 0 100 100"><title>illustration</title><path fill="#86aedd" d="M76.306 6.428l8.245 8.244-7.658 7.658-8.245-8.244z"/><path fill="#d9d9d9" d="M29.85 53.31l7.622 7.623-1.987 1.986-7.622-7.622z"/><path d="M31.56 68.82a4.81 4.81 0 0 1-3.41-1.41l-5-5a4.82 4.82 0 0 1 0-6.82L73 5.79a4.94 4.94 0 0 1 6.82 0l5 5a4.83 4.83 0 0 1 0 6.82L35 67.41a4.81 4.81 0 0 1-3.44 1.41zm-6.1-8.64l5 5a1.61 1.61 0 0 0 2.27 0l49.82-49.89a1.61 1.61 0 0 0 0-2.27l-5-5a1.65 1.65 0 0 0-2.27 0L25.47 57.91a1.61 1.61 0 0 0 0 2.27z"/><path d="M18.61 72.09l-.76.85a29.17 29.17 0 0 0-2 2.49 25.44 25.44 0 0 0-2.5 4.2 17.3 17.3 0 0 0-1.64 5.92A8.73 8.73 0 0 0 13.55 92a12.55 12.55 0 0 0 6.61 3.62 26.57 26.57 0 0 0 4.15.67l2.29.1c.69-.05 1.37-.05 2.08-.12A24.13 24.13 0 0 0 37 93.54c2.73-1.36 5.43-3 8.25-4.48a40.14 40.14 0 0 1 8.79-3.41c.75-.22 1.5-.36 2.21-.51s1.51-.26 2.24-.34a35.54 35.54 0 0 1 4.31-.24 38.77 38.77 0 0 1 7.79.82A43.35 43.35 0 0 1 77 87.15 45.91 45.91 0 0 1 81.62 89c1.27.56 2.23 1.09 2.88 1.44l1 .53-1.08-.37c-.7-.25-1.73-.6-3-1-.68-.18-1.42-.39-2.21-.6s-1.66-.46-2.59-.67a54.33 54.33 0 0 0-6.27-1.12 44.6 44.6 0 0 0-7.44-.21 33 33 0 0 0-4 .46c-.68.11-1.35.26-2 .4s-1.4.33-2.06.55a42.33 42.33 0 0 0-8.09 3.43c-2.69 1.42-5.34 3.11-8.25 4.6A27.29 27.29 0 0 1 29 99.32c-.84.07-1.71.07-2.56.1l-2.29-.18a28.9 28.9 0 0 1-4.71-.92 14.3 14.3 0 0 1-7.81-4.94 9.76 9.76 0 0 1-1.72-4 12.25 12.25 0 0 1 0-4 17.27 17.27 0 0 1 2.39-6.28 25.29 25.29 0 0 1 5.45-6.24z" fill="#f15a24"/><rect x="81.22" y="2.42" width="6.06" height="8.31" rx="1" ry="1" transform="rotate(45 84.255 6.58)" fill="#fff"/><path d="M83.46 12.6a3.19 3.19 0 0 1-2.27-.94l-2-2a3.22 3.22 0 0 1 0-4.55l3.61-3.6a3.3 3.3 0 0 1 4.55 0l2 2a3.22 3.22 0 0 1 0 4.55l-3.61 3.6a3.19 3.19 0 0 1-2.28.94zm0-3.21l-1.14 1.14 1.14-1.14zM85 3.77l-3.6 3.6 2 2 3.61-3.6zM18.366 70.307l3.703-12.93 3.085.883-3.702 12.93z"/><path d="M19.17 69.266l12.532-3.64.895 3.082-12.531 3.64z"/><circle cx="19.67" cy="70.94" r="1.44"/><path d="M76.154 6.501l7.92 7.92-1.69 1.69-7.92-7.92z"/></svg>